/* XPM */
static const char *Icon23[] = {
/* columns rows colors chars-per-pixel */
"32 32 63 1 ",
"  c black",
". c #000201",
"X c #000202",
"o c #000605",
"O c #0F0A06",
"+ c #000808",
"@ c #020D08",
"# c #110C06",
"$ c #001110",
"% c #021814",
"& c #031915",
"* c #001916",
"= c #201108",
"- c #2D150C",
"; c #0B230D",
": c #05211A",
"> c #03231C",
", c #04251E",
"< c #133C12",
"1 c #31231A",
"2 c #052920",
"3 c #083125",
"4 c #0A3225",
"5 c #103F2D",
"6 c #183A2C",
"7 c #3F3226",
"8 c #793E00",
"9 c #473B2D",
"0 c #104934",
"q c #185138",
"w c #195C3F",
"e c #204A32",
"r c #245336",
"t c #345F3A",
"y c #2F6B3F",
"u c #5B422E",
"i c #27764F",
"p c #3A7D45",
"a c #3A7E45",
"s c #5E5341",
"d c #675D4A",
"f c #706248",
"g c #726953",
"h c #797059",
"j c #A9730F",
"k c #4F9A4E",
"l c #4E9E50",
"z c #68B852",
"x c #DBA916",
"c c #FFDE34",
"v c #918462",
"b c #978C67",
"n c #978769",
"m c #B4A672",
"M c #8FDE62",
"N c #90D27C",
"B c #B9F37D",
"V c #D1FF67",
"C c #D8C880",
"Z c #E4D398",
"A c #DBD5BE",
"S c #FFF5CF",
"D c None",
/* pixels */
"DDDDDDDDDDDDDDDDDDDDDDDDDDDDDDDD",
"DDDDDDDDDDDDDDDD<DDDDDDDDDDDDDDD",
"DDDDDDDDDDDDDDD<V<D;DDDDDDDDDDDD",
"DDDDDDDDDDDDDDD<BN;M;DDDDDDDDDDD",
"DDDDDDDDDDDD;D<BNtMz;DDDDDDDDDDD",
"DDDDDDDDDDD;z;tNtMzz;DDDDDDDDDDD",
"DDDDDDDDDD;akzMtMzzkk;DDDDDDDDDD",
"DDDDDDDDDD@666zMzzkkaa;D@DDDDDDD",
"DDDDDDDDD@a6al666666666@a@DDDDDD",
"DDDDDDDXD@yeyylaealayyryy@DDDDDD",
"DDDDDDX3Xrrrryayryayr**rr@DDDDDD",
"DDDDDDXw0*******rrr**wi**XDXDDDD",
"DDDDDX3w*iw000ww***w00wi2wXqXDDD",
"DDDDDX302w03330wiw03330wi:w5XDDD",
"DDDDX:0330888>30w03>8880w:05:XDD",
"DDDX::3:008jX8*303*8Xj80w::3:XDD",
"DDDX*:::0w8xXc8:0:8cXx830:*3:XDD",
"DDDDX*:*3w088883w38888033:$:XDDD",
"DDDDDX*$300w00wwiww00w0*:*$XDDDD",
"DDDDDX*$:0303*******303$**oODDDD",
"DDDDDO+$::,:=ZSZ-ZSZ=::$*+1ODDDD",
"DDDDDO1+*:$*:=n-3-n=::**o11ODDDD",
"DDDDDO11++oX*:=:::=:*Xo+771ODDDD",
"DDDDDDO777ODXXXXXXXXXDO7s7ODDDDD",
"DDDDDDO7ssODDDDDDDDDDDOss7ODDDDD",
"DDDDDDO7dhODDDDDDDDDDDOhdsODDDDD",
"DDDDDO7dhCmODDDDDDDDDOmChg7ODDDD",
"DDDDO7s9Cmvb=DDDDDDD=mvmC9g7ODDD",
"DDD=7sumvf#=A=DDDDD=A=Ofvbus9=DD",
"DD=A=uA=OODD==DDDDD==DDOO=Au=A=D",
"DD==D==DDDDDDDDDDDDDDDDDDD==D==D",
"DDDDDDDDDDDDDDDDDDDDDDDDDDDDDDDD"
};
