/* XPM */
static const char *Icon13[] = {
/* columns rows colors chars-per-pixel */
"32 32 38 1 ",
"  c black",
". c #050101",
"X c #230F01",
"o c #250F0E",
"O c #370F03",
"+ c #201108",
"@ c #371B1B",
"# c #511A05",
"$ c #46221F",
"% c #702D0A",
"& c #6D3709",
"* c #783E0E",
"= c #5D3129",
"- c #773E2F",
"; c #7E3A2E",
": c #5B422E",
"> c #825112",
", c #905F16",
"< c #936217",
"1 c #934734",
"2 c #904A34",
"3 c #9C4D36",
"4 c #AE583B",
"5 c #CD6C3F",
"6 c #B0811F",
"7 c #BA9226",
"8 c #CBAC30",
"9 c #D9C538",
"0 c #F4EB3E",
"q c #FCFC4C",
"w c #A359BE",
"e c #B261CB",
"r c #DBD5BE",
"t c #E082F0",
"y c #FBA0FF",
"u c #FCF6D5",
"i c #FFC3F6",
"p c None",
/* pixels */
"pppppppppppppppppppppppppppppppp",
"ppppppppppp+pppppppppppppppppppp",
"pppppppppX+r+X++pppppppppppppppp",
"pppppppXX>>:8:u:Xppppppppppppppp",
"ppppppX,>>6890:00X++pppppppppppp",
"pppppX,,6*68900q::u+pppppppppppp",
"pppppX,67#>6890:ru+ppppppppppppp",
"pppppX>68@#66890::0Xpppppppppppp",
"pppppX>6@@$#6688909Xpppppppppppp",
"pppppX&>@$$$###6898Xpppppppppppp",
"ppppX6O>@$$==2@X686Xpppppppppppp",
"pppX6$O&$$=;32XpX6Xppppppppppppp",
"pppX6$=O&=;wewXppXpppppppppppppp",
"pppX,$=3O=wt twXpppppppppppppppp",
"pppX>6$=3o;yiy50Xppppppppppppppp",
"ppppX,9=;4o;14550Xpppppppppppppp",
"ppppX>89=14o;1459qXXXXpppppppppp",
"pppppX&89;14o;3450#689XXXXpppppp",
"pppXX&#890;3o=;349#>688990XXpppp",
"ppX&&>>#90q=3o=;329#>6688909Xppp",
"pX&&>>,%990=-o==;28O$$66689q9Xpp",
"pX&>>,%8999=$o$==$6O@$$=66<098Xp",
"pX&>,68999=$o@$$########%>0986Xp",
"pX&>,6889$$@o@@#09999990q09866Xp",
"ppX>>668$$@.@@#09866668999866>Xp",
"pppX>>@@@..p.#8996XXX>666666>Xpp",
"ppppX....ppppX689XpppXX>>>>XXppp",
"ppppppppppppppX689XXpppXXXXppppp",
"pppppppppppppppXX699Xppppppppppp",
"pppppppppppppppppXXXpppppppppppp",
"pppppppppppppppppppppppppppppppp",
"pppppppppppppppppppppppppppppppp"
};
