/* XPM */
static const char *Icon6[] = {
/* columns rows colors chars-per-pixel */
"32 32 65 1 ",
"  c #0C0801",
". c #0F0901",
"X c #010409",
"o c #040509",
"O c #01060C",
"+ c #02060C",
"@ c #090A0E",
"# c #180E02",
"$ c #180C05",
"% c #030B13",
"& c #040B12",
"* c #0D1011",
"= c #0E1110",
"- c #07121B",
"; c #06111C",
": c #07131F",
"> c #12141C",
", c #181A19",
"< c #1A1C1B",
"1 c #201108",
"2 c #1A2D1F",
"3 c #3D390A",
"4 c #0A1926",
"5 c #0D1D2B",
"6 c #0E1F2E",
"7 c #0D2030",
"8 c #102535",
"9 c #162D3E",
"0 c #2F2F29",
"q c #442E1D",
"w c #29422B",
"e c #31482E",
"r c #3A4F32",
"t c #365536",
"y c #5B422E",
"u c #415E3A",
"i c #495C38",
"p c #153043",
"a c #1C3446",
"s c #193548",
"d c #254357",
"f c #224961",
"g c #2F546A",
"h c #30576E",
"j c #4F6D41",
"k c #74654F",
"l c #617646",
"z c #974F0A",
"x c #59824D",
"c c #7D9859",
"v c #9D917F",
"b c #A39477",
"n c #F6CD4B",
"m c #437994",
"M c #5698B1",
"N c #67BDD2",
"B c #BBAB85",
"V c #A8C78B",
"C c #DBD5BE",
"Z c #C3F2B6",
"A c #8FDEEA",
"S c #FCF6D5",
"D c #DAFFE6",
"F c white",
"G c None",
/* pixels */
"GGGGGGGGGGGGGGGGGGGGGGGGGGGGGGGG",
"GGGGGG%%GGGGGGGGGG1GGGGGGG1GGGGG",
"GGGG%%%GGGGGGGG##%1%GGGGGG1GGGGG",
"GGGGG%%GGGGGG%%DD1F1%#GGG1F1GGGG",
"GGGG>G%GGGG%#MMZN1F1AF#GG1F1GGGG",
"GGG>GGGGGG%MZmVZM1S1NAF3G1S1GGGG",
"GGG>GGGGG%MVhmZDN1CS1NAF1SC1GGGG",
"GG>GGGGG#mmimMDDMM1S1NNF1S1GGGGG",
"GG@GGGG.cmacmMNZMM1CS1N1SC1GGGGG",
"GG@GGGOthahVMMMZVM1vC1N1Cv1%GGGG",
"GG@GGGXth0hVZMMmVV1kvaaavk1%GGGG",
"GGG@GX7p,cmMZZmamxx6amMNaam%GGGG",
"GGGGo:pp,cmmMVV0ff6mMMNANmam%GGG",
"GGGGG.jp5cmmmm%%:=mmmgNNgMm6%GGG",
"GGGGO4jp5ccmm%GG#VimznMNnzm<%GGG",
"GGGGO4p55hcma%G#Vl#gmzmMzm6V#GGG",
"GGGG.wpO5ahch%G#l.GOgmmgmm-x#GGG",
"GGGGO8OG#lhh#GG##GG%&gaam-s=0%GG",
"GGG.28%G%dlh%GGGGGGO7&gg%eumf%GG",
"GGGO4w#G%9dc%GGGGGO4p5OOG%dhV#GG",
"GGGO44%GG#dh#GGGGG$2pOGGG#lcm%GG",
"GGG$:2$GG%rd%GGGG$kbqb$GGG%h%GGG",
"GG$kbBk$GG%ll%GG$$$kBq$$GG#l#GGG",
"G$$$$kq$$G%dd#GGGGG$b$GGG1Cv1GGG",
"GGGGG$$GGG1rlC1GGGGG$GGG1CyS1GGG",
"GGGGGG$GG1vvSyC1GGGGGGG1FySCv1GG",
"GGGGGGGG1vCyCSyF1GGGGG111yFy111G",
"GGGGGGG11111vFy111GGGGGGG1v1GGGG",
"GGGGGGGGGGGG1C1GGGGGGGGGGG1GGGGG",
"GGGGGGGGGGGGG1GGGGGGGGGGGGGGGGGG",
"GGGGGGGGGGGGGGGGGGGGGGGGGGGGGGGG",
"GGGGGGGGGGGGGGGGGGGGGGGGGGGGGGGG"
};
