/* XPM */
static const char *Icon35[] = {
/* columns rows colors chars-per-pixel */
"32 32 48 1 ",
"  c black",
". c #010101",
"X c #020000",
"o c #030405",
"O c #080101",
"+ c #0A0202",
"@ c #0E0101",
"# c #0D0202",
"$ c #0C0404",
"% c #0D0404",
"& c #0F0606",
"* c #040608",
"= c #050609",
"- c #080B0F",
"; c #1A0605",
": c #1B0605",
"> c #110807",
", c #160B0A",
"< c #160C0A",
"1 c #1C110F",
"2 c #0A0D12",
"3 c #0F151D",
"4 c #11161E",
"5 c #250807",
"6 c #250907",
"7 c #2F110E",
"8 c #30110D",
"9 c #37150D",
"0 c #251714",
"q c #3D1D13",
"w c #391A15",
"e c #3A1B14",
"r c #3C1B15",
"t c #3B1C15",
"y c #3B2119",
"u c #1B242E",
"i c #411F19",
"p c #421F19",
"a c #4D2314",
"s c #4F2D1A",
"d c #5E391F",
"f c #623219",
"g c #502922",
"h c #E13B0D",
"j c #864C25",
"k c #B36B2B",
"l c #C3792C",
"z c None",
/* pixels */
"zzzzzzzzzzzzzzzzzzzzzzzzzzzzzzzz",
"zzzzzzzzzzzzzzzzz zzzzzzzzzzzzzz",
"zzzzzzzzzzzz   zz  zzzzzzzzzzzzz",
"zzzzzzzzzzzzz 2  +3 zzzzzzzzzzzz",
"zzzzzzzzzzzz +++ss+ zzzzzzzzzzzz",
"zzzzzzzzzzz ,0yyysd zzzzzzzzzzzz",
"zzzzzzzzz zz  , yhsh zzzzzzzzzzz",
"zzzzzzzzz  zzz  j0ys zzzzz zzzzz",
"zzzzzzzzz 2   z :f0y+  zz  z zzz",
"zzzzzzzzzz yss  5#f0+0y  2   zzz",
"zzzzzzzz  0yyd+$+5++,00ys+*3 zzz",
"zzzzzzz ,000hdh+0+:5+<00yd+ zzzz",
"zzzzzzzz ++0yss++7:78+<0ys zzzzz",
"zzzzzzzzz +fjys+8:7ra5f0yh zzzzz",
"zzzzzzzz ,+5:f0+t:rai# f0s zzzzz",
"zzzzzzzz 0,99++e7ffa#zz jy zzzzz",
"zzzzzzz 0y0,aaeifjfi#zz f0 zzzzz",
"zzzzzzz 0yy$aaffjkj#zzzz  zzzzzz",
"zzzzzz +,ys$affjjkk zzzzzzzzzzzz",
"zzzzz $+,ys+afjjkl zzzzzzzzzzzzz",
"zzzzz $+,0s#ffjklqd zzzzzzzzzzzz",
"zzzz $$$+,sd+fjkl7s zzzzzzzzzzzz",
"zzzz $,,+,yd+jkkk+y zzzzzzzzzzzz",
"zzz $,,f+,ys+jjkj+0 zzzzzzzzzzzz",
"zzz $,fjf+0y+fjj#f0s zzzzzzzzzzz",
"zzz $>gjf#,ys#jf++fy+ zzzzzzzzzz",
"zzz $$   j+0y+f+10+fys zzzzzzzzz",
"zzzz  4uu  ,0y++f1+#0ys zzzzzzzz",
"zzz *---44- ,0ys+> z     zzzzzzz",
"zzz o**-    ,+ 0  zzzzzzzzzzzzzz",
"zzzz    zzzz  z zzzzzzzzzzzzzzzz",
"zzzzzzzzzzzzzzzzzzzzzzzzzzzzzzzz"
};
