/* XPM */
static const char *Icon39[] = {
/* columns rows colors chars-per-pixel */
"32 32 61 1 ",
"  c #030000",
". c #040000",
"X c #070000",
"o c #080000",
"O c #090000",
"+ c #1A0000",
"@ c #1C0303",
"# c #1A0706",
"$ c #000013",
"% c #12141C",
"& c #240000",
"* c #280C08",
"= c #310000",
"- c #300300",
"; c #380301",
": c #3B0501",
"> c #341815",
", c #391810",
"< c #0D002E",
"1 c #410501",
"2 c #460701",
"3 c #510902",
"4 c #500A02",
"5 c #590B02",
"6 c #5D0D02",
"7 c #6B0D02",
"8 c #6D1103",
"9 c #7C1403",
"0 c #46231E",
"q c #4E2619",
"w c #522926",
"e c #57312A",
"r c #5A332E",
"t c #5F372F",
"y c #773D24",
"u c #643933",
"i c #653E35",
"p c #6C4139",
"a c #6C423A",
"s c #6D423A",
"d c #300061",
"f c #7D5044",
"g c #811F04",
"h c #8F1803",
"j c #922404",
"k c #972E06",
"l c #A92C05",
"z c #BF3405",
"x c #C64206",
"c c #E04E06",
"v c #8B5E52",
"b c #9A6D61",
"n c #A67460",
"m c #AE7B67",
"M c #C0896D",
"N c #D19B7A",
"B c #D69F7B",
"V c #DDA680",
"C c #F2B68C",
"Z c #E4DCB2",
"A c None",
/* pixels */
"AAAAAAAAAAAAAAAAAAAAAAAAAAAAAAAA",
"AAAAAAAAAAA  AAAAAAAAAAA XAAAAAA",
"AAAAAAAAAA y AAAAAAAAAAA y AAAAA",
"AAAAAAAAA q AAAAOOOOOAAAA q AAAA",
"AAAAAAAAA , AA#O33889O#AA , AAAA",
"AAAAAAAAA *, #vb389jzbv# ,* AAAA",
"AAAAAAAAAA#*,uv$b8jzb$vu,*#AAAAA",
"A  AAA####vuwf$d$bzb$d$fwuv####A",
"AA   AA#bvp#>vb<bMwMb<bv>#pvb#AA",
"AA ,@ AA###A#vbbMwVwMbbv#A###AAA",
"AAA  AAAAAAO85vZMVCVMZv5kOAAAAAA",
"AAA A%AAAAX383vwwwwwwwv3gkOAAAAA",
"AAAAAA%AAO-:3:3vbMCMbv38gggOAAAA",
"AAAAAA%AAO--:3:->>>>>-338g8OAAAA",
"AAAAAA%AO7&&:&:-0000013-3--hOAAA",
"AAAAA%AAO3hl++-0rrrrr01+&ll8OAAA",
"AAAAA%AAO88hlx+rrppprr+xlh88OAAA",
"AAAAA%AAAOO&hlc+pfffp+clh-OOAAAA",
"AAAA%AAAAAAO+hlc+fvf+clh+OAAAAAA",
"AAAA%AAAAAO;;+l-+vnv+-l+;;OAAAAA",
"AAAA%AAAAO22;+h++vmv++h+;22OAAAA",
"AAAA%AAAAO38pe+v+mBm+v+pp63OAAAA",
"AAAA%AAAO38pfftfvmNmvftffp83OAAA",
"AAAA%%AAO88fvvitfvnvftvvvfg8OAAA",
"AAAAA%%AOg8vvbbi#####ibbvv83OAAA",
"AAAAAA%%%Og8bbM#AAAAA#Mbb33OAAAA",
"AAAAAAAAAAO38MM#AAAAA#MM23OAAAAA",
"AAAAAAAAOO8--3BM#AAA#MB2--8OOAAA",
"AAAAAAAOlh-832;B#AAA#B;288-hlOAA",
"AAAAAAAOO-h3OOOOAAAAAOOOO3h-OOAA",
"AAAAAAAAAOOOAAAAAAAAAAAAAOOOAAAA",
"AAAAAAAAAAAAAAAAAAAAAAAAAAAAAAAA"
};
