/* XPM */
static const char *Icon20[] = {
/* columns rows colors chars-per-pixel */
"32 32 93 2 ",
"   c #010000",
".  c #010400",
"X  c #020500",
"o  c #020700",
"O  c #030700",
"+  c #0A0000",
"@  c #0D0201",
"#  c #100000",
"$  c #100100",
"%  c #160302",
"&  c #130503",
"*  c #1E0900",
"=  c #111902",
"-  c #151F03",
";  c #220A00",
":  c #200805",
">  c #2C0D00",
",  c #2A0905",
"<  c #2F100B",
"1  c #3F1200",
"2  c #3E120B",
"3  c #182204",
"4  c #1F2A06",
"5  c #212D06",
"6  c #2B380A",
"7  c #2D3B09",
"8  c #303B0A",
"9  c #410F00",
"0  c #401000",
"q  c #481500",
"w  c #4E1D05",
"e  c #441B0F",
"r  c #5A1400",
"t  c #591A00",
"y  c #591E10",
"u  c #5B1E10",
"i  c #5E2E0C",
"p  c #5A2011",
"a  c #762312",
"s  c #782110",
"d  c #32400A",
"f  c #3E4D0B",
"g  c #3C4B10",
"h  c #40510E",
"j  c #495B0E",
"k  c #424F10",
"l  c #4A5915",
"z  c #546210",
"x  c #5C6710",
"c  c #5B6C1B",
"v  c #64711B",
"b  c #727F1C",
"n  c #891E00",
"m  c #8F2700",
"M  c #823503",
"N  c #9E2411",
"B  c #9F2713",
"V  c #A22D00",
"C  c #B73200",
"Z  c #C53600",
"A  c #C63700",
"S  c #CA3800",
"D  c #CC3A00",
"F  c #D03C00",
"G  c #D53F00",
"H  c #D12B14",
"J  c #82511A",
"K  c #A74404",
"L  c #BD4C04",
"P  c #956922",
"I  c #A47B23",
"U  c #D36E08",
"Y  c #72811F",
"T  c #758825",
"R  c #8C9819",
"E  c #818F25",
"W  c #859827",
"Q  c #92A027",
"!  c #92A22A",
"~  c #98A52C",
"^  c #A7AD2C",
"/  c #ADB92E",
"(  c #BBB733",
")  c #FFB322",
"_  c #BEC22E",
"`  c #D4CD35",
"'  c #D1D533",
"]  c #E9D735",
"[  c #F0F53A",
"{  c #FFFF4A",
"}  c #FFFF60",
"|  c white",
" . c None",
/* pixels */
" . . . . . . . . . . . . . . . . . . . . . . . . . . . . . . . .",
" . . . . . . . . . . . . . . . . . . . . . . . . . . . . . . . .",
" . . . . . . . . . . . . . . . . . . . . . . . . . . . . . . . .",
" . . . . .$  . . . . . . . . . . . . . . . . . . . .$  . . . . .",
" . . . .$ I $  . . . . . . . . . . . . . . . . . .$ I $  . . . .",
" . . . .$ P $  . . . . . . . . . . . . . . . . . .$ P $  . . . .",
" . . . .$ J P $  . . . . . . . .o o o o o o  . .$ J P $  . . . .",
" . . . .$ i J P $  .       .o   c c T K W W     i J J $  . . . .",
" . . . .$ i J J P $ B a y   $ e $ W L / / $ < : $ i J $  . . . .",
" . . . .$ w i J J J 0 y < $ 5 $ t W D ` $ / $ $ $ w i $  . . . .",
" . . . . .$ i i J i 0 2 : $ d d T A ( $ p $ ~ $ : $ w $  . . . .",
" . . . . .$ w i i 0 y : $ 5 c $ $ $ ~ ` $ ~ $ $ + &    . . . . .",
" . . . . . .$ 0 0 y 2 $ 5 c $ a B H $ ~ ( $ B U B $ T o  . . . .",
" . . . . .  & , 2 2 : $ 5 + y y U y a $ ~ + U } ) $ T o  . . . .",
" . . . . .  @ & , , + 5 + < e U } ) e + ~ + y ) y < + T o  . . .",
" . . . .  & + @ & : + d + : < e ) y < + T d + y < : + T o  . . .",
" . . . .  @ & + + + d c + % : : < < : + T T d + + + h T o  . . .",
" . . . . .  + 3 3 5 c + e $ $ : : : + d K T $ h h $ T T o  . . .",
" . . . .o = 3 + g c + : < y s + + + d + K ~ z T $ e $ T o  . . .",
" . . . .o 4 + : + c + % : < e + d d T h ~ A / / z $ z T T o  . .",
" . . . .o 4 3 + d c d + + : : + c $ T W / D ` G D m S $ T o  . .",
" . . .o 4 $ g 5 c + c d d + + c $ < $ / / G G ` ] $ [ x V c o  .",
" . . .o 4 ; g g + : + c c d d T h $ j ~ D ` ] ] { R _ / T n o  .",
" . .o 4 6 9 $ g 5 $ d c $ c $ T W j ! _ G ' { | ] _ / $ c T o  .",
" . .o > 9 6 5 g g d c c d b f Y ! ! Q A _ F _ _ W W T d T E o  .",
" .o 4 - - * > - 6 6 g c $ c c c c c V W T T C W c c l ^ E o  . .",
" .o 4 4 4 4 4 9 6 6 6 6 3 6 8 8 q 1 7 c c c c M l c ^ E c o  . .",
" . .o o o o o 4 > 4 6 6 g g r n v v E k k l c T ^ ^ E c o  . . .",
" . . . . . . .o o o o o o o o o g g c E E ^ ^ E v o o o  . . . .",
" . . . . . . . . . . . . . . . .o o o o o o o o o  . . . . . . .",
" . . . . . . . . . . . . . . . . . . . . . . . . . . . . . . . .",
" . . . . . . . . . . . . . . . . . . . . . . . . . . . . . . . ."
};
