/* XPM */
static const char *Icon40[] = {
/* columns rows colors chars-per-pixel */
"32 32 62 1 ",
"  c black",
". c #010000",
"X c #070000",
"o c #020500",
"O c #020700",
"+ c #090101",
"@ c #0A0000",
"# c #0B0000",
"$ c #0F0201",
"% c #100000",
"& c #100100",
"* c #160302",
"= c #160503",
"- c #140604",
"; c #1D0603",
": c #200805",
"> c #210B07",
", c #2B0C07",
"< c #2F100B",
"1 c #3E120B",
"2 c #3E140A",
"3 c #182204",
"4 c #1F2A06",
"5 c #212D06",
"6 c #2B380A",
"7 c #4E1D05",
"8 c #441B0F",
"9 c #52170C",
"0 c #591E10",
"q c #5E2E0C",
"w c #5A2011",
"e c #762110",
"r c #762312",
"t c #32400A",
"y c #3C4B10",
"u c #40510E",
"i c #525B0E",
"p c #5B6C1B",
"a c #6B6F10",
"s c #891E00",
"d c #823503",
"f c #9C2713",
"g c #A22D00",
"h c #C43500",
"j c #CF3B00",
"k c #D93F00",
"l c #82511A",
"z c #956922",
"x c #A47B23",
"c c #D64A04",
"v c #D95E0B",
"b c #EB6810",
"n c #758825",
"m c #969925",
"M c #D48418",
"N c #C3BA2C",
"B c #FFB322",
"V c #DDC62C",
"C c #F0CE33",
"Z c #FFFF33",
"A c white",
"S c None",
/* pixels */
"SSSSSSSSSSSSSSSSSSSSSSSSSSSSSSSS",
"SSSSSSSSSSSSSSSSSSSSSSSSSSSSSSSS",
"SSSSSSSSSSSSSSSSSSSSSSSSSSSSSSSS",
"SSSSSSSSSSSSOOOOOOOOSSSSSSSSSSSS",
"SSSSSSSSSSOOpnmvVVNmOOSSSSSSSSSS",
"SSSSSSSSOOydgmcVCZCNmnO.SSSSSSSS",
"SSSSSSSOyypnmjVCZAZCNm%f.SSSSSSS",
"SSSSSS.yyp%nmNjCCZCb%Mp%r.SSSSSS",
"SSSSS.<#pptnmNjNkkkNammp%w.SSSSS",
"SSSSS.:#p%ppn%jjNNN%N%n%<88.SSSS",
"SSSSO3%5pt%%nuhm%mNamunu%%%OSSSS",
"SSSS.65yp%<0%gnnimm%n%%nut5OSSSS",
"SSSO466#p%:%ts%nn%nn%0r%pp%6OSSS",
"SSS.4###yt%tsptp%8%pt%%ty%r%OSSS",
"SS.=#=:9%ytp%%ppt%t%%1r%y%1%OSSS",
"SS.=;#=:0%y%1r%pp5%0f%:1%1:*.SSS",
"SS.$=,#*:%y%::8%y%:<8r%:%:%%.SSS",
"SS.$$=2%*%6y%%%y%%%:<0%%6%:<.SSS",
"SSS.$X=:%:%%:<0%0rf%:<%r%3%.SSSS",
"SS.=X$X#%*<0%:%<88w0%%::8%<2.SSS",
"SS.$X$$=#%:<:%:<<88<#0%*:%=:.SSS",
"SS.$$X$X=<%:#*::<<<:#:<%#-##l%SS",
"S%7...X$$=:#X$$==:=$X==#==#%%z%S",
"S%%SSS%X$$#$$.$###$.$$=.##%SS%%S",
"SSSSS%q7..X#.S.$==.S.#.S%lz%SSSS",
"SSSSS%7%SS%X%S.B*B.S%z%SS%l%SSSS",
"SSSSS%%SS%ql%SS.%.SS%lx%SS%%SSSS",
"SSSSSSSSS%7%SSS%l%SSS%l%SSSSSSSS",
"SSSSSSSSS%%SSSS%q%SSSS%%SSSSSSSS",
"SSSSSSSSSSSSSSSS%SSSSSSSSSSSSSSS",
"SSSSSSSSSSSSSSSSSSSSSSSSSSSSSSSS",
"SSSSSSSSSSSSSSSSSSSSSSSSSSSSSSSS"
};
