/* XPM */
static const char *Icon47[] = {
/* columns rows colors chars-per-pixel */
"32 32 25 1 ",
"  c #020000",
". c #050000",
"X c #050101",
"o c #150000",
"O c #160000",
"+ c #2A0202",
"@ c #250F0E",
"# c #390404",
"$ c #311614",
"% c #4A0706",
"& c #590B07",
"* c #401F1B",
"= c #660F08",
"- c #7E150A",
"; c #5D3129",
": c #AE230E",
"> c #C71404",
", c #D32D11",
"< c #D93817",
"1 c #914D2F",
"2 c #E8621D",
"3 c #E14820",
"4 c #F38818",
"5 c #FFAF07",
"6 c None",
/* pixels */
"66666666666666666666666666666666",
"6666666666666666666>666666666666",
"66666666666>6666>6>3>66666666666",
"6666666>66>3>66>>66>666666666666",
"6666666666>>66>,>66666666>666666",
"6666666>>66>66>,,>6>666>>6666666",
"66666666>>6666>,<,>>66>>666>6666",
"6666>666>,>6>>,32,,,>6>>6>666666",
"66666>666>,>,3,3433,,>>66>>66666",
"66666>>66>,3,,3342333,,>6>>66666",
"66666>>666>,3,32442323,,>3>66666",
"6666>,>66>,,23344542423,,3>66666",
"6666>3,>6>,34334554423,,3,>66666",
"6666>33,>,33442455544423,>666666",
"6666>,33,,3324445555423,>6666666",
"6666>,3323,33OO555554OO,,>66>666",
"66666>,3343244OO5554OO43,>666666",
"666666>,,3444555555544233,>66666",
"6666666>>>,244455554423,33,>6666",
"6666666666>,3244444423,:%,3>6666",
"66666>66>>=:,33244233%:-:,3>6666",
"6666666>%-:-:,,3333,,-O&%:,>6666",
"6666666O#O-=-%,,3,,,:%-%O%>66666",
"6666666 +&&-O--:,>>O>>%OO 666666",
"666666X*O#X>>>O>>66666 O$1X66666",
"66666X$;O 6666666666666X*1X66666",
"6666X$*1 66666666666666X*;1X6666",
"6666X*;1X66666666666666X$*;@X666",
"666X$@@;@X666666666666X;@*@@;X66",
"666X@;1X;1X66666666666X*@X*;X666",
"6666XXX6XXX66666666666XXX6XXX666",
"66666666666666666666666666666666"
};
