/* XPM */
static const char *Icon37[] = {
/* columns rows colors chars-per-pixel */
"32 32 55 1 ",
"  c black",
". c #020000",
"X c #030000",
"o c #040000",
"O c #050001",
"+ c #060001",
"@ c #080001",
"# c #090001",
"$ c #0A0202",
"% c #0C0001",
"& c #0D0001",
"* c #0F0606",
"= c #100003",
"- c #120004",
"; c #180005",
": c #1B0004",
"> c #160B0A",
", c #200005",
"< c #290107",
"1 c #2B0008",
"2 c #28000C",
"3 c #36030B",
"4 c #251714",
"5 c #3B2119",
"6 c #490611",
"7 c #551E12",
"8 c #5E1118",
"9 c #681118",
"0 c #741219",
"q c #4F2D1A",
"w c #552012",
"e c #552312",
"r c #5F2615",
"t c #542F18",
"y c #642F1B",
"u c #662F1A",
"i c #722A19",
"p c #762F1E",
"a c #72311D",
"s c #84191E",
"d c #80321F",
"f c #982124",
"g c #883422",
"h c #8B3423",
"j c #903B23",
"k c #A63728",
"l c #CD2326",
"z c #CC6900",
"x c #C84830",
"c c #D84830",
"v c #EA4A32",
"b c #EF5235",
"n c #FF603E",
"m c #FF6340",
"M c None",
/* pixels */
"MMMMMMMMMMMMMMMMMMMMMMMMMMMMMMMM",
"MMMMMMMMMMMMMMMMMMMMMM..MMMMMMMM",
"MMMMMMMMMMMMMM..MMM+MM.q.MMMMMMM",
"MMMMMMMMMMMMM.q.M..2+MM.5.MMMMMM",
"MMMMMMMMMMMM.q.MM.q$8+M.>.MMMMMM",
"MMMMMMMMMM..5$.M+2$5$8+22*.MMMMM",
"MMMMMMMMM.45$*.+668$4$80f2.MMMMM",
"MMMMMMMM.45$*.k888x$>$0flf+MMMMM",
"MMMMMMM.45q*.kxv9828$*$ffl+MMMMM",
"MMMMMMM.45$.60v00c288$80fl+MMMMM",
"MMMMMM.45q*.60f086-6888z0f+MMMMM",
"MMMMM.>45*.6xfs083<-688zz0+MMMMM",
"MMMMM.>5$*.60f082kga-668800+MMMM",
"MMMM.>45$*.6sv8;kkkgy--6822+MMMM",
"MMMM.>4$%+6800;rkxxkgay-68+MMMMM",
"MMMM.>4$%$682;eijxbbxk+1--+MMMMM",
"MMM.*>5$t$6x00;7djxxk+M+160+MMMM",
"MMM.*>5$;=6680f2edd++MMM++0f+MMM",
"MMM.*>5$;,===80f22+MMMMMMM+m%MMM",
"MMM.*>4$,,,,;+8nl28+MMMMMM%nm%MM",
"MMM.**$,,11k+M+nnl2.MMMMM%kvn%MM",
"MMMM.$$,p16+MM%vnn24.MMMM%x2n%MM",
"MMMM+,$116+MM%xvnvx$+MMMMM%2$%MM",
"MMMM+,,16+MMM%$x%x$20+MMMMM.4.MM",
"MMM+,,g1+MMMM.4.M.4$0+MMMMMM.MMM",
"MMM+y,3+MMMMMM.MM%$x0+MMMMMMMMMM",
"MMM$yy6+MMMMMMMMMM%xx0+%%MMMMMMM",
"MMM+y366++MMMMMMM%kkkxvnm%MMMMMM",
"MMM+,326+++MMMMM%%%%%%%vvn%MMMMM",
"MMMM+36+MMMMMMMMMMMMMMM%%%MMMMMM",
"MMMMM++++MMMMMMMMMMMMMMMMMMMMMMM",
"MMMMMMMMMMMMMMMMMMMMMMMMMMMMMMMM"
};
