/* XPM */
static const char *Icon34[] = {
/* columns rows colors chars-per-pixel */
"32 32 57 1 ",
"  c #000203",
". c #000304",
"X c #0E0000",
"o c #0E0101",
"O c #02080A",
"+ c #030C0E",
"@ c #110904",
"# c #1C0908",
"$ c #060815",
"% c #0A0B1D",
"& c #051114",
"* c #081B1C",
"= c #280E0C",
"- c #201108",
"; c #28190F",
": c #391810",
"> c #0F0F28",
", c #0C2527",
"< c #172530",
"1 c #113231",
"2 c #133636",
"3 c #143A39",
"4 c #263529",
"5 c #4B2518",
"6 c #442E1F",
"7 c #603622",
"8 c #3A4C32",
"9 c #596D3E",
"0 c #272047",
"q c #233442",
"w c #3C2E61",
"e c #513B7A",
"r c #1A4744",
"t c #184945",
"y c #1C5C54",
"u c #364B5B",
"i c #276961",
"p c #5F7540",
"a c #746553",
"s c #788D4B",
"d c #9D917F",
"f c #A9BF64",
"g c #BEDA77",
"h c #E6DD7E",
"j c #5D4286",
"k c #7E56A5",
"l c #9B75B7",
"z c #2E8E82",
"x c #3E9E8F",
"c c #8884BE",
"v c #DBD5BE",
"b c #B4A1D0",
"n c #FCF6D5",
"m c #C6DDEF",
"M c #E6F7FA",
"N c white",
"B c None",
/* pixels */
"BBBBBBBBBBBBBBBBBBBBBBBBBBBBBBBB",
"BBBBBBBBBBBBBBBBBBBBBBBBBBBXBBBB",
"BBBBBBBXXXBBBXBBBBBBBBBXXBXXBBBB",
"BBBBBBBBX7XBXXBBBBBBBBBX:X7XBBBB",
"BBBBBBBBBX5X:XBBBBBBBBBBX5XBBBBB",
"BBBBBBBBBBX5XB....BBBBBBX5XBBBBB",
"BBBBBBBBBBBX:Xiggi.BBBBX:XBBBBBB",
"BBBBBBBBBBBBX:Xii--@@BBX=XBBBBBB",
"BBBBBBBBBBB.X=#X-vvnn@X#XBBBBBBB",
"BBBBBBBBBB.riX=#-vnNNn-XBBBBBBBB",
"BBBBBBBBB.rrizX-ddnnNn@BBBBBBBBB",
"BBBBBBBB.rriggi-advnnv@BBBBBBBBB",
"BBBBBBB.rspfhgf-a6;vv;@BBBBBBBBB",
"BBBBBBB.s3iixigf-a6vn6@BBBBBBBBB",
"BBBBBB.rr&izxrzff-dvnd@BBBBBBBBB",
"BBBBBB.rr&zxz&izii-dvd@BBBBBBBBB",
"BBBBBB.r9&zhf+rbbk-ad-y.BBBBBBBB",
"BBBBB.2s2+ggOwekkkj-a-fx.BBBBBBB",
"BBBBB.89,+fzO00ekj<<-+.fh.BBBBBB",
"BBBBB.8,*.tiO$$$$$0*, B.g.BBBBBB",
"BBBBB.4,.B.i.BBBBB$,1 B.ix.BBBBB",
"BBBBBB.*%B.tg.BBBB$w1%B.iz.BBBBB",
"BBBBBB.*0>B.fz>BBBB%e%BB.z.BBBBB",
"BBBBBBB.w>BB.ym>BBB%w>BB>m.BBBBB",
"BBBBBBB%wk>B.im>BB>wkk>B>c>BBBBB",
"BBBBB%%wkkk>&bM>B>eklkk>bMb>BBBB",
"BBBB%%qkl>uubbMb>e>>l>uk>bmb>BBB",
"BBB-BB>l>B>bbumub>BB>B>>B>bub>BB",
"BBBBBBB>B>b>>ubu>b>B-B-BB>b>>>BB",
"BBBBBBB-B>>BB>b>B>BBBBBBBB>BB-BB",
"BBBBBBBBB-BBBB>BBB-BBBBBBB-BBBBB",
"BBBBBBBBBBBBBB-BBBBBBBBBBBBBBBBB"
};
