/* XPM */
static const char *Icon2[] = {
/* columns rows colors chars-per-pixel */
"32 32 41 1 ",
"  c #0E0201",
". c #130301",
"X c #120401",
"o c #130501",
"O c #190602",
"+ c #160B05",
"@ c #180903",
"# c #190904",
"$ c #201108",
"% c #22140B",
"& c #322013",
"* c #430D04",
"= c #6B1707",
"- c #442111",
"; c #5A2815",
": c #7D2810",
"> c #7E3B1F",
", c #50402E",
"< c #5B422E",
"1 c #5B4A3B",
"2 c #774225",
"3 c #784F37",
"4 c #746553",
"5 c #902E12",
"6 c #922F16",
"7 c #8A4F2C",
"8 c #904423",
"9 c #914224",
"0 c #A84E2B",
"q c #C15A31",
"w c #C45E3A",
"e c #A87452",
"r c #9D917F",
"t c #C1865C",
"y c #C48B6E",
"u c #BDB49F",
"i c #DBD5BE",
"p c #ECE6CA",
"a c #FCF6D5",
"s c white",
"d c None",
/* pixels */
"dddddddddddddddddddddddddddddddd",
"dddddddddddddddddddddddddddddddd",
"dddddddddddddddddddddddddddd  dd",
"ddddddddddddddddddddddddddo = dd",
"do o ddddddddddddddddddd$o==oddd",
"ddo==o#dddddddddddddddd$w58#dddd",
"dddo565O#ddddddddddddd$08>#ddddd",
"dddd.:809$dddddddddddd$2e3#ddddd",
"dddddoe7e3$dddddddddd$rr3#dddddd",
"dddddd#3eu$dddddddddd$4r$ddddddd",
"ddddddd##r4$ddd$$$$d$4$$dddddddd",
"ddddddddd$r4$d$pasa$,$dddddddddd",
"dddddddddd+,4$iasssa$ddddddddddd",
"ddddddddddd$&rupasaai$dddddddddd",
"dddddddddddd$rrupaaii$dddddddddd",
"dddddddddd$$&4rruiiau%$$$$dddddd",
"ddddddd$$$r,$14--uas-%14rr$$dddd",
"dddddd$iur4$d$11<-as-1%$rias$ddd",
"ddddd$aer$$d$,$144iai4$d$$ity$dd",
"dddd$q73$dd$4$d$4r-a-r$ddd$e8#dd",
"dddo5>3#dd$4$dd$4r-i-r$$ddd#5=@d",
"ddd *;#dd$rr$ddd$ruiu1$r$dddo=@d",
"dd *oodd$rur$dddd$rur$d$i$ddd dd",
"dd  dddd$ur$dddddd$r$dd$ri$ddddd",
"ddddddd$ier$ddddddd$dddd$e#ddddd",
"ddddddd$t>#ddddddddddddd$7t#dddd",
"ddddddd#8>#dddddddddddddd#8#dddd",
"ddddddd 5oddddddddddddddd#5#dddd",
"ddddddd =odddddddddddddddo=#dddd",
"dddddddd ddddddddddddddddd ddddd",
"dddddddddddddddddddddddddddddddd",
"dddddddddddddddddddddddddddddddd"
};
