/* XPM */
static const char *Icon41[] = {
/* columns rows colors chars-per-pixel */
"32 32 59 1 ",
"  c #010000",
". c #070000",
"X c #020500",
"o c #020700",
"O c #090101",
"+ c #0A0000",
"@ c #0B0000",
"# c #0D0201",
"$ c #0F0201",
"% c #100000",
"& c #160302",
"* c #160503",
"= c #1A0503",
"- c #1D0604",
"; c #260704",
": c #200805",
"> c #210B07",
", c #2A0905",
"< c #2F100B",
"1 c #3E120B",
"2 c #172104",
"3 c #182904",
"4 c #212D06",
"5 c #2B380A",
"6 c #441B0F",
"7 c #591E10",
"8 c #5A2011",
"9 c #762312",
"0 c #782110",
"q c #32400A",
"w c #3E4D0B",
"e c #3C4B10",
"r c #40510E",
"t c #415010",
"y c #495A11",
"u c #4F620F",
"i c #5F6E11",
"p c #5B6C1B",
"a c #677612",
"s c #67791C",
"d c #9F2713",
"f c #758513",
"g c #70821D",
"h c #758825",
"j c #8C9315",
"k c #80911E",
"l c #859827",
"z c #90A428",
"x c #98A52C",
"c c #A4B72A",
"v c #ADB92E",
"b c #BBB733",
"n c #FFB322",
"m c #BCC72F",
"M c #D5DE31",
"N c #E7DC37",
"B c #FFF639",
"V c white",
"C c None",
/* pixels */
"CCCCCCCCCCCCCCCCCCCCCCCCCCCCCCCC",
"CCCCCCCCCCCCCCC  CCCCCCCCCCCCCCC",
"CCCCCCCCCCCCCC -1 CCC CCCCCCCCCC",
"CCCCCCCCCCCCC -101 C d CCCCCCCCC",
"CCCCCCCC   C &-ndn: &%0 CCCCCCCC",
"CCCCCCC 7d7 5%&;7,%t.:%1 CCCCCCC",
"CCCCCC 117<<.5%%,%p%&.%:1 CCCCCC",
"CCCCC ;-<<-.t%py%h%1,@e%< CCCCCC",
"CCCCC &--@.1@rlziz%7,&@e%oCCCCCC",
"CCCCCC @.4e@cl%m%z%d7:@phoCCCCCC",
"CCCCC :@4%pcl%7%fc%,7: p%boCCCCC",
"CCCCC :<@4k@%7d%Vmp%1 CorNoCCCCC",
"CCCCCC :@s.=:19%B%g%: CopxoC CCC",
"CCC Coe@so $::7%Bazp CCCo%b 7 CC",
"CC d 3psoCC &:1%NB%poCCCorx@d CC",
"CC 9%3%eoCC $&:@M%1%oCCCCo@79 CC",
"C 17d@eoCCCC $&@vj%rp CCC ,<7 CC",
"C :19@eoCCCCC @t%Vu%% CC &:*7 CC",
"C :<79@oCCCCCo5puM%<7 CCC :%1 CC",
"C &*17%oCCCCC 5%gcp%1 CCC &%1 CC",
"C &:%1%oCCCC :@qgcp%: CCCC :<8 C",
"C $:%:%oCCCC &:@p%pe CCCCC &:6 C",
"C $:<%5oCCCC &@ppweoCCCCCCC &< C",
"CC *<%toCCCC $.epge CCCCCCop%< C",
"CC *%2oCCCCC $.epe%< CCCCC p% CC",
"CC $%5oCCCCCC 5e%e2 CCCCC $%p CC",
"CC @%5 CCCCC &.545%< CCCC *  < C",
"CCC :%< CCCCC :.5@< CCCCCC CC CC",
"CC *% : CCCC &:1@1: CCCCCCCCCCCC",
"CC $ C CCCCCC &::: CCCCCCCCCCCCC",
"CCC CCCCCCCCCC    CCCCCCCCCCCCCC",
"CCCCCCCCCCCCCCCCCCCCCCCCCCCCCCCC"
};
