/* XPM */
static const char *Icon36[] = {
/* columns rows colors chars-per-pixel */
"32 32 55 1 ",
"  c black",
". c #010101",
"X c #070000",
"o c #030405",
"O c #090000",
"+ c #040608",
"@ c #080B0F",
"# c #150100",
"$ c #180000",
"% c #0E1218",
"& c #11161E",
"* c #220000",
"= c #270200",
"- c #270300",
"; c #2E0300",
": c #310000",
"> c #300100",
", c #370301",
"< c #310600",
"1 c #390501",
"2 c #3D0501",
"3 c #3E0E00",
"4 c #201108",
"5 c #271508",
"6 c #28190F",
"7 c #1B242E",
"8 c #232F3B",
"9 c #410501",
"0 c #490E00",
"q c #510902",
"w c #500A02",
"e c #6B0D02",
"r c #6D1103",
"t c #593101",
"y c #442E1F",
"u c #612900",
"i c #693A01",
"p c #703800",
"a c #764101",
"s c #5B4A3B",
"d c #746553",
"f c #811F04",
"g c #8F1803",
"h c #A92C05",
"j c #8B4B00",
"k c #9F5F14",
"l c #A9691E",
"z c #AF6F24",
"x c #B8782D",
"c c #C64206",
"v c #C9893E",
"b c #9D917F",
"n c #DBD5BE",
"m c #FCF6D5",
"M c None",
/* pixels */
"MMMMMMMMMMMMMMMMMMMMMMMMMMMMMMMM",
"MMMMMMMMMMMMM  MM  MMMMMMMMMMMMM",
"MMMMMMM-----M 7 M 7 M----MMMMMMM",
"MMMMMMMM-pjl-M & q & xk-MMMMMMMM",
"MMMMMMMMM-jkz# @ q @ k-MMMMMMMMM",
"MMMMMMMMM-pjk:q qrg kj-MMMMMMMMM",
"MMMMMMMMM--jjqrrgghgj#MMMMMMMMMM",
"MMMMMMMMMMM#jr:OOhchOOMMMMMMMMMM",
"MMMMMMMMMMMOqrOMMOcOMOMMMMMMMMMM",
"MMMMMMMMMMMO9jrOO:h:OOMMMMMMMMMM",
"MMMMMMMMMMX,$qrfhrf:qOMMMMMMMMMM",
"MMMMMMMMMO;it:qkfr:q:m4MMMMMMMMM",
"MMMMMMMMMOq;i$qq::::mmm4MMMMMMMM",
"MMMMMMMMO9j;;-$q5ddbnmnn4MMMMMMM",
"MMMMMMMMXqr:1;-$5dbbnnn64MMMMMMM",
"MMMMMMMO*rg*1a;-<00by6by4MMMMMMM",
"MMMMMMMO*lh*q11<k0sddymm4MMMMMMM",
"MMMMMMO9*ggh**<vxk0-dbnm4MMMMMMM",
"MMMMMO9p*rgghxxxzk-M4dbn4MMMMMMM",
"MMMMMXqqe**rrrkk333-M454MMMMMMMM",
"MMMMX;qqrgh***<3uppj-hOMMMMMM MM",
"MMMX;1jrrfhc*uuuppjj0fcOMMMMM MM",
"MM ;;akkfzcc***ppjjp3rf:OOMM 8 M",
"M o ;1krrfh:cfr*jjpu3rr:hrOM 7 M",
"M + ;1qrrgg2hr*pppu3qq:hrOM @& M",
"M +@ ;1qggqhr*p     9qrrOMM  @ M",
"M +@@ ;qqrgr*  &787& 9qOMMMMM MM",
"MM +@%  qrrr &&     &  MMMMMM MM",
"MMM  +@%    &  MMMMM && MMMM MMM",
"MMMMM   +@%& MMMMMMMM  &    MMMM",
"MMMMMMMM    MMMMMMMMMMM    MMMMM",
"MMMMMMMMMMMMMMMMMMMMMMMMMMMMMMMM"
};
