/* XPM */
static const char *Icon49[] = {
/* columns rows colors chars-per-pixel */
"32 32 60 1 ",
"  c black",
". c #070000",
"X c #04041D",
"o c #2A0200",
"O c #390C05",
"+ c #381707",
"@ c #060625",
"# c #060C22",
"$ c #040826",
"% c #0A122B",
"& c #060B31",
"* c #0E1737",
"= c #0A113E",
"- c #0F1838",
"; c #4B180B",
": c #5F2511",
"> c #733014",
", c #774C2A",
"< c #141F41",
"1 c #121E45",
"2 c #172345",
"3 c #1E2A55",
"4 c #1C2D55",
"5 c #212F52",
"6 c #2F3E69",
"7 c #293D6F",
"8 c #2E456B",
"9 c #31406B",
"0 c #8B3C17",
"q c #865C34",
"w c #8A6037",
"e c #9E7645",
"r c #B99257",
"t c #C6A060",
"y c #D9B464",
"u c #EDC969",
"i c #FFFF7A",
"p c #334E86",
"a c #395982",
"s c #4C5F85",
"d c #405A8A",
"f c #425D8C",
"g c #466A94",
"h c #4A699D",
"j c #4F74A7",
"k c #5278A9",
"l c #688BAE",
"z c #6088B9",
"x c #628BBE",
"c c #6185C4",
"v c #77A2E0",
"b c #7DB6ED",
"n c #81B2D2",
"m c #A0D5F0",
"M c #A7E0FF",
"N c #BEE7F6",
"B c #C5FFFF",
"V c #EFFFFF",
"C c white",
"Z c None",
/* pixels */
"ZZZZZZZZZZZZZZZZZ.ZZZZZZZZZZZZZZ",
"ZZZZZZZZZZZZZZ.ZZZ.ZZZZZZZZZZZZZ",
"ZZZZZZZZZZZZZZZ.ZZ..ZZ+ZZZZZZZZZ",
"ZZZZZZZZZZZZ+ZZ..Z.>.+u+ZZZZZZZZ",
"ZZZZZZZZZZZ+u+Z.>.o:ot,+ZZZZZZZZ",
"ZZZZZZZZZZ+et,+o:oo;oet+ZZZZZZZZ",
"ZZZZZZZZZZ+q,t,o;onons+ZZZZZZZZZ",
"ZZZZZZZZZZZ+q,fkonNmn=ZZZZZZZZZZ",
"ZZZZZZZZZZZZ+9kknmmn  =ZZZZZZZZZ",
"ZZZZZZZZZZZZZ=fk  no n=ZZZZZZZZZ",
"ZZZZZZZZZZZ**73kn o>os2ZZZZZZZZZ",
"ZZZZZZZZZZ*dd773so;:0on2ZZZZZZZZ",
"ZZZZZZZZZ@6slddjoOO;:o2ZZZZZZZZZ",
"ZZZZZZZZ@Nmn9lnmpoooop7-ZZZZZZZZ",
"ZZZZZZZ@mnn,9f9lnjjjxd33@@ZZZZZZ",
"ZZZZZZ@mns5,,9,6lnmNn3pmNn@ZZZZZ",
"ZZZZZZ=nlNm5,qw97snmfq7nmN@ZZZZZ",
"ZZZZZ#Mnmmn5qweeq9lk9edjnmC2ZZZZ",
"ZZZZZ#Vnmnl5qetyee7f9e,dnmC2ZZZZ",
"ZZZZ#4Vcnnl5eqruute7et,4lBb%ZZZZ",
"ZZZZ#45Cnl5eyteriutete+<vzg%ZZZZ",
"ZZZZ#1<Vcl<etutwtiuye+Z&h5a%ZZZZ",
"ZZZZZ#45Vl<eetu+etueq+ZX1<a%ZZZZ",
"ZZZZZ#45Mv$qee+Z+eeq+ZZZ#<8%ZZZZ",
"ZZZZZ#1<v*Z+,+ZZZ+,+ZZZZZ#4#ZZZZ",
"ZZZZZZ#44#Z.O.ZZZ.O.ZZZZZ#1#ZZZZ",
"ZZZZZZ#41#Z.O.ZZZ.O.ZZZZZZ#ZZZZZ",
"ZZZZZZ#1#Z.O;.ZZZ.;o.ZZZZZZZZZZZ",
"ZZZZZZZ#Z.O;:>.Z.O;:>.ZZZZZZZZZZ",
"ZZZZZZZZZ...0..Z...0..ZZZZZZZZZZ",
"ZZZZZZZZZZZZ.ZZZZZZ.ZZZZZZZZZZZZ",
"ZZZZZZZZZZZZZZZZZZZZZZZZZZZZZZZZ"
};
