/* XPM */
static const char *Icon18[] = {
/* columns rows colors chars-per-pixel */
"32 32 56 1 ",
"  c #090A0E",
". c #100000",
"X c #120000",
"o c #140200",
"O c #170707",
"+ c #1B0202",
"@ c #1A0600",
"# c #1A0C05",
"$ c #12141C",
"% c #260702",
"& c #290303",
"* c #300A03",
"= c #300F06",
"- c #3E0F05",
"; c #201108",
": c #29180D",
"> c #28190F",
", c #361107",
"< c #2F1717",
"1 c #291B11",
"2 c #4F1508",
"3 c #431B0B",
"4 c #5C1C0A",
"5 c #661F0A",
"6 c #522705",
"7 c #442E1F",
"8 c #542713",
"9 c #582B1F",
"0 c #76230C",
"q c #743408",
"w c #6D3A1E",
"e c #423527",
"r c #594C3B",
"t c #6E4135",
"y c #746553",
"u c #84290E",
"i c #914817",
"p c #8B542E",
"a c #BA672E",
"s c #A16C3D",
"d c #8B5E52",
"f c #B37641",
"g c #A27569",
"h c #A3766A",
"j c #9D917F",
"k c #CF8648",
"l c #E4914C",
"z c #EDAB5C",
"x c #EFB061",
"c c #F4BD68",
"v c #C5988C",
"b c #DFB2A6",
"n c #DBD5BE",
"m c #FCF6D5",
"M c white",
"N c None",
/* pixels */
"NNNNNNNNNNNNNNNNNNNNNNNNNNNNNNNN",
"NNNNNNNNNNNNNNNoooNNNNNNooNNNNNN",
"NNNNNNNNNNNNNNopskoN####pkoNNNNN",
"NNNNNNNNNNNNNowp,,p#jnmm:wsoNNNN",
"NNNNNoNNNNNNNow,8w:rnmMMm:poNNNN",
"NNNNNooNNNNNNNow,8:jnmmMm:woNNNN",
"NNNNooNNNNNNNNNo.,1jjnmmn:oNNNNN",
"NNNNNoNNNNNNNN.*%:yy7:nn:;NNNNNN",
"NNNNNN$NNNNNN.-**:ejj7nm7;NNNNNN",
"NNNNNN$NNNNN.-2%**:yjjnM;NNNNNNN",
"NNNNNN$NNNNN.24&w88::yjm;NNNNNNN",
"NNNNNN$NNNNN.25=wwaaw:jn;NNNNNNN",
"NNNNN$NNNNNN.-2k,aall:yj;NNNNNNN",
"NNNNN$NNNNN.+-pf,allxl:;NNNNNNNN",
"NNNNN NNNN.%+-wp,,,<<a@NNNNNNNNN",
"NNNN NNNN.%*%+-,zcvvb<a@ONNNNNNN",
"NNNN NNN.%***+wwwllhhb<avONNNNNN",
"NNNN NN.%*--38,,,,,<tdv<hbONNNNN",
"NNNNN N.%--2&3883qqq<td<thvONNNN",
"NNNNNN .8-220&38iiqq<t<*<t<ONNNN",
"NNNNNNNo8-244u&qiiiq<<<-*<tONNNN",
"NNNNNNNNow-240&qqiq<i<aw-&ONNNNN",
"NNNNNNNNo8w240u&qqqaaalpwoNNNNNN",
"NNNNNNNNNoww24k,@@66alsfoNNNNNNN",
"NNNNNNNNNNo8wpsoNN@alskoNNNNNNNN",
"NNNNNNNNNow,8wpoNN@adhONNNNNNNNN",
"NNNNNNNNowtpwooNNO9ttt<OONNNNNNN",
"NNNNNNNo8tdhoNNNNNOOOOttdONNNNNN",
"NNNNNNO9tdhhhONNNNNNNNOOOOONNNNN",
"NNNNNOOOOOhOOOONNNNNNNNNNNNNNNNN",
"NNNNNNNNNNONNNNNNNNNNNNNNNNNNNNN",
"NNNNNNNNNNNNNNNNNNNNNNNNNNNNNNNN"
};
