/* XPM */
static const char *Icon30[] = {
/* columns rows colors chars-per-pixel */
"32 32 84 1 ",
"  c black",
". c #010000",
"X c #010101",
"o c #020000",
"O c #030000",
"+ c #060000",
"@ c #070000",
"# c #070101",
"$ c #060403",
"% c #090100",
"& c #0A0101",
"* c #080201",
"= c #0D0101",
"- c #0D0201",
"; c #0F0202",
": c #040608",
"> c #080B0F",
", c #100100",
"< c #100101",
"1 c #130202",
"2 c #120403",
"3 c #160403",
"4 c #170504",
"5 c #1C0303",
"6 c #1D0603",
"7 c #1C0705",
"8 c #150A05",
"9 c #170D07",
"0 c #11161E",
"q c #200605",
"w c #210C08",
"e c #280C08",
"r c #300D09",
"t c #28190F",
"y c #37150D",
"u c #291A10",
"i c #391810",
"p c #28201A",
"a c #3D291B",
"s c #1B242E",
"d c #2C2723",
"f c #40130A",
"g c #4B150A",
"h c #431D11",
"j c #451C11",
"k c #4E2619",
"l c #582616",
"z c #5E2C1B",
"x c #662A17",
"c c #75351D",
"v c #5F3322",
"b c #413B35",
"n c #733B24",
"m c #53493E",
"M c #5B564F",
"N c #675C4D",
"B c #746553",
"V c #746B5B",
"C c #746A5D",
"Z c #776D5F",
"A c #7D6F5A",
"S c #786D5D",
"D c #893A1E",
"F c #8A4527",
"G c #974F2C",
"H c #B0572E",
"J c #BC652F",
"K c #DB6F31",
"L c #857860",
"P c #877A65",
"I c #908166",
"U c #98886D",
"Y c #9D917F",
"T c #A59472",
"R c #A59175",
"E c #AB9777",
"W c #B7A078",
"Q c #FFA44A",
"! c #D2B786",
"~ c #EBCA8F",
"^ c #DBD5BE",
"/ c #FCF6D5",
"( c white",
") c None",
/* pixels */
"))))))))))))))))))))))))))))))))",
"))),))),))),))))))))))),)),))),)",
")))),)),,)),))))))))))),),,)),))",
")))),,,FH,,,))))$)$)$)),,HF,,,))",
"))))),fllFHK,)$$M8t88),KFllx,)))",
")))))),,,,,lH,btt/(((8Hl====))))",
"))))))))))),lFt^///(/^t,))))))))",
")))))))))$$dft^^u^//^u^8))))))))",
"))))))))$$dbtY^u9u^/u9u^8)))))))",
"))))))))))$NtBYuaY//Yau^8)))))))",
")))))))))$dAUtBYY^^a^YYtT$))))))",
")))))))))$bSELtBYY^/^YtI!T$)))))",
"))))))))$)$bM!ItBaYaYatMZ$))))))",
"))))))))))ObpVTttttttttb$)))))))",
")))))))))O3p&pMVbmCR!IZppO))))))",
"))))))))O37e7&p6fCE~WZf6enO)))))",
")))))))O5qe5=&,KQfMIPfQKh5kO))))",
"))))))))Or5nzi,GKfbZMfKG6h,O))))",
")))))))O5ejiie,cHKfMfDJG6wyO))))",
"))))))))O5ee++,cGKfpfDGG,=wOO)))",
"))))))))O+++24,cfGfOfcfc,,O)))))",
")))),))O===2=e,,f,fOf,f,,O))))))",
")))),,,+===+ee,e,i,O,e,j,eO)))))",
"))),flg++=2Oeeejzi+OOeijzi5O))))",
")),flH,O+&2O7eijnkOOOeizziO)))))",
"),flH,))O+2O7eizOkO=OeOznkO)))))",
")),lGK,))O+&O7OOsO===OsOvO))))))",
"))),cGK,,)OO+O:>0sO,Os0>O5O)))))",
"))),lcGKQ,))O:>0O0O)O0O0>O))))))",
")))),lccGK,))OOOOO)))OOOO)))))))",
"))))),,,,,,,))))))))))))))))))))",
"))))))))))))))))))))))))))))))))"
};
