/* XPM */
static const char *Icon14[] = {
/* columns rows colors chars-per-pixel */
"32 32 86 1 ",
"  c #02000A",
". c #07010F",
"X c #180706",
"o c #1E0908",
"O c #060115",
"+ c #0B0116",
"@ c #070119",
"# c #0E021A",
"$ c #0F021B",
"% c #11021E",
"& c #201108",
"* c #321514",
"= c #341516",
"- c #120220",
"; c #150520",
": c #140421",
"> c #150522",
", c #150326",
"< c #180527",
"1 c #1B052C",
"2 c #3E1D21",
"3 c #230933",
"4 c #230A32",
"5 c #240A34",
"6 c #240A36",
"7 c #2B0C3B",
"8 c #2B0C3C",
"9 c #2C0C3E",
"0 c #2C0D3F",
"q c #492201",
"w c #552801",
"e c #5B2C03",
"r c #65350C",
"t c #693910",
"y c #6C3C13",
"u c #512936",
"i c #74431A",
"p c #77471D",
"a c #5B422E",
"s c #320E42",
"d c #320F43",
"f c #330F46",
"g c #350F46",
"h c #341049",
"j c #361048",
"k c #361049",
"l c #3B1350",
"z c #3E1351",
"x c #3E1252",
"c c #3F1252",
"v c #3D1453",
"b c #49175C",
"n c #4A175C",
"m c #4A165D",
"M c #4A185E",
"N c #633447",
"B c #4B1960",
"V c #4A1A62",
"C c #531C67",
"Z c #551968",
"A c #571E6B",
"S c #632075",
"D c #67237A",
"F c #69267E",
"G c #746553",
"H c #804F25",
"J c #86552B",
"K c #8A592E",
"L c #8F5D33",
"P c #9C6A3F",
"I c #A57347",
"U c #AE7B4F",
"Y c #9D917F",
"T c #CA9669",
"R c #712683",
"E c #792883",
"W c #772988",
"Q c #7C2D8F",
"! c #8F34A0",
"~ c #AE41B4",
"^ c #D852CF",
"/ c #EAB587",
"( c #DBD5BE",
") c #FCF6D5",
"_ c white",
"` c None",
/* pixels */
"````````````````````````````````",
"`````````&&&```````&&&``````````",
"````````&_)(&`&&&`&()_&`````````",
"```````&)&&&G&()(&G&&&)&````````",
"```````&&```&aa_aa&```&&````````",
"````````&````&Y)Y&`````&````````",
"`````````&`OOBa(aB@```&`````````",
"``````````OjBFFaF!F@````````````",
"`````````OjBFFTKU~!~O```````````",
"````````@jBFuT/TT/N!<&&`````````",
"````````Ojaa*UTrKT=!<&(&````````",
"```````@ja(az*eppe*MO`&^@```````",
"```````Oj<<fd*iUI*7M6Oj~@```````",
"`````` <<^<48*LT/*7d9mj~^@``````",
"``````OW~^<4<RUTT~:8dm9!~@``````",
"``````O!~~<4<QUUT!<4zz9Q~^@`````",
"`````OAQ!~<<!FPUUDS:dz6F!~@`````",
"`````OAm!~<<!~ypJtE:7z:FZ!~@````",
"````OBzF!!.<!~*qttE:7d:Fm!~@````",
"````OBjF!,`-R~^*2tHE:d:BzZ!@````",
"```Ov9jF!,``,!~*owtS:7:BzZ!~@```",
"```-v9jFQ,``,F~-`Xwm:4:BFzZ!@```",
"``,B69jFQ,`&<C!~-wgg#4:9FzZ!,```",
"``,-69jFF,`&Y<F!<-##`+:4,,zZ,```",
"``,`,9jF,``&Y<CR,````%:-``,Z,```",
"````,9,F,```&&1CR,````+````,,```",
"````,-`,,`````,CR,````-`````,```",
"````,```,``````,CR,`````````````",
"````````,``````,ll,`````````````",
"```````````````&()&`````````````",
"````````````````&&&`````````````",
"````````````````````````````````"
};
