/* XPM */
static const char *Icon7[] = {
/* columns rows colors chars-per-pixel */
"32 32 55 1 ",
"  c #030000",
". c #050301",
"X c #0C0201",
"o c #000E08",
"O c #140200",
"+ c #1C0303",
"@ c #130D06",
"# c #1D0903",
"$ c #1D160D",
"% c #200002",
"& c #200605",
"* c #220A04",
"= c #260C04",
"- c #250D06",
"; c #280C08",
": c #2A0F09",
"> c #361107",
", c #301108",
"< c #35130B",
"1 c #38160D",
"2 c #3E190C",
"3 c #391810",
"4 c #292116",
"5 c #0F3526",
"6 c #3D3425",
"7 c #431B0B",
"8 c #5B0515",
"9 c #4E2512",
"0 c #4E2619",
"q c #542713",
"w c #5D2D16",
"e c #5B3017",
"r c #653419",
"t c #6D3A1E",
"y c #783B1C",
"u c #463D2C",
"i c #473E2E",
"p c #5F3322",
"a c #554C39",
"s c #797059",
"d c #8C1417",
"f c #A92115",
"g c #8B542E",
"h c #A66838",
"j c #A16C3D",
"k c #DF421E",
"l c #FF6327",
"z c #B37641",
"x c #1DD24B",
"c c #A4956F",
"v c #BAA678",
"b c #CF8648",
"n c #E8A058",
"m c #DBC288",
"M c None",
/* pixels */
"MMMMMMMMMMMMMMMMMM%MMMMMMMMMMMMM",
"MMMMMMMMMMMMMMM%MMM%M%MMMMMMMMMM",
"MMMMMMMMMMMMMMMM%%M%%8%MMMMMMMMM",
"MMMMMMMMMMMMMMMM%l%8l8l%MMMMMMMM",
"MMMMMMMMMMMMMMMMM%k8fk8f%MMMMMMM",
"MMMMMMMMOMMMMM%%%@df8f8v%MMMMMMM",
"MMMMMOOOMMMMMMM%f8vd8vd8m.MMMMMM",
"MMMOOgXMMMMMMMMM%d8vd8m4v.MMMMMM",
"MMMOgXMMMMMMMM%%@6@ac4c4sv.MMMMM",
"MMOg9XMMMMMMMM%d6@u@s4av4s.MMMMM",
"MMOt9XMMMMMMMX,@4@6@as4s4a.MMMMM",
"MOq29XMMMMMMX22,@-@@6a4a4u.MMMMM",
"MMOq29XXMXXX,292,,--@$$ua$.MMMMM",
"MMMOq299X,<-29e92,7,,22$$22XMMMM",
"MMOOOt9<-21-2ey9t2qq2g9999gOMMMM",
"MMMMMOq-291,2er9tq>tg5xeex5OMMMM",
"MMMMOMX29e9,29egt>tgjj5zr5gOMMMM",
"MMMMMMX2erw12992q>gj55zzbj5oMMMM",
"MMMMMX29jyh>229tq>gj5x5bn5x5OMMM",
"MMMMMX29ejh>q222*tggj55zz55gOMMM",
"MMMMMX,2gjgt>t292;tgggjjjjgOMMMM",
"MMMMMX,tgggO>q2wg>OtggggggtOMMMM",
"MMMMMX,2tgOMO,2wrXMOOtt>>>OMMMMM",
"MMMMX-,qtOMMO729bOMMMO#tgjOMMMMM",
"MMMMX-7qOMMMMO2tebOMMO7###9XMMMM",
"MMMMX777OMMMMOq2gzOMMMO7,22XMMMM",
"MMMMO+++ MMMMOqt9jzOMMMOq,t9XMMM",
"MMMM &;;; MMMMOq++++ MMO7+++ MMM",
"MMMM &&+; MMMMO+;330p MM 330p MM",
"MMMMM     MMMMM &;3+0 MM ;3+0 MM",
"MMMMMMMMMMMMMMMM      MM      MM",
"MMMMMMMMMMMMMMMMMMMMMMMMMMMMMMMM"
};
