/* XPM */
static const char *Icon10[] = {
/* columns rows colors chars-per-pixel */
"32 32 47 1 ",
"  c #070000",
". c #0E0001",
"X c #090A0E",
"o c #100001",
"O c #120001",
"+ c #150001",
"@ c #12141C",
"# c #270205",
"$ c #260803",
"% c #250805",
"& c #320E06",
"* c #340408",
"= c #3E060B",
"- c #201108",
"; c #46060D",
": c #470A0D",
"> c #4B090F",
", c #48190B",
"< c #520E10",
"1 c #530E11",
"2 c #550E12",
"3 c #600E15",
"4 c #631416",
"5 c #691718",
"6 c #6A1718",
"7 c #6D161A",
"8 c #751D1B",
"9 c #5F2511",
"0 c #7D211E",
"q c #7E211E",
"w c #612C22",
"e c #7E2020",
"r c #7D4938",
"t c #95291D",
"y c #9E2E20",
"u c #962E28",
"i c #AD3929",
"p c #87621F",
"a c #BE412A",
"s c #9E7F2C",
"d c #E76335",
"f c #9E6A52",
"g c #CC9976",
"h c #F3BB7D",
"j c #D3E45C",
"k c #EDFC91",
"l c None",
/* pixels */
"llllllllllllllllllllllllllllllll",
"llllllllllllll lllllllllllllllll",
"lllllllllllll 9 llllll lllllllll",
"lllllllll+ll , llllll 9 llllllll",
"llllll+++lll &++++lll , llllllll",
"lllllll++ll $+euaa+l & lllllllll",
"llllll@l+ll +euaada+$ llllllllll",
"lllll@lllll+6uuaddda+lllllllllll",
"lllll@lllllloeskadak+lllllllllll",
"llll@lllll%%#4upjajp+lllllllllll",
"llll@llll%rf#48ua;au+lllllllllll",
"llllXlllo=wfg#4;uuue+lllllllllll",
"llllXll+:1=wfh#e;;e#h%llllllllll",
"lllllXlo26:wrwh#ee#hg%llllllllll",
"lllllX+2eq1*w=wg##hwf%llllllllll",
"lllllX+euu.:=3wfhggwwu+lllllllll",
"llllllouaolo:7=wfwf%uaa+llllllll",
"lllll+ua+lll+>7:w6%l+uad+lllllll",
"lllll+aa+llll+3e1u4+l++ad+llllll",
"lllll+;;+llllo2eui8+lll+ad+lllll",
"lllll+ddd+ll+24uiue+ll+u+ad+llll",
"llll+aadad+l+4uiue7+ll++l+a+llll",
"llll+a;a;a+l+eue7;e+ll-ll+u+llll",
"llll+u+u+u+l+qu+;4u+llllll+lllll",
"lllll+l+l+l+ui+l+8a+llllll-lllll",
"lllll-l-l-l+y+llloaa+++lllllllll",
"llllllllll+ya+lllotdd;a+llllllll",
"lllllllll+adda+l+uo+aa;+llllllll",
"llllllll+u;ad;u+++ll+++lllllllll",
"llllllll+++ua+++llllllllllllllll",
"lllllllllll++lllllllllllllllllll",
"llllllllllllllllllllllllllllllll"
};
