/* XPM */
static const char *Icon29[] = {
/* columns rows colors chars-per-pixel */
"32 32 32 1 ",
"  c #180504",
". c #230906",
"X c #2B0F0A",
"o c #381712",
"O c #3E1E17",
"+ c #50271F",
"@ c #4F2920",
"# c #5D3226",
"$ c #5A3128",
"% c #6F3F2F",
"& c #724437",
"* c #80503C",
"= c #865342",
"- c #865846",
"; c #925741",
": c #96654F",
"> c #A3684E",
", c #A06851",
"< c #A86E52",
"1 c #AC765C",
"2 c #B77C61",
"3 c #AE8165",
"4 c #B98467",
"5 c #C18E6E",
"6 c #C88D6F",
"7 c #D29070",
"8 c #DE9E7B",
"9 c #EAAC86",
"0 c #F3B68D",
"q c #EDC095",
"w c #FCDDB8",
"e c None",
/* pixels */
"eeeeeeeeeeeeeeeeeeeeeeeeeeeeeeee",
"eeeeeeeeeeeeeeeeeeeeeeeeeeeeeeee",
"eeeeeeeeeeeeeeeeeeeeeeeeeeeeeeee",
"eeeeeeeeeeeeeeeXeeeeeeeeeeeeeeee",
"eeeeeeeXeeeeeeXwXeeeeeeeeXeeeeee",
"eeeeeXeXeeXeeX$wXeeeeeeeXXeXeeee",
"eeeeeeXwXXXeeXqwwXXeeeXeXwXXeeee",
"eeeeXXqwwqXeeeXqqXeeeeeXwwXeeeee",
"eeeeeeXqqXeeee.$XeeeeeeXqqwXXeee",
"eeeeeeeX$:.eee.:.eeeeee.$$Xeeeee",
"eeeeeeee.1.eee.8.eeXXXe.8.eeeeee",
"eeeeeXee.85.e.-0.eXwwqX8=.eeeeee",
"eeXeXXee.60.e.=1=.Oqq$3$=.eeeeee",
"eXwX$wXe.&60.+=+++4OO=$=.eeeeeee",
"eXqwwqXee.&28,+79+,$#,+.eeeeeeee",
"eeXXX$:.ee.&=OO#%+++=4=.eeXXXeee",
"eeeee.=8..e.OwwO$#;o&=+0.X$qwXee",
"eeeeee.:80.OqqwwOO#7++07=XqXq$Xe",
"eeeeeXOOO7;OOOqO#;+=907=.eXeX$Xe",
"eeeeXwqO&=o+#@O*o#>o===.eeeeeXee",
"eeeeXwq$Oo#%.#$%<+7+&..eeeeeeeee",
"eeeeXq$=9+=.e.@#%.20.eXX.eeeeeee",
"eeeeeX.+=7+8.e. .e.71XqXeeeeeeee",
"eeeeeXe..+=81XXeeee.$qwXeeeeeeee",
"eeeeeeeee.&=XqwXeeeeXqwqXXeeeeee",
"eeeeeeeeee..eXqwXeeeeXqXeeeeeeee",
"eeeeeeeeeeeeXeXXXeeeeeXeXeeeeeee",
"eeeeeeeeeeeXeeXeXeeeeeXeeeeeeeee",
"eeeeeeeeeeeeeXeeeeeeeeeeeeeeeeee",
"eeeeeeeeeeeeeeeeeeeeeeeeeeeeeeee",
"eeeeeeeeeeeeeeeeeeeeeeeeeeeeeeee",
"eeeeeeeeeeeeeeeeeeeeeeeeeeeeeeee"
};
