/* XPM */
static const char *Icon5[] = {
/* columns rows colors chars-per-pixel */
"32 32 39 1 ",
"  c black",
". c #020000",
"X c #030000",
"o c #000003",
"O c #000104",
"+ c #000005",
"@ c #0A0202",
"# c #0C0404",
"$ c #0F0606",
"% c #160B0A",
"& c #010612",
"* c #010613",
"= c #251714",
"- c #3B2119",
"; c #050123",
": c #05012B",
"> c #0B0933",
", c #0F0E3E",
"< c #16174E",
"1 c #1B1D5C",
"2 c #202469",
"3 c #272F79",
"4 c #F0CD66",
"5 c #2D3988",
"6 c #2B4B8B",
"7 c #36499C",
"8 c #35569E",
"9 c #3D53AA",
"0 c #4064B5",
"q c #456ABF",
"w c #3566C1",
"e c #3E74DA",
"r c #4A72CB",
"t c #4F7BD3",
"y c #457EE9",
"u c #4A88F8",
"i c #5399FF",
"p c #59A2FF",
"a c None",
/* pixels */
"aaaaaaaaaaaaaaaaaaaaaaaaaaaaaaaa",
"aaaaaaaaaaaaaaaaaaaaaaaaaaaaaaaa",
"aaaaaaaaaaaaaaaaaaaaaaaaaaaaaaaa",
"aaaaaaaaaaaaaaaaaaaaaaaaaaaaaaaa",
"aaaaaaaaaaaaaaaOOOaaaaaaaaaaaaaa",
"aaaaaaaaa aOOOO599Oaaaaaaa  aaaa",
"aaaaaaaaaOOuyqq2<27Oaaaaa - aaaa",
"aaaaaaaaOue8OOOOO<23Oaaa = aaaaa",
"aaaaaaaaOe8OaaaaaO<22Oa % aaa  a",
"a aaaaaaaOOaaaaaaaO<<> && aa - a",
"a  aaaaa % aaaaOOO;;&&uip&  $= a",
"a - aaaaO$OaaOO9975rqyeeeq8&% aa",
"aa =  aO<OaOO97522<;&&&8&&&$@ aa",
"aaa %$O<25O27522OO;>>>;&&<2; aaa",
"aaaa ;<259;><2<OaaO><<;<;&7Oaaaa",
"aaaaaO<2549;><;;OO><21<;qiOaaaaa",
"aaaaaO;4255;<225;<;2532<;;Oaaaaa",
"aaOOO;;<2e2;23532<<;2552<<>OOaaa",
"aOe52<>;8we;3552<<,><2552<<>>Oaa",
"aOw552<>;:;>122<<,>>><22<<>>>Oaa",
"aO8e;OOO>>><<1<<,>>>>><<OO><6Oaa",
"aaOwOaaaOOOOOO>>>>>>OOOOaaO<6Oaa",
"aaO6OaaaaaaaaaOOOOOOaaaaaaO0Oaaa",
"aaO8eOaaaaaaaaaaaaaaaaaaaOt8Oaaa",
"aaOeeuOaaaaaaaaaaaaaaaOOOpeOaaaa",
"aOOeuOaOaaaaaaaaaaaaaOaOue8Oaaaa",
"aOaOOOaaaaaaaaaaaaaaaaOOeOOaaaaa",
"aaaOaOaaaaaaaaaaaaaaaOaaOaOaaaaa",
"aaaaaaaaaaaaaaaaaaaaaaaOaOaaaaaa",
"aaaaaaaaaaaaaaaaaaaaaaaaaaaaaaaa",
"aaaaaaaaaaaaaaaaaaaaaaaaaaaaaaaa",
"aaaaaaaaaaaaaaaaaaaaaaaaaaaaaaaa"
};
