/* XPM */
static const char *Icon11[] = {
/* columns rows colors chars-per-pixel */
"32 32 37 1 ",
"  c black",
". c #010101",
"X c #020000",
"o c #010203",
"O c #040000",
"+ c #020305",
"@ c #05070B",
"# c #07080B",
"$ c #090A0E",
"% c #120003",
"& c #140200",
"* c #1F0007",
"= c #090C11",
"- c #0E141C",
"; c #12141C",
": c #11161E",
"> c #200005",
", c #2B0008",
"< c #36030B",
"1 c #38010B",
"2 c #361107",
"3 c #131B23",
"4 c #490611",
"5 c #520B14",
"6 c #5E1118",
"7 c #69141A",
"8 c #77181D",
"9 c #542713",
"0 c #6D3A1E",
"q c #811B1F",
"w c #982124",
"e c #B72225",
"r c #CD2326",
"t c #8B542E",
"y c #C14F20",
"u c #F9993F",
"i c None",
/* pixels */
"iiiiiiiiiiiiiiiiiiiiiiiiiiiiiiii",
"iiiiiii&iiiiiii   iiiiiii&iiiiii",
"iiiiiii&&iiiiiii ;  iiii&&iiiiii",
"iiiiiii&t&iiii$   iiiii&t&iiiiii",
"iiiiiii&t2&&i;iiiiiiii&2t&iiiiii",
"iiiiiiii&tt2&iOOOOOi&&tt&iiiiiii",
"iiiiiiii&02tt&46q76&tt20&iiiiiii",
"iiiiiiiii&09246qwq76290&iiiiiiii",
"iiiiiiiii#&24yuwewuy62&iiiiiiiii",
"iii&&&ii$iiO46yuruyq6&iiiii&&&ii",
"iiii&t&i;iiO<46wewwq6&iiii&t&iii",
"iiiii&t&iiiiO46***q6&iiii&t&iiii",
"iiiii&t2&iiiiO46qq6Oiiii&2t&iiii",
"iiii&020t&&&iiO%%%%4Oi&&t02t&iii",
"iiii&20tt2t0& >>><462&t2t00&&iii",
"iiiii&&t200221,,<46 w8202t&iiiii",
"iiii$ii&9&258%* 44 3 6&&9&iiiiii",
"iii;iii&&i&45w 3 6  - ii&&iiiiii",
"ii;iiiiiiiiO* -  wq  iiiiiiiiiii",
"ii;iiiiiiiiiO   q86Oiiiiiiiiiiii",
"ii;iiiiiiii *>>46644Oiiiiiiiiiii",
"iii;iiiiii$O><,>4448qOiiiiiiiiii",
"iiii;$iii$iO<46  O46wOiiiiiiiiii",
"iiiiii$$$iiO48OiiiO48Oiiiiiiiiii",
"iiiiiiiiiiiO46OiiiO46Oiiiiiiiiii",
"iiiiiiiiiiiiO46OiO<4Oiiiiiiiiiii",
"iiiiiiiiiiiiiO4OiO<Oiiiiiiiiiiii",
"iiiiiiiiiiiii  OiO  iiiiiiiiiiii",
"iiiiiiiiiiii @+ i +@ iiiiiiiiiii",
"iiiiiiiiiii - = i = - iiiiiiiiii",
"iiiiiiiiiii  i iii i  iiiiiiiiii",
"iiiiiiiiiiiiiiiiiiiiiiiiiiiiiiii"
};
