/* XPM */
static const char *Icon3[] = {
/* columns rows colors chars-per-pixel */
"32 32 40 1 ",
"  c black",
". c #010001",
"X c #10080D",
"o c #150C0C",
"O c #040812",
"+ c #060B17",
"@ c #21140F",
"# c #261618",
"$ c #2B1F1F",
"% c #251F22",
"& c #1F2229",
"* c #2E2327",
"= c #322525",
"- c #382A2A",
"; c #3F2F2F",
": c #413737",
"> c #533D39",
", c #343946",
"< c #3D4453",
"1 c #3E4656",
"2 c #6E5558",
"3 c #685C5B",
"4 c #475264",
"5 c #525B6F",
"6 c #5C6579",
"7 c #7A6E6D",
"8 c #A08172",
"9 c #676E81",
"0 c #717688",
"q c #908483",
"w c #A69491",
"e c #BAA39E",
"r c #CFB1A8",
"t c #E7BFA9",
"y c #E4BFB2",
"u c #FFDCC5",
"i c #FFFFE8",
"p c #FFFFFD",
"a c white",
"s c None",
/* pixels */
"ssssssssssssssssssssssssssssssss",
"ssssssssssssssssssssssssssssssss",
"ssssssssssssssssssssssssssssssss",
"sssssssssssssssssssssssOooosssss",
"sssssssssssssssssssssoo,wy6Ossss",
"ssssssooOoosssssssss.,qwe600Osss",
"sssssoy000rosssssss.X3q6ww60osss",
"ssssOyye6ee9Ossssss.X,3q3Xwyyoss",
"sssO9y6ewq569Ossss.*X,,3XX5y0oss",
"ssO66ewituq56ossss.*X&3X*Xweyoss",
"ssO5ewut@@u4wwOss.*2X:8X*X46y0os",
"sO4qw<t@ss@iqw4OO%2%:8X*2X460yos",
"so7q4,+sss@u4q7,,%2=$$%2%3460yos",
"so37<<Osss@tu7,3&$=0y0=2%3q6yros",
"so&374osss@8t,,&:$000e0=%1qe0eos",
"sO&,qqp+sss@88&8$.r0ewe=,14eyeos",
"ssO,qw69+sss@@88$%ee.q5=31qer6Os",
"sso334e0p@ssss@>X2%wqqq6=7q5ewos",
"ssso3qweypossss.*X2%qq-5=3446wos",
"ssssooqw6e9osss.**X#;-tq-,<45ios",
"ssssssooqw4Osss.**.s@8tqe-,<wi@s",
"ssssssssoq3osss.*.ss@ttiwe7qpi@s",
"ssssssso<3t@sss..sss@tttqwe6i@ss",
"sssssoO738@ssss.ssss@8tttqqii@ss",
"ssssoq<:8@sssssssssss@88tttt@sss",
"ssso4q-8@sssssssssssss@888@@ssss",
"sss@iwe--osssssssssssss@@@ssssss",
"ssss@ipeeyosssssssssssssssssssss",
"sssss@oooossssssssssssssssssssss",
"ssssssssssssssssssssssssssssssss",
"ssssssssssssssssssssssssssssssss",
"ssssssssssssssssssssssssssssssss"
};
