/* XPM */
static const char *Icon4[] = {
/* columns rows colors chars-per-pixel */
"32 32 63 1 ",
"  c #010000",
". c #040100",
"X c #020500",
"o c #020700",
"O c #0F0201",
"+ c #100000",
"@ c #100100",
"# c #1D0604",
"$ c #111902",
"% c #2F100B",
"& c #38110B",
"* c #3E120B",
"= c #3C170E",
"- c #182204",
"; c #1F2A06",
": c #212D06",
"> c #293606",
", c #2B380A",
"< c #35281B",
"1 c #401000",
"2 c #4E1D05",
"3 c #441B0F",
"4 c #50190F",
"5 c #591E10",
"6 c #5B1E10",
"7 c #5E2E0C",
"8 c #4D2011",
"9 c #5A2011",
"0 c #5C2212",
"q c #5F2413",
"w c #672312",
"e c #712614",
"r c #782110",
"t c #7B2613",
"y c #7F2714",
"u c #4B3D2A",
"i c #32400A",
"p c #3C4B10",
"a c #40510E",
"s c #495B0E",
"d c #4F620F",
"f c #5B6C1B",
"g c #6D5E42",
"h c #972A15",
"j c #82511A",
"k c #956922",
"l c #A47B23",
"z c #D36E08",
"x c #8D7A4C",
"c c #70821D",
"v c #758825",
"b c #859827",
"n c #90A428",
"m c #A4B72A",
"M c #ADB92E",
"N c #FFB322",
"B c #BCC72F",
"V c #D5DE31",
"C c #E7DC37",
"Z c #FFF639",
"A c #FFFF60",
"S c white",
"D c None",
/* pixels */
"DDDDDDDDDDDDDDDDDDDDDDDDDDDDDDDD",
"DDDDDDDDDDDDDDDDDDDDDDDDDDDDDDDD",
"DDDDDDDD D DDD   DD D DDDDDDDDDD",
"DDDDDDD r  Do %39 o+ r DDDDDDDDD",
"DDDDDDD +5+ fs+++Mv+*+ DDDDDDDDD",
"DDDDDD N5%+fvMVZSZM+#4N DDDDDDDD",
"DDDDD Aw%+%+n+BVCV+n+#=A DDDDDDD",
"DDDD yw%#++>ndm+M+%++O#=t DDDDDD",
"DDDD 4##+-:fcv+aba+dc+O#4 DDDDDD",
"DDD z#O+-pf+f+%+++3+nc+O#z DDDDD",
"DDD #++%+f+%++#%3q8+v+i++= DDDDD",
"DDD  $-+:pi+i+#%whe8+ifi:+ DDDDD",
"DDDDD ;-,+pif+#%NhN0+f+p,oDDDDDD",
"DDDDD ++,-pp++O#AqA0++:+ DDDDDDD",
"DDDDDD #+,,+##+#%39&+%+% DDDDDDD",
"DDDDDD.+ ;;+O# O#%3+##+ <.++DDDD",
"DDD++.<.Doo++ D #z# +# D.kl+DDDD",
"DDD+7j.DDDD .DDD # D.+.D+jk+DDDD",
"DDD+jl+DDD.u.DDDD DD.u.DD+7j+DDD",
"DD+7k+DDDD.g.DDDDDDD.g.DDD+7+DDD",
"DD+7+DDDDD.x.DDDDDDD.x.DDDD+7+DD",
"D+2+DDDDDD.1+DDDDDDD+1.DDDDD++DD",
"D++DDDDDDD+2k+DDDDD+lj+DDDDDDDDD",
"DDDDDDDDDD+7jl+DDDD+kj+DDDDDDDDD",
"DDDDDDDDDDD+7jk+DDD+j7+DDDDDDDDD",
"DDDDDDDDDDDD+7j+DDD+7+DDDDDDDDDD",
"DDDDDDDDDDDDD+7+DD+72+DDDDDDDDDD",
"DDDDDDDDDDDDDD+2+D+2+DDDDDDDDDDD",
"DDDDDDDDDDDDDDD++D++DDDDDDDDDDDD",
"DDDDDDDDDDDDDDDD+D+DDDDDDDDDDDDD",
"DDDDDDDDDDDDDDDDDDDDDDDDDDDDDDDD",
"DDDDDDDDDDDDDDDDDDDDDDDDDDDDDDDD"
};
