/* XPM */
static const char *Icon12[] = {
/* columns rows colors chars-per-pixel */
"32 32 36 1 ",
"  c #010000",
". c #020700",
"X c #100000",
"o c #160302",
"O c #200805",
"+ c #290905",
"@ c #2F100B",
"# c #311507",
"$ c #3C110B",
"% c #233006",
"& c #293809",
"* c #2B380A",
"= c #0D1327",
"- c #441B0F",
"; c #571D10",
": c #32400A",
"> c #3C4B10",
", c #5B6C1B",
"< c #3A4564",
"1 c #4D607E",
"2 c #872111",
"3 c #708521",
"4 c #758825",
"5 c #879221",
"6 c #8D9525",
"7 c #98A52C",
"8 c #AEB82E",
"9 c #B7B52C",
"0 c #FFB322",
"q c #E2DF36",
"w c #FFF73F",
"e c #6688A5",
"r c #6C8BA6",
"t c #8AC1DE",
"y c #C0EEFC",
"u c None",
/* pixels */
"uuuuuuuuuuuuuuuuuuuuuuuuuuuuuuuu",
"uuuuuuu     uuuu     uuuuuuuuuuu",
"uuuuuuuu  @O    O@  uuuuuuuuuuuu",
"uuuuuuuuuu XO$;2X uuuuuuuuuuuuuu",
"uuuuuuuuuuu 0O@0 uuuuuuuuuuuuuuu",
"uuuuuuuuuuuu XX uuuuuuuu==uuuuuu",
"uuuuuuuuu   >,36  uuuuuu#=uuuuuu",
"uuuuuuuu o+$XX8X;2 uuuu##uuuuuuu",
"uuuuuuuuu oO$XqwXX.uuuu##uuuuuuu",
"uuuuuuuuuu XX%87X,7  u.*#uuuuuuu",
"uuuuuuuuuuu @X4X+X,qX.69.uuuuuuu",
"uuuuuuuuuuuu :,X@ .>58*4.uuuuuuu",
"uuuuuuuuuuuu.>,: uu.=<*.uuuuuuuu",
"uuuuuuuuuuuu *> uuuuu=<<=uuuuuuu",
"uuuuuuuuu u oXX; u uu=1r==uuuuuu",
"uuuuuuuu ;  O$2@  2 u=r=uuuuuuuu",
"uuuuuuuu $ u O@ u $ u=t=uuuuuuuu",
"uuuuuuuu O; u  u ;O =1t=uuuuuuuu",
"uuuuuuuuu $ uuuu $ u=r=uuuuuuuuu",
"uuuuuuuuu O uuuu O u=t=uuuuuuuuu",
"uuuuuuuuu X uuuu X u=y=uuuuuuuuu",
"uuuuuuuuu ; uuuu ;X=1t=uuuuuuuuu",
"uuuuuuuuu - uuuu -X<r=uuuuuuuuuu",
"uuuuuuuuu @O uu O@X<t=uuuuuuuuuu",
"uuuuuuuuu OX uu XOX<y=uuuuuuuuuu",
"uuuuuuuuu X- uu -XX1t=uuuuuuuuuu",
"uuuuuuuuu $@ uu @;Xt=uuuuuuuuuuu",
"uuuuuuuuu @O uu O@Xe=uuuuuuuuuuu",
"uuuuuuuu @Oo uu oO@X=uuuuuuuuuuu",
"uuuuuuu @Oo  uu  oO@ uuuuuuuuuuu",
"uuuuuuu    uuuuuu    uuuuuuuuuuu",
"uuuuuuuuuuuuuuuuuuuuuuuuuuuuuuuu"
};
