/* XPM */
static const char *Icon16[] = {
/* columns rows colors chars-per-pixel */
"32 32 24 1 ",
"  c #160000",
". c #160A04",
"X c #2A0202",
"o c #390404",
"O c #201108",
"+ c #3F2A19",
"@ c #4A0706",
"# c #660807",
"$ c #50402E",
"% c #5B422E",
"& c #6C5C46",
"* c #86180C",
"= c #A02714",
"- c #C71404",
"; c #D32D11",
": c #C83F1F",
"> c #E14820",
", c #F38818",
"< c #FFAF07",
"1 c #978769",
"2 c #9D917F",
"3 c #DBD5BE",
"4 c #FCF6D5",
"5 c None",
/* pixels */
"5555555555555555555-555555555555",
"555555555555-555-555555555555555",
"5555555555-5555--55-5555-5555555",
"555555555555-55-555-555555555555",
"5555555555-5--5555--5555-5555555",
"555555555--5-;-55->-555--5555555",
"555555555-555--5-;>;-55--5555555",
"5555555555555-;-;>,>;-55-5555555",
"555555555-555->     >;-55-555555",
"555555555-55-> Xo#*= >-555555555",
"5555555-5--5- Xo#*=:= ;-5-555555",
"555555555-;-; Xo@#*=* >-5-555555",
"55555555-;>;> X o@o # ,;--555555",
"55555555-;>> X   o   * >;-555555",
"55555555->,> XX X@o #= >;-555555",
"55555555->,,< Xo@#@#= ,>;-555555",
"55555555-;>,,< o * * <>;-5555555",
"555555555-;>>, Xo#@# ,>-55555555",
"5555555555-->> X o @ ,;-5-555555",
"555555555555-;>     ,>-555555555",
"555555555555-;; X X >;-555555555",
"5555555555555--.$ o --5555555555",
"555555555555555O&+$ 555555555555",
"5555555555555555O1&O555555555555",
"555555555555555O%1&O555555555555",
"55555555555555O43%%2O55555555555",
"5555555555555O4%43322O5555555555",
"5555555555555O%4%32O3O5555555555",
"55555555555555O3%2O5O55555555555",
"55555555555555OO3O55555555555555",
"5555555555555555O555555555555555",
"55555555555555555555555555555555"
};
