/* XPM */
static const char *Icon15[] = {
/* columns rows colors chars-per-pixel */
"32 32 52 1 ",
"  c black",
". c #010000",
"X c #060000",
"o c #020700",
"O c #090000",
"+ c #080101",
"@ c #0A0000",
"# c #0B0000",
"$ c #0D0201",
"% c #0E0201",
"& c #100000",
"* c #150201",
"= c #160302",
"- c #120402",
"; c #130503",
": c #150503",
"> c #160503",
", c #1D0302",
"< c #1F0603",
"1 c #200805",
"2 c #2A0905",
"3 c #2F0905",
"4 c #3E0A06",
"5 c #2F100B",
"6 c #3E120B",
"7 c #1F2A06",
"8 c #212D06",
"9 c #2B380A",
"0 c #570C06",
"q c #441B0F",
"w c #591E10",
"e c #5A2011",
"r c #762312",
"t c #32400A",
"y c #3C4B10",
"u c #40510E",
"i c #575E0E",
"p c #515710",
"a c #5B6C1B",
"s c #717210",
"d c #7B7D1B",
"f c #9C2713",
"g c #D36E08",
"h c #758825",
"j c #9E9D25",
"k c #98A52C",
"l c #BBB733",
"z c #CDBE2C",
"x c #FFB322",
"c c #FDD333",
"v c #FFFF60",
"b c None",
/* pixels */
"bbbbbbbbbbbbbbbbbbbbbbbbbbbbbbbb",
"bbbbbbbbbbbbbbbbbbbbbbbbbbbbbbbb",
"bbbbbbbbbbbbbbbbbb...bbbbbbbbbbb",
"bbbbbb...bbbooob..6wf.bbbbbbbbbb",
"bbbbb.frw...y&u.115qef.bbbbbbbbb",
"bbbb.weq5&55&th&:115qef.bbbbbbbb",
"bbb.15q51&15&hkh&&215qer.bbbbbbb",
"bb.%1151&9&&hzc&ef&115qq6.bbbbbb",
"bb.%%111&yddjz&qggr&&1155.bbbbbb",
"bbb.%%%=&p&jkh&5x.g&y&&&.bbbbbbb",
"bb.1####ydt&&&&15vxe&aa&h...bbbb",
"bb.15&9ypd&16wf&15q&a&hs&16w.bbb",
"b.%11&&yd&15g.gr&&&adic&15qfr.bb",
"b.%:=&8a#=1gx.xgw&ydjz&15qreq6.b",
"b.%:&9&aa#=1v.vq5&ddj&-15qqq51.b",
"b.%%#98yaa#=11151&a&c#%-15511%.b",
"bb.#7#&&aja&&&=1&aaukj#%-11-#=.b",
"bbo7#,2q&&caay&&ya&&&ha##-##5.bb",
"bbb.%:15wr&jaaaad&erf&y&5#w51.bb",
"bbb.%%:15qw&jj&j&egxw&&51&51=.bb",
"bbb.X#%:116#kcu&qg.vq&q&&5&..bbb",
"bb.=<3X%:1#ahkl&5gxq5&rw51.bbbbb",
"bb.#%:X%%#%#ahk&15&&&w551-.bbbbb",
"bb.##X%XX##ya&ha#&=22111=.bbbbbb",
"bbb..#%:<40#yta#51&#X#&=.bbbbbbb",
"bbbbb.#%::==#y#:1=X111=.bbbbbbbb",
"bbbbbb.#%%%#:#:%X#1%%%.bbbbbbbbb",
"bbbbbbb....##%#X:%%...bbbbbbbbbb",
"bbbbbbbbbbb...#%%#.bbbbbbbbbbbbb",
"bbbbbbbbbbbbbb....bbbbbbbbbbbbbb",
"bbbbbbbbbbbbbbbbbbbbbbbbbbbbbbbb",
"bbbbbbbbbbbbbbbbbbbbbbbbbbbbbbbb"
};
