/* XPM */
static const char *Icon43[] = {
/* columns rows colors chars-per-pixel */
"32 32 37 1 ",
"  c black",
". c #010101",
"X c #010203",
"o c #060101",
"O c #020304",
"+ c #030405",
"@ c #080101",
"# c #0A0202",
"$ c #0E0101",
"% c #0A0403",
"& c #0D0404",
"* c #0F0606",
"= c #0E0706",
"- c #040608",
"; c #050609",
": c #080B0F",
"> c #160B0A",
", c #180E0C",
"< c #0C1016",
"1 c #11161E",
"2 c #251714",
"3 c #3A1B14",
"4 c #3D1C17",
"5 c #3B2119",
"6 c #1B242E",
"7 c #232F3B",
"8 c #45120D",
"9 c #4D2314",
"0 c #4F2D1A",
"q c #5E391F",
"w c #623219",
"e c #E13B0D",
"r c #854A25",
"t c #864C25",
"y c #B36B2B",
"u c #C3792C",
"i c None",
/* pixels */
"iiiiiiiiiiiiiiiiiiiiiiiiiiiiiiii",
"iiiiiiiiiiiiiiiiiiii   iiiiiiiii",
"iiiiiiiiiiiiiiiiiiiii 6 iiiiiiii",
"iiiiiiiiiiiiiiiiiiiii 1#  iiiiii",
"iiiiiiiiiiiiiiiiiiiiii 250 iiiii",
"iiiiiiiiiiiiiiiiiiiii >225q iiii",
"iiiiiiiiiiiiiiiiiiiii *>te0 iiii",
"iiiiiiiiiiiiiiiiii  i *##t50 iii",
"iiiiiiiiiiiiiiiii # i >9# t5 iii",
"iiiiiiiiiiiiii   1 # >2w i   iii",
"iiiiiiiiiiii  O<1 %o>22y$iiiiiii",
"iiiiiiiiiii +O<1 %*#>25ru iiiiii",
"iiiiiiiiii + :1 %*o>222yy iiiiii",
"iiiiiiiii + :16 *,*225>yt iiiiii",
"iiiiiiii ;;O<1 %*,%255*tw iiiiii",
"iiiiiii ;; :16 o,**250*w$iiiiiii",
"iiiiii ;: :<1 o%**%25q#w iiiiiii",
"iiiiii ;: :16 %**%o25#9 iiiiiiii",
"iiiii ;:O::1 >#o33o25#49 iiiiiii",
"iiii ;::O::6 >25#3#25#9w iiiiiii",
"iiii ;  +;:6 250qoo>50#w$iiiiiii",
"iii ; ii ;:1 22500oo25#wy iiiiii",
"iii  iii  ;: >2255oo>2#wt iiiiii",
"iiiiiii ;* ; >>>22o%o>58t0 iiiii",
"iiiiii +*** >>>>>#*o%o208y0 iiii",
"iiiiii +: ***    *,,  >50$ iiiii",
"iiiiii +:<   1667 o ii   iiiiiii",
"iiiiiii ;::<<<1116 i iiiiiiiiiii",
"iiiiiiii  ;::     6 iiiiiiiiiiii",
"iiiiiiiiii   iiiii  iiiiiiiiiiii",
"iiiiiiiiiiiiiiiiiiii iiiiiiiiiii",
"iiiiiiiiiiiiiiiiiiiiiiiiiiiiiiii"
};
