/* XPM */
static const char *Icon28[] = {
/* columns rows colors chars-per-pixel */
"32 32 41 1 ",
"  c black",
". c #080000",
"X c #180000",
"o c #210000",
"O c #2E0000",
"+ c #290804",
"@ c #2A0F05",
"# c #350C06",
"$ c #380A01",
"% c #381707",
"& c #480000",
"* c #430D02",
"= c #451209",
"- c #571302",
"; c #610000",
": c #601603",
"> c #6C1A03",
", c #711D04",
"< c #7F1108",
"1 c #5B331C",
"2 c #5D3129",
"3 c #663D22",
"4 c #774C2A",
"5 c #794F2D",
"6 c #8E2705",
"7 c #9C2C05",
"8 c #9F2311",
"9 c #AA3105",
"0 c #B73E06",
"q c #C71404",
"w c #976B3F",
"e c #CB4721",
"r c #E14820",
"t c #9E7645",
"y c #F38818",
"u c #C6A060",
"i c #D9B464",
"p c #EDC969",
"a c #FFFF7A",
"s c #F3E2C7",
"d c None",
/* pixels */
"dddddddddddddddddddddddddddddddd",
"dddddddddddddddddddddddddddddddd",
"dddddddddddddddddddddddddddddddd",
"dddddddddddddddddddddddddddddqdd",
"dddddddddddddddddddddddddddddqdd",
"dddddddddddddddddddddddddddqdddd",
"ddddddd...ddddddddddddddddqqdddd",
"dddddd.8e.ddddddddddddddddqqdddd",
"ddddd.<;.ddddddddddddddddddqdddd",
"ddddo;;.dddddddddddddddddddddqdd",
"dddo,;.ddddddddddddddddXXddddqqd",
"dddo,&.dddddddddddddooo00ooodqqd",
"ddo,,&.ddddddddddddo90099976orqd",
"dd%t69odddddddddddo9  9uu1##rrqd",
"dd%5,69odddd.ddd.do799ut1rsrqqdd",
"dd%3t670..d.e.d.e.+67ut1syrqdddd",
"ddd%5,69O&.<8<.<8O$$uw1ry22%dddd",
"ddd%35,,6O&;<O<OO$*53uw1111p%ddd",
"dddd%3=69>O;;O;<O*>551uuipa%dddd",
"dddddo6706>OO6O;O->ut511%%%ddddd",
"dddddo696,>666,O,,uiuuw%dddddddd",
"dddddo976,5w6,,6,ttupap%dddddddd",
"ddddo,96o555t:696ttuup%ddddddddd",
"ddddo69od@533=909=tt4%dddddddddd",
"dddo,9oddd@@3#699=%4,9oddddddddd",
"dddo,7oddddd@#696odo,6oddddddddd",
"ddo,6odddddddo,7odddo,9odddddddd",
"ddo,6odddddddo,6odddo,67oddddddd",
"doo:ooodddddo:,6oddooo6ooodddddd",
"dddodddddddooo:oooddddoddddddddd",
"ddddddddddddddoddddddddddddddddd",
"dddddddddddddddddddddddddddddddd"
};
