/* XPM */
static const char *Icon46[] = {
/* columns rows colors chars-per-pixel */
"32 32 59 1 ",
"  c black",
". c #000001",
"X c #010101",
"o c #040000",
"O c #070000",
"+ c #020304",
"@ c #070604",
"# c #040608",
"$ c #05080C",
"% c #06090F",
"& c #080B0F",
"* c #170000",
"= c #1D0502",
"- c #17120F",
"; c #070C15",
": c #0A161F",
"> c #11161E",
", c #260803",
"< c #320E06",
"1 c #201108",
"2 c #251F19",
"3 c #2C251C",
"4 c #0C1528",
"5 c #0C192B",
"6 c #13222E",
"7 c #0E213F",
"8 c #152635",
"9 c #322B23",
"0 c #342C22",
"q c #25303C",
"w c #4F0D00",
"e c #411509",
"r c #501E0E",
"t c #5B0515",
"y c #5D2611",
"u c #453B2C",
"i c #4D4231",
"p c #163345",
"a c #213C5D",
"s c #224267",
"d c #2B4661",
"f c #355474",
"g c #33527A",
"h c #746553",
"j c #8C1417",
"k c #A9281B",
"l c #B67032",
"z c #D04320",
"x c #D69832",
"c c #9D917F",
"v c #F9D256",
"b c #406FA2",
"n c #4782C2",
"m c #5AA9F7",
"M c #B8AE9A",
"N c #DBD5BE",
"B c #FCF6D5",
"V c white",
"C c None",
/* pixels */
"CCCCCCCCCCCCCCCCCCCCCCCCCCCCCCCC",
"CCCCCCCCCCCCCCCCCCCCCCCCCCCCCCCC",
"CCCCCCCC1111CCCCCCCCCCCCCCCCCCCC",
"CCCCCC11cMMc11CCCCCCCCCCCCCCCCCC",
"CCCCC1hcMMNN>c1CCCCCCCCCCCCCCCCC",
"CCCC hcM>NB>ppc CCCCCCCCCCCCCCCC",
"CCCC hc>>pVBpNcq CCCCCCCCCCCCCCC",
"CCC $4cNpBB6BNNf CCCCCCCCCCCCCCC",
"CCC #4hcNNBBVBmnf CCCCCCCCCCCCCC",
"CCC #$4hcNNNBNnbf CCCCCCCCCCCCCC",
"CCC +#;4ascNNnbfdq CCCCCCCCCCCCC",
"CCCC +#$47sgfffdq8 CCC  CCCCCCCC",
"CCCC @+##&55qtttt: CC 9u  CCCCCC",
"CCC -2@@###&tjkzkt C @@@ui CCCCC",
"CC -0@iu@@#t,<ek***o-@ui@9i CCCC",
"CC 3@9u@ui@@@,<*<err*29u@2u CCCC",
"C -0@9u@9u@-9@*<erryr*29i@2u CCC",
"C -@-29@9u@--9@wwerreww2u@-9 CCC",
"C -@-2@-29@  -wxvweewxvwu@@2u CC",
"C @-2@@-29 CC wlxw<ewlxw9@ -9 CC",
"C @-2 @-2 CCCC ww,<<,ww 9 C -9 C",
"C -- C -2 CCCCC & ,,= & 2 C -9 C",
"C -- C -2 CCCCCC > o > -2 CC - C",
"C - CCC - CCCCCCC  C  C - CC - C",
"C - CCC - CCCCCCCCCCCCC - CCC CC",
"C - CCC - CCCCCCCCCCCCC - CCCCCC",
"CC CCCC - CCCCCCCCCCCCC - CCCCCC",
"CCCCCCCC CCCCCCCCCCCCCCC CCCCCCC",
"CCCCCCCCCCCCCCCCCCCCCCCCCCCCCCCC",
"CCCCCCCCCCCCCCCCCCCCCCCCCCCCCCCC",
"CCCCCCCCCCCCCCCCCCCCCCCCCCCCCCCC",
"CCCCCCCCCCCCCCCCCCCCCCCCCCCCCCCC"
};
