/* XPM */
static const char *Icon27[] = {
/* columns rows colors chars-per-pixel */
"32 32 38 1 ",
"  c black",
". c #010101",
"X c #060101",
"o c #030405",
"O c #0B0100",
"+ c #0A0202",
"@ c #0F0100",
"# c #0E0101",
"$ c #0A0403",
"% c #0D0404",
"& c #0F0606",
"* c #050609",
"= c #080B0F",
"- c #110707",
"; c #160B0A",
": c #1A0E0D",
"> c #0A0D12",
", c #0F151D",
"< c #11161E",
"1 c #250807",
"2 c #251714",
"3 c #341511",
"4 c #321D17",
"5 c #3B2119",
"6 c #182029",
"7 c #1B242E",
"8 c #232F3B",
"9 c #472111",
"0 c #4D2314",
"q c #4A251E",
"w c #4F2D1A",
"e c #5C2E18",
"r c #5E391F",
"t c #623219",
"y c #E13B0D",
"u c #864C25",
"i c #A05729",
"p c None",
/* pixels */
"pppppppppppppppppppppppppppppppp",
"pppppppppppppppppppppppppp p ppp",
"ppppppppppppppppppppppppp 8 8 pp",
"pppp    ppppppppppppppppp 7 7 pp",
"ppp >>,, ppppppppppppppp < < ppp",
"pp >    , pppppppppppppp = = ppp",
"p > pppp 7  ppppppppppp ; 2+ ppp",
"p * ppppp 78 ppppppppp ;25wr ppp",
"p * pppppp 78 ppppppp %%225wr pp",
"p o ppppppp   ppppp  %%$+25yw pp",
"p o ppppppppppp    %%;%9Xu22w pp",
"pp 5  ppp      2 --;;%t0911 5w p",
"ppp 52   25rw55:  ;;tu10Xq  u5 p",
"pppp  2225rw52:% 8 tuuu+q 8   pp",
"pppppp ;5w552:+22 6 uui+ 6 ppppp",
"pppppp 2w522tt1243 = ++ = pppppp",
"ppppp ;2552tt124i+u +25+  pppppp",
"ppppp 2552t#1+2i+t++25w5+ pppppp",
"pppp ;252;+99X4e  2+5wr5+2 ppppp",
"pppp 2222 #9X;5 pp +ywry+ pppppp",
"ppp ;22  p#9+;2w pp 25w2+ pppppp",
"ppp ;2 pp 90+ ;5r pp 25X0 pppppp",
"ppp ;5 pp %0 p ;5r p 25X00 ppppp",
"pppp 5 pp %t pp ;2w  22X0t ppppp",
"pppp 2 pp %;; pp ;5 p   0t ppppp",
"pppp 25 pp   ppp ;2 pppp t ppppp",
"pppp ;25 ppppppp ; ppppp t2 pppp",
"ppppp ;25 ppppppp pppppp t2 pppp",
"pppppp   pppppppppppppppp 25  pp",
"pppppppppppppppppppppppppp 25w p",
"ppppppppppppppppppppppppppp   pp",
"pppppppppppppppppppppppppppppppp"
};
