/* XPM */
static const char *Icon45[] = {
/* columns rows colors chars-per-pixel */
"32 32 48 1 ",
"  c #000103",
". c #110403",
"X c #1A0706",
"o c #000711",
"O c #000C1C",
"+ c #0A141E",
"@ c #2E0D04",
"# c #26100E",
"$ c #341815",
"% c #061424",
"& c #0C1A2A",
"* c #0E1D29",
"= c #101F2F",
"- c #162636",
"; c #1D2F3F",
": c #5B0001",
"> c #46231E",
", c #4C2823",
"< c #522926",
"1 c #5A332E",
"2 c #623A35",
"3 c #6B433C",
"4 c #213444",
"5 c #253949",
"6 c #324858",
"7 c #794F46",
"8 c #7F5341",
"9 c #7C5149",
"0 c #466777",
"q c #9A0419",
"w c #D8241F",
"e c #8D5720",
"r c #9E662B",
"t c #B97E3C",
"y c #F94F1F",
"u c #8B5E52",
"i c #9A6D61",
"p c #C0896D",
"a c #E3AA61",
"s c #4F7988",
"d c #5892A0",
"f c #E7A683",
"g c #FFF283",
"h c #F1EB92",
"j c #EFE7C8",
"k c #FFFFC5",
"l c white",
"z c None",
/* pixels */
"zzzzzzzzzzzzzzzzzzzzzzzzzzzzzzzz",
"zzzzzzzzzzzzzzzzzzzzz zzzzzzzzzz",
"zzzzzzzzzzzzzzzzz zz d zzzzzzzzz",
"zzzzzzzz zzzzzzz s  60 zzzzzzzzz",
"zzzzzzz 0 zzzzz 60=sO0s zzzzzzzz",
"zzzzzzz 60  zz@O66;0dO0 zzzzzzzz",
"zzzzzzz 60sd @aO;660sO0s zzzzzzz",
"zzzzzz &O60sOh6O=;600O6s zzzzzzz",
"zzzzzz &O660dOhaO;506O60 zzzzzzz",
"zzzzzz &&O60sOl6aO-6OaO6 zzzzzzz",
"zzzzzz &-%560sOjqaO;Ohq5 zzzzzzz",
"zzzzzzz &-%600OqywaOawy:zzzzzzzz",
"zzzzzz &O-&560Ohwh6ahlw@zzzzzzzz",
"zzzzzzz &O-560sOjlh<<j6@zzzzzzzz",
"zzzzzzzz &&-560O6h<pf<h@zzzzzzzz",
"zzzzzzzzz &&560Oaiu<p<i@zzzzzzzz",
"zzzzzzzzz &-%56Oi<ip<p<@zzzzzzzz",
"zzzzzzzzzz &-%6oup<<<<p@zzzzzzzz",
"zzzzzzzzzz &-O5o$ip<ppXzzzzzzzzz",
"zzzzzzzzzz &&-o>,$$$#.zzzzzzzzzz",
"zzzzzzzzzzz &oo,,,1227Xzzzzzzzzz",
"zzzzzzzzzz@;o<,,11239<j@zzzzzzzz",
"zzzz@zzzz@gah8<1<<3<<ahl@zzz@@zz",
"zzz@zzzz@tahtha<ah<hltsh@zz@@zzz",
"zz@@zzz@t6hta0h0k0eahjta0*@0@zzz",
"zz@e@z@eeerahhtjha@*ahh0athh@zzz",
"zzz@e@etga4gtrl0a@zz@a6@+h0@zzzz",
"zzzz@t4et4tteaha@zzzz@@zz@@zzzzz",
"zzzz@ee@@@@@@ak@zzzz@ah@@zzzzzzz",
"zzzzz@@zzzzzz@ah@zzz@6ah0@zzzzzz",
"zzzzzzzzzzzzzz@@@@zzz@@@@zzzzzzz",
"zzzzzzzzzzzzzzzzzzzzzzzzzzzzzzzz"
};
