/* XPM */
static const char *Icon25[] = {
/* columns rows colors chars-per-pixel */
"32 32 48 1 ",
"  c #010000",
". c #040100",
"X c #050201",
"o c #020700",
"O c #100000",
"+ c #100100",
"@ c #160302",
"# c #180000",
"$ c #110905",
"% c #1F120B",
"& c #200805",
"* c #2F100B",
"= c #212D06",
"- c #35281B",
"; c #401000",
": c #4E1D05",
"> c #4C170C",
", c #441B0F",
"< c #5E2E0C",
"1 c #5A2011",
"2 c #782312",
"3 c #772A15",
"4 c #792F18",
"5 c #4B3D2A",
"6 c #32400A",
"7 c #3C4B10",
"8 c #40510E",
"9 c #546210",
"0 c #5B6C1B",
"q c #677914",
"w c #6D5E42",
"e c #843119",
"r c #B0361A",
"t c #82511A",
"y c #956922",
"u c #A47B23",
"i c #8D7A4C",
"p c #758825",
"a c #98A52C",
"s c #90A82E",
"d c #BBB733",
"f c #FFB322",
"g c #BCCC36",
"h c #E7E23F",
"j c #A59258",
"k c #FFFD42",
"l c white",
"z c None",
/* pixels */
"zzzzzzzzzzzzzzzzzzzzzzzzzzzzzzzz",
"zzzzzzzzzzzzzzzzzzzzzzzzzzzzzzzz",
"zzzzzzzzzzzzzzzzzzzzzzzzzzzzzzzz",
"zzzzzzzzzzzzzzzzzzzzzzzzzzzzzzzz",
"zzzzzzzzzzzzzzzzzzzzzzzzzzzzzzzz",
"zzzzzzzzoooooozzzzzzzzzzzzzzzzzz",
"zzzzzzooppaghdozzzzzzzzzzzzzzzzz",
"zzzzz 00Oaghklh zzzzzzzzzzzzzzzz",
"zzzz ,O06pagOhO2 zzzzzzzzzzzzzzz",
"zzzz O70O0paqa9O8 zzzzzzzzzzzzzz",
"zzz *O7O1O0Ospp80 zzzzzzzzzzzzzz",
"zzz *,O=O7060O00#e zzzzzzzzzzzzz",
"zzz &*,OOO77#r##r, zzzzzzzzzzzzz",
"zzz @&*,1eOO>3#r##1  z  zzzzzzzz",
"zzz @&&**,ee##4#,1#&* ,2 zzzzzzz",
"zzzz @&&&OOO&@#*&#&OO&*,1 zzzzzz",
"zzzzz @@X&O&@O&@X&X&O@&f,f OOzzz",
"zzzzzz X-X@@XO&X-X5X@O&&*,O<tOzz",
"zzzzzX%w$-XX5X@X5$wXO  &X*X;OuOz",
"zzzzXji$w5$%wXX5wXi;OzzXiXjXzOOz",
"zzzzO%$i5X$wXzXwXzO<tOOzXXXXzzzz",
"zzzO:$jwXzXiXzXiXzzOOtyOzX<Xzzzz",
"zzOO;<%XzXjXzXij;OOzzOtOzzOtOzzz",
"zzzzO<OzzO%OzXj;tttOzzOOzzzOuOzz",
"zzzOt<OzzO<OzzO:<OOyOzzOzzzzOOzz",
"zzOy<OzzOtOzzzzOOzzOyOzzzzzzzzzz",
"zOOOOzzzOyOzzzzzzzzzOuOzzzzzzzzz",
"zzzzzzzOOOzzzzzzzzzzzOuOzzzzzzzz",
"zzzzzzzzzzzzzzzzzzzzzzOOzzzzzzzz",
"zzzzzzzzzzzzzzzzzzzzzzzzzzzzzzzz",
"zzzzzzzzzzzzzzzzzzzzzzzzzzzzzzzz",
"zzzzzzzzzzzzzzzzzzzzzzzzzzzzzzzz"
};
