/* XPM */
static const char *Icon31[] = {
/* columns rows colors chars-per-pixel */
"32 32 46 1 ",
"  c black",
". c #010101",
"X c #010202",
"o c #020304",
"O c #030405",
"+ c #040608",
"@ c #050609",
"# c #09040B",
"$ c #080B0F",
"% c #130903",
"& c #0A0D12",
"* c #0E051E",
"= c #140C1A",
"- c #0F151D",
"; c #11161E",
": c #201108",
"> c #271508",
", c #352212",
"< c #0A0123",
"1 c #141C25",
"2 c #201825",
"3 c #1B242E",
"4 c #232F3B",
"5 c #302834",
"6 c #400003",
"7 c #5B422E",
"8 c #5C4B33",
"9 c #1E0549",
"0 c #33135F",
"q c #413743",
"w c #4B3E4F",
"e c #6D586F",
"r c #7C627E",
"t c #8C1417",
"y c #6A329A",
"u c #957295",
"i c #8240B4",
"p c #BE49E7",
"a c #D150E3",
"s c #F157F7",
"d c #F457FF",
"f c #AB80AA",
"g c #DBD5BE",
"h c #FCF6D5",
"j c white",
"k c None",
/* pixels */
"kkkkkkkkkkkkkkkkkkkkkkkkkkkkkkkk",
"kkkkkkkkkkkkkkkkkkkkkkkkkkkkkkkk",
"kkkkkkkkkkkkkkkk<kkk<<kkkkkkkkkk",
"kkkkkkk<<<k<kkk<s<k<s0<<kkkkkkkk",
"kkkkkkk<dp9i<   y <pi0a<kkkkkkkk",
"kkkkkkkk<i00&-1443$00*<kkkkkkkkk",
"kkkkkkkk 0@@@&-;$$o;34 k<<kkkkkk",
"kkkkkkkk @o  @@@o @$;34<s<kkkkkk",
"kkkkk<<   ;-        $@@ <kkkkkkk",
"kkkkk<i0&&- 5werrew5 ;34 k<<kkkk",
"kkkkkk<@@& 5werffrew5 ;;3<i<kkkk",
"kkkkkk O@ 5werffffrew5 $; <kkkkk",
"kkkkk  OO 5w66ruur66w5 @$$ kkkkk",
"kkkk &&  O w6t6rr6t6w @ o;4 kkkk",
"kkk O@@@@ >>q66ee66w>> @$;;- kkk",
"kkkk OOO >gh>wwwwww>hg> @@& kkkk",
"kkk#= O 55>j>######>j>55 O =#kkk",
"kkk#22 #5w5>:kkkkkk:>5w5# 22#kkk",
"kkk#25#k#ww#kkkkkkkk#ww#k#52#kkk",
"kkk#5#kk#5w#kkkkkkkk#w5#kk#5#kkk",
"kk%55%kkk#w#kkkkkkkk#w#kkk%5,%kk",
"k%8,%8%kkk#e#kkkkkk#e#kkk%8%88%k",
"k%%%k%%kk:eue#kkkk#eue:kk%%k%%%k",
"kkkkkkkk:g:e7g:kk:g7e:g:kkkkkkkk",
"kkkkkkkk::k:h:kkkk:h:k::kkkkkkkk",
"kkkkkkkkkkkk:kkkkkk:kkkkkkkkkkkk",
"kkkkkkkkkkkkkkkkkkkkkkkkkkkkkkkk",
"kkkkkkkkkkkkkkkkkkkkkkkkkkkkkkkk",
"kkkkkkkkkkkkkkkkkkkkkkkkkkkkkkkk",
"kkkkkkkkkkkkkkkkkkkkkkkkkkkkkkkk",
"kkkkkkkkkkkkkkkkkkkkkkkkkkkkkkkk",
"kkkkkkkkkkkkkkkkkkkkkkkkkkkkkkkk"
};
