/* XPM */
static const char *Icon50[] = {
/* columns rows colors chars-per-pixel */
"32 32 65 1 ",
"  c #020000",
". c #030000",
"X c #040000",
"o c #060403",
"O c #0E0001",
"+ c #100001",
"@ c #130202",
"# c #150001",
"$ c #170002",
"% c #160403",
"& c #180100",
"* c #1B0002",
"= c #1C0303",
"- c #1C0705",
"; c #191410",
": c #230103",
"> c #200605",
", c #2A0200",
"< c #270F09",
"1 c #280C08",
"2 c #3C0B05",
"3 c #32110A",
"4 c #211D1A",
"5 c #391810",
"6 c #28201A",
"7 c #2C2723",
"8 c #302C27",
"9 c #46060D",
"0 c #44080C",
"q c #530E11",
"w c #550E12",
"e c #590F13",
"r c #481C11",
"t c #621515",
"y c #631416",
"u c #6D161A",
"i c #751D1B",
"p c #4E2619",
"a c #622D1B",
"s c #7E211E",
"d c #413B35",
"f c #443F3A",
"g c #7E2020",
"h c #544A3F",
"j c #32536A",
"k c #595045",
"l c #5B564F",
"z c #6C6459",
"x c #766C5E",
"c c #776D5F",
"v c #962E28",
"b c #BE412A",
"n c #E76335",
"m c #857860",
"M c #8E7F6B",
"N c #908166",
"B c #9A8871",
"V c #AC9672",
"C c #AC9673",
"Z c #B89F7F",
"A c #BAA179",
"S c #57CBF3",
"D c #C5AC80",
"F c #DEBC88",
"G c None",
/* pixels */
"GGGGGGGGGGGGGGGGGGGGGGGGGGGGGGGG",
"GGGGGGGGGGGGGGG.GGGG.GGGGGGGGGGG",
"GGGGGGGGGGGGGG.p.GG.p.GGGGGGGGGG",
"GGGGGGGGGGGGGG.5=##=5.GGGGGGGGGG",
"GGGGGGGGGG####y=vbbn=9###GGGGGGG",
"GGGGGGGGG#nbvyivbbnnnb9bn#GGGGGG",
"GGGGGGGG#bvg:wybjSbnSj9gvb#GGGGG",
"GGGGGGGGG#::-#qvbjbbjb9###GGGGGG",
"GGGGGGGGGGo@-*#yvbbvbv#GGGGGGGGG",
"GGGGGGGGGodf@-<*gv*2,v#GGGGGGGGG",
"GGGGGGGGodlck@-*wgv*v:p.GGGGGGGG",
"GGGGGGGo7lcCc@-3*ugv:p5.GGGGGGGG",
"GGGGGGGodlzcf@%-5*:g:a=oGGGGGGGG",
"GGGGGGo7ddzld@%@-rp:pr=oGGGGGGGG",
"GGGGGGodldl;67@8@15a5==doGGGGGGG",
"GGGGGoddzlo67dflf@1r=4=loGGGGGGG",
"GGGGGodlMoGo8fcclf=1=6dlcoGGGGGG",
"GGGGodlMNoGGofcNccf=7odcCoGGGGGG",
"GGGGodcCoGGGolcCNccloGocDoGGGGGG",
"GGGGodcCoGGolcNDmcmCoGolCoGGGGGG",
"GGGGGoloGGGolcFDlcmCMoGocoGGGGGG",
"GGGGGodoGGGolBZC6lcADoGoloGGGGGG",
"GGGGGo7oGGGolcBc6lBBCoGOeb#GGGGG",
"GGGGG#0@GGo7dlcodlccoG#0vbn#GGGG",
"GGGG#bs0#Go7ddoGodlhoG#qgvb#GGGG",
"GGG#nbvy#Go47oGGoddoGG#u#gv#GGGG",
"GGG#bv9g#Go4=oGGo4=oGGG#G#g#GGGG",
"GGG#vg9u#Go@5.GGo@5.GGGGG#g#GGGG",
"GGGG#u9#GG.-5a.G.-5aXGGG#u#GGGGG",
"GGGGG##GGG.%>5.G.%15.GGGG#GGGGGG",
"GGGGGGGGGGG....GG....GGGGGGGGGGG",
"GGGGGGGGGGGGGGGGGGGGGGGGGGGGGGGG"
};
