/* XPM */
static const char *Icon17[] = {
/* columns rows colors chars-per-pixel */
"32 32 57 1 ",
"  c #010000",
". c #000100",
"X c #020000",
"o c #030100",
"O c #070000",
"+ c #020700",
"@ c #0B0000",
"# c #0F0201",
"$ c #020800",
"% c #030800",
"& c #100000",
"* c #100100",
"= c #160302",
"- c #160503",
"; c #200805",
": c #240C07",
"> c #2F100B",
", c #3E120B",
"< c #1F2A06",
"1 c #212D06",
"2 c #2B380A",
"3 c #401000",
"4 c #4E1D05",
"5 c #441B0F",
"6 c #591E10",
"7 c #5E2E0C",
"8 c #5A2011",
"9 c #762312",
"0 c #32400A",
"q c #3C4B10",
"w c #40510E",
"e c #546210",
"r c #5B6C1B",
"t c #676D13",
"y c #891E00",
"u c #843119",
"i c #A22D00",
"p c #AD361A",
"a c #C53600",
"s c #C63700",
"d c #CE3A00",
"f c #E83C1B",
"g c #82511A",
"h c #956922",
"j c #A47B23",
"k c #D74100",
"l c #DE4703",
"z c #758825",
"x c #90A428",
"c c #98A52C",
"v c #BBB733",
"b c #BCC72F",
"n c #D5DE31",
"m c #E7DC37",
"M c #FFF639",
"N c white",
"B c None",
/* pixels */
"BBBBBBBBBBBBBBBBBBBBBBBBBBBBBBBB",
"BBBBBBBBB BBBBBBBBBBBBBBBBBBBBBB",
"BBBBBBBB f BBBBBBBBBBBBBBBBBBBBB",
"BBBBBBBB p BBBBBBBB BBBBBBBBBBBB",
"BBBBBBBB p BBBBBBB f BBBBBBBBBBB",
"BBBBBBBB u BBBBBBB :9 BBBBBBBBBB",
"BBBBBBB 8u BBBB++++ ;6 BBBBBBBBB",
"BBBBBBB 88u BB+qrxxs+;> BBBBBBBB",
"BBBBBBB 588 B+qrzzckx%; BBBBBBBB",
"BBBBBBB >85> qr&zcsvnx% BBBBBBBB",
"BBBBBBB ;55&uOr0isddMnx+BBBBBBBB",
"BBBBBBB ;>5&8fOyzc&mlNb%BBBBBBBB",
"BBBBBBB ;>5&5pOrz&>&mlnx%BBBBBBB",
"BBBBBBB -;>=5pOrrw&tmmlO BBBBBBB",
"BBBBBBB -;=;>uOq&zwc&vO;6 BBBBBB",
"BBBBBBB #;#;>8&O1rzzeccO> BBBBBB",
"BBBBBBB #=#;>5&pOqOzz&zO; BBBBBB",
"BBBBBBBB =#;>5&9&O,Ozwrr BBBBBBB",
"BBBBBBBB =@;;>&5u&;>Orrq BBBBBBB",
"BBBBBBBBB @=;>=>8&&;Orq BBBBBBBB",
"BBBBBBBBBB =;;->5&>Oq2& BBBBBBBB",
"BBBBBBBBBBB =;#;>;;O2< BBBBBBBBB",
"BBBBBBBBBBBB =@;>;O<&&4&BBBBBBBB",
"BBBBBBBBBBBBB @=;; +&47&BBBBBBBB",
"BBBBBBBBBBBBB& == BB&47&BBBBBBBB",
"BBBBBBBBBBBBB&4  &BB&433&&&BBBBB",
"BBBBBBBBBBB&&7377&BBB&7g3gh&&BBB",
"BBBBBBBBB&&jhgg333&B&h3hj33&j&BB",
"BBBBBBBB&jh&&&3hg3g&B&j3&j&B&&&B",
"BBBBBBB&&&&BBB&j&&&h&B&&B&&&BBBB",
"BBBBBBBBBBBBBBB&BBB&&BBBBBBBBBBB",
"BBBBBBBBBBBBBBBBBBBBBBBBBBBBBBBB"
};
