/* XPM */
static const char *Icon44[] = {
/* columns rows colors chars-per-pixel */
"32 32 71 1 ",
"  c black",
". c #000002",
"X c #000103",
"o c #1A0706",
"O c #000C1C",
"+ c #2E0D04",
"@ c #201108",
"# c #26100E",
"$ c #331714",
"% c #351A16",
"& c #3F1B11",
"* c #371C18",
"= c #3C1F1B",
"- c #332114",
"; c #101F2F",
": c #1D2F3F",
"> c #46231E",
", c #44251F",
"< c #482823",
"1 c #4D2924",
"2 c #4C2C27",
"3 c #522926",
"4 c #512E28",
"5 c #56322C",
"6 c #5A332E",
"7 c #5E372F",
"8 c #5C3630",
"9 c #5D3730",
"0 c #633B34",
"q c #693F36",
"w c #5B422E",
"e c #6C423A",
"r c #6D423A",
"t c #213444",
"y c #324858",
"u c #0A4879",
"i c #744A41",
"p c #7F5341",
"a c #7D5044",
"s c #7C5249",
"d c #746553",
"f c #466777",
"g c #9A0419",
"h c #D8241F",
"j c #8D5720",
"k c #9E662B",
"l c #B97E3C",
"z c #8B5E52",
"x c #8A5F54",
"c c #A3715D",
"v c #9A6D61",
"b c #9D917F",
"n c #C0896D",
"m c #CE9378",
"M c #E3AA61",
"N c #14669A",
"B c #4F7988",
"V c #5892A0",
"C c #1F9EC0",
"Z c #24C5DB",
"A c #40E7DD",
"S c #E7A683",
"D c #FFC897",
"F c #FFF283",
"G c #F1EB92",
"H c #FFFD91",
"J c #DBD5BE",
"K c #EFE7C8",
"L c #FCF6D5",
"P c white",
"I c None",
/* pixels */
"IIIIIIIIIIIIIIIIIIIIIIIIIIIIIIII",
"IIIIIIIIIIIIIoIIIIIIIoIIIIIIIIII",
"IIIIIIIIIIIIoSoIIIIIoDoIIIIIIIII",
"IIIIIIIIIIIIovDoIIIovSoIIIIIIIII",
"IIIIIIIIIIIIoanoIIIonnoIIIIIIIII",
"IIIIIIIIIIIIoN CoIoC AoIIIIIIIII",
"IIIIIIoooIIIoavnoIoanvoIIIoooIII",
"IIIIIIocSooIoqzvoIoqvzoIooDnoIII",
"IIIIIIoes NoIoq     aoIoA nvoIII",
"IIIIIIIouevnoI :yffy IovnvZoIIII",
"IIIIIIIIo3ei0 :yffBfy qaz3oIIIII",
"IIIIIIooun>> :yffBVBfy >3nZooIII",
"IIIIIoem svz :yyffBfyy isv nDoII",
"IIIIIIoeueee ;yggyfggy 7iiCzoIII",
"IIIIIIIoo#$$j :yhy:hy IoooooIIII",
"IIIIIIIII+p--e :y:O:yO IIIIIIIII",
"IIIIIIII+My-L-6O:OvO:Oz@@IIIIIII",
"IIIIIII+MppG-L-vOvnvOv-Lw+IIIIII",
"IIIIIII+pGPwwJL-vnDnv-PLw+IIIIII",
"IIIIIII+GywddwLP-vSv-PLwG+IIIIII",
"IIIIIII+MGP-bbdLP-S-PLwdw+IIIIII",
"IIIIIIII+&&l--bJL-n-Ldbb@IIIIIII",
"IIIIIII+lMFMy%--b-v-Jb-@IIIIIIII",
"IIIII+ lMyGGMl%1--x-b-+IIIIIIIII",
"IIII+tttGGPGBMl=1-x--*M+IIIIIIII",
"III+lltHMMGyfBM=58s-*8G IIIIIIII",
"II+lpFMMkllGyGFM=is42Pyf IIIIIII",
"II+jlMjjGPKKllGl=0is<GMy+IIIIIII",
"III+tjllMyGPKGyMl,i<MM++IIIIIIII",
"IIII++++++++MMMly,,+++IIIIIIIIII",
"IIIIIIIIIIII++++++oIIIIIIIIIIIII",
"IIIIIIIIIIIIIIIIIIIIIIIIIIIIIIII"
};
