/* XPM */
static const char *Icon21[] = {
/* columns rows colors chars-per-pixel */
"32 32 32 1 ",
"  c black",
". c #020000",
"X c #040000",
"o c #060001",
"O c #150003",
"+ c #140004",
"@ c #180005",
"# c #1A0006",
"$ c #1F0007",
"% c #200005",
"& c #240106",
"* c #28000C",
"= c #390F00",
"- c #300109",
"; c #36030B",
": c #490611",
"> c #5E1118",
", c #741219",
"< c #71141B",
"1 c #7B191E",
"2 c #793E00",
"3 c #86191E",
"4 c #982124",
"5 c #CD2326",
"6 c #935A06",
"7 c #A16908",
"8 c #A9730F",
"9 c #B68211",
"0 c #DBA916",
"q c #FFDE34",
"w c #FFFF4C",
"e c None",
/* pixels */
"eeeeeeeeeeeeeeeeeeeeeeeeeeeeeeee",
"eeeeeeeeeeeeeeeeeeeeeeeeeeeeeeee",
"eeeeeeeooeeeeeeeeeeeeeeeeeooeeee",
"eeeeeeo>3oeeooeeeeeeeeeeeo4*=eee",
"eeeeeo:,53o=23oeeeeeeeeeo5*80=oe",
"eeeeeo:>3*80 *5oeeeeeeeo3*8 q*oe",
"eeeeeo::>,*00*3>o==eeeeo3*0q*4oe",
"eeeeo;:***1**3>:*80=eeo>>3**5,oe",
"eeeo;:*680*13>:*80 0oo**:>*4,oee",
"eeeo;*6 0q*>::***0qw*345*:,,,oee",
"eeeo;*80q*::-*:>,***3>,43*>,>oee",
"eeeo;;***<:**:;::154::>,1*:>:oee",
"eeeeo;*>5**68*;**:::***>:;::oeee",
"eeeeo*>3*68000*53*:*688*:-:-oeee",
"eeeo;:>*800 0q*,>1;*80 *;:-oeeee",
"eeeo&::>*80qw*,****&*qw*;:oeeeee",
"eeeo&&-:>****,*799*&-**&:**oeeee",
"eeeeo##-:::*1*7 0q***--:*445oeee",
"eee=688#&;$:>*9qw*345*:13,,44oee",
"eeeo8 00*&;;:****1>,43>,>>>,,oee",
"ee ;#0qq*:#*;:<*<:>>>>::***>>oee",
"ee &&##*:#68*;;:::***::*800*oeee",
"ee &&&;:#80 0*:;;*688*;* q*,oeee",
"eee ++&&<*qw*,>:*80 00*:**5>oeee",
"ee &-:+&;<**>>:*>*qwq*3*<1>:oeee",
"eoO&&-::&;:*::*::>***5>*:::;oeee",
"eoOO&&---&;:;&#;::1341:;&:;oeeee",
"eeoo O&&&&&&&&O&;::<<::;%&oeeeee",
"eeeeeo OOO&&&ooO&&-:::;%Ooeeeeee",
"eeeeeee  ooooeeooooooooooeeeeeee",
"eeeeeeeeeeeeeeeeeeeeeeeeeeeeeeee",
"eeeeeeeeeeeeeeeeeeeeeeeeeeeeeeee"
};
