/* XPM */
static const char *Icon48[] = {
/* columns rows colors chars-per-pixel */
"32 32 37 1 ",
"  c black",
". c #010101",
"X c #010202",
"o c #010501",
"O c #030405",
"+ c #0B0402",
"@ c #03050B",
"# c #040608",
"$ c #050609",
"% c #080B0F",
"& c #0A0D12",
"* c #11161E",
"= c #201108",
"- c #341F14",
"; c #112213",
": c #192C1A",
"> c #1B242E",
", c #1D2434",
"< c #243A22",
"1 c #212A3B",
"2 c #232F3B",
"3 c #4D3B28",
"4 c #2D462A",
"5 c #3A5534",
"6 c #47643A",
"7 c #52703F",
"8 c #34455A",
"9 c #6D5E42",
"0 c #5F7F45",
"q c #466079",
"w c #6D8E45",
"e c #908159",
"r c #88AD45",
"t c #A39477",
"y c #5E819A",
"u c #DBD5BE",
"i c None",
/* pixels */
"iiiiiiiiiiiiiiiiiiiiiiiiiiiiiiii",
"iiiiiiiiiiiiiiiiiiiiiiiiiiiiiiii",
"iiiiiiiiiiiiiiiiiiiiiiiiiiiiiiii",
"iiiiiiiiiiooooiiiiiiiiiiiiiiiiii",
"iiiiiiiiio<60woiiiiiiiiiiiiiiiii",
"iiiiiii  ;:<50woiiiiiiiiiiiiiiii",
"iiiiii *$ o:<50roiiiiiiiiiiiiiii",
"iiiii *$ iiooo5woiiiiiiiiiiiiiii",
"iiii *  iiiiiioooiiiiiiiiiiiiiii",
"iiii %& iiiiiiiioiiiiiiiiiiiiiii",
"iii %  iiiiiiiiiiiiiiiiiiiiiiiii",
"iii %* iiiiiiiiiiiiiiiiiiiiiiiii",
"iiii   iiiiiiiiiiiiiiiiiiiiiiiii",
"iii %*   iiiiiiiiiiiiiiiiiiiiiii",
"iii $ *>2    iiiiiiiii iiiiiiiii",
"iiii %*% **>2     iii > iiiiiiii",
"iiii O% %*>  $%%*>  i * iiiiiiii",
"iiii O O$& $O%**>2>o %% oiiiiiii",
"iiiii  OO%++O$%**>o<7  rwoiiiiii",
"iiiiii O++-+O+$%**o<570w ;ooiiii",
"iiiiiii+93+i+-+$$%o:<5 75t=roiii",
"iiiii@@e3+i+93+$++$;:<55;=u=roii",
"iiii@yq,+i+e3+i+9-+$;ot=o:==rroi",
"iii@y8@+i+e3+i+9-oo;oi=u=:<;rwoi",
"ii@q8@ii@,-+i+e3o556<oi==o<;w0oi",
"i@@@@ii@yq@i@,,o<6<;;;oiiio;0oii",
"iiiiii@q8@i@yq8o<56wwrroiiio6oii",
"iiiiii@8@ii@881o:<567wwroiiioiii",
"iiiii@8@iiii@@@io:<44570roiiiiii",
"iiii@@@iiiiiiiiiio:<<<4ooiiiiiii",
"iiiiiiiiiiiiiiiiiioooooiiiiiiiii",
"iiiiiiiiiiiiiiiiiiiiiiiiiiiiiiii"
};
