/* XPM */
static const char *Icon42[] = {
/* columns rows colors chars-per-pixel */
"32 32 33 1 ",
"  c black",
". c #010203",
"X c gray1",
"o c #010501",
"O c #020304",
"+ c #030405",
"@ c #040608",
"# c #050609",
"$ c #080B0F",
"% c #0A0D12",
"& c #0F151D",
"* c #11161E",
"= c #201108",
"- c #112213",
"; c #192C1A",
": c #1B242E",
"> c #243A22",
", c #232F3B",
"< c #3A5534",
"1 c #5B422E",
"2 c #47643A",
"3 c #5F7F45",
"4 c #856A1D",
"5 c #6D8E45",
"6 c #AE9C31",
"7 c #C4B839",
"8 c #9D917F",
"9 c #DBD541",
"0 c #FAFC5F",
"q c #DBD5BE",
"w c #FFFFA3",
"e c #FCF6D5",
"r c None",
/* pixels */
"rrrrrrrrrrrrrrrrrrrrrrrrrrrrrrrr",
"rrrrrrrrrrrrrrrrrrrrrrrrrrrrrrrr",
"rrrrrrrrrrrrrrrrrrrrrrrrrrrrrrrr",
"rrrrrrrrrrrrrrrrrrrrrrrrrrrrrrrr",
"rrrrrrrrrrrrrrrrrrrrrrrrrrrrrrrr",
"rrrrrrrrrrrrrrrrrrrrrrrrrrrrrrrr",
"rrrrrrrrrrrrrrrrrrrrrrrrrrrrrrrr",
"rrrrrrrrr===rrrrrrrrrrrrrrrrrrrr",
"rrrrrrr =q=rrrrrrrrrrrrrrrrrrrrr",
"rrrrr  :O=rrrrrrrrrrrrrrrrrrrrrr",
"rrrr $*O* rrrrrr=rrrrrrrrrrrrrrr",
"rrr $*O*: rrrrrr=rrrrrrrrr==rrrr",
"rr #$ #:O, rrrr=e=rrrrrrrr=q=rrr",
"r #$ #*:O: rrrr=q=rrrrr=rr =rrrr",
"r  # #$*O*: rr=q=rrrrr==rr : rrr",
"r r ++$%O$*: o181orrr=e=r OO, rr",
"rrr +###O$**o23135orr=q1 ,OO: rr",
"rrr +  +O#$o<>----3o=81*:O:O*: r",
"rrr  rr O+o>>-47 6-2o1$:$ &O*: r",
"rrr rrr O o;-47  06-o#$*$ %O$* r",
"rrrrrrrr ro-470  w06o#$$ $%O$* r",
"rrrrrrrrrro;-6w w09-o### ##O$% r",
"rrrrrrrrrrro>-6w09-or +O  +O+  r",
"rrrrrrrrrrrro<----orrr  rr O r r",
"rrrrrrrrrrrrro235orrrrr rrr rrrr",
"rrrrrrrrrrrrrrooorrrrrrrrrrrrrrr",
"rrrrrrrrrrrrrrrrrrrrrrrrrrrrrrrr",
"rrrrrrrrrrrrrrrrrrrrrrrrrrrrrrrr",
"rrrrrrrrrrrrrrrrrrrrrrrrrrrrrrrr",
"rrrrrrrrrrrrrrrrrrrrrrrrrrrrrrrr",
"rrrrrrrrrrrrrrrrrrrrrrrrrrrrrrrr",
"rrrrrrrrrrrrrrrrrrrrrrrrrrrrrrrr"
};
