/* XPM */
static const char *Icon19[] = {
/* columns rows colors chars-per-pixel */
"32 32 61 1 ",
"  c #020000",
". c #030000",
"X c #070000",
"o c #080000",
"O c #090000",
"+ c #0B0000",
"@ c #0C0000",
"# c #0D0000",
"$ c #0D0201",
"% c #090A0E",
"& c #130202",
"* c #160403",
"= c #1D0000",
"- c #1C0303",
"; c #1C0705",
": c #12141C",
"> c #220000",
", c #270200",
"< c #200605",
"1 c #290000",
"2 c #2E0300",
"3 c #280C08",
"4 c #310000",
"5 c #390501",
"6 c #391810",
"7 c #371B1B",
"8 c #410601",
"9 c #4F0801",
"0 c #4D0A02",
"q c #510902",
"w c #6D1103",
"e c #46221F",
"r c #4E2619",
"t c #5F3322",
"y c #5D3129",
"u c #811F04",
"i c #922404",
"p c #972E06",
"a c #882B1E",
"s c #A92C05",
"d c #AB3606",
"f c #903326",
"g c #94382A",
"h c #9B3F31",
"j c #9D4233",
"k c #A44A3A",
"l c #C64206",
"z c #E04E06",
"x c #AD5343",
"c c #AA5540",
"v c #B25A48",
"b c #B35E49",
"n c #B8664E",
"m c #BB6D51",
"M c #C97959",
"N c #CCAF0D",
"B c #D18A61",
"V c #DD966F",
"C c #DF9A71",
"Z c #DED3AC",
"A c None",
/* pixels */
"AAAAAAAAAAAAAAAAAAAAAAAAAAAAAAAA",
"AAAAAAAAAAA..AAAAAA..AAAAAAAAAAA",
"AAAAAAAAAA.6t.AAAA.t6.AAAAAAAAAA",
"AAAAAAAAA.3-3r.OOOr63.AAAAAAAAAA",
"AAAAAAAAA...-34upu43..AAAAAAAAAA",
"AAAAAAAA..AA.*uplpuOA..AAAAAAAAA",
"AAAAA..AAAAA$wuNzNuOAAAAA..AAAAA",
"AAA..r6..AAOqwwuiuwwOAA..6r..AAA",
"AA.r6--6r.AX-qw444wOAA.6r--rt.AA",
"A....3<&&*X>2-qwuw-wOO<&&<3....A",
"AAAAA..;*O2282----q0wi4*;..AAAAA",
"AAAAA.A.$2288855qww40wi4OA.AAAAA",
"AAAAAAAO------qqjjcw10--OAAAAAAA",
"AAAAAAOwup4zdi-jjcMcu-idzOAAAAAA",
"AAAAAOqwww4iu-f-kbBV-->udOAAAAAA",
"AAA.AOqqq--u4-gk44444w->uOAAAAAA",
"AA..AAOO-22-,g44Z7Z7Z4w-OAAAAAAA",
"AA..AAAAX225-g477eeeyy4-4OAAAAAA",
"A.t.AAAAX2555fh4ZeZyZ4suwwOOAAAA",
"A.6r.AAO2521>4fh44444muww1w1O$AA",
"A.3.:AAO220upp4ahxvmnjjw1n1C1C$A",
"AA.AA:AO20uuu1M1a1jjjjf>-jcMVM$A",
"AAAAA:AX55wu1n1C1C1jfff>5-jnV$AA",
"AAAA:AAAX5ww1jcMVM1ffa>25-jnV$AA",
"AAAA:AAAX5qww1jnV1aa$$X25-jnM$AA",
"AAA:AAAAAX5qw1jnV1$$AAAO2-jcM$AA",
"AA:AAAAAAO25q-jnc$AAAAAAX-jcc$AA",
"AA:AAAAA%AO25-jnc$AAAAAAAOjcj$AA",
"AAA%AA%%AAAOX-jcj$AAAAAAA$jj$AAA",
"AAAA%%AAAAAAAX$jj$AAAAAAAA$$AAAA",
"AAAAAAAAAAAAAAA$$AAAAAAAAAAAAAAA",
"AAAAAAAAAAAAAAAAAAAAAAAAAAAAAAAA"
};
