/* XPM */
static const char *Icon24[] = {
/* columns rows colors chars-per-pixel */
"32 32 54 1 ",
"  c #060000",
". c #020304",
"X c #020405",
"o c #030608",
"O c #040708",
"+ c #04090D",
"@ c #0A0C0E",
"# c #100100",
"$ c #160002",
"% c #111417",
"& c #12141C",
"* c #280006",
"= c #200A05",
"- c #230C06",
"; c #300205",
": c #3D0603",
"> c #271108",
", c #171D21",
"< c #191E22",
"1 c #1C262B",
"2 c #1D272C",
"3 c #1F2A2F",
"4 c #222B30",
"5 c #4F0C00",
"6 c #40130A",
"7 c #4C1B0C",
"8 c #5E1705",
"9 c #691F05",
"0 c #47261A",
"q c #6F2305",
"w c #762805",
"e c #632B11",
"r c #513B31",
"t c #553D33",
"y c #7D4216",
"u c #2B3940",
"i c #2D3E46",
"p c #364F58",
"a c #3E545E",
"s c #675042",
"d c #6B5244",
"f c #4A6874",
"g c #9B5D1C",
"h c #895842",
"j c #AA764A",
"k c #AB774B",
"l c #947661",
"z c #97C024",
"x c #A6836C",
"c c #D6A25D",
"v c #E9B570",
"b c #577E8A",
"n c #FFE192",
"m c None",
/* pixels */
"mmmmmmmmmmmmmmmmmmmmmmmmmmmmmmmm",
"mmmmmmmmmm#mm###mmmmm##mm#mmmmmm",
"mmmmmmmmmmm##eyg#mmm#yg##mmmmmmm",
"mmmmmmmmmm#6e##7yXXXye6y#mmmmmmm",
"mmmmmmmmmm#7#mm#oafbO6#6e#mmmmmm",
"mmmmmmmmmmm#mmm+afbbbXm##mmmmmmm",
"mmmmmmmmmmmmm XuaafbfaXmmmmmmmmm",
"mmmmmmmmmmmX ;@uuzzfzz@ mmmmmmmm",
"mmmmmmmmmmX$;:@4uuzaza@8  mmmmmm",
"mmmmmmmmmX%%$;@@@>jvv>@5 mmmmmmm",
"mmmmmmmmX44,,$:::5>j>98$fXmmmmmm",
"mmmmmmmXuu44,,$:589>985$abXmmmmm",
"mmmmmmXuuuuXX,$;*58w8: <ufXmmmmm",
"mmmmmXaauXXmmX,$$:58: mX<aXmmmmm",
"mmmmmXafXmmmmX,44$:: mmmXafXmmmm",
"mmmmmXufXmmmmX44uh$$2XmmXuaXmmmm",
"mmmmmmXafXmmmX4uujj$uXmmmXuXmmmm",
"mmmmmmmXfXmmX4uuavjjaXmmmXuXmmmm",
"mmmmmmmXa8 mX43afnvvfXmmm 58 mmm",
"mmmmmm :5w mX3iixnnnl1Xmm :5w mm",
"mmmmmm :*5 mXuabcxvlspbXmm  5 mm",
"mmmmmm ;  m.<abfv-00svfbXm m mmm",
"mmmmmmm mm.<abbv-m=rjvafXmmmmmmm",
"mmmmmmmmm.%uafbj-mm=rjaaXmmmmmmm",
"mmmmm&&&.%,2uav-mmmm-djuXmmmmmmm",
"mmmm&mmmm ,%2uj-mmmm td2Xmmmmmmm",
"mmm&mmmmm 55*X-mmmm :%%Xmmmmmmmm",
"mmm&mmmmm :8 mmmmmm 58 mmmmmmmmm",
"mmmm&mXmm :58  mmm ;:8*  mmmmmmm",
"mmmmmXXm  ;*5 qXm    :5*q mmmmmm",
"mmmmXXXmmm   m  mmmmm     mmmmmm",
"mmmmmmmmmmmmmmmmmmmmmmmmmmmmmmmm"
};
