/* XPM */
static const char *Icon22[] = {
/* columns rows colors chars-per-pixel */
"32 32 56 1 ",
"  c black",
". c #010101",
"X c #010102",
"o c #040608",
"O c #090A0E",
"+ c #080B0F",
"@ c #100001",
"# c #150001",
"$ c #0E1319",
"% c #12141C",
"& c #11161E",
"* c #260205",
"= c #2E0307",
"- c #2F0307",
"; c #310407",
": c #310408",
"> c #370409",
", c #380609",
"< c #3B040A",
"1 c #3B070A",
"2 c #3F060B",
"3 c #141A23",
"4 c #1B242E",
"5 c #232F3B",
"6 c #40070C",
"7 c #46060D",
"8 c #40090B",
"9 c #43090C",
"0 c #44080C",
"q c #4B090F",
"w c #4D0C0F",
"e c #4E0B10",
"r c #520B11",
"t c #530D11",
"y c #550E12",
"u c #5B1014",
"i c #5F1115",
"p c #600E15",
"a c #631416",
"s c #6A1718",
"d c #6D161A",
"f c #6A1819",
"g c #751D1B",
"h c #7E2020",
"j c #922A23",
"k c #962E28",
"l c #A23429",
"z c #BE412A",
"x c #BA432C",
"c c #C94A2D",
"v c #CF502F",
"b c #D85731",
"n c #E76335",
"m c #BAA52F",
"M c #DCE46D",
"N c None",
/* pixels */
"NNNNNNNNNNNNNNNNNNNNNNNNNNNNNNNN",
"NNNNNNNNNNNNNNNNNNNNNNNNNNNNNNNN",
"NNNNNNNNNNNNNNNNNNNNNNNNNNNNNNNN",
"N      NNNNNN NNNNNNN NNNNNNNNNN",
"NNN +&4  NNNN  N###N  NNNNNNNNNN",
"NNNN +&45 NNN &#kzb#& NNNNNNNNNN",
"NNNN +oo$ NNNN#kzbnb#NNNNNNNNNNN",
"NNN oo +35 NNN#kmzbzmNNNNNNNNNNN",
"NN    +&5& NNN@hkMzM#NNNNNNNNNNN",
"NNNNN +4++o##@2=hkkk#NNNNNNNNNNN",
"NNNNNN +  7vzgyy>hk#NNN      NNN",
"NNNNNN  N#jzkhaay>@NN  34554&  N",
"NNNNNN N#jlkhrkgay7  45$+&&  NNN",
"NNNNNNN#kz7h>uhkkkz7++&4o+ NNNNN",
"NNNNNNN@hkz77>dhkhk7o++  o NNNNN",
"NNNNNNNN#hkzcn>srsh7 o NN  NNNNN",
"NNNNNNN@:****7n>>>7#N NNNN NNNNN",
"NNNNNNN@<yw8<*z7ncx#NNNNNNNNNNNN",
"NNNNNNN@yhg6<;**=kk#NNNNNNNNNNNN",
"NNNNNN@<akk>9yyq0##NNNNNNNNNNNNN",
"NNNNN@2<hkz>>rhh#NNNNNNNNNNNNNNN",
"NNNNN@2tfh#>phhk#NNNNNNNNNNNNNNN",
"NNNNN@2t##N#ihkz#NNNNNNNNNNNNNNN",
"NNNNN@2#NN#eifk#NNNNNNN&&&NNNNNN",
"NNNNNN@NNN#q7##NNNNNN&&NNN&NNNNN",
"NNNNNNNNNN#2#N+NNNNN&NNNNNN&NNNN",
"NNNNNNNNNNN#NNN+NNN&NNNNNNN#NNNN",
"NNNNNNNNNNNNNNNN++&NNNNNNN##NNNN",
"NNNNNNNNNNNNNNNNNNNNNNNNNN##NNNN",
"NNNNNNNNNNNNNNNNNNNNNNNNNN#NNNNN",
"NNNNNNNNNNNNNNNNNNNNNNNNN#NNNNNN",
"NNNNNNNNNNNNNNNNNNNNNNNNNNNNNNNN"
};
