/* XPM */
static const char *Icon26[] = {
/* columns rows colors chars-per-pixel */
"32 32 45 1 ",
"  c black",
". c #020000",
"X c #030000",
"o c #0F0000",
"O c #0C0505",
"+ c #130202",
"@ c #140403",
"# c #160403",
"$ c #1C0303",
"% c #1C0705",
"& c #120808",
"* c #200605",
"= c #220E08",
"- c #280C08",
"; c #3D0000",
": c #29110A",
"> c #2F1F1D",
", c #391810",
"< c #372623",
"1 c #4B0904",
"2 c #671B0C",
"3 c #4E2619",
"4 c #432E2C",
"5 c #5F3322",
"6 c #53372F",
"7 c #4E3A35",
"8 c #4F3A36",
"9 c #614D45",
"0 c #766256",
"q c #862F14",
"w c #9C421A",
"e c #865F34",
"r c #B45720",
"t c #926C40",
"y c #9B7449",
"u c #887565",
"i c #AD865A",
"p c #A48E77",
"a c #C29B6E",
"s c #BAA184",
"d c #D4AE80",
"f c #EFC897",
"g c #F6CE9D",
"h c #FFDAAA",
"j c None",
/* pixels */
"jjjjjjjjjjjjjjjjjjjjjjjjjjjjjjjj",
"jjjjjjjjXjXXjjjjjjXXjXjjjjjjjjjj",
"jjjjjjjjjX35XjjjjX35XXjjjjjjjjjj",
"jjoojojjX,$,Xj&&&#,$-Xjjjjjjjjjj",
"jorwowojX-X-,X<777+%Xjjjjojoojjj",
"jjo2qqojjXjX%$9X9X7Xjjjjowowrojj",
"jjjooog::jjX#7X09uX&jjjjo2qqojjj",
"jjjjjj:ff:jjX90pspu&jjj:hooojjjj",
"jjjjjjj:dd:jj&9>>>0oj::f:jjjjjjj",
"jjjjjjjj&9a:jo&9u0&j:da:jjjjjjjj",
"jjjjjjjjj&9ao12&&&2oa9&jjjjjjjjj",
"jjjjjjjjjj&9;2qwrwq;9&jjjjjjjjjj",
"jjjjjjjjjj&9>;2qwq2o&jjjjjjjjjjj",
"jjjjjjjjjjj&><;2qqojjjjjjjjjjjjj",
"jjjjjjjjjoj&<7;2;2ojjjjjjjjjjjjj",
"jjjjjjjoojj&79y;y;&jjjjjjjjjjjjj",
"jjjjjjowojj&79iyiia&&&&jjjjjjjjj",
"jjjjjjoqojj&97iiadffssp&jjjjjjjj",
"jjjjjjo2qo&990>iiaddffu0&jjjjjjj",
"jjjjjjo121O90u0>tiaadda9&jjjjjjj",
"jjjjjjjoooO9upu>ee=::6y44&jjjjjj",
"jjjjjjjjjj&9usp>==jjj:y90uXXXjjj",
"jjjjjjjjj&<40p0&jjjj:yyyi$,3Xjjj",
"jjjjjjjj&<7990&jjjjjj:::X*--Xjjj",
"jjjjjjjj&<i4&&jjjjjjjjjjjXXXjjjj",
"jjjjjjjjj&i:jjjjjjjjjjjjjjjjjjjj",
"jjjjjjjjj&7i:jjjjjjjjjjjjjjjjjjj",
"jjjjjjjjj&7$Xjjjjjjjjjjjjjjjjjjj",
"jjjjjjjjjjX*,Xjjjjjjjjjjjjjjjjjj",
"jjjjjjjjjjX-3Xjjjjjjjjjjjjjjjjjj",
"jjjjjjjjjjXXXXjjjjjjjjjjjjjjjjjj",
"jjjjjjjjjjjjjjjjjjjjjjjjjjjjjjjj"
};
