/* XPM */
static const char *Icon8[] = {
/* columns rows colors chars-per-pixel */
"32 32 31 1 ",
"  c black",
". c #04010D",
"X c #120808",
"o c #04041C",
"O c #201413",
"+ c #291A19",
"@ c #0C0B2B",
"# c #0F0E34",
"$ c #210E3A",
"% c #342321",
"& c #432E2C",
"* c #4E3A35",
"= c #1B0E4A",
"- c #201E55",
"; c #24155F",
": c #311F7E",
"> c #2D316E",
", c #614D45",
"< c #766256",
"1 c #887565",
"2 c #9A836E",
"3 c #A48E77",
"4 c #382893",
"5 c #46319E",
"6 c #3E4B8F",
"7 c #556FBD",
"8 c #628FDE",
"9 c #77AEED",
"0 c #BAA184",
"q c #8CBFED",
"w c None",
/* pixels */
"wwwwwwwwwwwwwwwwwwwwwwwwwwwwwwww",
"wwwwwwwwwwwwwwwwwwwwwwwwwwwwwwww",
"wwwwwwwwwwwwwwwwwwwwwwwwwwwwwwww",
"wwwwwwwwwwwwwwwwwwwwwwwwwwwwwwww",
"wwwwwwwwwwwwwXwwwwwwwwwwwwwwwwww",
"wwwwwwwwwwwwX0XwXwwwwwwwwwwwwwww",
"wwwwwwwwwwXwX3&X0X...wwwwwwwwwww",
"wwwXwwXwwX3X$&4+3<%:;owwwwwwwwww",
"wwXXwX1X.4:$47:$&&$$#>owwwwwwwww",
"w.4:.4:$47$:76$4+4:;6#owwwwwwwww",
"wo6-77-776-6O$4+0+4:;6-.wwwwwwww",
"wwo#%6#%->#+&$5&2,%4:66=.owwwwww",
"wwwX,X&,XoX&$59&,%547766>>owwwww",
"wwwXXwXXwwwXo85q&4;876--6>-Xwwww",
"wwwwwwwwXXX0+:4594:=776>#>%*Xwww",
"wwwwwwwX1,+3+$$887:6-76>%%1,*Xww",
"wwwwwwXX,$&1,+;$7:666-7%<,&<,*Xw",
"wwwwwwww.;&<*+:;$;;66#%31<,&&Xww",
"wwwwwwwo67&,%::7;$>6>%&031,*Xwww",
"wwwwwwwo 44&88 76@>>%3,&XX<,Xwww",
"wwwwwwXo  595  76ooo03<XwwXXXwww",
"wwwwwX,o6 898 76XwwwXX1,Xwwwwwww",
"wwwwwX1Xo678776&,XwwwwXXXwwwwwww",
"wwwwwXXwwo6776oX1Xwwwwwwwwwwwwww",
"wwwwwXwwwwoooowwXXwwwwwwwwwwwwww",
"wwwwwwwwwwwwwwwwwXwwwwwwwwwwwwww",
"wwwwwwwwwwwwwwwwwwwwwwwwwwwwwwww",
"wwwwwwwwwwwwwwwwwwwwwwwwwwwwwwww",
"wwwwwwwwwwwwwwwwwwwwwwwwwwwwwwww",
"wwwwwwwwwwwwwwwwwwwwwwwwwwwwwwww",
"wwwwwwwwwwwwwwwwwwwwwwwwwwwwwwww",
"wwwwwwwwwwwwwwwwwwwwwwwwwwwwwwww"
};
