/* XPM */
static const char *Icon9[] = {
/* columns rows colors chars-per-pixel */
"32 32 72 1 ",
"  c #010000",
". c #030200",
"X c #060000",
"o c #020700",
"O c #090000",
"+ c #0B0000",
"@ c #0C0101",
"# c #030800",
"$ c #100000",
"% c #120101",
"& c #140403",
"* c #1D0604",
"= c #111902",
"- c #220A00",
"; c #210B07",
": c #2C0B00",
"> c #2F100B",
", c #3A1100",
"< c #3A120A",
"1 c #3E120B",
"2 c #172104",
"3 c #182204",
"4 c #1E2A06",
"5 c #1F2A06",
"6 c #212D06",
"7 c #293809",
"8 c #2B380A",
"9 c #2C380A",
"0 c #410F00",
"q c #420F00",
"w c #441B0F",
"e c #491A0F",
"r c #5A1400",
"t c #591E10",
"y c #631600",
"u c #5A2011",
"i c #6A2513",
"p c #762312",
"a c #32400A",
"s c #3C4B10",
"d c #40510E",
"f c #425111",
"g c #4D5D16",
"h c #546210",
"j c #5B6C1B",
"k c #677612",
"l c #891E00",
"z c #97381D",
"x c #A22D00",
"c c #C63700",
"v c #CB3901",
"b c #D03D00",
"n c #A74404",
"m c #DA4100",
"M c #D26E08",
"N c #E04821",
"B c #7F8314",
"V c #758825",
"C c #8C9715",
"Z c #90A428",
"A c #98A52C",
"S c #BBB733",
"D c #FFB322",
"F c #BCC72F",
"G c #DDD335",
"H c #E7DC37",
"J c #E8EF33",
"K c #FFFE39",
"L c #FFFF3D",
"P c #FFFF60",
"I c white",
"U c None",
/* pixels */
"UUUUUUUUUUUUUUUUUUUUUUUUUUUUUUUU",
"UUUUUUUUUUUUUU  U   UUUUUUUUUUUU",
"UUUUUUUUUUU U >t >ww UUUUUUUUUUU",
"UUUUUUUUUU p *$$>wuup  UUUUUUUUU",
"UUUUUUUUUU t>$*>wupzzpt UUUUUUUU",
"UUUUUUUUUU >$*>wwpzNzMt UUUUUUUU",
"UUUUUUUUU wO**>wMupzMPDt UUUUUUU",
"UUUUUUUUU >O**>MPDuuwDw1 UUUUUUU",
"UUUUUUUU &*O$*>>Dwww>>>* UUUUUUU",
"UUUUUUUU @$XO**>>>>>>** UUUUUUUU",
"UUUUUUUUU O5X$***>>***$VoUUUUUUU",
"UUUUUUUUUo588X$*****$$jA UUUUUUU",
"UUUUUUUUU OsO&X$$$$$sjAAoUUUUUUU",
"UUUUUUUU &;O2O2XOOsj$HSVoUUUUUUU",
"UUUUUUUUoO&Os2sjO<$ABFnjoUUUUUUU",
"UUUUUUUUo=O6j$jjdOh$FxjjVoUUUUUU",
"UUUUUUUU 53j$*$VFkFkls$VF#UUUUUU",
"UUUUUUUo5$5sj$VV$AVlj$e$H$oUUUUU",
"UUUUUUo59-s9sjjVdVl8sh$BKGGoUUUU",
"UUUUUoqqfljs9ssjjs,AHHCIG$SSoUUU",
"UUUUUo9flVjjs888smHH$GGG$i$ASoUU",
"UUUUUo9jxAVjjVZFFbS$>$S$*>$AAoUU",
"UUUUo59flVcxljVVxAAh$hAh$$dAVoUU",
"UUUUo55sylVVVlllVV$AhAVVddjFoUUU",
"UUUo588:8ff88ssjljdVVVV$VjJVoUUU",
"UUo588syf88VASSsjljjj$jajLVoUUUU",
"UUo588rsjjVVVAAFsrsgjdFKIVoUUUUU",
"UUo558q8sjjjVVVVZZvFHKSVjoUUUUUU",
"UUo55o o8ssjjjjjjjnVjjjooUUUUUUU",
"UUUooUUUoo8sssjjjjjj ooUUUUUUUUU",
"UUUUUUUUUUooooooooooUUUUUUUUUUUU",
"UUUUUUUUUUUUUUUUUUUUUUUUUUUUUUUU"
};
