/* XPM */
static const char *Icon32[] = {
/* columns rows colors chars-per-pixel */
"32 32 40 1 ",
"  c #010000",
". c #030000",
"X c #020202",
"o c #0B0003",
"O c #140200",
"+ c #140605",
"@ c #1C0009",
"# c #191919",
"$ c #200306",
"% c #280E0C",
"& c #201108",
"* c #361107",
"= c #380912",
"- c #391810",
"; c #3F1B11",
": c #25292B",
"> c #52111B",
", c #571A1E",
"< c #4B261A",
"1 c #68351A",
"2 c #6E1C23",
"3 c #793124",
"4 c #3B494F",
"5 c #7F5341",
"6 c #A02F2C",
"7 c #98412F",
"8 c #8B542E",
"9 c #915931",
"0 c #9E7D57",
"q c #B97C47",
"w c #9D917F",
"e c #BBA36C",
"r c #E1A15E",
"t c #F1EB92",
"y c #DBD5BE",
"u c #FFFDBA",
"i c #FCF6D5",
"p c #FFFEEA",
"a c white",
"s c None",
/* pixels */
"ssssssssssssssssssssssssssssssss",
"ssssssssssss&sssssss&sssssssssss",
"ssssssss&ss&i&sssss&i&ss&sssssss",
"sssssssXiXsXyXsssssXyXsXiXssssss",
"sssssssXyXsXwXsssssXwXsXyXssssss",
"ssssssXy#wXX4XsssssX4XXw#yXsssss",
"ssssssXw#4XX:4XsssX4:XX4#wXsssss",
"sssssssX4#:X#4XOOOX4#X:#4Xssssss",
"sssssssX:*OsX:*198*:XsO*:Xssssss",
"ssssssssO91OsO19q98OsO19Osssssss",
"sssssssO%+1OsO+%r%+OsO1+%Ossssss",
"ssssssOr-81OsO1-q-8OsO11-rOsssss",
"ssssssOq81*t;*18q81*;u*19qOsssss",
"ssssssO81*ut<u*181*u<eu*18Osssss",
"ssssssO1*pu<etp*1*pte<tp*1Osssss",
"sssssssOaut<etua*aute<euaOssssss",
"sssssss;ute<0etuaute0<0tu;ssssss",
"ssssss;tte55<0etute05o5etu;sssss",
"ssssss;e55>$o50ete05o=>55t;sssss",
"ssssss;;>>==o>55e55>o==>>;;sssss",
"ssssssssX>=o@>>>5>>>@o=>Xsssssss",
"sssssssX@=o>=@>2@2>@=>o=@Xssssss",
"ssssssX2@o=2>@>2@2>@>2=o@2Xsssss",
"ssssssX2>o=>2@26@62@2>=o=>Xsssss",
"ssssssX>>o==>7@6@6@7>==o=>Xsssss",
"sssssssX=>o=37@2@2@73=o$=Xssssss",
"ssssssssX@$o,3@2@2@3,o$@Xsssssss",
"sssssssssX$o,@@>@>@@,o$Xssssssss",
"ssssssssX$o=@==>@>==@=o$Xsssssss",
"sssssssXXXX=X=X=X=X=X=XXXXssssss",
"sssssssssssXsXsXsXsXsXssssssssss",
"ssssssssssssssssssssssssssssssss"
};
