/* XPM */
static const char *Icon1[] = {
/* columns rows colors chars-per-pixel */
"32 32 38 1 ",
"  c #010000",
". c #020700",
"X c #090000",
"o c #0C0101",
"O c #0F0201",
"+ c #100000",
"@ c #100100",
"# c #120101",
"$ c #140403",
"% c #1D0604",
"& c #2F100B",
"* c #212D06",
"= c #4C0E00",
"- c #401000",
"; c #441B0F",
": c #481A0F",
"> c #5E2E0C",
", c #5A2011",
"< c #73331C",
"1 c #32400A",
"2 c #3C4B10",
"3 c #5B6C1B",
"4 c #677612",
"5 c #891E00",
"6 c #802F18",
"7 c #8D3A1E",
"8 c #A22D00",
"9 c #C63700",
"0 c #82511A",
"q c #AA4120",
"w c #D36E08",
"e c #758825",
"r c #98A52C",
"t c #FFB322",
"y c #BCC72F",
"u c #E7DC37",
"i c #FFFF60",
"p c None",
/* pixels */
"pppppppppppppppppppppppppppppppp",
"ppppppppppppppp==ppppppppppppppp",
"pppppppppppppp=ti=p pppppppppppp",
"ppppppppppp pp=wt=p  ppppppppppp",
"pppppppppp , pp==pp  ppppppppppp",
"pppppppppp ; pppppp ; pppppppppp",
"pppppppppp ; pppppp ,& ppppppppp",
"ppppppppp %; ppppp 7,; ppppppppp",
"ppppppppp %;, pp  <q,;& pppppppp",
"ppppppppp %&;6  <<q,;;& pppppppp",
"pppppppp #%&&;66qq,;t&& pppppppp",
"pppppppp #$%&&;t,,;;&& ppppppppp",
"pppppppp O#$%%&&;;;&&% ppppppppp",
"ppppppppp  ##%%%&&&&% pppppppppp",
"ppppppppppp XXX%%%%%# pppppppppp",
"pppppppppp O#eeXXXXXX#.ppppppppp",
"ppppppppp.*#189ru#&#ye.ppppppppp",
"ppppppppp.213#e#r4#4e# ppppppppp",
"ppppppppp.2231518e1-3 pppppppppp",
"pppppppppp #2-22#5-0#ppppppppppp",
"pppppppp pp ->-   #>0#pppppppppp",
"ppppppp < p#-0#pppp#-0#  ppppppp",
"pppppp :&##>#-0#pppp#>#&< pppppp",
"pppppp %#>0#p#># pppp <#%: ppppp",
"pppppp % ##ppp &< ppp %:#% ppppp",
"ppppp % pppppp %: pppp %#  ppppp",
"ppppp  ppppppp %& pppp # p ppppp",
"ppppp ppppppppp % ppppp  ppppppp",
"ppppppppppppppp % ppppp  ppppppp",
"ppppppppppppppp # pppppp ppppppp",
"pppppppppppppppp ppppppppppppppp",
"pppppppppppppppppppppppppppppppp"
};
