/* XPM */
static const char *Icon33[] = {
/* columns rows colors chars-per-pixel */
"32 32 46 1 ",
"  c black",
". c #010101",
"X c #030000",
"o c #030101",
"O c #050101",
"+ c #040608",
"@ c #03010D",
"# c #07050E",
"$ c #080B0F",
"% c #120606",
"& c #1B0C0C",
"* c #15121E",
"= c #11161E",
"- c #230F0D",
"; c #250F0E",
": c #2E1512",
"> c #3B1D17",
", c #371B1B",
"< c #1D172A",
"1 c #1E1C29",
"2 c #1C133A",
"3 c #211E2D",
"4 c #1B242E",
"5 c #252033",
"6 c #232F3B",
"7 c #2F2C3F",
"8 c #46221F",
"9 c #5D3129",
"0 c #764436",
"q c #774639",
"w c #312D40",
"e c #464159",
"r c #47455A",
"t c #56536B",
"y c #66647C",
"u c #895442",
"i c #B27157",
"p c #35419A",
"a c #737395",
"s c #737495",
"d c #5858C9",
"f c #8B5BF1",
"g c #858EC2",
"h c #8791C7",
"j c #F0E2C4",
"k c None",
/* pixels */
"kkkkkkkkkkkkkkkkkkkkkkkkkkkkkkkk",
"kkkkkkkkkkkkkkkkkkkkkkkkkkkkkkkk",
"kkkkkkkkkkkkkk kkkkkkkkkkkkkkkkk",
"kkkkkkkkkkkkk 6 kkkkkkkkkkkkkkkk",
"kkkkkkkkkkk k =6 kkkkkkkkkkkkkkk",
"kkkkkkkkkkk  $$=4 k kkkkkkkkkkkk",
"kkkkkkkkkkk# +$=4=   kkkkkkkkkkk",
"kkkkkkkkkk#ty +$=$=  kk kkkkkkkk",
"kkkkkkkkk#ty2a + +$ 6 k kkkk@kkk",
"kkkkk##k#eyga2y 1  =4  4 kk@kkkk",
"kkkk#ae#7etsha2r; +$= = kk@kkkkk",
"kkk#tytw57eyay;28, +$=$ k@kkkkkk",
"kkk#w-:>5<ety;89298 +$ 9@kkkkkkk",
"kkk#--:::#7e;8990298  929Okkkkkk",
"kkk &--:#*7;;890u029992909Okkkkk",
"kkkk &--#3;,8890qi20002iu09Okkkk",
"kkkkk &&#7e;;889p iuuui f9Okkkkk",
"kkkkkk &#ete;,889 diiid 99Okkkkk",
"kkkkkk #eeayeO,88900u0099;e#kkkk",
"kkkk  &#etyt#kOO,88;;;;9;7t#kkkk",
"kkk -&&#7et#kkkkOOOj99j%%ey#kkkk",
"kk -&%&#,e#kkkkkkkkOOOO-&%ty#kkk",
"kO &%&O#8uOkkkkkkkkkkkkOO%9t# kk",
"kkk   kO89iOkkkkkkkkkkkkk 8iOkkk",
"kkkkkkkkO90uOkkkkkkkkkkkkO890Okk",
"kkkkkkkkO8909OkkkkkkkkkkO8O89;Ok",
"kkkkkkkO8O89;8OkkkkkkkkOOOkO8Okk",
"kkkkkkOOOkO8OOOOkkkkkkkkkkkkOkkk",
"kkkkkkkkkkkOkkkkkkkkkkkkkkkkkkkk",
"kkkkkkkkkkkkkkkkkkkkkkkkkkkkkkkk",
"kkkkkkkkkkkkkkkkkkkkkkkkkkkkkkkk",
"kkkkkkkkkkkkkkkkkkkkkkkkkkkkkkkk"
};
