/* XPM */
static char * enemy3_4_xpm[] = {
"64 64 382 2",
"  	c None",
". 	c #780000",
"+ 	c #3E0076",
"@ 	c #370D7B",
"# 	c #37007A",
"$ 	c #30007A",
"% 	c #21007A",
"& 	c #210077",
"* 	c #1F004A",
"= 	c #710000",
"- 	c #0000A8",
"; 	c #E40000",
"> 	c #FE1A13",
", 	c #FF5E5C",
"' 	c #FF0000",
") 	c #E20000",
"! 	c #E10000",
"~ 	c #AA0000",
"{ 	c #AB0000",
"] 	c #700000",
"^ 	c #383732",
"/ 	c #000062",
"( 	c #43484C",
"_ 	c #414646",
": 	c #8C8E8E",
"< 	c #D5D6D6",
"[ 	c #444646",
"} 	c #2E3131",
"| 	c #252929",
"1 	c #363736",
"2 	c #3D3F3D",
"3 	c #0808A4",
"4 	c #353545",
"5 	c #3D3D3D",
"6 	c #343434",
"7 	c #242424",
"8 	c #191919",
"9 	c #161616",
"0 	c #0B0B0B",
"a 	c #111111",
"b 	c #383838",
"c 	c #3C3F40",
"d 	c #363631",
"e 	c #7A7A7A",
"f 	c #C2C2C2",
"g 	c #AAAAA9",
"h 	c #7E7E7E",
"i 	c #5D5D5D",
"j 	c #555554",
"k 	c #373838",
"l 	c #373737",
"m 	c #5B3E1B",
"n 	c #6F4821",
"o 	c #995B2E",
"p 	c #0000B4",
"q 	c #9D6140",
"r 	c #845236",
"s 	c #0000B5",
"t 	c #9B5F36",
"u 	c #704925",
"v 	c #885F44",
"w 	c #BF7A4C",
"x 	c #F59F6B",
"y 	c #F8B38E",
"z 	c #F09660",
"A 	c #CB8052",
"B 	c #F9B38E",
"C 	c #BB794E",
"D 	c #DC8854",
"E 	c #FDA571",
"F 	c #FCA572",
"G 	c #0a0a0aff",
"H 	c #8D5731",
"I 	c #F1955D",
"J 	c #FCB991",
"K 	c #FCD5BD",
"L 	c #151718",
"M 	c #7E4E2C",
"N 	c #DA8453",
"O 	c #EC9967",
"P 	c #EB9967",
"Q 	c #EA9867",
"R 	c #7E4E2D",
"S 	c #1E2021",
"T 	c #3E3E3E",
"U 	c #2A2929",
"V 	c #4B3E39",
"W 	c #9D623A",
"X 	c #A96940",
"Y 	c #AC6A41",
"Z 	c #A0643C",
"` 	c #9E633B",
" .	c #3A271D",
"..	c #4D4D4D",
"+.	c #A6A6A6",
"@.	c #D2D2D2",
"#.	c #1F1F1F",
"$.	c #DCDCDC",
"%.	c #BE7A49",
"&.	c #EA8D59",
"*.	c #C67D4C",
"=.	c #AA6941",
"-.	c #523B1A",
";.	c #4C4A48",
">.	c #7F7F7F",
",.	c #898989",
"'.	c #80807F",
").	c #9A9A99",
"!.	c #D1D0D0",
"~.	c #FDFDFD",
"{.	c #F7F7F7",
"].	c #2B2B2B",
"^.	c #2C2C2C",
"/.	c #B7B7B7",
"(.	c #000C10",
"_.	c #9C9C9C",
":.	c #8D8D8D",
"<.	c #8B8B8B",
"[.	c #ACACAC",
"}.	c #979797",
"|.	c #999998",
"1.	c #99A1A6",
"2.	c #F4F5F5",
"3.	c #DBDBDB",
"4.	c #EDEDED",
"5.	c #636363",
"6.	c #444444",
"7.	c #303030",
"8.	c #777777",
"9.	c #727272",
"0.	c #414141",
"a.	c #585858",
"b.	c #BABABA",
"c.	c #B2B2B2",
"d.	c #A8A8A8",
"e.	c #B9B9B9",
"f.	c #969696",
"g.	c #7D7E7F",
"h.	c #EBEBEB",
"i.	c #C0C0C0",
"j.	c #717171",
"k.	c #999999",
"l.	c #A2A2A2",
"m.	c #B5B5B5",
"n.	c #B4B4B4",
"o.	c #989898",
"p.	c #7C7C7C",
"q.	c #696969",
"r.	c #7D7D7C",
"s.	c #D0D0D0",
"t.	c #C1C1C1",
"u.	c #C5C5C5",
"v.	c #313131",
"w.	c #121212",
"x.	c #707070",
"y.	c #CECECE",
"z.	c #D1D1D1",
"A.	c #ABABAB",
"B.	c #6E6E6E",
"C.	c #7D7D7D",
"D.	c #E0E0E0",
"E.	c #CACACA",
"F.	c #BDBDBD",
"G.	c #888888",
"H.	c #272727",
"I.	c #1D1D1D",
"J.	c #363636",
"K.	c #949494",
"L.	c #A5A5A5",
"M.	c #A7A7A7",
"N.	c #797979",
"O.	c #454545",
"P.	c #626262",
"Q.	c #575757",
"R.	c #545455",
"S.	c #979696",
"T.	c #5B5B5B",
"U.	c #3F3F3F",
"V.	c #010101",
"W.	c #676767",
"X.	c #515151",
"Y.	c #7B7B7B",
"Z.	c #959595",
"`.	c #686868",
" +	c #646464",
".+	c #535353",
"++	c #545454",
"@+	c #545353",
"#+	c #5F5F5F",
"$+	c #787878",
"%+	c #606060",
"&+	c #474747",
"*+	c #484848",
"=+	c #FEFEFE",
"-+	c #F4F4F4",
";+	c #BFBFBF",
">+	c #505050",
",+	c #656565",
"'+	c #0E0E0E",
")+	c #202020",
"!+	c #393939",
"~+	c #555555",
"{+	c #4A4A4A",
"]+	c #FBFBFA",
"^+	c #E7E7E7",
"/+	c #C3C3C3",
"(+	c #AEA9A6",
"_+	c #79716D",
":+	c #6D6460",
"<+	c #343535",
"[+	c #3C3C3C",
"}+	c #525252",
"|+	c #4F4F50",
"1+	c #583E36",
"2+	c #44342D",
"3+	c #312620",
"4+	c #050505",
"5+	c #0D0D0D",
"6+	c #181818",
"7+	c #1E1E1E",
"8+	c #252525",
"9+	c #313334",
"0+	c #666666",
"a+	c #9E9E9E",
"b+	c #DEDEDE",
"c+	c #FDC3A2",
"d+	c #FEC6A6",
"e+	c #D2885E",
"f+	c #00191F",
"g+	c #FC7800",
"h+	c #C4723D",
"i+	c #925D35",
"j+	c #57676F",
"k+	c #8B8C8C",
"l+	c #A2A3A4",
"m+	c #8B8C8D",
"n+	c #C8BCB7",
"o+	c #FDB78E",
"p+	c #FCC5A6",
"q+	c #FDA470",
"r+	c #F7A16E",
"s+	c #0F1A1E",
"t+	c #B26F44",
"u+	c #965F36",
"v+	c #5A3F1E",
"w+	c #57666E",
"x+	c #7B7D7D",
"y+	c #C77B4B",
"z+	c #E58954",
"A+	c #EC8D57",
"B+	c #525353",
"C+	c #C2B7B2",
"D+	c #FCB88F",
"E+	c #FAAE7F",
"F+	c #CB7F4F",
"G+	c #C47A4D",
"H+	c #3B3F40",
"I+	c #4F4F4F",
"J+	c #5A5351",
"K+	c #55514F",
"L+	c #676665",
"M+	c #767676",
"N+	c #4C4D4E",
"O+	c #61676A",
"P+	c #E08856",
"Q+	c #CB7D4D",
"R+	c #B57043",
"S+	c #55585A",
"T+	c #8A817F",
"U+	c #E88B56",
"V+	c #C87C4C",
"W+	c #AA6B45",
"X+	c #6F7071",
"Y+	c #757575",
"Z+	c #CFCFCF",
"`+	c #8C8C8C",
" @	c #4B4C4C",
".@	c #B27045",
"+@	c #B36F43",
"@@	c #9C5F35",
"#@	c #847878",
"$@	c #E98B55",
"%@	c #C97C4A",
"&@	c #A9683E",
"*@	c #786F6C",
"=@	c #AAAAAA",
"-@	c #929292",
";@	c #8A8A8A",
">@	c #656666",
",@	c #9C6037",
"'@	c #9E5F33",
")@	c #656463",
"!@	c #6F6E6E",
"~@	c #6F6F6F",
"{@	c #A9A9A9",
"]@	c #818181",
"^@	c #6A6A6A",
"/@	c #858585",
"(@	c #919191",
"_@	c #9F9F9F",
":@	c #A0A0A0",
"<@	c #909090",
"[@	c #5A5A5A",
"}@	c #9A9A9A",
"|@	c #848484",
"1@	c #9B9B9B",
"2@	c #B1B1B1",
"3@	c #B3B3B3",
"4@	c #DDDDDD",
"5@	c #979898",
"6@	c #DADADA",
"7@	c #B6B6B6",
"8@	c #868686",
"9@	c #989797",
"0@	c #C9C9C9",
"a@	c #C5C6C7",
"b@	c #ADADAD",
"c@	c #C6C7C8",
"d@	c #878787",
"e@	c #A1A1A1",
"f@	c #B5B5B4",
"g@	c #CCCCCC",
"h@	c #4E4E4E",
"i@	c #5A5B5B",
"j@	c #494949",
"k@	c #565656",
"l@	c #545555",
"m@	c #7A7B7C",
"n@	c #262629",
"o@	c #333333",
"p@	c #3B3B3B",
"q@	c #2E2E2E",
"r@	c #656667",
"s@	c #000041",
"t@	c #20201F",
"u@	c #212121",
"v@	c #57595A",
"w@	c #656564",
"x@	c #3E3E3F",
"y@	c #000034",
"z@	c #00002D",
"A@	c #000004",
"B@	c #141337",
"C@	c #181844",
"D@	c #181839",
"E@	c #181833",
"F@	c #131312",
"G@	c #131313",
"H@	c #0B0B0D",
"I@	c #00002E",
"J@	c #00003F",
"K@	c #000035",
"L@	c #00001D",
"M@	c #000001",
"N@	c #54626A",
"O@	c #000031",
"P@	c #000040",
"Q@	c #000033",
"R@	c #000021",
"S@	c #000013",
"T@	c #000026",
"U@	c #00000A",
"V@	c #00002C",
"W@	c #000008",
"X@	c #00001C",
"Y@	c #090C0E",
"Z@	c #000009",
"`@	c #00000B",
" #	c #000002",
".#	c #515F67",
"+#	c #080B17",
"@#	c #080B0F",
"##	c #080B0D",
"$#	c #00003C",
"%#	c #03050C",
"&#	c #00003E",
"*#	c #0A0E14",
"=#	c #000036",
"-#	c #00000C",
";#	c #0A0E10",
">#	c #505E6A",
",#	c #505E66",
"                                                                                                                                ",
"                                                                                                                                ",
"                                                                                                                                ",
"                                                                                                                                ",
"                                                                                                                                ",
"                                                                                                                                ",
"                                                                                                                                ",
"                                                                                                                                ",
"                                                                                                                                ",
"                                                                                                                                ",
"                                                                                                                                ",
"                                                                                                                                ",
"                                                                                                                                ",
"                                                                                                                                ",
"                                                                                                                                ",
"                                                      . + @ # $ $ $ % & * =                                                     ",
"                                                    - ; > , ' ) ! ; ~ { { ]                                                     ",
"                                                    ^ / ( _ : < < : [ } | 1                                                     ",
"                                                    2 3 4 5 6 7 8 9 0 a b c                                                     ",
"                                                      d e f g h i j k b l                                                       ",
"                                                      m n o p q r s t u m                                                       ",
"                                                      v w x y z A B x w v                                                       ",
"                                                        C D E F F E D C                                                         ",
"                                                      G H I J K K J I H G                                                       ",
"                                                      L M N O P P Q N R S T                                                     ",
"                                                    U G V W X Y X Z `  ...G                                                     ",
"                                                +.@.#.G $.G %.&.*.=.-.;.>.G ,.'.).                                              ",
"                                              !.~.{.].^.../.(.G G G G _.G :.<.[.}.|.                                            ",
"                                          1.2.{.3.4.6 ].5.6.7.8.9.0.5 a.b.c.d.e.}.f.g.                                          ",
"                                          {.h.$.i.c.5.l b j.k.i.l.f m.m.n.n.n.n.o.p.q.r.                                        ",
"                                          2.3.s.t.f.u.v.w.l x.}.e t.n.y.z.@.A.d.B.p.q.C.                                        ",
"                                        4.D.E.F.l.G.9.p.H.I.J.q.j.n.K.L.+.M.p.N.O.P.Q.5.R.                                      ",
"                                        S.4.M.M.p.T.x.C.U.V.#.J.W.X.Y.Z.}.o.`. +l .+++++@+                                      ",
"                                        t.Z.f.#+5... +C.$+J.G G G b .+8.P.P.p.%+++&+*+++@+                                      ",
"                                        =+-+;+}.C.>+l ,+ + +l ^.'+G )+!+~+,+{+5 ,+5. +j.@+                                      ",
"                                        ]+^+/+(+_+:+<+[+}+++|+1+2+3+4+5+6+7+8+9+0+G.a+p..+                                      ",
"                                        i.b+4.c+d+e+G G V.#.f+g+h+i+G G G G G j+p.k+l+m+.+                                      ",
"                                          n+o+p+q+r+G G V.#.s+t+u+v+G G G G G w+x+y+z+A+B+                                      ",
"                                          C+D+E+F+G+H+..I+I+I+J+K+L+8.M+x.`..+N+O+P+Q+R+S+                                      ",
"                                          T+D+U+V+W+X+x.p.p.C.p.Y+m.s.Z+n.`+a. @  .@+@@@                                        ",
"                                          #@$@%@&@*@x.x.C.`+=@j.-@}.f.Z.f.;@:.>@  ,@@@'@                                        ",
"                                                )@!@x.~@:.d.{@9.-@d.i.y.s.i.]@^@                                                ",
"                                                  /@(@_@:@<@<@[@}@|@}.}@1@o.M+                                                  ",
"                                                  /@`+n.n.n.6.&+Y+o.d.{@t.m.}@P.                                                ",
"                                                o.2@m.o.}.`+x. +e m.3@y.4@;+m./@                                                ",
"                                                5@3@n.M.k.}.Y.,+e n.y.6@$.6@7@8@                                                ",
"                                                9@0@n.d.k.o.p.,+e n.s.3.$.4@7@f.                                                ",
"                                                  a@n.d.k.o.p.,+j.n.s.$.4@4@4@4@                                                ",
"                                                  a@n.d.k.o.p.,+~+t.t.b@A.=@i.t.;@                                              ",
"                                                  c@E.d.k.o.p. +d@t.e@K.-@-@d@1@/.                                              ",
"                                                f@g@M.{@}@k.P.*+#+h@p.Y.~@x.x.i@                                                ",
"                                                n.c. + +N. + +j@[+*+~+k@,+,+~+l@                                                ",
"                                                  m@ + + + + +.+*+n@o@p@U.U.6 q@                                                ",
"                                                  r@ + + + + +++{+s@t@t@t@t@)+u@                                                ",
"                                                  v@,+w@w@w@++~+x@s@y@y@y@z@A@G                                                 ",
"                                                    B@C@D@E@F@G@H@I@J@K@z@L@M@N@                                                ",
"                                                    O@P@Q@R@G G M@S@Q@T@R@U@G                                                   ",
"                                                    G s@K@V@G G G G V@W@G G G                                                   ",
"                                                      G X@L@G G Y@  V@Z@G G G                                                   ",
"                                                      G U@`@ #G .#  +#@#######                                                  ",
"                                                    $#s@s@s@K@L@%#                                                              ",
"                                                    &#P@J@y@X@X@*#                                                              ",
"                                                    Q@=#Q@-#A@A@;#                                                              ",
"                                                    >#>#>#,#,#,#.#                                                              "};
