/* XPM */
static char * enemy3_0_xpm[] = {
"64 64 378 2",
"  	c None",
". 	c #0000AC",
"+ 	c #F81232",
"@ 	c #FF5C5C",
"# 	c #FF0000",
"$ 	c #E20000",
"% 	c #E10000",
"& 	c #E40000",
"* 	c #AA0000",
"= 	c #A60503",
"- 	c #4E5454",
"; 	c #001696",
"> 	c #CA0000",
", 	c #5E4867",
"' 	c #504B4A",
") 	c #979595",
"! 	c #E1E0E0",
"~ 	c #4D4A4A",
"{ 	c #433333",
"] 	c #980C0C",
"^ 	c #661615",
"/ 	c #373736",
"( 	c #000019",
"_ 	c #15159A",
": 	c #282823",
"< 	c #202020",
"[ 	c #121212",
"} 	c #070707",
"| 	c #090909",
"1 	c #050505",
"2 	c #070808",
"3 	c #1E1F1F",
"4 	c #36352F",
"5 	c #7A7A80",
"6 	c #C4C4C4",
"7 	c #ABABAB",
"8 	c #7F7F7F",
"9 	c #5E5E5E",
"0 	c #555555",
"a 	c #383838",
"b 	c #373737",
"c 	c #0a0a0aff",
"d 	c #363534",
"e 	c #363634",
"f 	c #515252",
"g 	c #505252",
"h 	c #535350",
"i 	c #515354",
"j 	c #47494A",
"k 	c #494945",
"l 	c #333738",
"m 	c #373838",
"n 	c #5F4122",
"o 	c #7C5331",
"p 	c #B7744A",
"q 	c #4F3BAB",
"r 	c #AB6C49",
"s 	c #B4734C",
"t 	c #4D3AAA",
"u 	c #B77348",
"v 	c #7B512E",
"w 	c #905B31",
"x 	c #C37D4D",
"y 	c #FEA571",
"z 	c #FFBB91",
"A 	c #A2663F",
"B 	c #CA7D4F",
"C 	c #FEBA91",
"D 	c #95623F",
"E 	c #CF7F4F",
"F 	c #FDA470",
"G 	c #FDA571",
"H 	c #905C3B",
"I 	c #EF935B",
"J 	c #E38E5B",
"K 	c #8C5631",
"L 	c #E88C58",
"M 	c #FCA470",
"N 	c #FBA470",
"O 	c #E78C58",
"P 	c #1E1D1D",
"Q 	c #3C312B",
"R 	c #8F5C33",
"S 	c #BC7848",
"T 	c #B97647",
"U 	c #BA7747",
"V 	c #9E623A",
"W 	c #563D1E",
"X 	c #513A1B",
"Y 	c #474747",
"Z 	c #030303",
"` 	c #DADADA",
" .	c #2E2E2E",
"..	c #B06D42",
"+.	c #A2653D",
"@.	c #553D1C",
"#.	c #27211C",
"$.	c #7E7E7E",
"%.	c #616161",
"&.	c #C9CACA",
"*.	c #E8E8E8",
"=.	c #787878",
"-.	c #1A1A1A",
";.	c #6D6D6D",
">.	c #A7A7A7",
",.	c #372417",
"'.	c #634537",
").	c #503C33",
"!.	c #3B2110",
"~.	c #150700",
"{.	c #8F8F8F",
"].	c #464646",
"^.	c #959595",
"/.	c #979797",
"(.	c #979898",
"_.	c #B3B3B2",
":.	c #FDFDFD",
"<.	c #F9F9F9",
"[.	c #B3B3B3",
"}.	c #1E1E1E",
"|.	c #141414",
"1.	c #BEBEBE",
"2.	c #BFBFBF",
"3.	c #353535",
"4.	c #EFEFEF",
"5.	c #DCDCDC",
"6.	c #DDDDDD",
"7.	c #D4D4D4",
"8.	c #B5B5B5",
"9.	c #646463",
"0.	c #8F8E8E",
"a.	c #FFFFFF",
"b.	c #DEDEDE",
"c.	c #777777",
"d.	c #2A2A2A",
"e.	c #B6B6B6",
"f.	c #FBFBFB",
"g.	c #CFCFCF",
"h.	c #FEFEFE",
"i.	c #EDEDED",
"j.	c #D2D2D2",
"k.	c #B7B7B7",
"l.	c #D7D7D7",
"m.	c #F3F3F3",
"n.	c #7D7D7D",
"o.	c #2B2B2B",
"p.	c #2D2D2D",
"q.	c #A8A8A8",
"r.	c #FAFAFA",
"s.	c #CACACA",
"t.	c #C8C8C8",
"u.	c #CECECE",
"v.	c #A2A2A2",
"w.	c #9C9C9C",
"x.	c #CBCBCB",
"y.	c #8B8B8B",
"z.	c #D2D1D1",
"A.	c #B2B2B2",
"B.	c #D0D0D0",
"C.	c #C9C9C9",
"D.	c #626262",
"E.	c #1C1C1C",
"F.	c #414141",
"G.	c #8C8C8C",
"H.	c #989898",
"I.	c #B4B4B4",
"J.	c #868687",
"K.	c #D1D1D1",
"L.	c #EEEEEE",
"M.	c #999999",
"N.	c #4A4A4A",
"O.	c #A6A6A6",
"P.	c #A4A4A4",
"Q.	c #858686",
"R.	c #666666",
"S.	c #9A9A9A",
"T.	c #797979",
"U.	c #252525",
"V.	c #232323",
"W.	c #4D4D4D",
"X.	c #F4F4F4",
"Y.	c #FCFCFC",
"Z.	c #A0A1A1",
"`.	c #ECECEC",
" +	c #8D8D8D",
".+	c #B0B0B0",
"++	c #B9B9B9",
"@+	c #A1A1A1",
"#+	c #747474",
"$+	c #3B3B3B",
"%+	c #272727",
"&+	c #7A7A7A",
"*+	c #C5C5C5",
"=+	c #CCCCCC",
"-+	c #AEAEAE",
";+	c #9D9D9D",
">+	c #757575",
",+	c #969696",
"'+	c #6F6F6F",
")+	c #646464",
"!+	c #303030",
"~+	c #5C5C5C",
"{+	c #151515",
"]+	c #A0A0A0",
"^+	c #7B7B7B",
"/+	c #606060",
"(+	c #4C4C4C",
"_+	c #B1B1B1",
":+	c #858585",
"<+	c #8E8E8E",
"[+	c #545454",
"}+	c #7A7A7D",
"|+	c #585A5C",
"1+	c #07171C",
"2+	c #717171",
"3+	c #3A3A3A",
"4+	c #8A8A8A",
"5+	c #696969",
"6+	c #181818",
"7+	c #333333",
"8+	c #3C3C3C",
"9+	c #2A2B38",
"0+	c #F0EA56",
"a+	c #EEAF58",
"b+	c #EC9D56",
"c+	c #1E1F20",
"d+	c #212121",
"e+	c #313131",
"f+	c #0E0E0E",
"g+	c #585858",
"h+	c #848484",
"i+	c #1B1B1B",
"j+	c #00171D",
"k+	c #FB7300",
"l+	c #B95900",
"m+	c #664420",
"n+	c #1C1D1D",
"o+	c #1D1D1D",
"p+	c #868787",
"q+	c #6B6B6B",
"r+	c #636363",
"s+	c #777B7B",
"t+	c #515454",
"u+	c #7C7C7C",
"v+	c #5F5F5F",
"w+	c #6C6C6C",
"x+	c #888888",
"y+	c #E4E4E4",
"z+	c #E9E9E9",
"A+	c #9E9E9E",
"B+	c #A5A5A5",
"C+	c #565656",
"D+	c #D5D5D5",
"E+	c #C1C1C1",
"F+	c #575757",
"G+	c #F0F0F0",
"H+	c #6D6E6E",
"I+	c #6E6E6E",
"J+	c #99999A",
"K+	c #878787",
"L+	c #6F4D2D",
"M+	c #6C4928",
"N+	c #3E3733",
"O+	c #6B4825",
"P+	c #6D4A2A",
"Q+	c #C47848",
"R+	c #EEA677",
"S+	c #664D40",
"T+	c #919191",
"U+	c #737373",
"V+	c #444444",
"W+	c #323030",
"X+	c #F0A779",
"Y+	c #C57A4B",
"Z+	c #797577",
"`+	c #BB7644",
" @	c #FEB181",
".@	c #816D63",
"+@	c #C2C2C2",
"@@	c #9B9B9B",
"#@	c #656565",
"$@	c #525252",
"%@	c #383635",
"&@	c #FFB483",
"*@	c #BD7949",
"=@	c #777577",
"-@	c #BF7946",
";@	c #9F6239",
">@	c #9D9795",
",@	c #C0C0C0",
"'@	c #4C4B4B",
")@	c #9F633A",
"!@	c #BD7846",
"~@	c #BA7646",
"{@	c #A09895",
"]@	c #BC7745",
"^@	c #87756F",
"/@	c #9A9897",
"(@	c #4F4F4F",
"_@	c #887670",
":@	c #969899",
"<@	c #CDCDCD",
"[@	c #676767",
"}@	c #505050",
"|@	c #686868",
"1@	c #969898",
"2@	c #D8D8D8",
"3@	c #505151",
"4@	c #DBDBDB",
"5@	c #434343",
"6@	c #898989",
"7@	c #828485",
"8@	c #707070",
"9@	c #ACACAC",
"0@	c #6A6A6A",
"a@	c #A2A3A4",
"b@	c #515151",
"c@	c #AFAFAF",
"d@	c #E2E2E2",
"e@	c #8F9091",
"f@	c #EAEAEA",
"g@	c #E0E0E0",
"h@	c #9F9F9F",
"i@	c #535353",
"j@	c #7A7B7C",
"k@	c #7C7C7B",
"l@	c #393939",
"m@	c #272726",
"n@	c #727272",
"o@	c #717170",
"p@	c #1D1C5B",
"q@	c #2A2A42",
"r@	c #29292B",
"s@	c #131313",
"t@	c #080707",
"u@	c #191739",
"v@	c #1C1C3B",
"w@	c #181832",
"x@	c #131312",
"y@	c #0F0F22",
"z@	c #09090B",
"A@	c #00003F",
"B@	c #000034",
"C@	c #000025",
"D@	c #000016",
"E@	c #000017",
"F@	c #000031",
"G@	c #00002C",
"H@	c #00001C",
"I@	c #000001",
"J@	c #000032",
"K@	c #00002B",
"L@	c #000035",
"M@	c #00001B",
"N@	c #000002",
"O@	c #00002A",
"P@	c #00000A",
"Q@	c #000013",
"R@	c #00000F",
"S@	c #000007",
"T@	c #00000E",
"U@	c #000024",
"V@	c #00001E",
"W@	c #000012",
"X@	c #000011",
"Y@	c #000058",
"Z@	c #000033",
"`@	c #2E3760",
" #	c #000039",
".#	c #00002D",
"+#	c #1B2228",
"@#	c #21284D",
"##	c #19191F",
"$#	c #00002F",
"%#	c #00002E",
"&#	c #000026",
"*#	c #000023",
"=#	c #02030C",
"                                                                                                                                ",
"                                                                                                                                ",
"                                                                                                                                ",
"                                                                                                                                ",
"                                                                                                                                ",
"                                                                                                                                ",
"                                                                                                                                ",
"                                                                                                                                ",
"                                                                                                                                ",
"                                                                                                                                ",
"                                                                                                                                ",
"                                                                                                                                ",
"                                                                                                                                ",
"                                                      . + @ # $ % & * = -                                                       ",
"                                                    ; > , ' ) ! ! ) ~ { ] ^                                                     ",
"                                                    / ( _ : < [ } | 1 2 3 /                                                     ",
"                                                    4 . 5 6 7 8 9 0 a b c d                                                     ",
"                                                      e f g h i j k l m b                                                       ",
"                                                      n o p q r s t u v n                                                       ",
"                                                      w x y z A B C y x w                                                       ",
"                                                        D E F y G F E D                                                         ",
"                                                        H I G J J G I H                                                         ",
"                                                      c K L M N N N O K c                                                       ",
"                                                      P Q R S T U V W X c                                                       ",
"                                                    Y Z `  .R O ..+.@.#.$.c %.                                                  ",
"                                                &.*.=.-.;.>.,.'.).!.~.{.].^./.(.                                                ",
"                                              _.:.<.[.[ }.|.c 1.2.c c 3.4.5.6.7.8.9.                                            ",
"                                            0.a.5.b.a.c.d.c e.f.g.h.h.h.:.i.6.7.j.8.                                            ",
"                                            k.h.l.2.<.m.n.o.p.4.q.r.s.s.s.t.u.v.w.x.y.                                          ",
"                                            z.h./.A.B.g.C.D.E.F.;.B.i.i.i.i.k.G.H.I.J.                                          ",
"                                            K.L.M.w.j.B.B.j.c }.N.7.O.P.P.O.[.n.H.[.Q.                                          ",
"                                            K.L.M.R.S.K.B.B.T.U.V.W.>.X.Y.^.[.$./.g.Z.                                          ",
"                                            K.`.H.;. +.+++++@+#+$+%+&+*+=+-+;+>+,+g.Z.                                          ",
"                                            B.P.'+)+!+G.[.8.y.n.~+}.{+]+H.^+0 /+(+_+:+                                          ",
"                                            K.4.<+~+b [+$.M. +}+|+1+< o.2+[+3+~+4+`.q.                                          ",
"                                            B.k.D.5+1 6+7+8+9+0+a+b+c+d+e+6+f+g+/+w.h+                                          ",
"                                            K.4.S.#+c c -.i+j+k+l+m+n+o+o+c c g+M.I.p+                                          ",
"                                            K.L.M.q+Y r+4+/.&+s+t+u+u+u+n.)+N.v+H.I.J.                                          ",
"                                            K.L.M.w+D.x+y+z+=+1.A+A.O.B+y.^+C+%.H.I.J.                                          ",
"                                            K.L.M.;.w+7 D+l.B.E+@+8.q.O.G.u+F+%.H.I.J.                                          ",
"                                            j.G+S.H+I+K.B.B.B.E+@+8.q.O.G.u+F+%.J+8.K+                                          ",
"                                              L+M+N+'+K.B.B.K.E+@+8.q.>.G.n.F+%.O+P+                                            ",
"                                              Q+R+S+v+T+ +8 $.T.F+>+U+U+D.V+U.W+X+Y+Z+                                          ",
"                                              `+ @.@+@E+@@M.u+#@g+$@^+^.M.n.(+%@&@*@=@                                          ",
"                                              -@;@>@K.6.,@q.^+#@g+'+I.=+I.G.g+'@)@!@=@                                          ",
"                                                ~@{@K.6.,@q.^+#@g+'+I.=+I.G.g+'@]@                                              ",
"                                                ^@/@K.5.C.q.^+#@g+'+I.=+I.G.D.(@_@                                              ",
"                                                  :@K.5.<@q.^+#@g+'+I.x.I.G.[@}@                                                ",
"                                                  :@K.5.<@>.^+#@g+'+[.y+2./.|@}@                                                ",
"                                                  1@B.6.B.t.[@}@[+;.7..+2@B+5+3@                                                ",
"                                                    A.L.4@g.&+#@F+5@6@e.h.B+[@                                                  ",
"                                                  7@i.4@<.`./.R.V+8@4+l.:.i.9@0@                                                ",
"                                                  a@i.<.+@O.v+W.b@'+c@d@e.;+T+/+                                                ",
"                                                  e@<@f@g@v.I+~+C+F+;+C.2@h@$.i@                                                ",
"                                                  j@k@H.^.u+i@l@m@n@o@)+b@Y a  .                                                ",
"                                                    p@q@r@< s@t@  u@v@w@x@y@z@                                                  ",
"                                                    A@B@C@D@E@c   F@B@G@D@H@I@                                                  ",
"                                                    J@B@K@H@H@c   J@L@G@M@H@I@                                                  ",
"                                                    J@B@K@H@H@c   c N@O@G@H@I@                                                  ",
"                                                    P@Q@R@S@c       c T@R@S@c                                                   ",
"                                                      U@V@W@S@      C@U@X@c                                                     ",
"                                                    Y@Z@Z@G@H@c   F@B@B@B@H@N@                                                  ",
"                                                  `@ #.#.#G@H@c   F@B@B@B@K@M@+#                                                ",
"                                                  @#B@G@G@G@##c   D@$#%#&#*#H@=#                                                "};
