/* XPM */
static char * enemy3_1_xpm[] = {
"64 64 348 2",
"  	c None",
". 	c #6C4A4F",
"+ 	c #434B7A",
"@ 	c #3F4B7C",
"# 	c #3F4B7B",
"$ 	c #3E4B63",
"% 	c #9F0000",
"& 	c #960B66",
"* 	c #953373",
"= 	c #960068",
"- 	c #840068",
"; 	c #850068",
"> 	c #620068",
", 	c #620066",
"' 	c #61003F",
") 	c #700000",
"! 	c #0002A0",
"~ 	c #D80000",
"{ 	c #F12424",
"] 	c #F35C5C",
"^ 	c #F73232",
"/ 	c #E35252",
"( 	c #E25252",
"_ 	c #DD3333",
": 	c #A31515",
"< 	c #A20C0C",
"[ 	c #A20404",
"} 	c #6C0200",
"| 	c #38372F",
"1 	c #000091",
"2 	c #2F3844",
"3 	c #202C2C",
"4 	c #5C6161",
"5 	c #929494",
"6 	c #5D6161",
"7 	c #292E2E",
"8 	c #1A2121",
"9 	c #2E3333",
"0 	c #363736",
"a 	c #4D575B",
"b 	c #202089",
"c 	c #55555C",
"d 	c #818181",
"e 	c #707070",
"f 	c #535353",
"g 	c #3C3C3C",
"h 	c #363636",
"i 	c #222222",
"j 	c #242424",
"k 	c #383838",
"l 	c #4D575C",
"m 	c #3D3732",
"n 	c #787471",
"o 	c #BCB6B4",
"p 	c #9B9CAA",
"q 	c #837A77",
"r 	c #645B58",
"s 	c #4D4D6A",
"t 	c #524038",
"u 	c #453B36",
"v 	c #3E3833",
"w 	c #5D3F1D",
"x 	c #734B26",
"y 	c #9E6137",
"z 	c #0001B2",
"A 	c #A06442",
"B 	c #865437",
"C 	c #0D0BB3",
"D 	c #9F6239",
"E 	c #734C27",
"F 	c #7B6963",
"G 	c #C07C4E",
"H 	c #EE9864",
"I 	c #FFB181",
"J 	c #F89E68",
"K 	c #E49261",
"L 	c #B2734A",
"M 	c #E18B56",
"N 	c #FDA979",
"O 	c #FCB187",
"P 	c #B27349",
"Q 	c #905C3C",
"R 	c #F0945C",
"S 	c #FCB78E",
"T 	c #FCD1B8",
"U 	c #8E5832",
"V 	c #0a0a0aff",
"W 	c #252423",
"X 	c #C2B8B4",
"Y 	c #996043",
"Z 	c #C27D50",
"` 	c #C87F51",
" .	c #C97F51",
"..	c #C98053",
"+.	c #A1633B",
"@.	c #5E3C27",
"#.	c #656565",
"$.	c #807F7F",
"%.	c #7D7D7C",
"&.	c #383837",
"*.	c #BABABA",
"=.	c #757575",
"-.	c #784D2B",
";.	c #845230",
">.	c #855231",
",.	c #442F13",
"'.	c #636261",
").	c #666666",
"!.	c #525252",
"~.	c #8A8A8A",
"{.	c #8F8F8F",
"].	c #4F4F4F",
"^.	c #484848",
"/.	c #515151",
"(.	c #ACACAC",
"_.	c #0F0F0F",
":.	c #232323",
"<.	c #949494",
"[.	c #3E3E3E",
"}.	c #929292",
"|.	c #969696",
"1.	c #A8A8A8",
"2.	c #D3D3D3",
"3.	c #7A7A7A",
"4.	c #474747",
"5.	c #454545",
"6.	c #181818",
"7.	c #6F6F6F",
"8.	c #313131",
"9.	c #C2C2C2",
"0.	c #B4B4B4",
"a.	c #A9A9A9",
"b.	c #9C9C9C",
"c.	c #646464",
"d.	c #EBEBEB",
"e.	c #F9F9F9",
"f.	c #D9D9D9",
"g.	c #838383",
"h.	c #1A1A1A",
"i.	c #8D8D8D",
"j.	c #D5D5D5",
"k.	c #B0B0B0",
"l.	c #D4D4D4",
"m.	c #B7B7B7",
"n.	c #C7C7C7",
"o.	c #C5C5C5",
"p.	c #5C5C5C",
"q.	c #5D5D5D",
"r.	c #525253",
"s.	c #78838A",
"t.	c #AFAFAF",
"u.	c #FCFCFC",
"v.	c #FBFBFB",
"w.	c #F2F2F2",
"x.	c #8B8B8B",
"y.	c #616161",
"z.	c #353535",
"A.	c #1C1C1C",
"B.	c #808080",
"C.	c #777777",
"D.	c #A1A1A1",
"E.	c #C4C4C4",
"F.	c #C6C6C6",
"G.	c #AEAEAE",
"H.	c #8E8E8E",
"I.	c #505050",
"J.	c #4C4D4E",
"K.	c #B5B5B5",
"L.	c #D0D0D0",
"M.	c #F8F8F8",
"N.	c #B3B3B3",
"O.	c #888888",
"P.	c #555555",
"Q.	c #2C2C2C",
"R.	c #2A2A2A",
"S.	c #7F7F7F",
"T.	c #626262",
"U.	c #7B7B7B",
"V.	c #8C8C8C",
"W.	c #393939",
"X.	c #515252",
"Y.	c #CFCFCF",
"Z.	c #DEDEDE",
"`.	c #787878",
" +	c #848585",
".+	c #B87450",
"++	c #C47A4E",
"@+	c #975F3C",
"#+	c #5A5046",
"$+	c #696969",
"%+	c #828282",
"&+	c #848484",
"*+	c #545454",
"=+	c #555556",
"-+	c #E6E6E6",
";+	c #ADADAD",
">+	c #6A6A6A",
",+	c #807C7A",
"'+	c #AB8D7D",
")+	c #EE9764",
"!+	c #FCA46F",
"~+	c #CB8051",
"{+	c #6B4623",
"]+	c #565656",
"^+	c #717171",
"/+	c #676767",
"(+	c #4A4A4A",
"_+	c #373737",
":+	c #525353",
"<+	c #F5F5F5",
"[+	c #B7ADA9",
"}+	c #FDB07F",
"|+	c #FCAF7F",
"1+	c #E29161",
"2+	c #9D6038",
"3+	c #000101",
"4+	c #343434",
"5+	c #464646",
"6+	c #3A3A3A",
"7+	c #3D3937",
"8+	c #534A47",
"9+	c #4C4B4B",
"0+	c #B6B6B6",
"a+	c #FEFEFE",
"b+	c #FDFDFD",
"c+	c #DDDDDD",
"d+	c #DCDCDC",
"e+	c #FBF4F2",
"f+	c #FDAF7D",
"g+	c #FCA470",
"h+	c #FDA470",
"i+	c #EB905D",
"j+	c #A86840",
"k+	c #202121",
"l+	c #090909",
"m+	c #202020",
"n+	c #0C0A0A",
"o+	c #6C4823",
"p+	c #A8683F",
"q+	c #675954",
"r+	c #9FA2A5",
"s+	c #FEFDFD",
"t+	c #E1E1E1",
"u+	c #D6D6D6",
"v+	c #979999",
"w+	c #B7744D",
"x+	c #AD6C41",
"y+	c #925C37",
"z+	c #6F4825",
"A+	c #181717",
"B+	c #6A4723",
"C+	c #D08050",
"D+	c #806354",
"E+	c #F2F2F3",
"F+	c #F3F3F3",
"G+	c #D7D7D7",
"H+	c #898989",
"I+	c #444444",
"J+	c #45371D",
"K+	c #45371B",
"L+	c #47391E",
"M+	c #262626",
"N+	c #2F2F2E",
"O+	c #654525",
"P+	c #C67E56",
"Q+	c #7A7678",
"R+	c #2B2B2B",
"S+	c #2C2C2D",
"T+	c #383939",
"U+	c #363535",
"V+	c #78797B",
"W+	c #4E4E4E",
"X+	c #404040",
"Y+	c #3B3B3B",
"Z+	c #9A9A9A",
"`+	c #979797",
" @	c #6E6E6E",
".@	c #3E3E3D",
"+@	c #797B7C",
"@@	c #585858",
"#@	c #4B4B4B",
"$@	c #7C7C7C",
"%@	c #989898",
"&@	c #464645",
"*@	c #797A7C",
"=@	c #636363",
"-@	c #646667",
";@	c #7D7D7D",
">@	c #474646",
",@	c #919394",
"'@	c #686868",
")@	c #4C4C4C",
"!@	c #797979",
"~@	c #50504F",
"{@	c #878787",
"]@	c #A7A7A7",
"^@	c #636362",
"/@	c #919191",
"(@	c #8E8F90",
"_@	c #858585",
":@	c #D8D8D8",
"<@	c #C0C0C0",
"[@	c #BFBFBF",
"}@	c #7D7D7E",
"|@	c #87898A",
"1@	c #414140",
"2@	c #9E9E9E",
"3@	c #6C6C6C",
"4@	c #6B6B6B",
"5@	c #242526",
"6@	c #646465",
"7@	c #1E1D1C",
"8@	c #1F1F1F",
"9@	c #494949",
"0@	c #00003C",
"a@	c #00002E",
"b@	c #030303",
"c@	c #09090A",
"d@	c #131324",
"e@	c #18182B",
"f@	c #181829",
"g@	c #181827",
"h@	c #0F0E10",
"i@	c #00003F",
"j@	c #000009",
"k@	c #000001",
"l@	c #00001B",
"m@	c #000040",
"n@	c #000034",
"o@	c #00001C",
"p@	c #00003E",
"q@	c #000035",
"r@	c #000036",
"s@	c #000003",
"t@	c #00005A",
"u@	c #262E68",
"v@	c #272F4E",
"w@	c #272F34",
"x@	c #272F35",
"y@	c #272F33",
"z@	c #000051",
"A@	c #000031",
"B@	c #000016",
"C@	c #00001D",
"D@	c #070A0C",
"E@	c #000041",
"F@	c #29314F",
"G@	c #000005",
"                                                                                                                                ",
"                                                                                                                                ",
"                                                                                                                                ",
"                                                                                                                                ",
"                                                                                                                                ",
"                                                                                                                                ",
"                                                                                                                                ",
"                                                                                                                                ",
"                                                                                                                                ",
"                                                                                                                                ",
"                                                                                                                                ",
"                                                                                                                                ",
"                                                                                                                                ",
"                                                                                                                                ",
"                                                                                                                                ",
"                                                                                                                                ",
"                                                      . + @ @ @ @ @ @ # $ .                                                     ",
"                                                      % & * = - - ; > , ' )                                                     ",
"                                                    ! ~ { ] ^ / ( _ : < [ }                                                     ",
"                                                    | 1 2 3 4 5 5 6 7 8 9 0                                                     ",
"                                                    a b c d e f g h i j k l                                                     ",
"                                                      m n o p q r s t u v                                                       ",
"                                                      w x y z A B C D E w                                                       ",
"                                                      F G H I J K I H G F                                                       ",
"                                                        L M N O O N M P                                                         ",
"                                                        Q R S T T S R U V                                                       ",
"                                                      W X Y Z `  ...+.@.#.V $.%.                                                ",
"                                                      &.*.=.-.;.;.>.,.'.).!.~.{.                                                ",
"                                                    ].^./.(._.:.:.V V <.[.}.{.|.                                                ",
"                                                1.2.3.4.5.6.V 7.7.V V 8.9.0.a.b.  c.                                            ",
"                                              1.d.e.f.g.5.h.i.j.k.l.m.n.n.o.|.~.p.q.r.                                          ",
"                                            s.t.u.v.w.x.y.z.A.B.~.C.D.E.F.G.H.C./.I.J.                                          ",
"                                            K.L.u.M.N.x.O.P.Q.R.S.T.U.<.V.V.V.C.4.W.X.                                          ",
"                                            K.Y.u.Z.0.y.`. +.+++@+#+$+%+~.&+#.f h *+=+                                          ",
"                                            K.Y.u.-+;+>+,+'+)+!+~+{+]+c.^+/+(+5._+/.:+                                          ",
"                                            K.2.u.<+b.&+[+}+|+S 1+2+3+4+4.4.5+6+7+8+9+                                          ",
"                                            0+a+b+0+c+d+e+f+g+h+i+j+k+l+Q.Q.m+n+o+p+q+                                          ",
"                                            r+s+u.t+-+-+u+v+w+x+y+z+V V V V _.A+B+C+D+                                          ",
"                                              E+F+G+G.;+H+C.I+J+K+L+_._._._.M+N+O+P+Q+                                          ",
"                                                |.|.U.T.y.4.R+Q.S+T+W.W.W.W.^.^.U+                                              ",
"                                                  V+$+p.W+4.X+Y+*+C.x.Z+1.a.`+ @.@                                              ",
"                                                  +@  /+@@*+#@5.T.$@%@1.E.E.K.&+&@                                              ",
"                                                  *@$@  =@*+*+W.$+U.`+a.Y.Y.0.g.&@                                              ",
"                                                  -@;@;@#.*+*+^.>+y.~.H+O.H+=@]+>@                                              ",
"                                                  ,@^+'@!.)@)@/. @<.d+d+d+c+}.!@~@                                              ",
"                                                  5 V.e =@*+*+=@{@]@d+d+d+c+}.V.^@                                              ",
"                                                  5 V.e =@*+*+=@{@]@d+d+d+c+/@V.^@                                              ",
"                                                  5 V.e =@*+*+=@{@]@d+d+d+c+(.~.                                                ",
"                                                  (@V.e =@*+*+y._@]@:@:@:@f.;+3.                                                ",
"                                                    i.e =@*+*+*+C.1.<@<@[@<@K.}@                                                ",
"                                                  |@7.^+ @*+*+4.=.0+0.N.`+`+0.$@                                                ",
"                                                    1@5.5.5.I+^+2@3@H+H+H+H+4@Z+T.                                              ",
"                                                    5@_+_+_+z.!@e =@U.U.U.$@)@q.6@                                              ",
"                                                      7@m+m+8@h 5.*+c.c.=@c.(+^.                                                ",
"                                                      V V V V 8@h P.#.#.#.*+9@^.                                                ",
"                                                      0@a@V V b@c@d@e@f@g@d@h@                                                  ",
"                                                      i@j@V V V k@l@m@n@l@o@k@                                                  ",
"                                                      p@q@q@r@s@V t@m@n@o@V V                                                   ",
"                                                      u@v@w@x@y@  z@0@A@o@V V                                                   ",
"                                                                  B@C@o@o@V D@                                                  ",
"                                                                  p@E@n@V V                                                     ",
"                                                                F@m@m@q@n@E@j@                                                  ",
"                                                                F@i@i@p@n@r@G@                                                  ",
"                                                                F@n@n@n@n@n@G@                                                  "};
