/* XPM */
static char * enemy3_2_xpm[] = {
"64 64 369 2",
"  	c None",
". 	c #780000",
"+ 	c #3E0076",
"@ 	c #370D7B",
"# 	c #37007A",
"$ 	c #30007A",
"% 	c #21007A",
"& 	c #210077",
"* 	c #1F004A",
"= 	c #710000",
"- 	c #0000A8",
"; 	c #E40000",
"> 	c #FE1A13",
", 	c #FF5E5C",
"' 	c #FF0000",
") 	c #E20000",
"! 	c #E10000",
"~ 	c #AA0000",
"{ 	c #AB0000",
"] 	c #700000",
"^ 	c #383734",
"/ 	c #0a0a0aff",
"( 	c #4E5252",
"_ 	c #515454",
": 	c #A7A9A9",
"< 	c #FCFDFD",
"[ 	c #535555",
"} 	c #393B3B",
"| 	c #191F1F",
"1 	c #363736",
"2 	c #3D3F3D",
"3 	c #08079D",
"4 	c #393946",
"5 	c #414141",
"6 	c #484848",
"7 	c #575757",
"8 	c #535353",
"9 	c #373737",
"0 	c #1A1A1A",
"a 	c #181818",
"b 	c #3C3F40",
"c 	c #363631",
"d 	c #7A7A7A",
"e 	c #C2C2C2",
"f 	c #AAAAA9",
"g 	c #7E7E7E",
"h 	c #5D5D5D",
"i 	c #555554",
"j 	c #373838",
"k 	c #383838",
"l 	c #5B3E1B",
"m 	c #6F4821",
"n 	c #995B2E",
"o 	c #0000B4",
"p 	c #9D6140",
"q 	c #845236",
"r 	c #0000B5",
"s 	c #9B5F36",
"t 	c #704925",
"u 	c #885F44",
"v 	c #BF7A4C",
"w 	c #F59F6B",
"x 	c #F8B38E",
"y 	c #F09660",
"z 	c #CB8052",
"A 	c #F9B38E",
"B 	c #BB794E",
"C 	c #DC8854",
"D 	c #FDA571",
"E 	c #FCA572",
"F 	c #8D5731",
"G 	c #F1955D",
"H 	c #FCB991",
"I 	c #FCD5BD",
"J 	c #191C1C",
"K 	c #8D5732",
"L 	c #E98D59",
"M 	c #35393C",
"N 	c #010102",
"O 	c #59453B",
"P 	c #A8683F",
"Q 	c #B67349",
"R 	c #B97449",
"S 	c #B77349",
"T 	c #AF6F45",
"U 	c #A9693F",
"V 	c #4B3020",
"W 	c #0E0E0E",
"X 	c #A6A6A6",
"Y 	c #D2D2D2",
"Z 	c #1F1F1F",
"` 	c #DCDCDC",
" .	c #BE7A49",
"..	c #EA8D59",
"+.	c #C67D4C",
"@.	c #AA6941",
"#.	c #523B1A",
"$.	c #4C4A48",
"%.	c #7F7F7F",
"&.	c #898989",
"*.	c #80807F",
"=.	c #9A9A99",
"-.	c #D1D0D0",
";.	c #FDFDFD",
">.	c #F7F7F7",
",.	c #2B2B2B",
"'.	c #2C2C2C",
").	c #4D4D4D",
"!.	c #B7B7B7",
"~.	c #000C10",
"{.	c #9C9C9C",
"].	c #8D8D8D",
"^.	c #8B8B8B",
"/.	c #ACACAC",
"(.	c #979797",
"_.	c #999998",
":.	c #99A1A6",
"<.	c #F4F5F5",
"[.	c #DBDBDB",
"}.	c #EDEDED",
"|.	c #343434",
"1.	c #636363",
"2.	c #444444",
"3.	c #303030",
"4.	c #777777",
"5.	c #727272",
"6.	c #3D3D3D",
"7.	c #585858",
"8.	c #BABABA",
"9.	c #B2B2B2",
"0.	c #A8A8A8",
"a.	c #B9B9B9",
"b.	c #969696",
"c.	c #7D7E7F",
"d.	c #EBEBEB",
"e.	c #C0C0C0",
"f.	c #717171",
"g.	c #999999",
"h.	c #A2A2A2",
"i.	c #B5B5B5",
"j.	c #B4B4B4",
"k.	c #989898",
"l.	c #7C7C7C",
"m.	c #696969",
"n.	c #7D7D7C",
"o.	c #D0D0D0",
"p.	c #C1C1C1",
"q.	c #C5C5C5",
"r.	c #313131",
"s.	c #121212",
"t.	c #707070",
"u.	c #CECECE",
"v.	c #D1D1D1",
"w.	c #ABABAB",
"x.	c #6E6E6E",
"y.	c #7D7D7D",
"z.	c #FCFCFC",
"A.	c #A9A9A9",
"B.	c #8F8F8F",
"C.	c #202020",
"D.	c #212121",
"E.	c #393939",
"F.	c #737373",
"G.	c #AAAAAA",
"H.	c #808080",
"I.	c #474747",
"J.	c #646464",
"K.	c #656565",
"L.	c #545455",
"M.	c #B0B0B0",
"N.	c #EAEAEA",
"O.	c #AFAFAF",
"P.	c #858585",
"Q.	c #676767",
"R.	c #3B3B3B",
"S.	c #0A0A0A",
"T.	c #242424",
"U.	c #454545",
"V.	c #9A9A9A",
"W.	c #9B9B9B",
"X.	c #6D6D6D",
"Y.	c #3A3A3A",
"Z.	c #545454",
"`.	c #545353",
" +	c #959595",
".+	c #5F5F5F",
"++	c #787878",
"@+	c #363636",
"#+	c #626262",
"$+	c #606060",
"%+	c #FEFEFE",
"&+	c #F4F4F4",
"*+	c #BFBFBF",
"=+	c #505050",
"-+	c #555555",
";+	c #4A4A4A",
">+	c #FBFBFA",
",+	c #E7E7E7",
"'+	c #C3C3C3",
")+	c #AEA9A6",
"!+	c #79716D",
"~+	c #6D6460",
"{+	c #353536",
"]+	c #525252",
"^+	c #4F4F50",
"/+	c #583E36",
"(+	c #44342D",
"_+	c #312620",
":+	c #080808",
"<+	c #101010",
"[+	c #262626",
"}+	c #313334",
"|+	c #666666",
"1+	c #888888",
"2+	c #9E9E9E",
"3+	c #DEDEDE",
"4+	c #FDC3A2",
"5+	c #FEC6A6",
"6+	c #D2885E",
"7+	c #0B1A1E",
"8+	c #1E1E1E",
"9+	c #00191F",
"0+	c #FC7800",
"a+	c #C4723D",
"b+	c #925D34",
"c+	c #596870",
"d+	c #8B8C8C",
"e+	c #A2A3A4",
"f+	c #8B8C8D",
"g+	c #C8BCB7",
"h+	c #FDB78E",
"i+	c #FCC5A6",
"j+	c #FDA470",
"k+	c #F8A16E",
"l+	c #00161C",
"m+	c #0F1A1E",
"n+	c #B26F44",
"o+	c #965F36",
"p+	c #5A3F1E",
"q+	c #5A6970",
"r+	c #7B7D7D",
"s+	c #C77B4B",
"t+	c #E58954",
"u+	c #EC8D57",
"v+	c #525353",
"w+	c #C9BDB8",
"x+	c #FCB88F",
"y+	c #FDB283",
"z+	c #CB7F4F",
"A+	c #C77C4D",
"B+	c #2F3436",
"C+	c #464646",
"D+	c #524B48",
"E+	c #4E4947",
"F+	c #494846",
"G+	c #494A4B",
"H+	c #616566",
"I+	c #E58B58",
"J+	c #CE7F4E",
"K+	c #B87245",
"L+	c #9C9390",
"M+	c #ED9563",
"N+	c #C87C4C",
"O+	c #B16F47",
"P+	c #646666",
"Q+	c #686868",
"R+	c #6A6A6A",
"S+	c #5E5E5E",
"T+	c #4B4B4B",
"U+	c #C1774A",
"V+	c #BA7346",
"W+	c #A36439",
"X+	c #847878",
"Y+	c #E98B55",
"Z+	c #C97C4A",
"`+	c #A9673D",
" @	c #817A77",
".@	c #A0A0A0",
"+@	c #6F6F6F",
"@@	c #9C6037",
"#@	c #9C5F35",
"$@	c #9E5F33",
"%@	c #878889",
"&@	c #7B7B7B",
"*@	c #B3B3B3",
"=@	c #9D9D9D",
"-@	c #8A8A8A",
";@	c #ADADAD",
">@	c #AEAEAE",
",@	c #565656",
"'@	c #888A8B",
")@	c #ADAEAE",
"!@	c #515151",
"~@	c #949595",
"{@	c #BBBBBB",
"]@	c #B6B6B6",
"^@	c #949494",
"/@	c #C9C9C9",
"(@	c #BDBDBD",
"_@	c #C8C8C8",
":@	c #8C8C8C",
"<@	c #63676A",
"[@	c #A7A7A7",
"}@	c #848484",
"|@	c #8E8E8E",
"1@	c #5F6060",
"2@	c #818181",
"3@	c #878787",
"4@	c #929292",
"5@	c #636262",
"6@	c #616161",
"7@	c #494949",
"8@	c #646363",
"9@	c #323639",
"0@	c #4C4C4C",
"a@	c #535454",
"b@	c #232A41",
"c@	c #2C2C32",
"d@	c #2C2C2B",
"e@	c #191919",
"f@	c #232322",
"g@	c #404040",
"h@	c #1F2649",
"i@	c #000034",
"j@	c #00001B",
"k@	c #00001A",
"l@	c #00003A",
"m@	c #000040",
"n@	c #00001D",
"o@	c #00003E",
"p@	c #000033",
"q@	c #00002A",
"r@	c #00001F",
"s@	c #000036",
"t@	c #000018",
"u@	c #000013",
"v@	c #00000A",
"w@	c #00002E",
"x@	c #00003D",
"y@	c #00002F",
"z@	c #00001C",
"A@	c #000031",
"B@	c #00002C",
"C@	c #00002D",
"D@	c #000024",
"E@	c #252D4D",
"F@	c #000001",
"G@	c #21284B",
"H@	c #00003C",
"I@	c #000032",
"J@	c #000027",
"K@	c #000037",
"L@	c #000017",
"M@	c #29313D",
"N@	c #4B5968",
"O@	c #00000F",
"P@	c #48555C",
"Q@	c #445057",
"R@	c #000035",
"S@	c #000030",
"T@	c #000025",
"U@	c #000026",
"V@	c #000012",
"W@	c #29314F",
"X@	c #00003F",
"Y@	c #000004",
"Z@	c #293145",
"`@	c #505E69",
" #	c #505E66",
"                                                                                                                                ",
"                                                                                                                                ",
"                                                                                                                                ",
"                                                                                                                                ",
"                                                                                                                                ",
"                                                                                                                                ",
"                                                                                                                                ",
"                                                                                                                                ",
"                                                                                                                                ",
"                                                                                                                                ",
"                                                                                                                                ",
"                                                                                                                                ",
"                                                                                                                                ",
"                                                                                                                                ",
"                                                                                                                                ",
"                                                      . + @ # $ $ $ % & * =                                                     ",
"                                                    - ; > , ' ) ! ; ~ { { ]                                                     ",
"                                                    ^ / ( _ : < < : [ } | 1                                                     ",
"                                                    2 3 4 5 6 7 8 9 0 a 9 b                                                     ",
"                                                      c d e f g h i j k 9                                                       ",
"                                                      l m n o p q r s t l                                                       ",
"                                                      u v w x y z A w v u                                                       ",
"                                                        B C D E E D C B                                                         ",
"                                                      / F G H I I H G F /                                                       ",
"                                                      J K L D D D D L K / 6                                                     ",
"                                                    M N O P Q R S T U V 6 W                                                     ",
"                                                X Y Z / ` /  ...+.@.#.$.%./ &.*.=.                                              ",
"                                              -.;.>.,.'.).!.~./ / / / {./ ].^./.(._.                                            ",
"                                          :.<.>.[.}.|.,.1.2.3.4.5.5 6.7.8.9.0.a.(.b.c.                                          ",
"                                          >.d.` e.9.1.9 k f.g.e.h.e i.i.j.j.j.j.k.l.m.n.                                        ",
"                                          <.[.o.p.b.q.r.s.9 t.(.d p.j.u.v.Y w.0.x.l.m.y.                                        ",
"                                        z.` o.p.A.B.5.l.C.D.E.t.F.e g.0.A.G.H.y.I.J.7.K.L.                                      ",
"                                        M.N.O./.P.Q.t.y.R.S.T.U.m.f.H.k.V.W.X.m.Y.7 Z.7 `.                                      ",
"                                        p. +b..+1.).J.y.++@+/ / / k 8 4.#+#+l.$+Z.I.6 Z.`.                                      ",
"                                        %+&+*+(.y.=+9 K.J.J.9 '.W / C.E.-+K.;+6.K.1.J.f.`.                                      ",
"                                        >+,+'+)+!+~+{+6.]+Z.^+/+(+_+:+<+0 C.[+}+|+1+2+l.8                                       ",
"                                        e.3+}.4+5+6+7+Z 8+8+9+0+a+b+C.C.C.C.C.c+l.d+e+f+8                                       ",
"                                          g+h+i+j+k+l+Z Z Z m+n+o+p+Z Z Z Z ,.q+r+s+t+u+v+                                      ",
"                                          w+x+y+z+A+B+I.C+C+C+D+E+F+C+C+C+C+I.G+H+I+J+K+8                                       ",
"                                          L+x+M+N+O+P+Q+5.5.5.F.R+S+S+S+S+S+]+T+  U+V+W+                                        ",
"                                          X+Y+Z+`+ @l.l.g ].G.p..@+@t.t.t.J.-+T+  @@#@$@                                        ",
"                                                  %@+@t.f.l.&@*@=@1.t.t.t.J.-+T+                                                ",
"                                                    &.-@b.;@>@2+t.,@+@t.t.J.-+T+                                                ",
"                                                  '@(.i.j.*@e.i.%.8 ]+#+J.J.-+T+                                                ",
"                                                  )@j.*@u.o.o.p.b.!@t.t.t.t.J.7.                                                ",
"                                                ~@{@u.u.o.o.o.]@^@X.&@1+-@-@&@                                                  ",
"                                                j./@o.o.o.o.(@_@k.++l.-@:@:@y.<@                                                ",
"                                                e.*+[@0.X (.^.(.8.d l.-@:@:@y.$+                                                ",
"                                                V.}@|@].].:@:@F.-@l.l.^.k.k.g 1@                                                ",
"                                                d l.%.%.2@:@:@f.3@l.l.^.B.|@4@y.                                                ",
"                                                J.J.1.1.K.t.t.t.1+x.].:@l.l.l.&.5@                                              ",
"                                                6 6@J.J.J.J.K.7@Z.f.f.|+J.J.t.Q+8@                                              ",
"                                                  9@).0@0@0@).0 C.Q.7.7 ,@,@K.a@                                                ",
"                                                  b@c@d@'.'.'.e@f@-+i -+-+-+-+g@                                                ",
"                                                  h@i@j@k@/ / / l@m@i@n@/ / /                                                   ",
"                                                    o@p@q@j@/ / l@m@i@r@j@/ /                                                   ",
"                                                    s@t@u@v@/ / w@m@x@y@z@/ /                                                   ",
"                                                    A@B@B@C@/ / D@j@j@z@n@/ /                                                   ",
"                                                  E@m@i@B@B@/ /   / F@F@F@/                                                     ",
"                                                  G@m@o@H@I@J@/   K@l@y@t@L@M@                                                  ",
"                                                  N@I@p@p@B@O@P@Q@R@s@S@T@U@V@                                                  ",
"                                                                W@m@m@X@i@B@Y@                                                  ",
"                                                                Z@y@y@y@C@B@Y@                                                  ",
"                                                                  `@`@`@`@`@ #                                                  "};
