/* XPM */
static char * enemy3_3_xpm[] = {
"64 64 382 2",
"  	c None",
". 	c #6C4A4F",
"+ 	c #434B7A",
"@ 	c #3F4B7C",
"# 	c #3F4B7B",
"$ 	c #3E4A62",
"% 	c #9F0000",
"& 	c #960B66",
"* 	c #953373",
"= 	c #960068",
"- 	c #840068",
"; 	c #850068",
"> 	c #620068",
", 	c #620066",
"' 	c #62003D",
") 	c #676269",
"! 	c #0002A0",
"~ 	c #D80000",
"{ 	c #F12424",
"] 	c #F35C5C",
"^ 	c #F73232",
"/ 	c #E35252",
"( 	c #E25252",
"_ 	c #DD3333",
": 	c #A31515",
"< 	c #A20C0C",
"[ 	c #A20404",
"} 	c #6C0200",
"| 	c #38372F",
"1 	c #000091",
"2 	c #2F3844",
"3 	c #202C2C",
"4 	c #5C6161",
"5 	c #929494",
"6 	c #5D6161",
"7 	c #292E2E",
"8 	c #1A2121",
"9 	c #2E3333",
"0 	c #363736",
"a 	c #4D575B",
"b 	c #202089",
"c 	c #55555C",
"d 	c #818181",
"e 	c #707070",
"f 	c #535353",
"g 	c #3C3C3C",
"h 	c #363636",
"i 	c #222222",
"j 	c #242424",
"k 	c #383838",
"l 	c #4D575C",
"m 	c #3D3732",
"n 	c #787471",
"o 	c #BCB6B4",
"p 	c #9B9CAA",
"q 	c #837A77",
"r 	c #645B58",
"s 	c #4D4D6A",
"t 	c #524038",
"u 	c #453B36",
"v 	c #3E3833",
"w 	c #5D3F1D",
"x 	c #734B26",
"y 	c #9E6137",
"z 	c #0001B2",
"A 	c #A06442",
"B 	c #865437",
"C 	c #0D0BB3",
"D 	c #9F6239",
"E 	c #734C27",
"F 	c #653E1F",
"G 	c #BF7A4A",
"H 	c #EE9864",
"I 	c #FFB181",
"J 	c #F89E68",
"K 	c #E49261",
"L 	c #000001",
"M 	c #B17043",
"N 	c #E18B56",
"O 	c #FDA979",
"P 	c #FCB187",
"Q 	c #0a0a0aff",
"R 	c #181B1C",
"S 	c #8C5732",
"T 	c #F0945C",
"U 	c #FCB78E",
"V 	c #FCD1B8",
"W 	c #8C5631",
"X 	c #464545",
"Y 	c #9DA1A3",
"Z 	c #BBBEC0",
"` 	c #CFCFCF",
" .	c #D7D7D6",
"..	c #1B1B1B",
"+.	c #BAB4B2",
"@.	c #BF7345",
"#.	c #CD8255",
"$.	c #CC8153",
"%.	c #C98053",
"&.	c #BF7548",
"*.	c #53413A",
"=.	c #2D2D2D",
"-.	c #A3A3A3",
";.	c #A6A6A6",
">.	c #7E8386",
",.	c #949A9E",
"'.	c #D0D0D0",
").	c #DCDCDC",
"!.	c #D7D7D7",
"~.	c #252525",
"{.	c #BCB9B8",
"].	c #916750",
"^.	c #8C5737",
"/.	c #8B5534",
"(.	c #845230",
"_.	c #85512F",
":.	c #736E6C",
"<.	c #1D1D1D",
"[.	c #6C6C6C",
"}.	c #BBBBBB",
"|.	c #BFBFBF",
"1.	c #A0A0A0",
"2.	c #BEBFBF",
"3.	c #F5F5F5",
"4.	c #B1B1B1",
"5.	c #2F2F2F",
"6.	c #2B2B2B",
"7.	c #6B6B6B",
"8.	c #1A1A1A",
"9.	c #232323",
"0.	c #303030",
"a.	c #949494",
"b.	c #BEBEBE",
"c.	c #D4D4D4",
"d.	c #C8C8C8",
"e.	c #C1C1C1",
"f.	c #838383",
"g.	c #B2B2B2",
"h.	c #B3B3B3",
"i.	c #2E2E2E",
"j.	c #A7A7A7",
"k.	c #151515",
"l.	c #6F6F6F",
"m.	c #9A9A9A",
"n.	c #474747",
"o.	c #FEFEFE",
"p.	c #FDFDFD",
"q.	c #E4E4E4",
"r.	c #C0C0C0",
"s.	c #A9A9A9",
"t.	c #E2E2E2",
"u.	c #969696",
"v.	c #797979",
"w.	c #ADADAD",
"x.	c #353535",
"y.	c #919191",
"z.	c #B7B7B7",
"A.	c #8A8A8A",
"B.	c #B9B9B9",
"C.	c #D8D8D8",
"D.	c #AAAAAA",
"E.	c #C7C7C7",
"F.	c #D6D6D6",
"G.	c #9B9B9B",
"H.	c #F4F4F4",
"I.	c #DDDDDD",
"J.	c #B5B5B5",
"K.	c #868787",
"L.	c #6E6E6E",
"M.	c #686868",
"N.	c #A4A5A6",
"O.	c #525252",
"P.	c #181818",
"Q.	c #A8A8A8",
"R.	c #717171",
"S.	c #B6B6B6",
"T.	c #E1E1E1",
"U.	c #E0E0E0",
"V.	c #5D5D5D",
"W.	c #F7F7F7",
"X.	c #FCFCFC",
"Y.	c #868687",
"Z.	c #989898",
"`.	c #7C7C7C",
" +	c #B4B4B4",
".+	c #2C2C2C",
"++	c #1F1F1F",
"@+	c #6D6D6D",
"#+	c #999999",
"$+	c #5E5E5E",
"%+	c #F6F6F6",
"&+	c #FBFBFB",
"*+	c #D9D2D0",
"=+	c #D8A38B",
"-+	c #D0967B",
";+	c #646463",
">+	c #676666",
",+	c #828282",
"'+	c #4A4A4A",
")+	c #0F0F0F",
"!+	c #171717",
"~+	c #383433",
"{+	c #C6A191",
"]+	c #E5B8A2",
"^+	c #D8A78D",
"/+	c #C99077",
"(+	c #D0D1D1",
"_+	c #DEDEDE",
":+	c #ECECEC",
"<+	c #919192",
"[+	c #D8BFB5",
"}+	c #F0935B",
"|+	c #DD8853",
"1+	c #875F4B",
"2+	c #5A5A59",
"3+	c #767676",
"4+	c #888888",
"5+	c #636363",
"6+	c #333333",
"7+	c #24150D",
"8+	c #D98D5E",
"9+	c #FCB080",
"0+	c #F0A474",
"a+	c #E08651",
"b+	c #F0E4DF",
"c+	c #F4F3F3",
"d+	c #979797",
"e+	c #CC8051",
"f+	c #EF935B",
"g+	c #935E35",
"h+	c #D98652",
"i+	c #797476",
"j+	c #353433",
"k+	c #626262",
"l+	c #646464",
"m+	c #30231B",
"n+	c #FEB281",
"o+	c #CE8353",
"p+	c #C87C4C",
"q+	c #C87946",
"r+	c #D9D6D5",
"s+	c #DADADA",
"t+	c #8F8F90",
"u+	c #CC7E50",
"v+	c #E88C58",
"w+	c #EB8E59",
"x+	c #8F5B32",
"y+	c #1C1A1A",
"z+	c #373737",
"A+	c #545454",
"B+	c #555555",
"C+	c #303839",
"D+	c #3C3633",
"E+	c #FFB282",
"F+	c #C97B48",
"G+	c #B5B2B0",
"H+	c #787878",
"I+	c #808081",
"J+	c #AB7961",
"K+	c #926C5C",
"L+	c #826657",
"M+	c #3E3E3D",
"N+	c #2A2A2A",
"O+	c #1E1E1E",
"P+	c #00191E",
"Q+	c #E57527",
"R+	c #B66C3C",
"S+	c #A8683D",
"T+	c #D29369",
"U+	c #AC6F45",
"V+	c #A86C4A",
"W+	c #4C4B4B",
"X+	c #424242",
"Y+	c #272D2E",
"Z+	c #AA6B44",
"`+	c #8F5D39",
" @	c #594127",
".@	c #4A3C25",
"+@	c #4A3D29",
"@@	c #8D8D8D",
"#@	c #7D7D7D",
"$@	c #656565",
"%@	c #48494A",
"&@	c #474848",
"*@	c #484848",
"=@	c #545455",
"-@	c #4B4B4B",
";@	c #CECECE",
">@	c #DFDFDF",
",@	c #AEAEAE",
"'@	c #6A6A6A",
")@	c #505050",
"!@	c #838586",
"~@	c #EBEBEB",
"{@	c #9E9E9E",
"]@	c #777777",
"^@	c #959797",
"/@	c #DBDBDB",
"(@	c #E9E9E9",
"_@	c #EAEAEA",
":@	c #959595",
"<@	c #7B7B7B",
"[@	c #585858",
"}@	c #939596",
"|@	c #A5A5A5",
"1@	c #454545",
"2@	c #595959",
"3@	c #A2A3A4",
"4@	c #AFAFAF",
"5@	c #C9C9C9",
"6@	c #A2A2A2",
"7@	c #414141",
"8@	c #575757",
"9@	c #4D4D4D",
"0@	c #9FA1A2",
"a@	c #9D9D9D",
"b@	c #CDCDCD",
"c@	c #ABABAB",
"d@	c #5A5A5A",
"e@	c #696969",
"f@	c #D3D3D3",
"g@	c #666666",
"h@	c #727272",
"i@	c #545352",
"j@	c #98999A",
"k@	c #868686",
"l@	c #BCBCBC",
"m@	c #D5D5D5",
"n@	c #616161",
"o@	c #535352",
"p@	c #9E9FA0",
"q@	c #BDBDBD",
"r@	c #8B8B8B",
"s@	c #8F8F8F",
"t@	c #5C5C5C",
"u@	c #464646",
"v@	c #393939",
"w@	c #585D5F",
"x@	c #646769",
"y@	c #272727",
"z@	c #8E8E8E",
"A@	c #202020",
"B@	c #070605",
"C@	c #5D5D5C",
"D@	c #676767",
"E@	c #161616",
"F@	c #00001B",
"G@	c #00001A",
"H@	c #000002",
"I@	c #00000F",
"J@	c #00000B",
"K@	c #000008",
"L@	c #000031",
"M@	c #000030",
"N@	c #000032",
"O@	c #000040",
"P@	c #000034",
"Q@	c #00002D",
"R@	c #00000E",
"S@	c #00003F",
"T@	c #00002C",
"U@	c #000035",
"V@	c #00000A",
"W@	c #262E46",
"X@	c #040640",
"Y@	c #020210",
"Z@	c #283034",
"`@	c #00002F",
" #	c #00002E",
".#	c #161C46",
"+#	c #0A0E19",
"@#	c #080B0C",
"##	c #080B0D",
"$#	c #161C23",
"%#	c #0A0E18",
"&#	c #00003D",
"*#	c #050200",
"=#	c #000033",
"-#	c #01012D",
";#	c #1D1C1A",
">#	c #00003E",
",#	c #01012C",
"                                                                                                                                ",
"                                                                                                                                ",
"                                                                                                                                ",
"                                                                                                                                ",
"                                                                                                                                ",
"                                                                                                                                ",
"                                                                                                                                ",
"                                                                                                                                ",
"                                                                                                                                ",
"                                                                                                                                ",
"                                                                                                                                ",
"                                                                                                                                ",
"                                                                                                                                ",
"                                                                                                                                ",
"                                                                                                                                ",
"                                                                                                                                ",
"                                                      . + @ @ @ @ @ @ # $                                                       ",
"                                                      % & * = - - ; > , ' )                                                     ",
"                                                    ! ~ { ] ^ / ( _ : < [ }                                                     ",
"                                                    | 1 2 3 4 5 5 6 7 8 9 0                                                     ",
"                                                    a b c d e f g h i j k l                                                     ",
"                                                      m n o p q r s t u v                                                       ",
"                                                      w x y z A B C D E w                                                       ",
"                                                      F G H I J K I H G F                                                       ",
"                                                      L M N O P P O N M Q                                                       ",
"                                                      R S T U V V U T W L X                                                     ",
"                                            Y Z `  ...Q +.@.#.$.$.%.&.*.=.Q -.;.>.                                              ",
"                                          ,.'.` ).!.~.Q {.].^././.(._.:.<.[.}.|.1.                                              ",
"                                          2.3.4.).!.5.6.f 7.8.9.9.Q 0.a.g b.c.d.e.f.                                            ",
"                                          g.h.h.).!.i.~.j.k.Q l.l.Q m.n.e.o.p.q.r.s.                                            ",
"                                          t.u.f.v.w.j.x.x.y.z.A.B.C.D.E.F.G.c.H.I.J.K.                                          ",
"                                          c.h.L.M.N.J.O.P.x.Q.R.S.T.U.'.y.V.W.X.).J.Y.                                          ",
"                                          c.h.Z.`.   +m..+++x.@+h.Z.#+#+s.$+%+&+I.J.Y.                                          ",
"                                          *+=+-+;+  >+m.,+'+)+!+~+{+]+^+/+(+_+t.:+U.<+                                          ",
"                                          [+}+|+1+  2+3+4+5+6+k.7+8+9+0+a+b+c+H.c.H.d+                                          ",
"                                          e+f+g+h+i+j+k+5+5+l+5.m+n+9+o+p+q+r+s+}.C.t+                                          ",
"                                          u+v+w+x+  y+z+f A+B+C+D+E+9+o+p+F+G+ +H+d+I+                                          ",
"                                            J+K+L+  M+N+j O+P+Q+R+S+T+U+V+                                                      ",
"                                                    W+O.X+h Y+Z+`+ @.@+@'+'+'+                                                  ",
"                                                    5+D.@@#@$@%@&@*@=@A+A+A+A+-@                                                ",
"                                                    J.;@_+>@e.,@@@#@#@R.'@l+l+)@                                                ",
"                                                  !@r.).~@:+|.r.{@]@`.R.e l+l+O.                                                ",
"                                                  ^@|./@(@_@b.b.:@k+<@R.e l+l+[@                                                ",
"                                                  }@Q.;.|@|@Q.l.L.1@l+l.R.l+l+2@                                                ",
"                                                  3@4@I.).).5@6@A.V.7@8@2@2@O.9@                                                ",
"                                                  0@b.).).).I.J.a@l.A+k+l+l+l+[@                                                ",
"                                                    j.I.).).I.J.a@l.A+k+l+l+l+[@                                                ",
"                                                    d.).).).).b@c@`.d@L.e@l+l+[@                                                ",
"                                                    f@).).).).).r.4+g@R.h@l+l+[@                                                ",
"                                                    I./@).).).).s+[.e <@`.l+l+[@i@                                              ",
"                                                  j@>@k@l@|.r.h.m@7.e <@#@l+B+n@o@                                              ",
"                                                  p@k@4.q@r.b.g.r@s@t@f O.O.u@v@w@                                              ",
"                                                  x@  j. +|.h.Q.y.5+z+1@n.n.k y@                                                ",
"                                                    5+<@;.Q.s.#+z@f A@++++++A@B@                                                ",
"                                                      C@g@g@D@V.*@E@F@G@Q Q Q                                                   ",
"                                                      H@I@I@J@K@L Q L@M@Q Q Q                                                   ",
"                                                      N@O@O@P@Q@R@Q Q Q Q Q Q                                                   ",
"                                                      N@S@O@P@T@R@Q U@V@Q Q Q                                                   ",
"                                                      W@X@O@P@T@Y@Z@`@ # # # #                                                  ",
"                                                        .#O@P@T@+#  @#######@#                                                  ",
"                                                        $#O@P@T@%#                                                              ",
"                                                      N@S@O@&#P@Q@*#                                                            ",
"                                                      N@S@S@=#P@-#;#                                                            ",
"                                                      N@>#P@T@T@,#;#                                                            "};
