/* XPM */
static char * enemy4_4_xpm[] = {
"64 64 479 2",
"  	c None",
". 	c #505E8D",
"+ 	c #4D5B9F",
"@ 	c #4D5BA0",
"# 	c #505E87",
"$ 	c #4E5C8D",
"% 	c #1318A2",
"& 	c #0000B9",
"* 	c #0000DB",
"= 	c #4A577A",
"- 	c #515F8C",
"; 	c #4F5D8D",
"> 	c #11169C",
", 	c #0000A3",
"' 	c #0000A4",
") 	c #0000C7",
"! 	c #0000D7",
"~ 	c #00004F",
"{ 	c #4A585F",
"] 	c #516079",
"^ 	c #0F13B9",
"/ 	c #0000A6",
"( 	c #0000BA",
"_ 	c #000079",
": 	c #000020",
"< 	c #0a0a0aff",
"[ 	c #4B585F",
"} 	c #131871",
"| 	c #0000C0",
"1 	c #0000BC",
"2 	c #0000BB",
"3 	c #0000C5",
"4 	c #000074",
"5 	c #00001F",
"6 	c #000070",
"7 	c #0000C1",
"8 	c #000073",
"9 	c #00001E",
"0 	c #353F44",
"a 	c #694366",
"b 	c #938D5E",
"c 	c #26256F",
"d 	c #716C00",
"e 	c #716D65",
"f 	c #A46843",
"g 	c #F8EF09",
"h 	c #825F64",
"i 	c #1D0E8A",
"j 	c #6E426B",
"k 	c #895239",
"l 	c #5F381F",
"m 	c #1A0C66",
"n 	c #6C4135",
"o 	c #BEB409",
"p 	c #8C6A29",
"q 	c #8F5C3B",
"r 	c #F7DB33",
"s 	c #DB9763",
"t 	c #9671B1",
"u 	c #D48B69",
"v 	c #E68F59",
"w 	c #A1643A",
"x 	c #9068AC",
"y 	c #D28C72",
"z 	c #C09F35",
"A 	c #815E28",
"B 	c #A1715A",
"C 	c #F89A60",
"D 	c #FCB68D",
"E 	c #FCBE9B",
"F 	c #FCAE7F",
"G 	c #E08E5E",
"H 	c #B6754A",
"I 	c #F6B08C",
"J 	c #FCB389",
"K 	c #D68859",
"L 	c #8E654E",
"M 	c #F69A62",
"N 	c #F9AB7A",
"O 	c #FCAF83",
"P 	c #FCB38B",
"Q 	c #FCB38C",
"R 	c #FCAA7B",
"S 	c #F8A06C",
"T 	c #D58454",
"U 	c #797678",
"V 	c #FCB68E",
"W 	c #F19761",
"X 	c #FBC09F",
"Y 	c #FCCCB3",
"Z 	c #FCCDB4",
"` 	c #F9B48C",
" .	c #EA915F",
"..	c #C67A4B",
"+.	c #DD8A59",
"@.	c #FAB187",
"#.	c #F39A65",
"$.	c #FBA36F",
"%.	c #F29D6A",
"&.	c #F0945E",
"*.	c #E68C58",
"=.	c #885534",
"-.	c #5C6369",
";.	c #14171D",
">.	c #0A0A0A",
",.	c #2D2D2D",
"'.	c #E89666",
").	c #EF9B68",
"!.	c #EC9968",
"~.	c #C57B4C",
"{.	c #E79564",
"].	c #DB8654",
"^.	c #CE7F4E",
"/.	c #583E32",
"(.	c #0B0B0B",
"_.	c #52606C",
":.	c #0A0D9F",
"<.	c #0000A0",
"[.	c #1F1F2F",
"}.	c #202020",
"|.	c #656565",
"1.	c #A46D4E",
"2.	c #A3653E",
"3.	c #925B36",
"4.	c #996039",
"5.	c #84542F",
"6.	c #82532E",
"7.	c #886755",
"8.	c #4B4441",
"9.	c #121225",
"0.	c #000048",
"a.	c #526070",
"b.	c #07099F",
"c.	c #00009F",
"d.	c #1F1F34",
"e.	c #1F1F1F",
"f.	c #AAAAAA",
"g.	c #636363",
"h.	c #151515",
"i.	c #00002F",
"j.	c #6F4531",
"k.	c #23121C",
"l.	c #919191",
"m.	c #1F1F55",
"n.	c #000054",
"o.	c #516075",
"p.	c #05079E",
"q.	c #0000C9",
"r.	c #1D1D1D",
"s.	c #1C1C1C",
"t.	c #02023A",
"u.	c #00003B",
"v.	c #000071",
"w.	c #00004D",
"x.	c #00004B",
"y.	c #00006D",
"z.	c #00006A",
"A.	c #000075",
"B.	c #05079C",
"C.	c #0000C8",
"D.	c #0000F5",
"E.	c #0000D5",
"F.	c #0000B1",
"G.	c #0000B7",
"H.	c #1C1C37",
"I.	c #020203",
"J.	c #00007B",
"K.	c #000084",
"L.	c #000088",
"M.	c #000068",
"N.	c #000081",
"O.	c #000080",
"P.	c #00006E",
"Q.	c #00005B",
"R.	c #516071",
"S.	c #0406BD",
"T.	c #0000FB",
"U.	c #0000CF",
"V.	c #0000AE",
"W.	c #000090",
"X.	c #000045",
"Y.	c #000008",
"Z.	c #000067",
"`.	c #000082",
" +	c #000083",
".+	c #000065",
"++	c #000046",
"@+	c #00004E",
"#+	c #00007D",
"$+	c #000077",
"%+	c #0305AF",
"&+	c #0000F2",
"*+	c #0000F7",
"=+	c #0000D0",
"-+	c #000091",
";+	c #000040",
">+	c #00000D",
",+	c #000018",
"'+	c #000030",
")+	c #00005C",
"!+	c #000061",
"~+	c #00005F",
"{+	c #000060",
"]+	c #000058",
"^+	c #000055",
"/+	c #000049",
"(+	c #000085",
"_+	c #526076",
":+	c #0304BC",
"<+	c #0000DA",
"[+	c #0000BD",
"}+	c #0000AA",
"|+	c #161641",
"1+	c #171727",
"2+	c #171718",
"3+	c #020206",
"4+	c #000019",
"5+	c #000036",
"6+	c #000041",
"7+	c #000072",
"8+	c #000076",
"9+	c #000066",
"0+	c #000087",
"a+	c #0000A5",
"b+	c #000059",
"c+	c #0203BB",
"d+	c #0000F4",
"e+	c #0000FC",
"f+	c #151541",
"g+	c #4B4B4C",
"h+	c #4E4E4E",
"i+	c #20202B",
"j+	c #1B1B1C",
"k+	c #03031A",
"l+	c #000032",
"m+	c #000034",
"n+	c #00003E",
"o+	c #00003F",
"p+	c #00009C",
"q+	c #0000B8",
"r+	c #0000A9",
"s+	c #0000A1",
"t+	c #00006C",
"u+	c #0203F5",
"v+	c #0000B5",
"w+	c #0000D3",
"x+	c #2525F1",
"y+	c #0101F3",
"z+	c #1F1F76",
"A+	c #47474A",
"B+	c #606060",
"C+	c #6D6D6D",
"D+	c #6F6F6F",
"E+	c #595959",
"F+	c #585858",
"G+	c #222222",
"H+	c #1A1A26",
"I+	c #151524",
"J+	c #020231",
"K+	c #000033",
"L+	c #00003D",
"M+	c #00009A",
"N+	c #00008D",
"O+	c #00004C",
"P+	c #0203AF",
"Q+	c #2222CD",
"R+	c #6F6F72",
"S+	c #6B6B75",
"T+	c #492C83",
"U+	c #616063",
"V+	c #484848",
"W+	c #464646",
"X+	c #515151",
"Y+	c #616161",
"Z+	c #575757",
"`+	c #21212C",
" @	c #14142F",
".@	c #03032B",
"+@	c #00002B",
"@@	c #0000A8",
"#@	c #1D24AC",
"$@	c #0000B0",
"%@	c #6F6F71",
"&@	c #6B6B7E",
"*@	c #452993",
"=@	c #CE7F53",
"-@	c #5C4D47",
";@	c #4B3E39",
">@	c #433B37",
",@	c #363539",
"'@	c #525252",
")@	c #626262",
"!@	c #5A5A5A",
"~@	c #22222C",
"{@	c #131323",
"]@	c #03035F",
"^@	c #0000A2",
"/@	c #00009D",
"(@	c #00009E",
"_@	c #181E59",
":@	c #1B21AC",
"<@	c #6B6B76",
"[@	c #0003D0",
"}@	c #CE7F55",
"|@	c #D08050",
"1@	c #A2653D",
"2@	c #9C623A",
"3@	c #7F502C",
"4@	c #180B3F",
"5@	c #3C3C3D",
"6@	c #494949",
"7@	c #474747",
"8@	c #454545",
"9@	c #4F4F4F",
"0@	c #2323C2",
"a@	c #1212CC",
"b@	c #1E1ECD",
"c@	c #0808CE",
"d@	c #1C22A1",
"e@	c #674524",
"f@	c #5C4020",
"g@	c #0F073F",
"h@	c #626263",
"i@	c #565656",
"j@	c #3A3A3A",
"k@	c #090909",
"l@	c #444444",
"m@	c #686868",
"n@	c #2C2C79",
"o@	c #0000C3",
"p@	c #000089",
"q@	c #141F7C",
"r@	c #CA7C4F",
"s@	c #CC7D4E",
"t@	c #A0643C",
"u@	c #9E633B",
"v@	c #604221",
"w@	c #606062",
"x@	c #646464",
"y@	c #3C3C3C",
"z@	c #090910",
"A@	c #4D3E38",
"B@	c #483D38",
"C@	c #4D4745",
"D@	c #525151",
"E@	c #6C6C6C",
"F@	c #363636",
"G@	c #080866",
"H@	c #7E5438",
"I@	c #7E5336",
"J@	c #7C4E38",
"K@	c #7C4D38",
"L@	c #5B3F2B",
"M@	c #0E073F",
"N@	c #4F4F52",
"O@	c #606061",
"P@	c #3A3A3C",
"Q@	c #090935",
"R@	c #000035",
"S@	c #C87B4E",
"T@	c #A96940",
"U@	c #86542F",
"V@	c #4F3F37",
"W@	c #4C4745",
"X@	c #474648",
"Y@	c #5E5E5F",
"Z@	c #303034",
"`@	c #070747",
" #	c #13184F",
".#	c #1A2187",
"+#	c #00018B",
"@#	c #000047",
"##	c #000044",
"$#	c #000043",
"%#	c #C87B4F",
"&#	c #A6673E",
"*#	c #85532E",
"=#	c #2F1B48",
"-#	c #12164F",
";#	c #0E12AF",
">#	c #00008B",
",#	c #C57951",
"'#	c #CD7E4F",
")#	c #A4663E",
"!#	c #9F633B",
"~#	c #83522E",
"{#	c #2F1A3E",
"]#	c #00004A",
"^#	c #10154F",
"/#	c #000099",
"(#	c #00007A",
"_#	c #784B3A",
":#	c #7D4E33",
"<#	c #7D4E37",
"[#	c #5F4130",
"}#	c #1F1344",
"|#	c #00003A",
"1#	c #0E12AD",
"2#	c #000098",
"3#	c #000063",
"4#	c #000097",
"5#	c #00009B",
"6#	c #00008F",
"7#	c #0E127D",
"8#	c #000037",
"9#	c #000078",
"0#	c #0000D2",
"a#	c #0000DF",
"b#	c #0000E1",
"c#	c #0000D6",
"d#	c #00007C",
"e#	c #0E1297",
"f#	c #000050",
"g#	c #0000E0",
"h#	c #0000EB",
"i#	c #0000E2",
"j#	c #000051",
"k#	c #0000F9",
"l#	c #0000D4",
"m#	c #121797",
"n#	c #1014BA",
"o#	c #0000D1",
"p#	c #0000FA",
"q#	c #0000EF",
"r#	c #0000EC",
"s#	c #0000B3",
"t#	c #000062",
"u#	c #0000AB",
"v#	c #000038",
"w#	c #0000DE",
"x#	c #0000BE",
"y#	c #0F14BA",
"z#	c #000039",
"A#	c #000095",
"B#	c #0000A7",
"C#	c #0A0D97",
"D#	c #00007F",
"E#	c #00008C",
"F#	c #5A6997",
"G#	c #0C1097",
"H#	c #00005A",
"I#	c #000057",
"J#	c #000042",
"K#	c #000013",
"L#	c #00005E",
"M#	c #000086",
"N#	c #101442",
"O#	c #00000B",
"P#	c #000064",
"Q#	c #0D1143",
"R#	c #00001B",
"S#	c #111633",
"T#	c #000005",
"U#	c #00000F",
"V#	c #000002",
"W#	c #000031",
"X#	c #000021",
"Y#	c #000006",
"Z#	c #000015",
"`#	c #00002D",
" $	c #000003",
".$	c #111618",
"+$	c #00002A",
"@$	c #00002C",
"#$	c #00001C",
"$$	c #000001",
"%$	c #0C1012",
"&$	c #00001D",
"*$	c #00002E",
"=$	c #131845",
"-$	c #000009",
";$	c #131818",
">$	c #0B0F0E",
",$	c #000007",
"'$	c #111645",
")$	c #0B0E43",
"!$	c #1C1B1C",
"~$	c #1D1C19",
"{$	c #1D1C1A",
"                                                                                                                                ",
"                                                                                                                                ",
"                                                                                                                                ",
"                                                                                                                                ",
"                                                                                                                                ",
"                                                                                                                                ",
"                                                                . + @                                                           ",
"                                                            # $ % & * =                                                         ",
"                                                        - ; > , ' ) ! ~ {                                                       ",
"                                                      ] ^ / ' ' ( ! _ : < [                                                     ",
"                                                      } | 1 2 2 3 4 5 < < <                                                     ",
"                                                      } 6 7 3 3 8 9 < < < 0                                                     ",
"                                                      a b c 6 6 : < < < d e                                                     ",
"                                                      f g h i j k l m n o p                                                     ",
"                                                      q r s t u v w x y z A                                                     ",
"                                                      B C D E F G H I J K L                                                     ",
"                                                        M D N O P Q R S T U                                                     ",
"                                                        M V W X Y Z `  ...                                                      ",
"                                                        +.@.#.$.%.$.&.*.=.-.                                                    ",
"                                                  ;.>.>.,.'.).!.~.{.].^./.(._.                                                  ",
"                                              :.<.[.}.}.|.1.2.3.4.5.6.7.8.9.0.a.                                                ",
"                                          b.c.2 1 d.}.e.f.g.h.i.j.k.i.l.|.m.n.n.n.o.                                            ",
"                                        p.q.7 ( 1 d.r.s.t.u.u.v.w.x.y.u.i.z.4 A.v.6 o.                                          ",
"                                      B.C.D.E.F.G.H.I.< J.K.K.L.M.8 4 4 4 4 N.O.P.8 Q.R.                                        ",
"                                      S.T.E.U.V.W.X.Y.< i.Z.P.`.Z.N. + +N.N..+++@+#+$+Q.                                        ",
"                                    %+&+*+=+F.-+X.;+>+< ,+'+)+!+~+!+{+Z.]+^+/+@+(+#+ +A._+                                      ",
"                                    :+1 <+[+}+++;+|+1+2+3+4+'+0.5+0.6+7+8+8+9+0+, a+`.7+b+                                      ",
"                                  c+d+*+e+e+W.x.f+g+h+h+i+j+k+'+l+m+n+o+o+;+!+p+q+r+s+_ t+                                      ",
"                                  u+v+w+x+x+y+z+A+B+C+D+E+F+G+H+I+J+K+K+K+L+M+' q+r+N+)+O+                                      ",
"                                  P+=+Q+R+S+T+U+V+W+X+Y+C+D+F+Z+h+`+ @.@+@'+M+@@v+@@K.Q.w.                                      ",
"                                  #@$@%@&@*@=@-@;@>@,@W+'@Y+)@C+D+!@h+~@{@]@^@3 /@(@_ y._@                                      ",
"                                    :@<@[@}@|@1@2@3@4@5@6@7@8@9@Y+C+D+!@h+0@a@b@c@W.Q.w.                                        ",
"                                      d@^@=@|@1@e@f@g@h@i@j@k@< l@X+Y+C+D+!@h+m@n@o@p@^+                                        ",
"                                        q@r@s@t@u@v@g@w@x@y@z@Y.A@B@C@D@Y+E@D+F@G@P.P.n.                                        ",
"                                          H@I@J@K@L@M@N@O@P@Q@R@S@T@U@V@W@X@Y@Z@`@O+O+ #                                        ",
"                                              .#+#8 /+@#####$#$#%#|@&#t@*#=#O+O+O+O+-#                                          ",
"                                                ;#>#L.0+7+v.9+.+,#'#)#!#~#{#]#x.x.^#                                            ",
"                                                ;#/##+J.J.J.(#(#_#:#<#<#[#}#++|#R@                                              ",
"                                                1#2#7+.+3#]+w.5+w.(#4#5#p+p+6#6 $#                                              ",
"                                                7#7+9+9+~ @+@+8#9#4#( 0#a#b#c#7 d#                                              ",
"                                                e#2#p@L.7+6 6 f#K.q+0#a#g#h#i#c#|                                               ",
"                                                e#2#p@L.#+d#d#j#K.q+0#a#g#k#<+l#|                                               ",
"                                                e#/#p@L.#+d#d#j#K.q+0#a#g#k#<+l#|                                               ",
"                                                m#2 M+p@#+d#d#j#K.q+0#a#g#k#* l#|                                               ",
"                                                  n#M+p@#+d#d#)+K.q+o#a#h#p#q#r#s#                                              ",
"                                                  n#M+p@#+d#d#)+t#u#$@D.e+e+e+e+q.                                              ",
"                                                  n#M+p@#+d#d#)+v#| w#E.x#2 2 =+w#F.                                            ",
"                                                  y#C.[+N.d#d#)+z#| 6#A#q+1 1 B#! F.                                            ",
"                                                C#2 D#J.d#d#Q.]+u#E#L.L.s+' ' E#8 0#F#                                          ",
"                                                G#2#)+J.H#I#J#;+^+K#L#_ M##+d#d#M.                                              ",
"                                                  N#I#]+]+]+J#;+O#< 0.!+P#P#P#f#O+                                              ",
"                                                  Q#;+;+;+;+;+O#< < < @#O+O+O+O+R#                                              ",
"                                                    S#o+R@T#< < < L+U#< < < < < 4+                                              ",
"                                                    S#o+R@9 V#< < W#o+6+5+X#Y#< Z#                                              ",
"                                                    S#o+;+R@`#9  $< W#m+`#5 Y#<                                                 ",
"                                                    .$+$@$#$$$< < n+X#$$< < < <                                                 ",
"                                                    %$n+9 +@&$ $< ,+n+5+*$5 T#<                                                 ",
"                                                      =$6+R@m+-$< L+R@m+`#@$5 Y#<                                               ",
"                                                      ;$,+R#+@T#< L+R@m+`#@$5 Y#<                                               ",
"                                                    >$o+6+R@m+`#,$L+5+R@*$5 T#< <                                               ",
"                                                    '$;+;+R@m+`#,$< < < < < < <                                                 ",
"                                                    )$!$~${${$< < <                                                             ",
"                                                                                                                                ",
"                                                                                                                                "};
