/* XPM */
static char * enemy4_2_xpm[] = {
"64 64 474 2",
"  	c None",
". 	c #505E8D",
"+ 	c #4D5B9F",
"@ 	c #4D5BA0",
"# 	c #505E87",
"$ 	c #4E5C8D",
"% 	c #1318A2",
"& 	c #0000B9",
"* 	c #0000DB",
"= 	c #4A577A",
"- 	c #515F8C",
"; 	c #4F5D8D",
"> 	c #11169C",
", 	c #0000A3",
"' 	c #0000A4",
") 	c #0000C7",
"! 	c #0000D7",
"~ 	c #00004F",
"{ 	c #4A585F",
"] 	c #516087",
"^ 	c #0F13BA",
"/ 	c #0000A6",
"( 	c #0000BA",
"_ 	c #000079",
": 	c #000020",
"< 	c #0a0a0aff",
"[ 	c #4B585F",
"} 	c #131897",
"| 	c #0000C1",
"1 	c #0000BC",
"2 	c #0000BB",
"3 	c #0000C5",
"4 	c #000074",
"5 	c #00001F",
"6 	c #000073",
"7 	c #00001E",
"8 	c #353F44",
"9 	c #694385",
"0 	c #938D61",
"a 	c #26256F",
"b 	c #000070",
"c 	c #716C00",
"d 	c #716D65",
"e 	c #A46843",
"f 	c #F8EF09",
"g 	c #825F64",
"h 	c #1D0E8A",
"i 	c #6E426B",
"j 	c #895239",
"k 	c #5F381F",
"l 	c #1A0C66",
"m 	c #6C4135",
"n 	c #BEB409",
"o 	c #8C6A29",
"p 	c #8F5C3B",
"q 	c #F7DB33",
"r 	c #DB9763",
"s 	c #9671B1",
"t 	c #D48B69",
"u 	c #E68F59",
"v 	c #A1643A",
"w 	c #9068AC",
"x 	c #D28C72",
"y 	c #C09F35",
"z 	c #815E28",
"A 	c #A1715A",
"B 	c #F89A60",
"C 	c #FCB68D",
"D 	c #FCBE9B",
"E 	c #FCAE7F",
"F 	c #E08E5E",
"G 	c #B6754A",
"H 	c #F6B08C",
"I 	c #FCB389",
"J 	c #D68859",
"K 	c #8E654E",
"L 	c #F69A62",
"M 	c #F9AB7A",
"N 	c #FCAF83",
"O 	c #FCB38B",
"P 	c #FCB38C",
"Q 	c #FCAA7B",
"R 	c #F8A06C",
"S 	c #D58454",
"T 	c #797678",
"U 	c #F69961",
"V 	c #FCB68E",
"W 	c #F19761",
"X 	c #FBC09F",
"Y 	c #FCCCB3",
"Z 	c #FCCDB4",
"` 	c #F9B48C",
" .	c #EA915F",
"..	c #C67A4B",
"+.	c #6D686A",
"@.	c #0D1316",
"#.	c #DC8855",
"$.	c #FAB187",
"%.	c #F39A65",
"&.	c #FBA36F",
"*.	c #F29D6A",
"=.	c #F0945E",
"-.	c #E68C58",
";.	c #885534",
">.	c #2A180B",
",.	c #515F67",
"'.	c #14171D",
").	c #101010",
"!.	c #2D2D2E",
"~.	c #E89666",
"{.	c #EF9B68",
"].	c #EC9968",
"^.	c #C57B4C",
"/.	c #E79564",
"(.	c #DB8654",
"_.	c #CE7F4E",
":.	c #583E32",
"<.	c #0B0B0B",
"[.	c #51606D",
"}.	c #0A0D9F",
"|.	c #0000A0",
"1.	c #222230",
"2.	c #2C2C2C",
"3.	c #2A2A2A",
"4.	c #656565",
"5.	c #A46D4E",
"6.	c #A3653E",
"7.	c #925B36",
"8.	c #996039",
"9.	c #84542F",
"0.	c #82532E",
"a.	c #886755",
"b.	c #4B4441",
"c.	c #121225",
"d.	c #000050",
"e.	c #000055",
"f.	c #516071",
"g.	c #07099F",
"h.	c #00009F",
"i.	c #29293A",
"j.	c #202020",
"k.	c #AAAAAA",
"l.	c #636363",
"m.	c #151515",
"n.	c #00002F",
"o.	c #6F4531",
"p.	c #23121C",
"q.	c #919191",
"r.	c #1F1F55",
"s.	c #00006D",
"t.	c #00005A",
"u.	c #000054",
"v.	c #515F70",
"w.	c #05079E",
"x.	c #0000C9",
"y.	c #1F1F34",
"z.	c #1D1D1D",
"A.	c #1C1C1C",
"B.	c #02023A",
"C.	c #00003B",
"D.	c #000071",
"E.	c #000047",
"F.	c #000051",
"G.	c #000072",
"H.	c #000045",
"I.	c #00006F",
"J.	c #000075",
"K.	c #515F6F",
"L.	c #05079C",
"M.	c #0000C8",
"N.	c #0000F5",
"O.	c #0000D5",
"P.	c #0000B1",
"Q.	c #0000B7",
"R.	c #1C1C32",
"S.	c #020202",
"T.	c #00007D",
"U.	c #000084",
"V.	c #000088",
"W.	c #00004A",
"X.	c #000083",
"Y.	c #00008A",
"Z.	c #00008B",
"`.	c #000085",
" +	c #00007A",
".+	c #00005B",
"++	c #00004E",
"@+	c #0406BD",
"#+	c #0000FB",
"$+	c #0000CF",
"%+	c #0000AE",
"&+	c #000090",
"*+	c #000003",
"=+	c #00006C",
"-+	c #00006E",
";+	c #000082",
">+	c #000048",
",+	c #00007F",
"'+	c #000091",
")+	c #000093",
"!+	c #00007C",
"~+	c #000077",
"{+	c #0305AF",
"]+	c #0000F2",
"^+	c #0000F7",
"/+	c #0000D0",
"(+	c #000040",
"_+	c #000008",
":+	c #000018",
"<+	c #000061",
"[+	c #00003A",
"}+	c #00005E",
"|+	c #000060",
"1+	c #000067",
"2+	c #00008E",
"3+	c #526076",
"4+	c #0304BC",
"5+	c #0000DA",
"6+	c #0000BD",
"7+	c #0000AA",
"8+	c #000046",
"9+	c #161641",
"0+	c #17171B",
"a+	c #171717",
"b+	c #00004C",
"c+	c #000036",
"d+	c #000041",
"e+	c #000076",
"f+	c #000066",
"g+	c #000087",
"h+	c #0000A5",
"i+	c #000059",
"j+	c #0203BB",
"k+	c #0000F4",
"l+	c #0000FC",
"m+	c #00004B",
"n+	c #151541",
"o+	c #4B4B4C",
"p+	c #4E4E4E",
"q+	c #1B1B1B",
"r+	c #03031C",
"s+	c #000032",
"t+	c #00003D",
"u+	c #00003F",
"v+	c #00009C",
"w+	c #0000B8",
"x+	c #0000A9",
"y+	c #0000A1",
"z+	c #2027F2",
"A+	c #0001B5",
"B+	c #0000D3",
"C+	c #2525F1",
"D+	c #0101F3",
"E+	c #1F1F76",
"F+	c #47474A",
"G+	c #606060",
"H+	c #6D6D6D",
"I+	c #6F6F6F",
"J+	c #595959",
"K+	c #585858",
"L+	c #22222D",
"M+	c #1A1A32",
"N+	c #151530",
"O+	c #02022B",
"P+	c #00002A",
"Q+	c #000033",
"R+	c #00009A",
"S+	c #00008D",
"T+	c #00005C",
"U+	c #0304D0",
"V+	c #2222CD",
"W+	c #492C83",
"X+	c #616063",
"Y+	c #484848",
"Z+	c #464646",
"`+	c #515151",
" @	c #616161",
".@	c #575757",
"+@	c #21212C",
"@@	c #141424",
"#@	c #03032A",
"$@	c #00002B",
"%@	c #000030",
"&@	c #0000A8",
"*@	c #0000B5",
"=@	c #00004D",
"-@	c #1C23AC",
";@	c #452993",
">@	c #CE7F53",
",@	c #5C4D47",
"'@	c #4B3E39",
")@	c #433B37",
"!@	c #363539",
"~@	c #525252",
"{@	c #626262",
"]@	c #5A5A5A",
"^@	c #22222C",
"/@	c #131323",
"(@	c #03035F",
"_@	c #0000A2",
":@	c #00009D",
"<@	c #00009E",
"[@	c #181E59",
"}@	c #0003D0",
"|@	c #CE7F55",
"1@	c #D08050",
"2@	c #A2653D",
"3@	c #9C623A",
"4@	c #7F502C",
"5@	c #180B3F",
"6@	c #3C3C3D",
"7@	c #494949",
"8@	c #474747",
"9@	c #454545",
"0@	c #4F4F4F",
"a@	c #2323C2",
"b@	c #1212CC",
"c@	c #1E1ECD",
"d@	c #0808CE",
"e@	c #1C22A1",
"f@	c #674524",
"g@	c #5C4020",
"h@	c #0F073F",
"i@	c #626263",
"j@	c #565656",
"k@	c #3A3A3A",
"l@	c #090909",
"m@	c #444444",
"n@	c #686868",
"o@	c #2C2C79",
"p@	c #0000C3",
"q@	c #000089",
"r@	c #141F7C",
"s@	c #CA7C4F",
"t@	c #CC7D4E",
"u@	c #A0643C",
"v@	c #9E633B",
"w@	c #604221",
"x@	c #606062",
"y@	c #646464",
"z@	c #3C3C3C",
"A@	c #090910",
"B@	c #4D3E38",
"C@	c #483D38",
"D@	c #4D4745",
"E@	c #525151",
"F@	c #6C6C6C",
"G@	c #363636",
"H@	c #080866",
"I@	c #7E5438",
"J@	c #7E5336",
"K@	c #7C4E38",
"L@	c #7C4D38",
"M@	c #5B3F2B",
"N@	c #0E073F",
"O@	c #4F4F52",
"P@	c #606061",
"Q@	c #3A3A3C",
"R@	c #090935",
"S@	c #000035",
"T@	c #C87B4E",
"U@	c #A96940",
"V@	c #86542F",
"W@	c #4F3F37",
"X@	c #4C4745",
"Y@	c #474648",
"Z@	c #5E5E5F",
"`@	c #303034",
" #	c #070747",
".#	c #13184F",
"+#	c #1A2187",
"@#	c #00018B",
"##	c #000049",
"$#	c #000044",
"%#	c #000043",
"&#	c #C87B4F",
"*#	c #A6673E",
"=#	c #85532E",
"-#	c #2F1B48",
";#	c #12164F",
">#	c #0D11AF",
",#	c #000065",
"'#	c #C57951",
")#	c #CD7E4F",
"!#	c #A4663E",
"~#	c #9F633B",
"{#	c #83522E",
"]#	c #2F1A3E",
"^#	c #10154F",
"/#	c #0B0FAF",
"(#	c #000080",
"_#	c #00007E",
":#	c #784B3B",
"<#	c #7D4E2F",
"[#	c #7D4E2D",
"}#	c #7D4E30",
"|#	c #5F4128",
"1#	c #1F133E",
"2#	c #000031",
"3#	c #00002C",
"4#	c #0C10AF",
"5#	c #0000D2",
"6#	c #000098",
"7#	c #000058",
"8#	c #000042",
"9#	c #00005F",
"0#	c #000063",
"a#	c #000057",
"b#	c #000024",
"c#	c #0000D4",
"d#	c #0000DF",
"e#	c #0000EB",
"f#	c #0000EC",
"g#	c #0000D6",
"h#	c #000062",
"i#	c #000026",
"j#	c #00001C",
"k#	c #141AAD",
"l#	c #0001C7",
"m#	c #0000E0",
"n#	c #00003E",
"o#	c #000025",
"p#	c #0E12C6",
"q#	c #0004FB",
"r#	c #0004FC",
"s#	c #0000ED",
"t#	c #000064",
"u#	c #0000FA",
"v#	c #0000CB",
"w#	c #00006A",
"x#	c #000056",
"y#	c #090D7D",
"z#	c #0000C6",
"A#	c #0004FA",
"B#	c #0000CD",
"C#	c #00006B",
"D#	c #0C10C7",
"E#	c #0000EA",
"F#	c #0000CC",
"G#	c #0C10C6",
"H#	c #0000B0",
"I#	c #0000E9",
"J#	c #0C10EA",
"K#	c #000097",
"L#	c #00005D",
"M#	c #000078",
"N#	c #0E123F",
"O#	c #0E1238",
"P#	c #00001D",
"Q#	c #00001A",
"R#	c #0E1213",
"S#	c #000007",
"T#	c #0E1225",
"U#	c #00001B",
"V#	c #0E1244",
"W#	c #000002",
"X#	c #000005",
"Y#	c #090D42",
"Z#	c #101444",
"`#	c #000006",
" $	c #00002E",
".$	c #101413",
"+$	c #1D2331",
"@$	c #1C2325",
"#$	c #070A0B",
"$$	c #00002D",
"%$	c #1C234A",
"&$	c #0E1214",
"*$	c #1D2325",
"=$	c #000019",
"-$	c #06090A",
";$	c #090C0B",
">$	c #1B2149",
",$	c #171D1E",
"                                                                                                                                ",
"                                                                                                                                ",
"                                                                                                                                ",
"                                                                                                                                ",
"                                                                                                                                ",
"                                                                                                                                ",
"                                                                . + @                                                           ",
"                                                            # $ % & * =                                                         ",
"                                                        - ; > , ' ) ! ~ {                                                       ",
"                                                      ] ^ / ' ' ( ! _ : < [                                                     ",
"                                                      } | 1 2 2 3 4 5 < < <                                                     ",
"                                                      } 6 | 3 3 6 7 < < < 8                                                     ",
"                                                      9 0 a b b : < < < c d                                                     ",
"                                                      e f g h i j k l m n o                                                     ",
"                                                      p q r s t u v w x y z                                                     ",
"                                                      A B C D E F G H I J K                                                     ",
"                                                        L C M N O P Q R S T                                                     ",
"                                                        U V W X Y Z `  ...+.                                                    ",
"                                                      @.#.$.%.&.*.&.=.-.;.>.,.                                                  ",
"                                                  '.).).!.~.{.].^./.(._.:.<.7 [.                                                ",
"                                              }.|.1.2.3.4.5.6.7.8.9.0.a.b.c.d.e.f.                                              ",
"                                          g.h.2 1 i.3.j.k.l.m.n.o.p.n.q.4.r.s.b t.u.v.                                          ",
"                                        w.x.| ( 1 y.z.A.B.C.C.D.E.F.G.H.C.I.J.J.D.b u.K.                                        ",
"                                      L.M.N.O.P.Q.R.S.< T.U.U.V.W.X.V.V.V.Y.Z.`. +J..+++                                        ",
"                                      @+#+O.$+%+&+n.*+< H.=+-+;+>+,+X.X.U.'+)+!+'+V.~+.+                                        ",
"                                    {+]+^+/+P.'+H.(+_+< :+.+<+<+[+}+|+1+D.G.I.'+2+T.X.J.3+                                      ",
"                                    4+1 5+6+7+8+(+9+0+a+S.:+H.b+c+>+d+G.e+e+f+g+, h+;+G.i+                                      ",
"                                  j+k+^+l+l+&+m+n+o+p+p+j.q+r+8+n.s+t+u+u+(+<+v+w+x+y+_ =+                                      ",
"                                  z+A+B+C+C+D+E+F+G+H+I+J+K+L+M+N+O+P+s+Q+t+R+' w+x+S+T+b+                                      ",
"                                    U+V+    W+X+Y+Z+`+ @H+I+K+.@p++@@@#@$@%@R+&@*@&@U..+=@                                      ",
"                                    -@    ;@>@,@'@)@!@Z+~@ @{@H+I+]@p+^@/@(@_@3 :@<@_ s.[@                                      ",
"                                        }@|@1@2@3@4@5@6@7@8@9@0@ @H+I+]@p+a@b@c@d@&+.+=@                                        ",
"                                      e@_@>@1@2@f@g@h@i@j@k@l@< m@`+ @H+I+]@p+n@o@p@q@e.                                        ",
"                                        r@s@t@u@v@w@h@x@y@z@A@_+B@C@D@E@ @F@I+G@H@-+-+u.                                        ",
"                                          I@J@K@L@M@N@O@P@Q@R@S@T@U@V@W@X@Y@Z@`@ #b+b+.#                                        ",
"                                              +#@#6 ##E.$#$#%#%#&#1@*#u@=#-#b+b+b+b+;#                                          ",
"                                                >#q@g+g+G.D.f+,#'#)#!#~#{#]#W.m+m+^#                                            ",
"                                              /#%+(#;+;+;+;+_#T.:#<#[#}#|#1#d+2#3#                                              ",
"                                              4#;+R+5#O.O.O.|.6#|+7#8#9#0#i+a#%#b#                                              ",
"                                              4#) c#d#e#f#f#g#<@h#7#Q+Q+u+d+d+i#j#                                              ",
"                                              k#l#c#m#f#f#f#! |.6#a#%@n#m+a#7#$#o#                                              ",
"                                                p#d#q#r#r#r#s#g#<@a#%@W.=@a#7#H.%@                                              ",
"                                                p#m#q#r#r#r#s#g#<@a#2#u.0#t#t#t.c+                                              ",
"                                                p#u#r#r#r#r#s#v#:@w#H.x#0#t#t#t.c+                                              ",
"                                              y#z#A#q#q#q#q#r#B#<@C#H.x#0#t#t#t.c+                                              ",
"                                              D#e#x.) ) ) ) ) E#F#<@~ x#0#_ !+9#c+                                              ",
"                                              G#e#x.P.H#H#H#z#I#v#:@~ x#0#i+7#~+++                                              ",
"                                              J#x.,+K#6#6#6#L#M#Q.v+~ x#7#++b+d+e.c+                                            ",
"                                                N# +g+V.V.V.T.c+9#0#H.(+(+(+(+(+n.3#                                            ",
"                                                O#W. +!+!+!+f+[+P#Q#P+n#(+(+(+n.3#                                              ",
"                                                R#m+m+m+m+m+b+n.S#Q#j#P+3#3#3#3#3#                                              ",
"                                                T#U#U#< < < < < < Q#j#j#j#j#j#j#<                                               ",
"                                                V#7 j#W#< < < < < < Q#j#j#j#j#X#                                                ",
"                                                Y#S@P#W#< < < < < < < < < < < <                                                 ",
"                                                  Z#S@`#< < < < < s+S@ $5 X#< <                                                 ",
"                                                  .$< < < < < <   +$$@_+< < < <                                                 ",
"                                                  Z#5 P#W#< < <   @$< < < < <                                                   ",
"                                                #$u+$$W#< < < <   %$c+ $5 P#`#<                                                 ",
"                                                &$u+$$3#P#j#*+<   *$=$U#*+< < <                                                 ",
"                                                -$u+d+S@$$$$`#< < t+c+$$7 j#j#j#                                                ",
"                                                  ;$< < < < <   >$d+d+c+S@ $$$5 <                                               ",
"                                                                ,$< < < < < < < <                                               ",
"                                                                                                                                ",
"                                                                                                                                "};
