/* XPM */
static char * enemy4_1_xpm[] = {
"64 64 451 2",
"  	c None",
". 	c #515F9C",
"+ 	c #4E5C9F",
"@ 	c #515F87",
"# 	c #4F5D8D",
"$ 	c #151AB8",
"% 	c #0000DA",
"& 	c #4B587B",
"* 	c #51608C",
"= 	c #505E8C",
"- 	c #11169B",
"; 	c #0000A3",
"> 	c #0000A4",
", 	c #0000C6",
"' 	c #0000D8",
") 	c #000050",
"! 	c #4B5960",
"~ 	c #526186",
"{ 	c #0F13B9",
"] 	c #0000A6",
"^ 	c #0000B9",
"/ 	c #0000D9",
"( 	c #00007A",
"_ 	c #000021",
": 	c #0a0a0aff",
"< 	c #4C5960",
"[ 	c #131897",
"} 	c #0000C2",
"| 	c #0000BB",
"1 	c #0000BA",
"2 	c #000075",
"3 	c #000020",
"4 	c #000073",
"5 	c #00001E",
"6 	c #333D42",
"7 	c #664286",
"8 	c #908A62",
"9 	c #25246F",
"0 	c #000070",
"a 	c #6E6A00",
"b 	c #706D66",
"c 	c #A56943",
"d 	c #F8EF09",
"e 	c #805E64",
"f 	c #1C0D89",
"g 	c #6C416B",
"h 	c #865038",
"i 	c #5C371E",
"j 	c #190B64",
"k 	c #6A3F34",
"l 	c #BEB408",
"m 	c #8D6A2A",
"n 	c #8E5B3A",
"o 	c #F7DC32",
"p 	c #DA9662",
"q 	c #936EB2",
"r 	c #D38A68",
"s 	c #E78F59",
"t 	c #A1643A",
"u 	c #8D66AC",
"v 	c #D18B71",
"w 	c #C0A034",
"x 	c #815E28",
"y 	c #A17159",
"z 	c #F89A5F",
"A 	c #FCB68D",
"B 	c #FCBF9B",
"C 	c #FCAF7F",
"D 	c #DF8E5D",
"E 	c #B47449",
"F 	c #F5B18D",
"G 	c #FCB48A",
"H 	c #D68859",
"I 	c #8E654D",
"J 	c #F69A62",
"K 	c #F9AB7A",
"L 	c #FCAE82",
"M 	c #FCB28A",
"N 	c #FCAA7B",
"O 	c #F8A06D",
"P 	c #D58454",
"Q 	c #797678",
"R 	c #F69A61",
"S 	c #FCB68E",
"T 	c #F19761",
"U 	c #FBC1A0",
"V 	c #FCCDB4",
"W 	c #FCCEB5",
"X 	c #FAB48C",
"Y 	c #EA915F",
"Z 	c #C77A4C",
"` 	c #11171A",
" .	c #DD8955",
"..	c #FAB287",
"+.	c #F39A64",
"@.	c #FBA36F",
"#.	c #F39D6A",
"$.	c #F0945E",
"%.	c #E78C58",
"&.	c #895534",
"*.	c #2A180B",
"=.	c #52606C",
"-.	c #101517",
";.	c #2D2D2D",
">.	c #E99766",
",.	c #F09B69",
"'.	c #ED9A68",
").	c #C57B4C",
"!.	c #E89665",
"~.	c #DC8655",
"{.	c #CF804E",
"].	c #583E32",
"^.	c #1A1A1A",
"/.	c #040440",
"(.	c #52606B",
"_.	c #2A2B44",
":.	c #2C2C2D",
"<.	c #2C2C2C",
"[.	c #040404",
"}.	c #636363",
"|.	c #A56D4D",
"1.	c #A4663E",
"2.	c #935B36",
"3.	c #9A6039",
"4.	c #855530",
"5.	c #83532E",
"6.	c #886653",
"7.	c #4B4340",
"8.	c #353535",
"9.	c #101023",
"0.	c #00002F",
"a.	c #000056",
"b.	c #000053",
"c.	c #515F70",
"d.	c #080C9C",
"e.	c #00009D",
"f.	c #000083",
"g.	c #2B2B33",
"h.	c #101010",
"i.	c #ABABAB",
"j.	c #646464",
"k.	c #151534",
"l.	c #00001B",
"m.	c #704526",
"n.	c #23131A",
"o.	c #00002D",
"p.	c #929292",
"q.	c #666666",
"r.	c #2B2B43",
"s.	c #060657",
"t.	c #000071",
"u.	c #000082",
"v.	c #00006C",
"w.	c #000055",
"x.	c #070A9C",
"y.	c #0000B2",
"z.	c #0000B0",
"A.	c #272748",
"B.	c #1C1C45",
"C.	c #030375",
"D.	c #00005A",
"E.	c #000022",
"F.	c #000047",
"G.	c #000074",
"H.	c #000049",
"I.	c #1A1A47",
"J.	c #050579",
"K.	c #000087",
"L.	c #000088",
"M.	c #000078",
"N.	c #00006D",
"O.	c #000059",
"P.	c #060997",
"Q.	c #0000AF",
"R.	c #0000C0",
"S.	c #0000B1",
"T.	c #0000AD",
"U.	c #282828",
"V.	c #05058A",
"W.	c #000095",
"X.	c #000096",
"Y.	c #00006A",
"Z.	c #000092",
"`.	c #00008A",
" +	c #000086",
".+	c #000085",
"++	c #00008B",
"@+	c #000079",
"#+	c #06089D",
"$+	c #0000B5",
"%+	c #0000CF",
"&+	c #000099",
"*+	c #000093",
"=+	c #272736",
"-+	c #282829",
";+	c #00002A",
">+	c #000081",
",+	c #00005D",
"'+	c #00007C",
")+	c #000072",
"!+	c #000098",
"~+	c #00008D",
"{+	c #000054",
"]+	c #05079D",
"^+	c #0000BF",
"/+	c #0000D4",
"(+	c #00006F",
"_+	c #000031",
":+	c #000004",
"<+	c #000027",
"[+	c #000067",
"}+	c #000058",
"|+	c #00006B",
"1+	c #00009C",
"2+	c #00009A",
"3+	c #00008E",
"4+	c #000062",
"5+	c #0406BB",
"6+	c #0000B8",
"7+	c #000057",
"8+	c #1A1A35",
"9+	c #1B1B1D",
"0+	c #161616",
"a+	c #020202",
"b+	c #000061",
"c+	c #000044",
"d+	c #03059C",
"e+	c #0000C1",
"f+	c #0000FA",
"g+	c #0000F5",
"h+	c #0000DC",
"i+	c #191945",
"j+	c #545455",
"k+	c #585858",
"l+	c #4D4D4D",
"m+	c #292929",
"n+	c #202020",
"o+	c #161635",
"p+	c #02023D",
"q+	c #00003E",
"r+	c #00003F",
"s+	c #000052",
"t+	c #000069",
"u+	c #000080",
"v+	c #0000A1",
"w+	c #00005E",
"x+	c #0305BB",
"y+	c #0000EC",
"z+	c #0000B6",
"A+	c #2323AB",
"B+	c #232372",
"C+	c #010173",
"D+	c #545457",
"E+	c #616161",
"F+	c #6C6C6C",
"G+	c #6F6F6F",
"H+	c #505050",
"I+	c #29293A",
"J+	c #151531",
"K+	c #141436",
"L+	c #030334",
"M+	c #000033",
"N+	c #00003D",
"O+	c #000035",
"P+	c #0000E9",
"Q+	c #0000EA",
"R+	c #2020CE",
"S+	c #6F6F73",
"T+	c #6B6B74",
"U+	c #472C83",
"V+	c #616063",
"W+	c #484848",
"X+	c #474747",
"Y+	c #6A6A6A",
"Z+	c #6D6D6D",
"`+	c #6E6E6E",
" @	c #707070",
".@	c #515151",
"+@	c #262638",
"@@	c #141430",
"#@	c #03032C",
"$@	c #00002C",
"%@	c #00003B",
"&@	c #0000A0",
"*@	c #00004D",
"=@	c #00004C",
"-@	c #6C6C7D",
";@	c #432993",
">@	c #CD7E54",
",@	c #5E4E47",
"'@	c #4A3E39",
")@	c #433B37",
"!@	c #3A3A39",
"~@	c #464646",
"{@	c #606060",
"]@	c #656565",
"^@	c #1C1C34",
"/@	c #13137C",
"(@	c #11119B",
"_@	c #1E1EA0",
":@	c #0909A2",
"<@	c #1B21B7",
"[@	c #0001D3",
"}@	c #0000F9",
"|@	c #6F6F74",
"1@	c #040ACF",
"2@	c #CD7E58",
"3@	c #D08050",
"4@	c #A2653D",
"5@	c #9C623A",
"6@	c #7F502C",
"7@	c #4A4646",
"8@	c #3D3D3E",
"9@	c #3B3B3B",
"0@	c #383838",
"a@	c #363639",
"b@	c #454546",
"c@	c #6B6B6B",
"d@	c #4C4C4C",
"e@	c #676767",
"f@	c #2F2F8F",
"g@	c #151A50",
"h@	c #1A20CE",
"i@	c #0309A1",
"j@	c #674524",
"k@	c #5C4020",
"l@	c #120A3C",
"m@	c #616162",
"n@	c #565656",
"o@	c #0B0B3D",
"p@	c #333337",
"q@	c #4F403A",
"r@	c #483D38",
"s@	c #413A37",
"t@	c #464545",
"u@	c #5E5E5E",
"v@	c #09096F",
"w@	c #141950",
"x@	c #191FCF",
"y@	c #161B7E",
"z@	c #111A7C",
"A@	c #C97C50",
"B@	c #CC7E4E",
"C@	c #A0643C",
"D@	c #9E633B",
"E@	c #614222",
"F@	c #120A07",
"G@	c #3D3D3D",
"H@	c #0B0B0F",
"I@	c #000005",
"J@	c #C67A4C",
"K@	c #AA6940",
"L@	c #875430",
"M@	c #513F37",
"N@	c #454446",
"O@	c #464648",
"P@	c #29292D",
"Q@	c #080846",
"R@	c #13184F",
"S@	c #7E5439",
"T@	c #7C4E35",
"U@	c #7C4E30",
"V@	c #7D4E2E",
"W@	c #5C3F23",
"X@	c #11092D",
"Y@	c #606061",
"Z@	c #0B0B2D",
"`@	c #C67A4D",
" #	c #A7683F",
".#	c #85532F",
"+#	c #331D48",
"@#	c #00004A",
"##	c #12164F",
"$#	c #0D127C",
"%#	c #000041",
"&#	c #000040",
"*#	c #4F4F52",
"=#	c #3B3B3C",
"-#	c #0B0B2E",
";#	c #C3784D",
">#	c #CD7E4F",
",#	c #A5673E",
"'#	c #9F633B",
")#	c #84522E",
"!#	c #331D3D",
"~#	c #00001C",
"{#	c #0E127C",
"]#	c #000043",
"^#	c #00002E",
"/#	c #00002B",
"(#	c #774A35",
"_#	c #7D4E32",
":#	c #7D4E38",
"<#	c #604129",
"[#	c #22153F",
"}#	c #000025",
"|#	c #000042",
"1#	c #00009F",
"2#	c #000065",
"3#	c #000048",
"4#	c #0E127B",
"5#	c #00007D",
"6#	c #00005B",
"7#	c #00009E",
"8#	c #00007B",
"9#	c #0E1265",
"0#	c #000060",
"a#	c #00004F",
"b#	c #000064",
"c#	c #000068",
"d#	c #000051",
"e#	c #0E1266",
"f#	c #000066",
"g#	c #0000AE",
"h#	c #00008F",
"i#	c #111671",
"j#	c #040635",
"k#	c #101443",
"l#	c #000063",
"m#	c #0B0E42",
"n#	c #0E1243",
"o#	c #00008C",
"p#	c #0C1043",
"q#	c #000076",
"r#	c #252727",
"s#	c #020200",
"t#	c #00005C",
"u#	c #00001D",
"v#	c #111634",
"w#	c #000024",
"x#	c #111633",
"y#	c #000002",
"z#	c #111645",
"A#	c #111644",
"B#	c #00000B",
"C#	c #11165A",
"D#	c #000003",
"E#	c #00001F",
"F#	c #000006",
"G#	c #000029",
"H#	c #0C1042",
"I#	c #000018",
"J#	c #1D233B",
"K#	c #191F22",
"L#	c #1F2528",
"M#	c #191F47",
"N#	c #171D1E",
"O#	c #00003C",
"P#	c #1B2148",
"Q#	c #000030",
"R#	c #000007",
"                                                                                                                                ",
"                                                                                                                                ",
"                                                                                                                                ",
"                                                                                                                                ",
"                                                                                                                                ",
"                                                                                                                                ",
"                                                                                                                                ",
"                                                                  . +                                                           ",
"                                                            @ # # $ % &                                                         ",
"                                                        * = - ; > , ' ) !                                                       ",
"                                                      ~ { ] > > ^ / ( _ : <                                                     ",
"                                                      [ } | 1 1 , 2 3 : : :                                                     ",
"                                                      [ 4 } , , 2 5 : : : 6                                                     ",
"                                                      7 8 9 0 0 3 : : : a b                                                     ",
"                                                      c d e f g h i j k l m                                                     ",
"                                                      n o p q r s t u v w x                                                     ",
"                                                      y z A B C D E F G H I                                                     ",
"                                                        J A K L M M N O P Q                                                     ",
"                                                        R S T U V W X Y Z                                                       ",
"                                                      `  ...+.@.#.@.$.%.&.*.=.                                                  ",
"                                                      -.;.>.,.'.).!.~.{.].^./.(.                                                ",
"                                                _.:.<.[.}.|.1.2.3.4.5.6.7.8.9.0.a.b.c.                                          ",
"                                            d.e.f.g.<.h.i.j.k.l.m.n.o.p.q.r.s.t.u.v.w.c.                                        ",
"                                          x.y.z.1 A.:.<.h.B.C.D.E.F.G.H.I.J.K.L.M.G.N.O.c.                                      ",
"                                        P.Q.R.S.T.( g.<.U.V.W.X.O.Y.Z.X.X.`. +.+K.`.++@+O.c.                                    ",
"                                        #+$+%+S.&+*+=+-+[.;+>+.+.+,+>+.+.+.+'+)+L.!+!+~+)+{+                                    ",
"                                      ]+^+/+S.T.X.(+_+:+: <+[+0 (+}+|+N.N.t.)+0 e.> 1+2+3+4+c.                                  ",
"                                      5+/ % 6+W.'+7+8+9+0+a+<+[+b+c+{+w.}+2 M.t.2+; > > &+'+7+                                  ",
"                                    d+e+f+g+h+2 0 i+j+k+l+m+n+o+p+q+r+r+s+a.w.t+u+1+v+v+~+ +w+                                  ",
"                                    x+y+y+z+A+B+C+D+E+F+q.G+q.H+I+J+K+L+M+N+O+N+D.u.++++'+0 w.                                  ",
"                                    x+P+Q+R+S+T+U+V+W+X+Y+Z+`+G+ @.@l++@@@#@$@%@u.++&@; t+*@=@                                  ",
"                                    x+/+' S+-@;@>@,@'@)@!@~@.@{@F+Z+`+]@H+I+^@/@(@_@:@&+@+a.=@                                  ",
"                                    <@[@}@|@1@2@3@4@5@6@7@8@9@0@a@b@.@{@c@Z+]@H+d@e@f@u+0 w.g@                                  ",
"                                      h@/+T+i@>@3@4@j@k@l@m@n@9@o@p@q@r@s@t@u@F+`+0@v@7+=@w@                                    ",
"                                        x@y@z@A@B@C@D@E@F@E+j.G@H@I@J@K@L@M@s@N@O@P@Q@=@R@                                      ",
"                                              S@T@U@V@W@X@Y@j.G@Z@o.`@3@ #C@.#+#@#@###g@                                        ",
"                                                $#D.%#&#&#*#Y@=#-#r+;#>#,#'#)#!#<+~#                                            ",
"                                                {#,+c+]#%#&#^#/#r+=@(#_#_#:#<#[#&#}#                                            ",
"                                                {#L.)+t.D.|#^#5 q+4+(+0 )+1#t.2#3#}#                                            ",
"                                                4#L.5#'+6#|#^#5 @#v.0 0 7#; u.8#*@}#                                            ",
"                                                9# +'+8#D.%#o.5 0#a#b#8#5#5#c#d#M+3                                             ",
"                                                e#2#b#}+|#^#5 ~#H.b#W.&+&+&+M.f#%@$@                                            ",
"                                                {#L.6#}+}+|#^#5 q+*+g#z.z.z.h#G.b.M+                                            ",
"                                                {#K.6#}+}+|#^#5 q+Z.g#z.z.z.h#G.b.M+                                            ",
"                                                i#8#D.}+|#&#^#5 q+Z.g#z.z.z.1+>+a.j#                                            ",
"                                                  k#l#b#]#&#^#5 H.*+g#z.z.z.1+>+|#                                              ",
"                                                m#l#|#&#&#&#^#5 ~#Z.; > > > > f.|#                                              ",
"                                                n#&#&#&#&#&#^#5 q+7#> > > o#&@f.|#                                              ",
"                                                n#&#&#&#&#&#^#5 M.v+> > > o#&@> d#                                              ",
"                                                p#&#&#&#&#o.$@$@7#|+*+!+!+q#d#@#q#|#                                            ",
"                                                  r#s#: : : : : : |+W.!+!+q#t#c+^#u#                                            ",
"                                                    v#:+: : : : : |+8#'+'+)+t#c+w#                                              ",
"                                                    x#u#y#: : : : : b.}+}+}+c+&#}#                                              ",
"                                                    z#5 ~#y#: : : : : : : : : : :                                               ",
"                                                    A#%#^#I@: : : ;+r+%#0.B#: : :                                               ",
"                                                    C#0.$@5 D#: : ;+q+&#0.E#~#F#:                                               ",
"                                                    C#|#%#3 D#: : G#q+&#0.E#~#F#:                                               ",
"                                                    H#q+;+I#: :   J#r+&#0.E#~#F#:                                               ",
"                                                                  K#G#r+%#w#~#F#:                                               ",
"                                                                    L#: : : : :                                                 ",
"                                                                  M#%#0.o.E#F#:                                                 ",
"                                                                N#O#^#/#u#y#: : :                                               ",
"                                                                P#&#%#%#%#Q#o.3 R#                                              ",
"                                                                P#^#/#/#/#5 :+: :                                               "};
