/* XPM */
static char * enemy4_0_xpm[] = {
"64 64 476 2",
"  	c None",
". 	c #505F8C",
"+ 	c #4E5C8E",
"@ 	c #4E5CB7",
"# 	c #515F8C",
"$ 	c #4F5D8D",
"% 	c #1419A2",
"& 	c #0000C7",
"* 	c #0000CD",
"= 	c #4B5877",
"- 	c #51608C",
"; 	c #505E8C",
"> 	c #1116A2",
", 	c #0000A4",
"' 	c #0000BA",
") 	c #0000CE",
"! 	c #000048",
"~ 	c #0a0a0aff",
"{ 	c #4B5960",
"] 	c #5261A5",
"^ 	c #0F13BA",
"/ 	c #0000BB",
"( 	c #00003D",
"_ 	c #4C5960",
": 	c #1318C2",
"< 	c #0000C5",
"[ 	c #00003E",
"} 	c #131871",
"| 	c #000070",
"1 	c #000020",
"2 	c #552600",
"3 	c #3D3F42",
"4 	c #664267",
"5 	c #908A5F",
"6 	c #754C66",
"7 	c #1D0E8A",
"8 	c #6E426B",
"9 	c #895239",
"0 	c #5F381F",
"a 	c #1A0C66",
"b 	c #6C4135",
"c 	c #A67A09",
"d 	c #7A6F66",
"e 	c #A56943",
"f 	c #F8EF09",
"g 	c #DB9962",
"h 	c #9671B1",
"i 	c #D48B69",
"j 	c #E68F59",
"k 	c #A1643A",
"l 	c #9068AC",
"m 	c #D28C72",
"n 	c #C8B922",
"o 	c #8D6A2A",
"p 	c #8E5B3A",
"q 	c #F7DC31",
"r 	c #FCB988",
"s 	c #FCBE9A",
"t 	c #FCAE7F",
"u 	c #E08E5E",
"v 	c #B6754A",
"w 	c #F6B08C",
"x 	c #FCB389",
"y 	c #C5A43F",
"z 	c #815E28",
"A 	c #A17159",
"B 	c #F89A5F",
"C 	c #F7A776",
"D 	c #FCAD7C",
"E 	c #EF9C69",
"F 	c #EE9A68",
"G 	c #FBA36F",
"H 	c #D48353",
"I 	c #8E654D",
"J 	c #F69A62",
"K 	c #E98D59",
"L 	c #FBA26E",
"M 	c #D28756",
"N 	c #CE8454",
"O 	c #F8A16D",
"P 	c #BE774B",
"Q 	c #CD7E4F",
"R 	c #797678",
"S 	c #EE935E",
"T 	c #FCA470",
"U 	c #F29D6A",
"V 	c #F89F6C",
"W 	c #C67C4D",
"X 	c #C17749",
"Y 	c #767478",
"Z 	c #DE8B5A",
"` 	c #EE9A67",
" .	c #EF9B68",
"..	c #EC9968",
"+.	c #C57B4C",
"@.	c #E79564",
"#.	c #DB8654",
"$.	c #CE7F4E",
"%.	c #8C5732",
"&.	c #5F656A",
"*.	c #313334",
"=.	c #2C2C2C",
"-.	c #B37044",
";.	c #B87346",
">.	c #AA6A40",
",.	c #A96940",
"'.	c #935D35",
").	c #8D5A33",
"!.	c #82512D",
"~.	c #754927",
"{.	c #2A1709",
"].	c #303133",
"^.	c #555555",
"/.	c #B27047",
"(.	c #C77B4C",
"_.	c #C87C4C",
":.	c #D0814F",
"<.	c #955E36",
"[.	c #81512D",
"}.	c #764928",
"|.	c #362A24",
"1.	c #070707",
"2.	c #536269",
"3.	c #080C7E",
"4.	c #0000AF",
"5.	c #1F1F2F",
"6.	c #202020",
"7.	c #272736",
"8.	c #969696",
"9.	c #4E4E4E",
"0.	c #B26F45",
"a.	c #B77145",
"b.	c #DE8954",
"c.	c #85522E",
"d.	c #342822",
"e.	c #494949",
"f.	c #191930",
"g.	c #000029",
"h.	c #00004C",
"i.	c #516070",
"j.	c #070AAF",
"k.	c #0000B9",
"l.	c #0000B1",
"m.	c #02026B",
"n.	c #000039",
"o.	c #7D7D7D",
"p.	c #22222E",
"q.	c #000003",
"r.	c #714626",
"s.	c #231307",
"t.	c #00001B",
"u.	c #484849",
"v.	c #181833",
"w.	c #00006C",
"x.	c #000072",
"y.	c #00005A",
"z.	c #00004F",
"A.	c #515F6F",
"B.	c #0508AF",
"C.	c #0000B0",
"D.	c #0000D2",
"E.	c #0000AE",
"F.	c #20201F",
"G.	c #0202A1",
"H.	c #00007F",
"I.	c #00003A",
"J.	c #000054",
"K.	c #000035",
"L.	c #00001E",
"M.	c #000030",
"N.	c #000053",
"O.	c #00003B",
"P.	c #00006F",
"Q.	c #00009B",
"R.	c #0000A0",
"S.	c #00007B",
"T.	c #00005C",
"U.	c #00004D",
"V.	c #0406B0",
"W.	c #0000AB",
"X.	c #000068",
"Y.	c #000091",
"Z.	c #1C1C48",
"`.	c #202022",
" +	c #09093B",
".+	c #000073",
"++	c #00007C",
"@+	c #000052",
"#+	c #000078",
"$+	c #000082",
"%+	c #000081",
"&+	c #000087",
"*+	c #000041",
"=+	c #0305B0",
"-+	c #000088",
";+	c #000071",
">+	c #000060",
",+	c #000097",
"'+	c #1F1F2D",
")+	c #000062",
"!+	c #000064",
"~+	c #000046",
"{+	c #00007A",
"]+	c #000061",
"^+	c #000043",
"/+	c #00003C",
"(+	c #515F6D",
"_+	c #0304B0",
":+	c #0000AC",
"<+	c #00006E",
"[+	c #00008F",
"}+	c #1D1D30",
"|+	c #1E1E1E",
"1+	c #03033A",
"2+	c #000074",
"3+	c #000075",
"4+	c #000040",
"5+	c #000089",
"6+	c #000090",
"7+	c #00004A",
"8+	c #000028",
"9+	c #000031",
"0+	c #000045",
"a+	c #0203B0",
"b+	c #000086",
"c+	c #000058",
"d+	c #000009",
"e+	c #00003F",
"f+	c #1D1D23",
"g+	c #020202",
"h+	c #000038",
"i+	c #000055",
"j+	c #000036",
"k+	c #000034",
"l+	c #00002D",
"m+	c #00001C",
"n+	c #000032",
"o+	c #515F6C",
"p+	c #0202B0",
"q+	c #00008D",
"r+	c #00006D",
"s+	c #000056",
"t+	c #000006",
"u+	c #00002B",
"v+	c #000019",
"w+	c #00001A",
"x+	c #000050",
"y+	c #00001F",
"z+	c #0101B0",
"A+	c #000079",
"B+	c #00005D",
"C+	c #000016",
"D+	c #000047",
"E+	c #00000D",
"F+	c #1C1C1C",
"G+	c #1D1D1D",
"H+	c #1D1D29",
"I+	c #21212C",
"J+	c #252530",
"K+	c #19194A",
"L+	c #030330",
"M+	c #00002A",
"N+	c #1D1D35",
"O+	c #0C0C2F",
"P+	c #000077",
"Q+	c #0000B4",
"R+	c #000083",
"S+	c #29292C",
"T+	c #2A2A29",
"U+	c #2A2A5D",
"V+	c #24245C",
"W+	c #242432",
"X+	c #242425",
"Y+	c #242424",
"Z+	c #626262",
"`+	c #656565",
" @	c #6F6F6F",
".@	c #7A7A7A",
"+@	c #5C5C5C",
"@@	c #2B2B33",
"#@	c #23232E",
"$@	c #24242F",
"%@	c #292933",
"&@	c #2A2A33",
"*@	c #2D2D36",
"=@	c #2E2E42",
"-@	c #333348",
";@	c #626265",
">@	c #353543",
",@	c #1A20AD",
"'@	c #0000B3",
")@	c #0000D9",
"!@	c #0000AD",
"~@	c #8A8A8D",
"{@	c #898989",
"]@	c #797979",
"^@	c #6E6E6E",
"/@	c #6D6D6D",
"(@	c #777777",
"_@	c #868686",
":@	c #888888",
"<@	c #929292",
"[@	c #949494",
"}@	c #A0A0A0",
"|@	c #565657",
"1@	c #0B0B30",
"2@	c #02034A",
"3@	c #0000D0",
"4@	c #000063",
"5@	c #3131B0",
"6@	c #868689",
"7@	c #565656",
"8@	c #545454",
"9@	c #535353",
"0@	c #484848",
"a@	c #464646",
"b@	c #454545",
"c@	c #4F4F4F",
"d@	c #515151",
"e@	c #272730",
"f@	c #00002E",
"g@	c #000033",
"h@	c #171D50",
"i@	c #000085",
"j@	c #0000E9",
"k@	c #2020C6",
"l@	c #ADADB2",
"m@	c #1D1D2C",
"n@	c #5D5552",
"o@	c #525151",
"p@	c #474747",
"q@	c #373738",
"r@	c #212122",
"s@	c #212121",
"t@	c #1F1F20",
"u@	c #060608",
"v@	c #000002",
"w@	c #160C04",
"x@	c #190D04",
"y@	c #494948",
"z@	c #2A2A32",
"A@	c #05051E",
"B@	c #121728",
"C@	c #161C50",
"D@	c #0000C2",
"E@	c #8B8B8D",
"F@	c #12127B",
"G@	c #25137A",
"H@	c #B77249",
"I@	c #4D2C18",
"J@	c #3D2111",
"K@	c #241307",
"L@	c #3A3735",
"M@	c #09081E",
"N@	c #303030",
"O@	c #09091E",
"P@	c #664324",
"Q@	c #724B27",
"R@	c #764D28",
"S@	c #714A26",
"T@	c #6D4824",
"U@	c #321F0C",
"V@	c #4A4A4A",
"W@	c #2E3037",
"X@	c #161B50",
"Y@	c #0E1159",
"Z@	c #A1653E",
"`@	c #FA9B5F",
" #	c #FB9B60",
".#	c #E68B57",
"+#	c #945E36",
"@#	c #5E4020",
"##	c #130A1B",
"$#	c #323232",
"%#	c #09091D",
"&#	c #7E512D",
"*#	c #B57345",
"=#	c #D78552",
"-#	c #AB693E",
";#	c #784E29",
">#	c #4B4C4C",
",#	c #141A50",
"'#	c #545556",
")#	c #00044C",
"!#	c #D98654",
"~#	c #DF8A55",
"{#	c #A3663D",
"]#	c #5A3F1E",
"^#	c #0F0802",
"/#	c #090909",
"(#	c #7E512C",
"_#	c #B47344",
":#	c #D58451",
"<#	c #A9683E",
"[#	c #774D29",
"}#	c #0F1A50",
"|#	c #D5845C",
"1#	c #F99A5F",
"2#	c #A4663D",
"3#	c #100902",
"4#	c #525252",
"5#	c #313131",
"6#	c #7C502B",
"7#	c #996039",
"8#	c #9D623B",
"9#	c #764D29",
"0#	c #6A4723",
"a#	c #34251A",
"b#	c #010DC7",
"c#	c #9B604D",
"d#	c #9D6241",
"e#	c #6D482A",
"f#	c #543C22",
"g#	c #0F0808",
"h#	c #000001",
"i#	c #0A0F11",
"j#	c #0D1214",
"k#	c #151AC5",
"l#	c #000066",
"m#	c #000042",
"n#	c #00002C",
"o#	c #0A0E22",
"p#	c #0E1273",
"q#	c #00001D",
"r#	c #0E12BB",
"s#	c #000022",
"t#	c #0E12BA",
"u#	c #000065",
"v#	c #000051",
"w#	c #000049",
"x#	c #000084",
"y#	c #00006A",
"z#	c #00008B",
"A#	c #00007D",
"B#	c #000094",
"C#	c #00008A",
"D#	c #0000A5",
"E#	c #00007E",
"F#	c #000076",
"G#	c #000099",
"H#	c #00004E",
"I#	c #000067",
"J#	c #0709BB",
"K#	c #0000C8",
"L#	c #0000E1",
"M#	c #0000A8",
"N#	c #000069",
"O#	c #000059",
"P#	c #00000C",
"Q#	c #0C10BB",
"R#	c #00009E",
"S#	c #070ABB",
"T#	c #000018",
"U#	c #000012",
"V#	c #0E1265",
"W#	c #1D2326",
"X#	c #000010",
"Y#	c #0E120F",
"Z#	c #1C2326",
"`#	c #070A0C",
" $	c #000008",
".$	c #00002F",
"+$	c #101445",
"@$	c #000005",
"#$	c #191F22",
"$$	c #000015",
"%$	c #101414",
"&$	c #00000A",
"*$	c #1E2529",
"=$	c #101416",
"-$	c #060908",
";$	c #0E1232",
">$	c #00000B",
",$	c #040506",
"'$	c #0C1012",
")$	c #1E2528",
"                                                                                                                                ",
"                                                                                                                                ",
"                                                                                                                                ",
"                                                                                                                                ",
"                                                                                                                                ",
"                                                                                                                                ",
"                                                                                                                                ",
"                                                                . + @                                                           ",
"                                                            # $ % & * =                                                         ",
"                                                        - ; > , ' ) ! ~ {                                                       ",
"                                                      ] ^ / / / ' ( ~ ~ ~ _                                                     ",
"                                                      : < < < < [ ~ ~ ~ ~ ~                                                     ",
"                                                      } | | | | 1 ~ ~ ~ 2 3                                                     ",
"                                                      4 5 6 7 8 9 0 a b c d                                                     ",
"                                                      e f g h i j k l m n o                                                     ",
"                                                      p q r s t u v w x y z                                                     ",
"                                                      A B C D E F F G F H I                                                     ",
"                                                        J K L M N N O P Q R                                                     ",
"                                                        J S G T U G V W X Y                                                     ",
"                                                        Z `  ...+.@.#.$.%.&.                                                    ",
"                                                      *.=.-.;.>.,.'.).!.~.{.                                                    ",
"                                                      ].^./.(._.:.<.[.}.|.1.2.                                                  ",
"                                            3.4.5.6.6.7.8.9.0.a.b.c.~.d.e.f.g.g.g.h.i.                                          ",
"                                          j.k.l.5.6.6.m.n.o.p.q.r.s.t.u.v.w.x.x.x.x.y.z.A.                                      ",
"                                        B.C.D.E.5.6.F.G.H.I.J.K.L.M.N.O.P.Q.R.R.R.R.S.T.U.A.                                    ",
"                                      V.C.W.X.Y.Z.`.6. +.+++++++@+#+++$+$+$+$+$+%+&+.+N.*+!                                     ",
"                                    =+C.C.-+;+>+,+'+6.6. +.+++++@+#+++y.)+!+!+!+~+{+]+^+K./+(+                                  ",
"                                    _+C.:+++<+( [+}+6.6.|+1+2+#+z.3+#+4+5+6+6+6+U.z.7+g.8+9+0+                                  ",
"                                  a+:+:+b+<+c+d+e+7+f+|+g+~ I.@+h+@+i+j+h+n.n.n.k+l+1 m+m+g.n+o+                                ",
"                                  p+q+b+r+s+! t+4+#+u+q.~ ~ ~ v+M.n+n+w+x+i+i+i+K.u+y+L.L.g.n+0+                                ",
"                                z+C.:+A+B+4+C+~ D+)+0+E+~ ~ F+G+H+I+J+K+L+u+u+u+u+y+m+M+l+N+O+n+                                ",
"                                z+C.P+Q+C.R+T.S+T+U+V+W+X+Y+Z+`+`+ @.@+@@@#@$@$@%@&@*@=@-@;@>@n+                                ",
"                                ,@W.'@)@!@C.C.~@{@{@.@]@]@]@^@/@/@/@/@/@/@(@]@]@_@:@<@[@}@|@1@k+                                ",
"                                  2@3@4@&+l.5@6@7@8@8@9@9@0@a@a@a@a@a@a@a@b@b@b@b@b@c@d@9@e@f@g@                                ",
"                                  h@i@9+j@k@l@m@n@o@d@a@p@q@r@Y+Y+Y+s@t@t@u@v@w@x@x@x@x@y@z@A@B@                                ",
"                                    C@g@D@E@F@G@H@I@J@K@L@M@m+a@0@e.N@O@m+m+m+P@Q@R@S@T@U@V@W@                                  ",
"                                      X@K.{@Y@Z@`@ #.#+#@###t.d@V@9@$#%#t.t.t.&#*#=#-#;#U@>#                                    ",
"                                        ,#'#)#!# #~#{#]#^#~ ~ d@8@8@$#/#~ ~ ~ (#_#:#<#[#U@                                      ",
"                                            }#|#B 1#2#]#3#~ ~ c@4#4#5#/#~ ~ ~ 6#7#8#9#0#a#                                      ",
"                                              b#c#d#e#f#g#q.q.v@v@v@q.q.q.q.q.h#h#h#i#j#                                        ",
"                                              k#, 5+l#4@m#l+n#n#n#n#n#n#n#n#n#y+m+o#                                            ",
"                                                p#| x+*+1 q#m+m+m+m+q#L.L.L.q#q#m+                                              ",
"                                                r#H.++z.j+k+l+L.m+q#g@7+U.U.n.k+s#                                              ",
"                                                t#H.++z.j+k+l+L.m+g@7+)+!+u#v#n.k+                                              ",
"                                                t#H.++z.j+k+l+L.m+w#)+!+!+x#y#x+n.                                              ",
"                                                t#H.++z.j+k+l+L.m+w#)+!+!+x#y#x+n.                                              ",
"                                                t#H.++z.j+k+l+L.m+w#)+!+!+x#y#x+n.                                              ",
"                                                t#z#A#z.j+k+l+L.m+w#)+P.B#C#c+h.n.                                              ",
"                                                t#D#E#z.*+K.l+L.m+w#)+!+4@x#c+h.n.                                              ",
"                                                t#C#A#z.j+k+l+L.m+w#*+w.B#F#4+w#h.                                              ",
"                                                t#G#x.H#j+k+l+q#m+n+#+I#4@x#c+h+k+                                              ",
"                                              J#K#L#M#N#H#h.j+l+L.n+n+$+5+-+5+O#n.P#                                            ",
"                                              Q#D#++| H#K.k+l+q#m+n+7+]+4@R#x+g@w#L.                                            ",
"                                              S#E#++H#h.j+n#q#m+T#n+7+)+!+H#h+k+k+U#                                            ",
"                                                V#!+H#U.j+l+L.m+  W#( K.g@k+k+k+X#~                                             ",
"                                                Y#~ ~ ~ ~ ~ ~ ~   Z#~ ~ ~ ~ ~ ~ ~                                               ",
"                                                `#u+4+ $~ ~ ~ ~   Z#~ ~ /+.$P#~ ~                                               ",
"                                                  +$4+l+@$~ ~ ~   #$~ g.[ *+$$~                                                 ",
"                                                  %$u+4+&$~ ~       *$( X#~ ~ ~                                                 ",
"                                                  =$~ ~ ~ ~ ~       *$~ g.n#P#~                                                 ",
"                                                -$u+4+*+l+@$~ ~   #$~ g.[ .$&$~ ~                                               ",
"                                                ;$4+4+4+*+>$~ ~   Z#M+[ 4+4+M.E+~                                               ",
"                                              ,$e+4+4+*+l+@$~ ~   #$g.[ 4+4+M.E+~ ~                                             ",
"                                              '$u+u+n#h#~ ~ ~       )$g.u+u+n#E+~ ~                                             "};
