/* XPM */
static char * enemy4_3_xpm[] = {
"64 64 414 2",
"  	c None",
". 	c #52618B",
"+ 	c #505E9B",
"@ 	c #505E9D",
"# 	c #536186",
"$ 	c #515F8B",
"% 	c #141AA2",
"& 	c #0000BB",
"* 	c #0000D9",
"= 	c #4C5A7C",
"- 	c #52608B",
"; 	c #12179B",
"> 	c #0000A3",
", 	c #0000A4",
"' 	c #0000C3",
") 	c #0000DB",
"! 	c #000051",
"~ 	c #4D5B62",
"{ 	c #1014B6",
"] 	c #0000A5",
"^ 	c #0000B8",
"/ 	c #00007C",
"( 	c #000022",
"_ 	c #0a0a0aff",
": 	c #131871",
"< 	c #0000C4",
"[ 	c #0000B9",
"} 	c #0000C8",
"| 	c #000077",
"1 	c #000020",
"2 	c #000070",
"3 	c #0000C9",
"4 	c #00001F",
"5 	c #313A3F",
"6 	c #623F68",
"7 	c #8A8461",
"8 	c #23226F",
"9 	c #696500",
"0 	c #6F6D68",
"a 	c #A66944",
"b 	c #F8EF09",
"c 	c #7C5C65",
"d 	c #1A0C87",
"e 	c #673D6B",
"f 	c #804C36",
"g 	c #58341C",
"h 	c #170A5F",
"i 	c #653C31",
"j 	c #BEB507",
"k 	c #8D6B2A",
"l 	c #8D5A3A",
"m 	c #F7DE2F",
"n 	c #D9955F",
"o 	c #8D69B2",
"p 	c #D18867",
"q 	c #E78F5A",
"r 	c #A2643B",
"s 	c #8761AD",
"t 	c #CF8970",
"u 	c #BFA032",
"v 	c #805E27",
"w 	c #A37158",
"x 	c #F89A5F",
"y 	c #FCB68D",
"z 	c #FCBF9C",
"A 	c #FCAF80",
"B 	c #DE8D5C",
"C 	c #B17247",
"D 	c #F5B18E",
"E 	c #FCB48B",
"F 	c #D6885A",
"G 	c #8F644B",
"H 	c #F69A61",
"I 	c #FAAC7B",
"J 	c #FCAD81",
"K 	c #FCB187",
"L 	c #FCB188",
"M 	c #FCA97A",
"N 	c #F8A06D",
"O 	c #D58454",
"P 	c #797678",
"Q 	c #181B40",
"R 	c #000039",
"S 	c #F5985E",
"T 	c #FCB68E",
"U 	c #F19761",
"V 	c #FBC1A1",
"W 	c #FCCEB6",
"X 	c #FCCFB7",
"Y 	c #FAB58D",
"Z 	c #EA915F",
"` 	c #C87B4C",
" .	c #767578",
"..	c #0B0F93",
"+.	c #000046",
"@.	c #2B2B2D",
"#.	c #0A0C0C",
"$.	c #E08B55",
"%.	c #FBB288",
"&.	c #F39A64",
"*.	c #FBA36F",
"=.	c #F49E6B",
"-.	c #F0945E",
";.	c #E78C58",
">.	c #8A5634",
",.	c #080C9F",
"'.	c #00009F",
").	c #00007A",
"!.	c #0E0E41",
"~.	c #29292B",
"{.	c #202020",
"].	c #595959",
"^.	c #EB9969",
"/.	c #F19C6A",
"(.	c #EF9B69",
"_.	c #C67C4D",
":.	c #EA9766",
"<.	c #DE8755",
"[.	c #D1814F",
"}.	c #593E32",
"|.	c #0B0B0B",
"1.	c #070A9E",
"2.	c #0000BC",
"3.	c #000064",
"4.	c #29292E",
"5.	c #212121",
"6.	c #1C1C23",
"7.	c #B0B0B0",
"8.	c #A87050",
"9.	c #A6673E",
"0.	c #9C623A",
"a.	c #9B613A",
"b.	c #875630",
"c.	c #85542F",
"d.	c #774B29",
"e.	c #392D28",
"f.	c #09091E",
"g.	c #000047",
"h.	c #0508BB",
"i.	c #0000C0",
"j.	c #000049",
"k.	c #1F1F22",
"l.	c #020233",
"m.	c #5A5A5B",
"n.	c #373737",
"o.	c #08082C",
"p.	c #724728",
"q.	c #764A2F",
"r.	c #241309",
"s.	c #424242",
"t.	c #2B2B2B",
"u.	c #080808",
"v.	c #00004D",
"w.	c #000053",
"x.	c #0507C6",
"y.	c #0000C7",
"z.	c #0000F6",
"A.	c #0000D1",
"B.	c #0000AE",
"C.	c #1C1C1F",
"D.	c #1D1D1D",
"E.	c #000013",
"F.	c #000033",
"G.	c #000069",
"H.	c #000025",
"I.	c #00000D",
"J.	c #959595",
"K.	c #67676E",
"L.	c #1F1F36",
"M.	c #00006A",
"N.	c #000073",
"O.	c #000074",
"P.	c #000071",
"Q.	c #0406F3",
"R.	c #0000F7",
"S.	c #000096",
"T.	c #000050",
"U.	c #000015",
"V.	c #000001",
"W.	c #000030",
"X.	c #000034",
"Y.	c #000082",
"Z.	c #000052",
"`.	c #000044",
" +	c #000032",
".+	c #00006E",
"++	c #00006D",
"@+	c #000081",
"#+	c #000085",
"$+	c #0305B0",
"%+	c #0000B1",
"&+	c #000095",
"*+	c #000035",
"=+	c #000005",
"-+	c #00001B",
";+	c #00004F",
">+	c #000057",
",+	c #000079",
"'+	c #000083",
")+	c #000084",
"!+	c #000056",
"~+	c #000062",
"{+	c #0305BA",
"]+	c #0000F0",
"^+	c #2020AC",
"/+	c #252572",
"(+	c #1A1A63",
"_+	c #010161",
":+	c #000038",
"<+	c #000019",
"[+	c #000031",
"}+	c #000048",
"|+	c #00004C",
"1+	c #000065",
"2+	c #000067",
"3+	c #00006F",
"4+	c #00008B",
"5+	c #000078",
"6+	c #0305F5",
"7+	c #0000DA",
"8+	c #121247",
"9+	c #636363",
"0+	c #707070",
"a+	c #585858",
"b+	c #191942",
"c+	c #010140",
"d+	c #00000B",
"e+	c #000054",
"f+	c #000075",
"g+	c #00008C",
"h+	c #0000A0",
"i+	c #00008D",
"j+	c #0305AF",
"k+	c #0000F9",
"l+	c #47474F",
"m+	c #626262",
"n+	c #6F6F6F",
"o+	c #4D4D4D",
"p+	c #1B1B43",
"q+	c #010124",
"r+	c #000006",
"s+	c #00002D",
"t+	c #00003E",
"u+	c #000040",
"v+	c #00004A",
"w+	c #000087",
"x+	c #0000B6",
"y+	c #0000A8",
"z+	c #000088",
"A+	c #0000D0",
"B+	c #5E4E4D",
"C+	c #535353",
"D+	c #656565",
"E+	c #1C1C43",
"F+	c #01011E",
"G+	c #000002",
"H+	c #000029",
"I+	c #00003F",
"J+	c #00009B",
"K+	c #CF7F52",
"L+	c #584C47",
"M+	c #545454",
"N+	c #6E6E6E",
"O+	c #1C1C1C",
"P+	c #010101",
"Q+	c #000028",
"R+	c #0000A2",
"S+	c #00007E",
"T+	c #191FAD",
"U+	c #0000B0",
"V+	c #CF7F53",
"W+	c #A1653C",
"X+	c #4E4B4A",
"Y+	c #555555",
"Z+	c #0A0A0A",
"`+	c #00002A",
" @	c #0000A6",
".@	c #0002B0",
"+@	c #666463",
"@@	c #646464",
"#@	c #484848",
"$@	c #575757",
"%@	c #3C3C3C",
"&@	c #111111",
"*@	c #00001C",
"=@	c #00001E",
"-@	c #0000B3",
";@	c #0000AA",
">@	c #000076",
",@	c #0E1BAE",
"'@	c #CB7D51",
")@	c #A0643B",
"!@	c #686361",
"~@	c #3B3B3B",
"{@	c #45454A",
"]@	c #565656",
"^@	c #3F3F3F",
"/@	c #141414",
"(@	c #010118",
"_@	c #0000AD",
":@	c #00007F",
"<@	c #0000C6",
"[@	c #00007D",
"}@	c #7E5336",
"|@	c #7F5234",
"1@	c #656463",
"2@	c #4A4A4A",
"3@	c #08086F",
"4@	c #44444A",
"5@	c #494949",
"6@	c #4E4E4E",
"7@	c #1A1A6C",
"8@	c #0101CC",
"9@	c #0000D2",
"0@	c #101570",
"a@	c #626267",
"b@	c #535358",
"c@	c #0B0B6F",
"d@	c #000043",
"e@	c #505052",
"f@	c #554C49",
"g@	c #545353",
"h@	c #565554",
"i@	c #1717A8",
"j@	c #00007B",
"k@	c #161C87",
"l@	c #000089",
"m@	c #000072",
"n@	c #000045",
"o@	c #CB7D4F",
"p@	c #625049",
"q@	c #4C4847",
"r@	c #494847",
"s@	c #5A4025",
"t@	c #1A0F6A",
"u@	c #0D114E",
"v@	c #0E1297",
"w@	c #00008A",
"x@	c #C87B54",
"y@	c #CE7F4F",
"z@	c #88542F",
"A@	c #604121",
"B@	c #4A3919",
"C@	c #120C49",
"D@	c #000042",
"E@	c #00004B",
"F@	c #000099",
"G@	c #7B4D37",
"H@	c #7F4F2C",
"I@	c #7F502C",
"J@	c #5F4121",
"K@	c #120C48",
"L@	c #000041",
"M@	c #000024",
"N@	c #0E1288",
"O@	c #000097",
"P@	c #0000AF",
"Q@	c #00009A",
"R@	c #583D39",
"S@	c #5B3F29",
"T@	c #5B3F27",
"U@	c #493821",
"V@	c #47371C",
"W@	c #120C33",
"X@	c #000021",
"Y@	c #0E1287",
"Z@	c #00005E",
"`@	c #000058",
" #	c #000027",
".#	c #00002C",
"+#	c #0E127C",
"@#	c #000098",
"##	c #00005B",
"$#	c #00009C",
"%#	c #04061F",
"&#	c #101565",
"*#	c #00005C",
"=#	c #101497",
"-#	c #000068",
";#	c #0A0E88",
">#	c #0000D3",
",#	c #0000BD",
"'#	c #0E12A3",
")#	c #0000BA",
"!#	c #0000B4",
"~#	c #00002F",
"{#	c #0E12D3",
"]#	c #0000CE",
"^#	c #000092",
"/#	c #00002E",
"(#	c #00002B",
"_#	c #0B0E4D",
":#	c #000086",
"<#	c #10144F",
"[#	c #000066",
"}#	c #00001A",
"|#	c #000012",
"1#	c #101439",
"2#	c #101444",
"3#	c #000003",
"4#	c #000036",
"5#	c #090C0C",
"6#	c #111645",
"7#	c #00001D",
"8#	c #1B213F",
"9#	c #000016",
"0#	c #111615",
"a#	c #090C4E",
"b#	c #393A3A",
"c#	c #05053F",
"d#	c #343332",
"e#	c #3A3B3C",
"f#	c #050540",
"g#	c #353535",
"                                                                                                                                ",
"                                                                                                                                ",
"                                                                                                                                ",
"                                                                                                                                ",
"                                                                                                                                ",
"                                                                                                                                ",
"                                                                                                                                ",
"                                                                                                                                ",
"                                                                                                                                ",
"                                                                . + @                                                           ",
"                                                            # $ % & * =                                                         ",
"                                                          - ; > , ' ) ! ~                                                       ",
"                                                        { ] , , ^ ) / ( _ ~                                                     ",
"                                                      : < [ ^ ^ } | 1 _ _ _                                                     ",
"                                                      : 2 < 3 3 | 4 _ _ _ 5                                                     ",
"                                                      6 7 8 2 2 1 _ _ _ 9 0                                                     ",
"                                                      a b c d e f g h i j k                                                     ",
"                                                      l m n o p q r s t u v                                                     ",
"                                                      w x y z A B C D E F G                                                     ",
"                                                        H y I J K L M N O P                                                     ",
"                                                    Q R S T U V W X Y Z `  .                                                    ",
"                                                ..+.@.#.$.%.&.*.=.*.-.;.>.                                                      ",
"                                            ,.'.).!.~.{.].^./.(._.:.<.[.}.|.                                                    ",
"                                          1.& 2.3.4.5.6.7.8.9.0.a.b.c.d.e.f.g.                                                  ",
"                                        h.} i.& j.k.{.l.m.n.o.p.q.r.s.t.u.v.w.w.                                                ",
"                                      x.y.z.A.B.j.C.D.l.E.F.G.H.R I.J.K.L.M.N.O.P.                                              ",
"                                      Q.R.A.B.S.T.U.V.W.X.Y.Z.`.W. +F..+O.++@+#+O.N.                                            ",
"                                    $+& * %+&+).! *+=+-+F.M.;+>+,+'+)+'+Y.!+~+P.N.Y.                                            ",
"                                    {+R.]+^+/+(+_+:+=+<+[+}+|+>+,+1+2+!+w.! 3+#+4+5+Y.                                          ",
"                                    6+7+8+9+0+a+b+c+d+_ <+[+}+e+f+T.O.| | N.4+g+h+i+|                                           ",
"                                    j+k+l+m+n+n+o+p+q+r+_ <+[+s+t+u+u+u+v+w+x+y+, i+z+                                          ",
"                                    j+A+B+C+m+9+D+a+E+F+G+_ <+H+F.t+I+I+Y.x+2.y+, i+w+                                          ",
"                                    $+J+K+L+C+M+N+0+a+O+P+_ _ _ Q+F.F.F.@+x+2.y+R+i+S+                                          ",
"                                    T+U+V+W+X+Y+m+N+n+a+O+Z+P+_ _ Q+`+`+@+x+&  @i+w+N.                                          ",
"                                      .@V+W++@@@#@C+m+N+$@%@&@P+_ _ *@=@'+-@;@i+w+>@>+                                          ",
"                                      ,@'@)@!@@@~@{@#@C+m+]@^@/@(@*+S+'+_@:@<@&+[@#+f+                                          ",
"                                        }@|@|@1@2@3@4@5@C+m+n+6@7@8@9@9@9@-@:@P.3+.+0@                                          ",
"                                              a@b@c@d@e@f@g@m+9+h@i@B.B.B.,+ @j@w.|+                                            ",
"                                              k@l@m@}+n@o@p@q@r@s@t@3+3+3+! |+|+|+u@                                            ",
"                                                v@w@l@z+x@y@z@A@B@C@|+|+|+D@v+E@E@                                              ",
"                                                v@> F@l@G@H@I@J@B@K@E@E@E@L@u+M@*@                                              ",
"                                                N@O@P@Q@R@S@T@U@V@W@X.X.X.X.X.X.X@                                              ",
"                                                Y@O@& %+ @Q@w@l@Z@`@ #`+.#.#.#.#4                                               ",
"                                                +#O@& 2.2.%+J+@#O.##Q+*@*@*@*@*@*@                                              ",
"                                                +#O@& 2.2.2.2.$#O.##F..#.#4 *@*@%#                                              ",
"                                                &#S.& 2.2.2.2.%+Y.*#F..#.#.#.#4                                                 ",
"                                                  =#& 2.2.2.2.%+g+-#*+j.D@u+W..#                                                ",
"                                                ;#& >#,#2.2.2.J+w@-#n@u+u+u+u+W.                                                ",
"                                                '#>#g+)#2.2.2.>#!#1+`@d@u+u+u+u+~#                                              ",
"                                                {#4+O@@#@#@#@#m@]#^#|+/#t+u+u+~#(#                                              ",
"                                                Y@z+O@@#@#@#@#w@+.t+/#.#.#.#.#.#                                                ",
"                                                _#E@:#O@@#@#@#:@}+u+~#.#.#.#.#4                                                 ",
"                                                  <#3+w+z+z+[@[#}#_ }#*@*@*@*@_                                                 ",
"                                                  <#|+>+>+>+`@|#_ _ _ _ _ _ _                                                   ",
"                                                  1#F.F.-+}#_ _ _ _ `+4 *@=+_                                                   ",
"                                                  2#*+X.X.=@3#_ _ _ `+4 *@=+_                                                   ",
"                                                  2#*+X.X.=@3#_ _ _ _ _ _ _ _                                                   ",
"                                                  2#*+X.X.=@3#_ _ _  +I+4#X@*@                                                  ",
"                                                  5#<+-+F.=@3#_ _ _ [+I+4#1 *@                                                  ",
"                                                    6#*+7#V._ _ _   8#<+U.9#9#                                                  ",
"                                                    0#I+*+=@G+_ _                                                               ",
"                                                  a#L@X..#.#=@*@3#_                                                             ",
"                                                b#c#u+*+s+.#=@*@3#_ d#                                                          ",
"                                                e#f#X.X.s+7#G+_ _ _ g#                                                          "};
