/* XPM */
static char * verde_xpm[] = {
"64 64 626 2",
"  	c #975D36",
". 	c #955D35",
"+ 	c #8B5932",
"@ 	c #84562F",
"# 	c #80532D",
"$ 	c #754C28",
"% 	c #7A4E2A",
"& 	c #7D4F2B",
"* 	c #80512D",
"= 	c #945D37",
"- 	c #865730",
"; 	c #955D36",
"> 	c #9B6039",
", 	c #885530",
"' 	c #925B34",
") 	c #85552F",
"! 	c #7B4E2A",
"~ 	c #7E502C",
"{ 	c #865630",
"] 	c #7C4F2B",
"^ 	c #734B27",
"/ 	c #81532D",
"( 	c #7C4F2A",
"_ 	c #7C4E2A",
": 	c #724B27",
"< 	c #734C28",
"[ 	c #7D512C",
"} 	c #7E502B",
"| 	c #8F5933",
"1 	c #81522D",
"2 	c #7C4E2B",
"3 	c #83542E",
"4 	c #895830",
"5 	c #7A4D2A",
"6 	c #6E4925",
"7 	c #784D29",
"8 	c #744B28",
"9 	c #774D29",
"0 	c #7F502C",
"a 	c #83552E",
"b 	c #8A5731",
"c 	c #754D29",
"d 	c #6D4825",
"e 	c #6B4725",
"f 	c #624322",
"g 	c #5F4122",
"h 	c #5A3F1F",
"i 	c #533C1C",
"j 	c #583E1D",
"k 	c #583D1E",
"l 	c #5A3F1E",
"m 	c #634422",
"n 	c #563E1D",
"o 	c #553E1D",
"p 	c #634323",
"q 	c #6F4927",
"r 	c #644323",
"s 	c #614221",
"t 	c #5B3F1E",
"u 	c #523B1C",
"v 	c #5E4121",
"w 	c #593E1E",
"x 	c #513B1B",
"y 	c #523C1C",
"z 	c #593D1E",
"A 	c #5D3F20",
"B 	c #5A3E1E",
"C 	c #624221",
"D 	c #513C1B",
"E 	c #503B1B",
"F 	c #553D1D",
"G 	c #593F1F",
"H 	c #583E1E",
"I 	c #5F4221",
"J 	c #543C1D",
"K 	c #583D1D",
"L 	c #5C401F",
"M 	c #573D1D",
"N 	c #5B3F1F",
"O 	c #5D4020",
"P 	c #553C1D",
"Q 	c #503A1B",
"R 	c #573D1E",
"S 	c #604122",
"T 	c #5E4021",
"U 	c #604221",
"V 	c #593F1E",
"W 	c #41321C",
"X 	c #44331D",
"Y 	c #40321C",
"Z 	c #43331D",
"` 	c #43341D",
" .	c #45371E",
"..	c #43341E",
"+.	c #3E311C",
"@.	c #42331E",
"#.	c #44351F",
"$.	c #48391F",
"%.	c #42341E",
"&.	c #41331E",
"*.	c #40321D",
"=.	c #45351F",
"-.	c #42331D",
";.	c #46351F",
">.	c #46371D",
",.	c #41331D",
"'.	c #3B301A",
").	c #3E321C",
"!.	c #43351E",
"~.	c #3E311B",
"{.	c #3F311C",
"].	c #44341D",
"^.	c #44361C",
"/.	c #3C311A",
"(.	c #3A301A",
"_.	c #3B311B",
":.	c #3F321D",
"<.	c #44341F",
"[.	c #3F311B",
"}.	c #3F321C",
"|.	c #3F331C",
"1.	c #40331D",
"2.	c #3D311C",
"3.	c #3D301B",
"4.	c #44351D",
"5.	c #47381D",
"6.	c #353A33",
"7.	c #363B33",
"8.	c #353B33",
"9.	c #373C34",
"0.	c #3C4239",
"a.	c #3D4239",
"b.	c #373D35",
"c.	c #3D453A",
"d.	c #3D443A",
"e.	c #3D423A",
"f.	c #3D433A",
"g.	c #3C4139",
"h.	c #373D34",
"i.	c #3B4039",
"j.	c #3E443C",
"k.	c #424940",
"l.	c #3A3E36",
"m.	c #3C4339",
"n.	c #363C34",
"o.	c #3B4139",
"p.	c #383D35",
"q.	c #42493E",
"r.	c #3E443B",
"s.	c #373B34",
"t.	c #3B4239",
"u.	c #0C5308",
"v.	c #0C5708",
"w.	c #0D6309",
"x.	c #0D5E09",
"y.	c #0D5709",
"z.	c #0D650A",
"A.	c #0D6E09",
"B.	c #0D6509",
"C.	c #0D5909",
"D.	c #0D5B09",
"E.	c #0D5D09",
"F.	c #0D6009",
"G.	c #0D6809",
"H.	c #0C5D08",
"I.	c #0C5608",
"J.	c #0D590A",
"K.	c #0E660A",
"L.	c #0F680B",
"M.	c #0D5809",
"N.	c #0D5E0A",
"O.	c #0D5509",
"P.	c #0D660A",
"Q.	c #0F6E0B",
"R.	c #0E670A",
"S.	c #0D5609",
"T.	c #0D6A09",
"U.	c #0D6709",
"V.	c #0D6209",
"W.	c #0D6909",
"X.	c #045800",
"Y.	c #045C00",
"Z.	c #046A00",
"`.	c #046400",
" +	c #046600",
".+	c #046F00",
"++	c #045B00",
"@+	c #045A00",
"#+	c #047300",
"$+	c #046E00",
"%+	c #046700",
"&+	c #046C00",
"*+	c #046200",
"=+	c #047100",
"-+	c #045E00",
";+	c #046D00",
">+	c #046800",
",+	c #047200",
"'+	c #046100",
")+	c #046500",
"!+	c #047500",
"~+	c #045D00",
"{+	c #047400",
"]+	c #045900",
"^+	c #046000",
"/+	c #047600",
"(+	c #047800",
"_+	c #045F00",
":+	c #047700",
"<+	c #046300",
"[+	c #047900",
"}+	c #047000",
"|+	c #046B00",
"1+	c #046900",
"2+	c #047A00",
"3+	c #047B00",
"4+	c #047C00",
"5+	c #1D5705",
"6+	c #1E5805",
"7+	c #205806",
"8+	c #215806",
"9+	c #1E5B05",
"0+	c #1D6805",
"a+	c #1D6205",
"b+	c #1A5A04",
"c+	c #1C6204",
"d+	c #1B6B04",
"e+	c #1D6305",
"f+	c #1B5904",
"g+	c #1C5905",
"h+	c #1B6304",
"i+	c #1D7605",
"j+	c #207906",
"k+	c #247807",
"l+	c #1F6E05",
"m+	c #216606",
"n+	c #206506",
"o+	c #1E6D05",
"p+	c #1F7605",
"q+	c #227806",
"r+	c #1B6E04",
"s+	c #1B5C04",
"t+	c #1E6305",
"u+	c #256C07",
"v+	c #275C08",
"w+	c #235807",
"x+	c #1E5A05",
"y+	c #1F5C05",
"z+	c #1E6405",
"A+	c #1D7505",
"B+	c #1D7705",
"C+	c #1D6E05",
"D+	c #1B6D04",
"E+	c #1C6E05",
"F+	c #1B6F04",
"G+	c #1E7705",
"H+	c #1F7905",
"I+	c #247707",
"J+	c #1F5D05",
"K+	c #1F5A05",
"L+	c #1E6C05",
"M+	c #206A06",
"N+	c #215D06",
"O+	c #1D5B05",
"P+	c #195704",
"Q+	c #1C5704",
"R+	c #644E22",
"S+	c #644F22",
"T+	c #6A5425",
"U+	c #6F5627",
"V+	c #655023",
"W+	c #645122",
"X+	c #655022",
"Y+	c #5C4B1F",
"Z+	c #645022",
"`+	c #605021",
" @	c #5E4C20",
".@	c #614E21",
"+@	c #5C4E1F",
"@@	c #645422",
"#@	c #6C5A26",
"$@	c #765E2A",
"%@	c #675424",
"&@	c #6C5726",
"*@	c #6A5625",
"=@	c #655322",
"-@	c #6A5724",
";@	c #725B28",
">@	c #5F5120",
",@	c #5C4C1F",
"'@	c #655123",
")@	c #785D2B",
"!@	c #805F2F",
"~@	c #6F5428",
"{@	c #775829",
"]@	c #6C5426",
"^@	c #664F23",
"/@	c #634E22",
"(@	c #6D5426",
"_@	c #654F23",
":@	c #5C4F1F",
"<@	c #625022",
"[@	c #685224",
"}@	c #655422",
"|@	c #655323",
"1@	c #5E5020",
"2@	c #5C501F",
"3@	c #655623",
"4@	c #665623",
"5@	c #735D29",
"6@	c #695224",
"7@	c #655122",
"8@	c #645222",
"9@	c #6A5725",
"0@	c #6E5627",
"a@	c #645023",
"b@	c #5A4A1E",
"c@	c #654E22",
"d@	c #614D21",
"e@	c #614222",
"f@	c #563D1D",
"g@	c #5B3E1F",
"h@	c #533B1D",
"i@	c #634223",
"j@	c #563C1E",
"k@	c #5A3D1F",
"l@	c #5F4021",
"m@	c #624222",
"n@	c #513B1C",
"o@	c #714A28",
"p@	c #654423",
"q@	c #5C3F1F",
"r@	c #533B1C",
"s@	c #5F4121",
"t@	c #543C1C",
"u@	c #5A3E1F",
"v@	c #593D1F",
"w@	c #543B1C",
"x@	c #634322",
"y@	c #433218",
"z@	c #403117",
"A@	c #45331A",
"B@	c #3F2F17",
"C@	c #3B2D15",
"D@	c #47341A",
"E@	c #413117",
"F@	c #463319",
"G@	c #463419",
"H@	c #4B3819",
"I@	c #413217",
"J@	c #443218",
"K@	c #403016",
"L@	c #443219",
"M@	c #413018",
"N@	c #3F2E17",
"O@	c #453219",
"P@	c #423117",
"Q@	c #4B391A",
"R@	c #453419",
"S@	c #423118",
"T@	c #3D2E16",
"U@	c #413017",
"V@	c #433118",
"W@	c #453319",
"X@	c #493719",
"Y@	c #3E2F16",
"Z@	c #3F3016",
"`@	c #3F3018",
" #	c #3F3017",
".#	c #443319",
"+#	c #403017",
"@#	c #443517",
"##	c #3A2D14",
"$#	c #3E3016",
"%#	c #423218",
"&#	c #3C2E15",
"*#	c #3E2E16",
"=#	c #47351A",
"-#	c #4C3A1A",
";#	c #5B4020",
">#	c #593E1F",
",#	c #5C3F21",
"'#	c #392913",
")#	c #261A0D",
"!#	c #744A29",
"~#	c #5E4020",
"{#	c #684623",
"]#	c #684624",
"^#	c #6B4724",
"/#	c #644322",
"(#	c #3C2B14",
"_#	c #23180B",
":#	c #6E4627",
"<#	c #674623",
"[#	c #523A1C",
"}#	c #372812",
"|#	c #2A1C0D",
"1#	c #634023",
"2#	c #664523",
"3#	c #5E4120",
"4#	c #553B1C",
"5#	c #382913",
"6#	c #2D1E0F",
"7#	c #6A4425",
"8#	c #563C1D",
"9#	c #624321",
"0#	c #2C1D0F",
"a#	c #6C4525",
"b#	c #362812",
"c#	c #754A29",
"d#	c #6D4925",
"e#	c #714B27",
"f#	c #7A502B",
"g#	c #744C28",
"h#	c #7B512C",
"i#	c #50381B",
"j#	c #3D2B15",
"k#	c #955D38",
"l#	c #794F2B",
"m#	c #784E2A",
"n#	c #8A5831",
"o#	c #81542E",
"p#	c #53391C",
"q#	c #372712",
"r#	c #8E5935",
"s#	c #8A5832",
"t#	c #764E29",
"u#	c #85562F",
"v#	c #875730",
"w#	c #7A4F2B",
"x#	c #4E371A",
"y#	c #3F2A15",
"z#	c #815230",
"A#	c #774E2A",
"B#	c #6F4A26",
"C#	c #84552F",
"D#	c #724A27",
"E#	c #724927",
"F#	c #4F371A",
"G#	c #422E17",
"H#	c #8B5733",
"I#	c #84542F",
"J#	c #794E2A",
"K#	c #704A27",
"L#	c #7F522D",
"M#	c #51391B",
"N#	c #422D17",
"O#	c #8C5834",
"P#	c #895831",
"Q#	c #6E4926",
"R#	c #6F4926",
"S#	c #774C29",
"T#	c #6C4825",
"U#	c #4D3619",
"V#	c #985E38",
"W#	c #774E29",
"X#	c #81542D",
"Y#	c #83562E",
"Z#	c #443017",
"`#	c #9C613B",
" $	c #7B502B",
".$	c #8A5932",
"+$	c #7E512C",
"@$	c #8C5A32",
"#$	c #905C34",
"$$	c #885731",
"%$	c #3D2C14",
"&$	c #955E38",
"*$	c #7C512B",
"=$	c #794F2A",
"-$	c #784F2A",
";$	c #8D5A33",
">$	c #80512C",
",$	c #452F17",
"'$	c #875633",
")$	c #8B5831",
"!$	c #794D2A",
"~$	c #493319",
"{$	c #905A36",
"]$	c #7B4F2B",
"^$	c #764D29",
"/$	c #925B36",
"($	c #8A5931",
"_$	c #81522C",
":$	c #7F512C",
"<$	c #533A1C",
"[$	c #433016",
"}$	c #9F623B",
"|$	c #895630",
"1$	c #8C5932",
"2$	c #80542D",
"3$	c #433017",
"4$	c #9B603B",
"5$	c #875731",
"6$	c #8C5A33",
"7$	c #764B28",
"8$	c #563B1C",
"9$	c #81512D",
"0$	c #915B36",
"a$	c #885830",
"b$	c #764C28",
"c$	c #885730",
"d$	c #9F623C",
"e$	c #8E5B33",
"f$	c #764B29",
"g$	c #80522C",
"h$	c #83532E",
"i$	c #9F633D",
"j$	c #935D35",
"k$	c #8D5A32",
"l$	c #83522D",
"m$	c #8F5C34",
"n$	c #82522D",
"o$	c #82542D",
"p$	c #905A35",
"q$	c #87562F",
"r$	c #8F5B33",
"s$	c #945E35",
"t$	c #82512D",
"u$	c #8F5B34",
"v$	c #86572F",
"w$	c #87572F",
"x$	c #945D35",
"y$	c #7C502B",
"z$	c #8B5A32",
"A$	c #7A4F2A",
"B$	c #86562F",
"C$	c #85572F",
"D$	c #7F512D",
"E$	c #563C1C",
"F$	c #885831",
"G$	c #82532D",
"H$	c #7B512A",
"I$	c #784E29",
"J$	c #925D35",
"K$	c #7A502A",
"L$	c #7B512B",
"M$	c #7C522B",
"N$	c #83512D",
"O$	c #85542F",
"P$	c #925C34",
"Q$	c #915C34",
"R$	c #81532E",
"S$	c #8E5A32",
"T$	c #573C1D",
"U$	c #82542E",
"V$	c #875830",
"W$	c #84532E",
"X$	c #905B34",
"Y$	c #81552E",
"Z$	c #764D28",
"`$	c #8D5B33",
" %	c #84562E",
".%	c #925C37",
"+%	c #8C5931",
"@%	c #9F633C",
"#%	c #996039",
"$%	c #7C502C",
"%%	c #7F532D",
"&%	c #453017",
"*%	c #935D37",
"=%	c #82532E",
"-%	c #4A3219",
";%	c #885632",
">%	c #51371C",
",%	c #935C36",
"'%	c #50361C",
")%	c #7C512C",
"!%	c #734B28",
"~%	c #4A3419",
"{%	c #9D623B",
"]%	c #704927",
"^%	c #764D2A",
"/%	c #724C28",
"(%	c #79502A",
"_%	c #784D2A",
":%	c #714A26",
"<%	c #6F4826",
"[%	c #895731",
"}%	c #7B4E2B",
"|%	c #794D29",
"1%	c #875630",
"2%	c #875530",
"3%	c #82552E",
"4%	c #7D512B",
"5%	c #79502B",
"6%	c #83552F",
"7%	c #8E5933",
"8%	c #955E37",
"9%	c #86552F",
"0%	c #8E5832",
"a%	c #784C29",
"b%	c #754B28",
"c%	c #794E2B",
"d%	c #7E502D",
"e%	c #7D522B",
"f%	c #513C1C",
"g%	c #533C1D",
"h%	c #604222",
"i%	c #5C3F20",
"j%	c #5C4020",
"k%	c #6C4725",
"l%	c #543D1C",
"m%	c #644423",
"n%	c #573F1E",
"o%	c #5B401F",
"p%	c #433219",
"q%	c #453618",
"r%	c #3C2F15",
"s%	c #3A2D15",
"t%	c #3D2F16",
"u%	c #413118",
"v%	c #403118",
"w%	c #3E3017",
"x%	c #493819",
"y%	c #3D3016",
"z%	c #3D2F15",
"A%	c #473618",
"B%	c #413116",
"C%	c #433318",
"D%	c #463618",
"E%	c #483719",
"F%	c #403018",
"G%	c #473619",
"H%	c #3A2E15",
"I%	c #423119",
"  . + @ # $ % & # * = - @ ; > , ' ) & ! ! ~ { ] ^ % / ( _ _ ! $ % : < [ } | 1 # 2 ] 3 4 & ! 5 6 7 $ ! 8 9 : ! ) | 0 { a ] * b c ",
"d e f g h i j k l h m n o p q r e s t k u k v w x y w k k z A B C k D D E F k G H i h I J K L M C N O u P Q R L S i w h k T U V ",
"W X Y Z `  ...+.@.#.$.%.&.*.=.-.;.=.>.,.'.).!.#.,.&.%.~.Y ~.-.{.].` ^./.(._.+.,.%.:.%.<.*.[.%.}.=.=.$.|.1.2.%.....&.}.*.3.-.4.5.",
"6.7.8.7.9.0.a.b.0.c.d.e.e.e.e.f.f.g.h.7.7.i.j.k.l.g.m.n.7.8.7.8.7.7.7.8.n.m.o.p.f.q.r.g.s.9.g.f.f.d.f.f.e.e.f.0.p.a.t.9.8.7.7.7.",
"u.u.u.u.v.w.x.y.z.A.B.C.D.E.F.G.G.F.H.I.u.J.K.L.M.N.B.O.u.u.u.u.u.u.u.u.O.B.N.M.P.Q.R.S.O.v.x.G.T.U.x.V.x.x.W.z.M.x.w.v.u.u.u.u.",
"X.X.X.X.Y.Z.`.Y. +.+ +++@+++ +#+$+%+&+`.@+*+.+=+-+`.;+++X.X.X.X.X.X.X.X.++;+`.Y.>+,+;+++'+)+%+$+!+;+Y.Y.++~+{+;+~+`.Z.Y.X.X.X.X.",
"X.X.X.X.Y.Z.`.++`.;+`.++X.]+`.&+ +%+{+.+++^+/+(+_+`.;+++X.X.X.X.X.X.X.X.++;+`.~+.+:+$+Y.%+{+.+ +&+ +@+X.X.Y.$+&+~+`.Z.Y.X.X.X.X.",
"X.X.X.X.Y.Z.`.++`.;+%+<+++@+)+&+`.`..+!+`.>+(+[+_+`.;+++X.X.X.X.X.X.X.X.++;+`.~+}+(+.+-+;+/+$+~+)+&+`.++~+`..+&+~+`.Z.Y.X.X.X.X.",
"X.X.X.X.Y.Z.`.++`.$+$+|+)+`.|+1+Y.Y.)+;+>+.+2+[+_+`.;+++X.X.X.X.X.X.X.X.++;+`.~+}+[+,+ +;+$+`.@+*+&+;+%+|+$+}+&+~+`.Z.Y.X.X.X.X.",
"X.X.X.X.Y.Z.`.++`..+.+>+|+|+`.Y.X.X.++`.;+=+2+[+_+`.;+++X.X.X.X.X.X.X.X.++;+`.~+}+2+(+$+)+*+++X.++`.;+&+;+.+=+&+~+`.Z.Y.X.X.X.X.",
"X.X.X.X.Y.Z.`.++ +/+.+~+@+++]+X.X.X.X.@+<+1+(+[+_+`.;+++X.X.X.X.X.X.X.X.++;+`.~+}+(+=+`.++]+X.X.X.]+@+@+~+ +:+$+~+`.Z.Y.X.X.X.X.",
"X.X.X.X.Y.Z.`.++%+/+;+-+~+<+~+@+X.X.X.X.++)+#+:+_+`.;+++X.X.X.X.X.X.X.X.++;+`.~+}+(+.+Y.X.X.X.X.X.@+@+@+Y.)+/+.+~+`.Z.Y.X.X.X.X.",
"X.X.X.X.Y.Z.`.~+|+,+1+ +Z.&+|+`.@+X.X.X.]+ +!+=+-+`.;+++X.X.X.X.X.X.X.X.++;+`.~+}+(+$+@+X.X.X.@+~+<+`.`.`. +=+,+-+`.Z.Y.X.X.X.X.",
"X.X.X.X.Y.Z.`.~+$+(+=+$+ +)+;+;+`.@+X.X.]+ +/+}+~+`.;+++X.X.X.X.X.X.X.X.++;+`.~+}+(+$+@+X.X.@+`.;+.+.+.+;+>+.+;+~+`.Z.Y.X.X.X.X.",
"X.X.X.X.Y.Z.`.~+.+[+:+&+~+@+-+|+;+Y.X.X.~+>+!+}+~+`.;+++X.X.X.X.X.X.X.X.++;+`.~+$+:+}+-+X.X.Y.;+$+ +`. +$+/+2+{+_+`.Z.Y.X.X.X.X.",
"X.X.X.X.Y.Z.`._+#+!+}+`.@+X.@+`.}+)+Y.-+|+}+#+.+~+`.;+++X.X.X.X.X.X.X.X.++;+`.Y.>+#+:+$+-+Y.<+}+|+~+@+Y.`.}+3+:+_+`.Z.Y.X.X.X.X.",
"X.X.X.X.Y.Z.`._+/+[+ +++X.X.X._+/+.+>+;+=+[+[+}+~+`.;+++X.X.X.X.X.X.X.X.++;+`.~+.+[+4+[+.+ +>+:+%+@+X.X.++)+3+4+'+`.Z.Y.X.X.X.X.",
"X.X.X.X.Y.Z.`._+!+(+)+@+X.X.X.Y..+}+.+}+$+=+:+}+~+`.;+++X.X.X.X.X.X.X.X.++;+`.~+$+[+[+}+!+}+}+(+ +@+X.X.]+-+:+:+_+`.Z.Y.X.X.X.X.",
"X.X.X.X.Y.Z.`.~+$+}+`.++@+@+@+_+$+}+$+Z._+%+=+.+~+`.;+++X.X.X.X.X.X.X.X.++;+`.Y. +,+.+_+ +;+=+:+%+Y.@+@+@+*+,+{+_+`.Z.Y.X.X.X.X.",
"X.X.X.X.Y.Z.`.~+|+$+`.~+'+`.)+&+}+}+ +Y.]+)+{+$+~+`.;+++X.X.X.X.X.X.X.X.++;+`.Y.)+{+$+Y.++`..+#+$+ +`.*+~+`.}+,+_+`.Z.Y.X.X.X.X.",
"X.X.X.X.Y.Z.`.++)+;+ +`. +$+.+}+=+:+%+@+@+)+;+ +Y.`.;+++X.X.X.X.X.X.X.X.++;+`.Y.`..+$+<+@+~+}+[+,+.+.+;+)+)+.+;+~+`.Z.Y.X.X.X.X.",
"X.X.X.X.Y.Z.`.Y. +=+}+&+ +&+$+=+#+[+;+-+`.;+}+ +Y.`.;+++X.X.X.X.X.X.X.X.++;+`.Y.`.}+}+ +Y.^+/+3+{+}+$+;+>+%+}+&+~+`.Z.Y.X.X.X.X.",
"X.X.X.X.Y.Z.`.~+$+[+:+|+~+~+>+/+[+2+}+%+;+,+:+$+~+`.;+++X.X.X.X.X.X.X.X.++;+`.Y.)+!+(+$+`.>+[+4+[+}+)+)+Z..+:+.+~+`.Z.Y.X.X.X.X.",
"X.X.X.X.Y.Z.`._+!+2+.+-+X.]+%+/+#+(+=+.+.+,+(+}+~+`.;+++X.X.X.X.X.X.X.X.++;+`.Y.`.=+(+.+%+.+2+3+2+$+++]+-+.+2+!+_+`.Z.Y.X.X.X.X.",
"X.X.X.X.Y.Z.`._+!+[+%+++@+++;+:+,+.+ +`.)+;+,+.+~+`.;+++X.X.X.X.X.X.X.X.++;+`.Y.`.}+!+%+`.|+.+{+(+}+`.++++%+[+/+_+`.Z.Y.X.X.X.X.",
"X.X.X.X.Y.Z.`.~+.+(+)+Y.^+<+&+,+:+1+~+@+++>+!+=+-+`.;+++X.X.X.X.X.X.X.X.++;+`.Y. +=+=+<+++~+*+:+(+}+;+*+++`.[+/+_+`.Z.Y.X.X.X.X.",
"X.X.X.X.Y.Z.`.~+$+:+ +-+<+`.`.>+:+$+~+]+@+%+(+(+_+`.;+++X.X.X.X.X.X.X.X.++;+`.~+$+[+/+_+X.++ +:+}+>+$+)+Y.-+(+!+_+`.Z.Y.X.X.X.X.",
"X.X.X.X.Y.Z.`.~+&+=+$+>+|+`.++~+$+$+ +`. +=+2+(+_+`.;+++X.X.X.X.X.X.X.X.++;+`.~+$+2+2+.+_+`.$+}+`.~+ +|+ +%+(+.+~+`.Z.Y.X.X.X.X.",
"X.X.X.X.Y.Z.`.~+&+}+}+$+&+*+@+@+`.;+$+.+!+(+(+=+-+`.;+++X.X.X.X.X.X.X.X.++;+`.Y.%+:+2+[+}+$+.+|+Y.@+*+&+.+=+(+;+~+`.Z.Y.X.X.X.X.",
"X.X.X.X.Y.Z.`.~+|+}+}+;+`.@+X.X.++`.|+$+}+=+=+;+~+`.;+++X.X.X.X.X.X.X.X.++;+`.Y.`..+#+(+/+}+|+~+X.X.@+`..+:+,+&+~+`.Z.Y.X.X.X.X.",
"X.X.X.X.Y.Z.`.++)+.+$+`.@+X.X.X.]+@+~+`. +$+.+ +Y.`.;+++X.X.X.X.X.X.X.X.++;+`.Y.`.$+.+%+ +`.Y.]+X.X.X.@+`..+}+&+~+`.Z.Y.X.X.X.X.",
"X.X.X.X.Y.Z.`.~+|+}+ +Y.X.X.X.Y.<+`.)+ +`.1+!+;+~+`.;+++X.X.X.X.X.X.X.X.++;+`.Y. +,+!+ + + +)+<+Y.X.X.X.Y. +=+;+~+`.Z.Y.X.X.X.X.",
"X.X.X.X.Y.Z.`.~+;+/+%+@+X.X.@+`.;+&+&+|+%+Z.!+}+~+`.;+++X.X.X.X.X.X.X.X.++;+`.~+|+:+(+1+|+&+&+;+`.++X.X.@+)+(+{+_+`.Z.Y.X.X.X.X.",
"X.X.X.X.Y.Z.`.~+$+[+$+~+X.X.Y.|+$+)+`.)+;+.+=+.+~+`.;+++X.X.X.X.X.X.X.X.++;+`.Y.)+=+(+.+ +`.)+$+;+<+]+X.@+)+[+/+_+`.Z.Y.X.X.X.X.",
"X.X.X.X.Y.Z.`.~+$+[+}+<+++X.~+1+`.++]+++`.;+}+.+~+`.;+++X.X.X.X.X.X.X.X.++;+`.Y.`.}+/+$+<+++++`.|+`.]+X.Y.%+2+/+_+`.Z.Y.X.X.X.X.",
"X.X.X.X.Y.Z.`.~+&+:+}+ +'+++'+`.Y.X.X.X.++ +.+=+-+`.;+++X.X.X.X.X.X.X.X.++;+`.Y. +}+}+`.++X.X.++`.`.++++<+$+2+{+_+`.Z.Y.X.X.X.X.",
"X.X.X.X.Y.Z.`.++)+}+.+)+<+`. +1+@+X.X.X.]+`.}+:+_+`.;+++X.X.X.X.X.X.X.X.++;+`.~+;+:+$+Y.X.X.X.]+`.&+`.<+)+.+[+.+~+`.Z.Y.X.X.X.X.",
"X.X.X.X.Y.Z.`.++`.$+$+_+<+$+.+&+Y.]+]+]+]+<+$+}+~+`.;+++X.X.X.X.X.X.X.X.++;+`.Y. +/+$+@+X.]+]+@+`.$+$+)+<+%+(+$+~+`.Z.Y.X.X.X.X.",
"X.X.X.X.Y.Z.`.++`.$+&+Y.~+;+=+$+)+`.`.<+++^+.+.+~+`.;+++X.X.X.X.X.X.X.X.++;+`.Y.`.}+;+Y.++*+`.`.>+}+.+<+~+)+/+;+~+`.Z.Y.X.X.X.X.",
"X.X.X.X.Y.Z.`.++`.;+)+@+@+%+/+#+}+$+&+|+)+1+!+}+~+`.;+++X.X.X.X.X.X.X.X.++;+`.Y.`.}+}+ + +&+$+$+,+:+=+~+@+`.}+&+~+`.Z.Y.X.X.X.X.",
"5+6+7+8+9+0+a+b+c+d+e+f+g+h+i+j+k+l+m+n+o+p+q+r+s+t+u+v+8+w+7+6+5+5+6+7+x+d+e+y+z+A+B+C+D+E+r+F+G+H+I+J+K+t+L+M+N+t+0+O+P+Q+Q+5+",
"R+S+T+U+V+W+X+Y+Z+`+Z+ @.@+@@@#@$@%@&@*@=@-@;@>@,@'@)@!@~@{@]@^@R+/@^@(@_@:@<@[@'@}@}@|@`+=@1@2@3@4@5@[@6@7@8@9@0@a@W+R+b@c@d@_@",
"z P N e@f@z A w C g@O h@f@Q k A i@j@h N k@l@m@w n@P r o@p@e e@q@k r@w s@B n@t@u@z v@k@A B C w D r@u R w N z w@N g J z A M x@q@s@",
"y@z@y@A@B@C@D@E@F@G@H@I@J@K@L@M@N@O@P@y@E@J@G@Q@R@S@T@U@V@F@W@X@G@Y@Z@y@y@`@B@O@ #y@P@.#+#W@G@@###Y@Z@Z@y@y@$#y@.#%#&#*#V@F@=#-#",
"M ;#>#,#'#)#!#~#m L {#~#]#^#/#(#_#:#e L <#l l ^#s@[#}#|#1#O M L 2#3#k M 4#5#6#7#N s@2#B 8#h 9#(#0#a#^#w f@M k k M w@b#)#c#s ]#d#",
"e#f#g#h#i#j#k#l## c @ m#{ n#o#p#q#r#s#t#u#< < v#w#e x#y#z#A#B#% C#! $ D#E#F#G#H#% ] I#J#K#g#L#M#N#O#P#: Q#R#S#7 D#T#U#(#V#1 { 4 ",
"W#X#w#Y#8#Z#`#L#{  $.$+$@$#$$$w %$&$#$*$+ =$-$;$>$D#w@,$'$[ $ 1 )$* 9 9 !$P ~${$]$1 n#* ^$w#u#K ~$/$($W#g#9 _$) :$g#<$[$}$|$1$($",
"^$2$w#a 8#3$4$L#{  $.$+$+ #$5$w %$&$#$*$+ =$-$6$]$7$8$,$'$[ $ 1 )$* 9 & ! P ~${$=$9$b * ^$w#u#M ~$0$a$W#b$0 c$@$c$& 4#[$d$e$;$a$",
"^$2$w#a 8#3$4$L#{  $.$[ v##$5$w %$&$#$*$+ =$-$6$w#f$8$,$'$[ $ 1 )$* 9 0 g$f@~${$=$9$b * ^$w#u#M ~${$h$^$^$1 ;$#$;$:$4#[$i$j$k$l$",
"^$2$w#a 8#3$4$L#{  $.$*$u#m$5$w %$&$#$*$+ =$-$6$w#f$8$,$'$[ $ n$)$0 9 >$o$f@~${$=$>$n#1 ^$w#u#M ~$p$9$^$W#q$m$#$r$u#8#[$i$s$k$t$",
"^$2$w#a 8#3$4$L#{  $.$ $1 u$5$w %$&$#$*$+ =$-$6$w#f$8$,$'$[ ^$v$($W#^$9$v#M ~${$-$=$n#w$t#l#u#M ~$r#J#g#=$;$#$#$#$+ k [$i$x$k$t$",
"^$2$w#a 8#3$4$L#{  $.$y$>$u$5$w %$&$#$*$+ =$m#z$A$7$8$,$'$[ ^$v$B$^$^$n$v#M ~${$-$A#C$c$W#l#u#M ~$r#m#^$D$e$#$#$#$@$k [$i$x$1$>$",
"^$2$w#a 8#3$4$L#{  $z$>$ $r$5$w %$&$#$*$+ =$W#v#=$9 E$,$'$[ ^$P#u#^$W#B$F$M ~${$-$W#u#1$m#l#u#M ~$r#m#^$G$r$#$#$#$@$k [$i$j$v#m#",
"^$2$w#a 8#3$4$L#{  $z$9$w#e$5$w %$&$#$*$+ =$W#v$f#H$M ,$'$[ ^$P#n$$ I$v#F$M ~${$=$^$1 @$m#l#u#M ~$r#m#W#B$u$#$#$#$@$k [$i$J$v$^$",
"^$2$w#a 8#3$4$L#{  $z$9$w#e$5$w %$&$#$*$+ =$W#u#K$L$M ,$'$[ ^$F$1 ^$:$@$P#M ~$0$9$7 _$@$m#l#u#M ~$r#m#W#w$m$#$r$#$@$k [$i$J$u#^$",
"^$2$w#a 8#3$4$L#{  $z$9$w#e$5$w %$&$#$*$+ =$^$>$A$M$M ,$'$[ ^$F$1 ^$9$;$P#M ~$/$N$7 _$@$m#l#u#M ~$r#m#A$+ m$1$O$1$1$k [$i$P$G$^$",
"^$2$w#a 8#3$4$L#{  $z$9$w#;$5$w %$&$#$*$+ =$c & w## K ,$'$[ ^$F$1 ^$9$;$P#M ~$/$N$7 _$@$m#l#u#M ~$r#J#>$k$r$G$% l$n#k [$i$Q$1 c ",
"W#X#w#a 8#3$4$L#{  $z$1 =$a$- w %$&$#$*$+ =$g#$ A$R$K ,$'$[ ^$F$1 ^$9$;$P#M ~$/$N$7 _$@$m#l#u#M ~$r#J#9$k$S$>$7 ~ a T$[$i$P$1 c ",
"0 U$w#a 8#3$4$L#{  $@$u#K$V$u#z %$&$#$*$+ =$g#$ >$U$K ,$'$[ ^$$$>$b$n$;$F$M ~$/$W$7 :$@$m#l#u#M ~$r#J#n$)$h$& b$9 & 4#[$i$X$:$$ ",
"9$3 w#a 8#3$4$L#{  $@$v$K$B$Y$M %$&$#$*$+ =$g#$ 9$3 K ,$'$[ ^$v#A$Z$u#`$ %f@~$.%c$W#w#+ m#l#u#M ~$r#=$B$+%9$9 g#^$% 4#[$@%+ =$g#",
"9$3 w#a w ~$#%L#{ $%;$v$A$>$%%q@&%*%u$*$P#=$g#b$>$=%N -%;%L#W#v#w#W#v$e$a L >%,%4 m#=$($=$]$u#~#'%r#)%P#1$l$9 $ $ !%T$~%{%P#I$Z$",
"% ! J#A$R#]%^%/%*$]$)$:$[ % J#(%w#~ ] _%:%9 !%7 ^ 9 T#<%3 [%}%C#%%|%0 |$A$1%2%s#3%*$g#! % 4%:$$$5%6%7%8%9%0%/ % a%S#b%c%d%g#9 e%",
"k w w O h 9#H D f%n@f@H h w g%N h%J k i%R C N 3#y P x H j%U J h h w T e@L ^#k%f s@h l%H w h N m%n%f@p q r e e@o%k u w s@>#n@r@h ",
"&#+#Y@S@$#p%y@q%r%##s%t%u%S@t%u%p%v%w%S@Y@L@.#x%y% #&#u%p%p%u%t%+#z%S@W@A%B%y@ #p%C%D%%#t%u%p%E%%#F%Y@L@U@O@W@G%y@H%t%S@I%u%u%S@"};
