/* XPM */
static char * IMAGEM_xpm[] = {
"32 32 302 2",
"  	c #694136",
". 	c #6A4136",
"+ 	c #6A4236",
"@ 	c #633E36",
"# 	c #684136",
"$ 	c #623E36",
"% 	c #694236",
"& 	c #623F36",
"* 	c #784937",
"= 	c #784837",
"- 	c #764736",
"; 	c #774837",
"> 	c #794937",
", 	c #5E3930",
"' 	c #5D3830",
") 	c #5C3730",
"! 	c #593534",
"~ 	c #593533",
"{ 	c #5D3735",
"] 	c #513132",
"^ 	c #523232",
"/ 	c #513232",
"( 	c #5E3735",
"_ 	c #3C2525",
": 	c #573433",
"< 	c #563333",
"[ 	c #5B3634",
"} 	c #553333",
"| 	c #3D2626",
"1 	c #563433",
"2 	c #533232",
"3 	c #4F3031",
"4 	c #5D3634",
"5 	c #5A3534",
"6 	c #5C3634",
"7 	c #402726",
"8 	c #5B3534",
"9 	c #513131",
"0 	c #4E3031",
"a 	c #3C2625",
"b 	c #5D3635",
"c 	c #4A2E30",
"d 	c #503132",
"e 	c #392421",
"f 	c #3A2422",
"g 	c #412823",
"h 	c #452A24",
"i 	c #322121",
"j 	c #3B2522",
"k 	c #3D2623",
"l 	c #462B24",
"m 	c #4D2E25",
"n 	c #4E2F26",
"o 	c #4E2E26",
"p 	c #332121",
"q 	c #402823",
"r 	c #492C25",
"s 	c #4D2E26",
"t 	c #3C2522",
"u 	c #3E2723",
"v 	c #4A2C25",
"w 	c #503026",
"x 	c #513026",
"y 	c #392422",
"z 	c #764737",
"A 	c #6F4234",
"B 	c #452B26",
"C 	c #784938",
"D 	c #774838",
"E 	c #462B26",
"F 	c #754737",
"G 	c #744736",
"H 	c #764837",
"I 	c #4C2E28",
"J 	c #774938",
"K 	c #4B2D28",
"L 	c #593433",
"M 	c #583534",
"N 	c #573434",
"O 	c #583433",
"P 	c #3F2727",
"Q 	c #5A3533",
"R 	c #3D2625",
"S 	c #543333",
"T 	c #422828",
"U 	c #4D3031",
"V 	c #543232",
"W 	c #5D3734",
"X 	c #523231",
"Y 	c #553332",
"Z 	c #382324",
"` 	c #392324",
" .	c #392424",
"..	c #342121",
"+.	c #3F2724",
"@.	c #3C2524",
"#.	c #3B2524",
"$.	c #3A2424",
"%.	c #392423",
"&.	c #382323",
"*.	c #312021",
"=.	c #382424",
"-.	c #372323",
";.	c #372324",
">.	c #362323",
",.	c #302020",
"'.	c #3A2524",
").	c #3A2423",
"!.	c #332122",
"~.	c #342222",
"{.	c #764636",
"].	c #744636",
"^.	c #754636",
"/.	c #452B25",
"(.	c #774736",
"_.	c #774836",
":.	c #774737",
"<.	c #5E3734",
"[.	c #593434",
"}.	c #3B2525",
"|.	c #573333",
"1.	c #543332",
"2.	c #3F2626",
"3.	c #392425",
"4.	c #3E2626",
"5.	c #3F2726",
"6.	c #382425",
"7.	c #392525",
"8.	c #794936",
"9.	c #6F4333",
"0.	c #492D27",
"a.	c #482C26",
"b.	c #5B3533",
"c.	c #3A2425",
"d.	c #583434",
"e.	c #4F3030",
"f.	c #523132",
"g.	c #3A2525",
"h.	c #342122",
"i.	c #352324",
"j.	c #372424",
"k.	c #7F4C37",
"l.	c #804C37",
"m.	c #814D37",
"n.	c #804D37",
"o.	c #7F4C36",
"p.	c #7F4D37",
"q.	c #7E4C37",
"r.	c #734634",
"s.	c #4D2F27",
"t.	c #804E38",
"u.	c #804E37",
"v.	c #7D4B37",
"w.	c #7C4B37",
"x.	c #7C4A37",
"y.	c #462B25",
"z.	c #794836",
"A.	c #7A4936",
"B.	c #7D4B36",
"C.	c #7E4D37",
"D.	c #492D26",
"E.	c #784836",
"F.	c #5C3635",
"G.	c #5A3634",
"H.	c #503131",
"I.	c #553232",
"J.	c #3C2526",
"K.	c #764734",
"L.	c #4E2F27",
"M.	c #814E38",
"N.	c #804D38",
"O.	c #7E4C36",
"P.	c #804C36",
"Q.	c #7F4D38",
"R.	c #4E2F28",
"S.	c #583533",
"T.	c #402727",
"U.	c #342021",
"V.	c #362122",
"W.	c #362121",
"X.	c #2C1C1D",
"Y.	c #372121",
"Z.	c #311F20",
"`.	c #352021",
" +	c #331F21",
".+	c #372122",
"++	c #332021",
"@+	c #2D1C1D",
"#+	c #3F3130",
"$+	c #3E302F",
"%+	c #7B642E",
"&+	c #FDCF0D",
"*+	c #FDCF0C",
"=+	c #F4C90F",
"-+	c #8F7528",
";+	c #3E3130",
">+	c #3E3030",
",+	c #53432F",
"'+	c #C29D24",
")+	c #FCCC0D",
"!+	c #FDCB0D",
"~+	c #F8C80E",
"{+	c #BB9821",
"]+	c #41312F",
"^+	c #A68229",
"/+	c #FCCD0D",
"(+	c #FCCC0C",
"_+	c #FCCB0D",
":+	c #D3AD1B",
"<+	c #3E312F",
"[+	c #7A5C2E",
"}+	c #FCCD0C",
"|+	c #EBC012",
"1+	c #7B632B",
"2+	c #261A1B",
"3+	c #866617",
"4+	c #E8AB09",
"5+	c #F5B505",
"6+	c #ECAE07",
"7+	c #9D7415",
"8+	c #27191B",
"9+	c #26191B",
"0+	c #52421A",
"a+	c #BA8F12",
"b+	c #F5B405",
"c+	c #F5B404",
"d+	c #F4B405",
"e+	c #B28213",
"f+	c #9D7416",
"g+	c #CF980E",
"h+	c #271A1B",
"i+	c #846117",
"j+	c #E8AB08",
"k+	c #F5B504",
"l+	c #D99F0D",
"m+	c #63461A",
"n+	c #866417",
"o+	c #E3A70A",
"p+	c #E7AA0A",
"q+	c #856118",
"r+	c #CF9B0E",
"s+	c #B98A12",
"t+	c #B38713",
"u+	c #F0B006",
"v+	c #C9940F",
"w+	c #543D1A",
"x+	c #855F18",
"y+	c #D99F0C",
"z+	c #6F5019",
"A+	c #E8AA08",
"B+	c #70501A",
"C+	c #C99410",
"D+	c #B88812",
"E+	c #382B1A",
"F+	c #B28613",
"G+	c #F1B106",
"H+	c #CF9D0E",
"I+	c #54411A",
"J+	c #705119",
"K+	c #E9AB08",
"L+	c #E2A60A",
"M+	c #634819",
"N+	c #58431A",
"O+	c #D09B0E",
"P+	c #EDAE08",
"Q+	c #9A6F17",
"R+	c #44341A",
"S+	c #BA8E12",
"T+	c #C79411",
"U+	c #997D15",
"V+	c #E3A90A",
"W+	c #624519",
"X+	c #E2A60B",
"Y+	c #E4A80A",
"Z+	c #846017",
"`+	c #553E1A",
" @	c #C9930F",
".@	c #ECAD08",
"+@	c #9E7316",
"@@	c #B78712",
"#@	c #CE9C0F",
"$@	c #957316",
"%@	c #F4B705",
"&@	c #DAA10C",
"*@	c #665419",
"=@	c #866317",
"-@	c #DBA10E",
";@	c #846018",
">@	c #A85F15",
",@	c #D68A0E",
"'@	c #D58A0E",
")@	c #D58A0D",
"!@	c #976D16",
"~@	c #894717",
"{@	c #B57E13",
"]@	c #57441A",
"^@	c #793F19",
"/@	c #CB840F",
"(@	c #D68B0D",
"_@	c #C48311",
":@	c #6F3919",
"<@	c #C07A12",
"    . . +         @ #   . . .       $   % + +   . . . & + + + . ",
"* = = = - ; * > > , * = = = = = = = ' > > = = = = = ; ) ; * * = ",
"! ~ { { ] ] ^ / ( _ : ! { { ( < [ } | ( { { 1 { ( { { _ ! ~ ( { ",
"[ 2 3 4 5 5 2 : 6 7 8 9 0 ^ 4 8 6 5 a 4 b ] c 2 } d ] _ 8 [ b b ",
"e f g h i j j k l m n n o p f f j j q r s n i t j k u v w x w y ",
"; ; z A B C C D D ; z z z E F G F H ; ; ; ; I ; J ; ; ; z z z K ",
"{ { < 4 _ ! [ { { ! L { { | M ] N ^ { { O 6 P [ ! { { { { { { | ",
"4 4 Q 4 | 8 6 9 ^ 8 8 4 4 R 6 S O S S < 8 6 T U V W 4 Q X Y 5 | ",
"Z `  .Z ..+.+.@.#.$.@.%.&.*.=.-.-.-.;.>.Z Z ,.'.).@.$.-.!.~.-.*.",
"- - {.- - ].].^.^./.(.- _.:.:.:.; :.B ; ; ; :.- - - - B z - - {.",
"5 Q ! 1 6 V : O <._ 5 5 O { { { 5 6 | [ [ { { { { { : a ~ 5 { { ",
"8 8 3 : [ 5 6 [.4 }.[ 8 |.9 < 4 5 6 _ 8 5 Y ^ 1.b b 0 R 8 8 b b ",
"2.2.3.4.2.5.2.4.4.~.4.4.4.6.}.2.2.4.~.4.2.7.6.3.2.2.3.p 4.2.4.5.",
"(.8.> 9.0.= = ; ; - - F F E - ^.^.^.; z z F a.^.- {.^.{.{.{.{.K ",
"{ { 1 b.a 5 1 : { { { { { | [ ~ { { { ( { { c.5 Q { { W { { { 4.",
"b d.Y 4 _ ! < < 8 9 < b b R Y ^ < : V b Y e.R 5 < ^ 5 f.< 1 [ | ",
"_ g._ a p a a a }.;.3._ _ h.g.3.3.7.=.a =.i.p a }.j._ ;.g.g._ ~.",
"k.l.m.n.o.n.p.q.r.s.p.t.u.n.k.v.w.x.y.z.A.B.B.v.C.C.w.D.p.q.v.E.",
"( { ! ! { F.6 { ~ R G.[ { { [ [ { ( ;.H.5 { { { { ~ [ R 5 5 { { ",
"{ M |.|.b Y Y 2 Q P 5 8 V { : < { b  .I.5 < 1.~ : [.[ | 5 5 4 b ",
"| g.J.R | }.g.6.R >.R | =.| }.g.R R !.| | 6.j.}.g.| R ~.R R R | ",
"k.k.q.K.L.t.M.t.N.O.q.n.k.D.n.n.k.l.P.l.k.k.L.Q.N.p.k.k.q.k.q.R.",
"{ W O 6 a { { O 6 S 1.[ { | [ 5 ~ 6 { S.} } T.{ O M { : W ~ Y }.",
"L L O 4 _ b V V 8 ] O 5 4 R 8 5 ! 6 b 3 3 Y 7 4 8 8 4 |.O 2 V }.",
"U.U.V.W.X.Y.Z.`.V. +V.W.V.X..+V.W.W.W.Z.++W.@+V.W.V.W.W.U.U.W.X.",
"#+$+%+&+*+=+-+;+>+,+'+)+!+~+{+;+$+]+^+/+(+_+:+<+$+$+[+}+/+_+|+1+",
"2+3+4+5+6+7+8+9+0+a+b+c+d+e+2+9+9+f+b+b+b+g+h+9+9+i+j+k+c+l+m+h+",
"n+o+b+p+q+9+2+9+r+b+c+5+s+9+9+9+t+u+b+b+v+w+9+9+x+o+b+c+y+z+9+9+",
"A+b+k+B+h+9+8+C+b+c+b+D+E+2+9+F+G+d+b+H+I+9+9+J+K+c+b+L+M+9+9+9+",
"c+p+z+9+9+N+O+k+c+P+Q+2+2+R+S+5+c+k+T+9+9+9+U+b+c+c+V+9+9+9+W+X+",
"Y+Z+2+9+`+ @b+c+.@+@9+9+9+@@c+c+b+#@9+9+9+$@%@c+c+&@*@9+9+=@-@c+",
";@9+9+8+>@,@'@)@!@2+9+9+~@'@'@,@{@]@9+9+^@/@(@(@_@J+2+9+:@<@'@)@"};
