/* XPM */
static char * enemy2_1_xpm[] = {
"64 64 224 2",
"  	c None",
". 	c #040404",
"+ 	c #090909",
"@ 	c #0a0a0aff",
"# 	c #2C2C2C",
"$ 	c #474747",
"% 	c #4F4F4F",
"& 	c #4C4C4C",
"* 	c #0B0B0B",
"= 	c #292929",
"- 	c #6C6C6C",
"; 	c #B1B1B1",
"> 	c #AFAFAF",
", 	c #989898",
"' 	c #6A6A6A",
") 	c #282828",
"! 	c #535353",
"~ 	c #BBBABA",
"{ 	c #D8D3D3",
"] 	c #949494",
"^ 	c #D6D3D3",
"/ 	c #7D7D7D",
"( 	c #ACA6A6",
"_ 	c #E65151",
": 	c #928B8B",
"< 	c #716B6B",
"[ 	c #B14F4F",
"} 	c #A9A6A6",
"| 	c #808080",
"1 	c #BDBDBD",
"2 	c #D9D4D4",
"3 	c #B3B2B2",
"4 	c #929292",
"5 	c #D5D3D3",
"6 	c #9B9B9B",
"7 	c #B6B6B6",
"8 	c #ADADAD",
"9 	c #ABABAB",
"0 	c #9A9A9A",
"a 	c #CECECE",
"b 	c #F5F5F5",
"c 	c #E8E8E8",
"d 	c #CCCCCC",
"e 	c #818181",
"f 	c #225220",
"g 	c #B2B2B2",
"h 	c #C0C0C0",
"i 	c #BFBFBF",
"j 	c #5B5C5B",
"k 	c #124010",
"l 	c #073F04",
"m 	c #083F04",
"n 	c #044000",
"o 	c #044C00",
"p 	c #265324",
"q 	c #AAABAA",
"r 	c #676767",
"s 	c #757575",
"t 	c #787878",
"u 	c #747474",
"v 	c #545454",
"w 	c #2E2F2E",
"x 	c #2B2D2B",
"y 	c #2E312E",
"z 	c #0B3F07",
"A 	c #074C03",
"B 	c #355A35",
"C 	c #A9AAA9",
"D 	c #8C8D8C",
"E 	c #ACACAC",
"F 	c #888888",
"G 	c #3E3F3E",
"H 	c #2F312F",
"I 	c #2A2E2A",
"J 	c #044B00",
"K 	c #044200",
"L 	c #074B03",
"M 	c #235022",
"N 	c #434543",
"O 	c #224521",
"P 	c #0B4007",
"Q 	c #0E3E0B",
"R 	c #074003",
"S 	c #044100",
"T 	c #0D4B09",
"U 	c #4C4F4C",
"V 	c #8E8E8E",
"W 	c #4C4E4C",
"X 	c #133F10",
"Y 	c #32302D",
"Z 	c #2D2C2C",
"` 	c #2E2B2B",
" .	c #2B2B2B",
"..	c #212121",
"+.	c #0A4006",
"@.	c #292F29",
"#.	c #0A3F06",
"$.	c #084004",
"%.	c #154313",
"&.	c #696A69",
"*.	c #373737",
"=.	c #3A3736",
"-.	c #690F0F",
";.	c #362E2E",
">.	c #530C0C",
",.	c #242020",
"'.	c #074103",
").	c #283128",
"!.	c #282928",
"~.	c #282A28",
"{.	c #313531",
"].	c #174115",
"^.	c #4F504F",
"/.	c #383838",
"(.	c #3E3E3E",
"_.	c #303030",
":.	c #302B2B",
"<.	c #292828",
"[.	c #2A2727",
"}.	c #272727",
"|.	c #0A4A06",
"1.	c #293029",
"2.	c #262B26",
"3.	c #292B29",
"4.	c #464646",
"5.	c #2A2A2A",
"6.	c #313131",
"7.	c #4D4E4D",
"8.	c #9D9D9D",
"9.	c #686868",
"0.	c #202020",
"a.	c #17431A",
"b.	c #4F624E",
"c.	c #ECECEC",
"d.	c #414141",
"e.	c #232323",
"f.	c #494949",
"g.	c #656565",
"h.	c #1A1A1A",
"i.	c #054B01",
"j.	c #184E16",
"k.	c #1C451E",
"l.	c #768388",
"m.	c #EFEFEF",
"n.	c #B9B9B9",
"o.	c #343434",
"p.	c #484848",
"q.	c #616161",
"r.	c #525252",
"s.	c #054001",
"t.	c #234722",
"u.	c #767776",
"v.	c #686562",
"w.	c #BEBEBE",
"x.	c #D1D2D1",
"y.	c #3A3A3A",
"z.	c #222222",
"A.	c #1C421A",
"B.	c #2E302E",
"C.	c #2E2E2E",
"D.	c #194417",
"E.	c #777977",
"F.	c #7F7B7A",
"G.	c #AD7351",
"H.	c #B7B5B4",
"I.	c #D5D5D5",
"J.	c #446143",
"K.	c #282B28",
"L.	c #787978",
"M.	c #5C5C5C",
"N.	c #7C7C7C",
"O.	c #7A7979",
"P.	c #5C5856",
"Q.	c #5B5B5B",
"R.	c #0B4B07",
"S.	c #272927",
"T.	c #323332",
"U.	c #333433",
"V.	c #333432",
"W.	c #333333",
"X.	c #7E7E7E",
"Y.	c #B8B8B8",
"Z.	c #565656",
"`.	c #094B05",
" +	c #323532",
".+	c #0C4009",
"++	c #313631",
"@+	c #103F0D",
"#+	c #323531",
"$+	c #333533",
"%+	c #0D4A09",
"&+	c #084B04",
"*+	c #0C3F08",
"=+	c #0B4A08",
"-+	c #323632",
";+	c #2D2D2D",
">+	c #0B3F08",
",+	c #094005",
"'+	c #0A3F07",
")+	c #084005",
"!+	c #0D3F09",
"~+	c #084105",
"{+	c #2C2E2C",
"]+	c #0A4907",
"^+	c #084104",
"/+	c #074A04",
"(+	c #074004",
"_+	c #2A2F2A",
":+	c #073F03",
"<+	c #0C3F09",
"[+	c #2B2E2B",
"}+	c #323432",
"|+	c #020202",
"1+	c #2F302F",
"2+	c #2F2F2F",
"3+	c #1E1E1E",
"4+	c #030303",
"5+	c #050505",
"6+	c #060606",
"7+	c #1C1C1C",
"8+	c #1B1B1B",
"9+	c #1F1F1F",
"0+	c #070707",
"a+	c #323232",
"                                                                                                                                ",
"                                                                                                                                ",
"                                                                                                                                ",
"                                                                                                                                ",
"                                                                                                                                ",
"                                                                                                                                ",
"                                                                                                                                ",
"                                                                                                                                ",
"                                                                                                                                ",
"                                                                                                                                ",
"                                                                                                                                ",
"                                                                                                                                ",
"                                                                                                                                ",
"                                                                                                                                ",
"                                                                                                                                ",
"                                                                                                                                ",
"                                                                                                                                ",
"                                                                                                                                ",
"                                                                                                                                ",
"                                                        . + + + + + + @                                                         ",
"                                                        # $ % % & & $ *                                                         ",
"                                                        = - ; > , , ' )                                                         ",
"                                                        ! ~ { ] ; ^ ~ !                                                         ",
"                                                        / ( _ : < [ } /                                                         ",
"                                                        | 1 2 3 4 5 1 |                                                         ",
"                                                          6 7 8 9 7 0                                                           ",
"                                                          6 a b c d e                                                           ",
"                                                        f , g h i ; j k l m n                                                   ",
"                                                    o o p q r s t u v w x y z l                                                 ",
"                                                o o o o A B C D E F G H # # x I z m                                             ",
"                                              o o o o J K L p M N O P Q x # # # x x #                                           ",
"                                            o o o o J R n S T U V W X Y Z ` )  .#  ...                                          ",
"                                          o o L o J +.@.#.$.%.&.*.&.=.-.;.>.,.........                                          ",
"                                        o o '.).#.#.I !.~.{.].^./.(._.:.<.[...}... .#                                           ",
"                                        o o o |.1.2.3.4.5.6.7.8.5.9.}...}...0.  # # #                                           ",
"                                        S J o o $.a.b.c.d.e.f.g.h._...0.0.0.0.  # # #                                           ",
"                                        n S i.j.k.l.m.n.o.e.p.q.r./...0.0.0.0.  x # #                                           ",
"                                          s.t.u.v.m.w.x.y.e.4.p.$ *.z.}.) ..0.  A.B.C.                                          ",
"                                          D.E.F.G.H.I.J.K...e.e.e.z...) # ) )   L.M.!                                           ",
"                                            N.O.P.Q.  R.K.) ) ) ) S.T.U.V._._.W.X.Y.M.                                          ",
"                                              Z.v     `. +o.o.o.{.z .+++@+#+_.#   h                                             ",
"                                                    o `.$+o.o.$+%+o o &+n *+H #   h                                             ",
"                                                    o `.$+o.o.$+`.o o J S m H #                                                 ",
"                                                    `.%+$+o.o.$+=+S S S S $.{.#                                                 ",
"                                                    -+#+;+# # # 1.R J o o J >+x                                                 ",
"                                                    ,+*+x # # x '+J o o o o )+V.                                                ",
"                                                    n )+U.o.o.U.)+o o o o o ,+$+                                                ",
"                                                    n ,+$+o.o.$+,+o o o o o )+$+                                                ",
"                                                      ,+$+o.o.$+,+o o o o o S                                                   ",
"                                                    n !+$+o.o.$+,+o o o o o S                                                   ",
"                                                    !+ +o.o.o.U.~+J o o o J S                                                   ",
"                                                    U.;+W.o.W.{+]+S S S S ^+/+(+                                                ",
"                                                      # # # # # _+:+n n <+#+[+x                                                 ",
"                                                        0.0.0.# }+!+)+*+ +W.#                                                   ",
"                                                        . |+. 0. .}+}+1+2+# #                                                   ",
"                                                        3+4+|+4+5+..z...0.6+                                                    ",
"                                                        0.7+8+8+6+2+W.# 0.|+                                                    ",
"                                                        ..0.0.9+0+a+W.# 0.|+                                                    ",
"                                                         ...0.0.  # #  .0.|+                                                    ",
"                                                                  ......9+|+                                                    ",
"                                                                  # # # ..                                                      ",
"                                                                ;+W.o.W....                                                     ",
"                                                                W.o.o.W. .0.                                                    ",
"                                                                # # # z...0.                                                    "};
