/* XPM */
static char * enemy2_0_xpm[] = {
"64 64 288 2",
"  	c None",
". 	c #040404",
"+ 	c #090909",
"@ 	c #0a0a0aff",
"# 	c #2C2C2C",
"$ 	c #474747",
"% 	c #4F4F4F",
"& 	c #4C4C4C",
"* 	c #0B0B0B",
"= 	c #292929",
"- 	c #6C6C6C",
"; 	c #B1B1B1",
"> 	c #AFAFAF",
", 	c #989898",
"' 	c #6A6A6A",
") 	c #282828",
"! 	c #535353",
"~ 	c #BBBABA",
"{ 	c #D8D3D3",
"] 	c #949494",
"^ 	c #D6D3D3",
"/ 	c #7D7D7D",
"( 	c #ACA6A6",
"_ 	c #E65151",
": 	c #928B8B",
"< 	c #716B6B",
"[ 	c #B14F4F",
"} 	c #A9A6A6",
"| 	c #808080",
"1 	c #BDBDBD",
"2 	c #D9D4D4",
"3 	c #B3B2B2",
"4 	c #929292",
"5 	c #D5D3D3",
"6 	c #9B9B9B",
"7 	c #B4B4B4",
"8 	c #A7A7A7",
"9 	c #A6A6A6",
"0 	c #9A9A9A",
"a 	c #999999",
"b 	c #7B7B7B",
"c 	c #838383",
"d 	c #7E7E7E",
"e 	c #B0B0B0",
"f 	c #BBBBBB",
"g 	c #5D5D5D",
"h 	c #275426",
"i 	c #AAABAA",
"j 	c #676767",
"k 	c #757575",
"l 	c #787878",
"m 	c #747474",
"n 	c #535553",
"o 	c #104C0D",
"p 	c #044C00",
"q 	c #0B4B08",
"r 	c #4A4D4A",
"s 	c #AAAAAA",
"t 	c #8C8C8C",
"u 	c #ACACAC",
"v 	c #888888",
"w 	c #3D413D",
"x 	c #094B05",
"y 	c #044100",
"z 	c #073F03",
"A 	c #2A2E2A",
"B 	c #044200",
"C 	c #0C4B08",
"D 	c #285227",
"E 	c #343634",
"F 	c #333333",
"G 	c #333633",
"H 	c #114A0E",
"I 	c #084005",
"J 	c #044000",
"K 	c #074003",
"L 	c #044B00",
"M 	c #084B04",
"N 	c #074103",
"O 	c #293129",
"P 	c #323432",
"Q 	c #222221",
"R 	c #2B2E2B",
"S 	c #313631",
"T 	c #323632",
"U 	c #313731",
"V 	c #084A04",
"W 	c #0A3F07",
"X 	c #2B2D2B",
"Y 	c #0C4009",
"Z 	c #30372F",
"` 	c #084104",
" .	c #124A0F",
"..	c #2C312C",
"+.	c #174A05",
"@.	c #0A4B05",
"#.	c #054B00",
"$.	c #313630",
"%.	c #0F3E0C",
"&.	c #313531",
"*.	c #303630",
"=.	c #103F0D",
"-.	c #0D4C09",
";.	c #4C4F4C",
">.	c #8E8E8E",
",.	c #4F4E4C",
"'.	c #681C09",
").	c #1F4900",
"!.	c #671C00",
"~.	c #154A00",
"{.	c #0C4008",
"].	c #2E302E",
"^.	c #0E3F0B",
"/.	c #0C4A09",
"(.	c #154E13",
"_.	c #696A69",
":.	c #373737",
"<.	c #204B15",
"[.	c #064B00",
"}.	c #0D4009",
"|.	c #313431",
"1.	c #232222",
"2.	c #0B4A07",
"3.	c #064002",
"4.	c #212421",
"5.	c #2C2C2B",
"6.	c #084004",
"7.	c #054202",
"8.	c #215020",
"9.	c #575857",
"0.	c #383838",
"a.	c #3E3E3E",
"b.	c #2B2F2B",
"c.	c #282212",
"d.	c #313530",
"e.	c #0D4A09",
"f.	c #333532",
"g.	c #2B2C2A",
"h.	c #272310",
"i.	c #0B3F05",
"j.	c #1C4F1A",
"k.	c #8C8E8C",
"l.	c #DDDDDD",
"m.	c #686868",
"n.	c #323332",
"o.	c #282110",
"p.	c #27230C",
"q.	c #0F4909",
"r.	c #0A3F06",
"s.	c #2A2E29",
"t.	c #2C2B2A",
"u.	c #27220F",
"v.	c #0D3E07",
"w.	c #283128",
"x.	c #1E4F1C",
"y.	c #888988",
"z.	c #6E6E6E",
"A.	c #1B1B1B",
"B.	c #303030",
"C.	c #212121",
"D.	c #212120",
"E.	c #28200D",
"F.	c #0D3F09",
"G.	c #074B03",
"H.	c #293028",
"I.	c #272410",
"J.	c #28210F",
"K.	c #222120",
"L.	c #292E29",
"M.	c #1C4F1B",
"N.	c #878787",
"O.	c #646464",
"P.	c #525252",
"Q.	c #202020",
"R.	c #20201F",
"S.	c #271F0E",
"T.	c #20231E",
"U.	c #0E490B",
"V.	c #0B4A08",
"W.	c #0C4905",
"X.	c #2A2C29",
"Y.	c #0D3E0A",
"Z.	c #154213",
"`.	c #626261",
" +	c #494949",
".+	c #222222",
"++	c #1F1F1F",
"@+	c #070604",
"#+	c #323531",
"$+	c #0C3F08",
"%+	c #2C2E2C",
"&+	c #2B2B2B",
"*+	c #292F29",
"=+	c #0D120C",
"-+	c #0E0F0E",
";+	c #060606",
">+	c #0C3F09",
",+	c #272312",
"'+	c #2D312D",
")+	c #083F04",
"!+	c #073E03",
"~+	c #292D29",
"{+	c #0B3F07",
"]+	c #2E312E",
"^+	c #2B2C2B",
"/+	c #2A2D2A",
"(+	c #0D490A",
"_+	c #0C4A08",
":+	c #282311",
"<+	c #093E01",
"[+	c #0B3F08",
"}+	c #2A2F2A",
"|+	c #0B4007",
"1+	c #3C3F3C",
"2+	c #353534",
"3+	c #28230F",
"4+	c #073F01",
"5+	c #8D8D8D",
"6+	c #302D20",
"7+	c #074001",
"8+	c #262626",
"9+	c #656565",
"0+	c #D8D8D8",
"a+	c #D3D2D1",
"b+	c #30312F",
"c+	c #0D4B0A",
"d+	c #303530",
"e+	c #858584",
"f+	c #AAA8A8",
"g+	c #9F6348",
"h+	c #342614",
"i+	c #353935",
"j+	c #333433",
"k+	c #2A2C2A",
"l+	c #0A0A0A",
"m+	c #2C2D2C",
"n+	c #242221",
"o+	c #574431",
"p+	c #636362",
"q+	c #BDBBBB",
"r+	c #3C3D3B",
"s+	c #094005",
"t+	c #2B2E2A",
"u+	c #050505",
"v+	c #2F302F",
"w+	c #2F312F",
"x+	c #636262",
"y+	c #E6E6E6",
"z+	c #444544",
"A+	c #797979",
"B+	c #E8E8E8",
"C+	c #444644",
"D+	c #074004",
"E+	c #2E302D",
"F+	c #2A2A2A",
"G+	c #7A7A7A",
"H+	c #E7E7E7",
"I+	c #4A4C4A",
"J+	c #383A38",
"K+	c #292B29",
"L+	c #2D332D",
"M+	c #363936",
"N+	c #0C3E08",
"O+	c #202220",
"P+	c #2E322E",
"Q+	c #074104",
"R+	c #0A4A06",
"S+	c #27220E",
"T+	c #0D3E05",
"U+	c #28210E",
"V+	c #27240E",
"W+	c #2F2F2F",
"X+	c #373937",
"Y+	c #2E2F2C",
"Z+	c #044A00",
"`+	c #093F05",
" @	c #201F1F",
".@	c #2D302C",
"+@	c #0B3E08",
"@@	c #1F241F",
"#@	c #272727",
"$@	c #212321",
"%@	c #363636",
"&@	c #020202",
"*@	c #232323",
"=@	c #2D2D2D",
"-@	c #0C0C0C",
";@	c #070707",
"                                                                                                                                ",
"                                                                                                                                ",
"                                                                                                                                ",
"                                                                                                                                ",
"                                                                                                                                ",
"                                                                                                                                ",
"                                                                                                                                ",
"                                                                                                                                ",
"                                                                                                                                ",
"                                                                                                                                ",
"                                                                                                                                ",
"                                                                                                                                ",
"                                                                                                                                ",
"                                                                                                                                ",
"                                                                                                                                ",
"                                                                                                                                ",
"                                                                                                                                ",
"                                                        . + + + + + + @                                                         ",
"                                                        # $ % % & & $ *                                                         ",
"                                                        = - ; > , , ' )                                                         ",
"                                                        ! ~ { ] ; ^ ~ !                                                         ",
"                                                        / ( _ : < [ } /                                                         ",
"                                                        | 1 2 3 4 5 1 |                                                         ",
"                                                          6 7 8 9 7 0                                                           ",
"                                                          a 8 b c 9 d                                                           ",
"                                                          0 e f f > g                                                           ",
"                                                        h i j k l m n o                                                         ",
"                                                    p p q r s t u v w x y z A                                                   ",
"                                                p p p p B C D E F G H x I J K K A                                               ",
"                                              y L B M p L N O P Q R S T U M L V W X                                             ",
"                                              y L Y Z ` p p M  ... .+.@.+.#.` $.%.&.                                            ",
"                                              p M *.=.L p p -.;.>.,.'.).!.~.{.].A ^.X                                           ",
"                                            y L K X &./.p p (._.:._.<.[.~.}.|.1.R 2.R                                           ",
"                                            y L 3.4.5.*.6.7.8.9.0.a.b.W Y |.5.c.d.e.f.                                          ",
"                                            L L W g.h.i.K j.k.l.0.m.) X n.5.o.p.q.e.T                                           ",
"                                            y r.s.t.u.v.w.x.y.z.A.B.C.C.C.D.E.o.S U F.                                          ",
"                                            G.H.I.J.K.L.r.M.N.O.P.0.C.Q.Q.R.S.T.U.e.J                                           ",
"                                            L V.W.I.X.Y.J Z.`. +$ 0..+C.C.++@+Q.P #+$+                                          ",
"                                            I *.%+&+Q A r.*+].=+-+X X X &+Q.;+Q.R R X                                           ",
"                                            J >+P 5.,+'+)+K K !+~+W z {+]+^+Q./+(+_+&.                                          ",
"                                            J >+P :+<+)+y L L K A z J J [+].C.&+}+2.$+                                          ",
"                                            |+1+2+3+4+y L p p K A z J J )+].C.C.B.G R                                           ",
"                                              8 5+6+7+L p M p K A z J 6.)+].C.8+9+N.                                            ",
"                                              0+a+b+z x c+U V.W ~+W [+d+%.].C.&+e+m.                                            ",
"                                              f+g+h+s.T i+j+R k+l+k+X m+X # C.n+o+p+                                            ",
"                                                q+r+W s+>+t+# Q.u+&+v+w+B.# C.8+x+                                              ",
"                                                y+z+K L y W X Q.u+k+{+[+]+B.&+= A+                                              ",
"                                                B+C+D+L y z X Q.;+E+V y [+w+# F+G+                                              ",
"                                                H+I+x p y z A Q.;+k+|+L 6.w+# = G+                                              ",
"                                                  J+x p L K W K++ &+L+V 6.w+# C.                                                ",
"                                                  M+x p N w.N+O+R.'+[+B V P+# C.                                                ",
"                                                  %+Q+p L R+*+D.S+T+L L M ^.X C.                                                ",
"                                                  M+x p B J Y.X.U+V+7+` L+w+W+C.                                                ",
"                                                  X+_+p L r.~+D.o.Y+{+Z+Y.].) Q.                                                ",
"                                                    A `+`+~+C. @E.c..@+@@@) #@Q.                                                ",
"                                                    .+$@$@C.++.   R..+$@C.Q.u+                                                  ",
"                                                    :.:.%@.+++&@  C.%@:.# Q.&@                                                  ",
"                                                    :.0.0.# Q.&@  C.:.0.# Q.&@                                                  ",
"                                                    *@%@:.&+++&@  C.:.:.# Q.&@                                                  ",
"                                                    Q.C.Q.u+&@      %@=@&+++&@                                                  ",
"                                                      C.+ u+.       -@C.Q.;@                                                    ",
"                                                    *@:.:.%@&+.   ;+%@:.=@&+C.                                                  ",
"                                                  C.%@0.0.:.&+.   ;+%@:.%@# &+C.                                                ",
"                                                  C.# =@# C.;+      ;@C.C.C.C.Q.                                                "};
