/* XPM */
static char * enemy3_3_xpm[] = {
"64 64 217 2",
"  	c None",
". 	c #040404",
"+ 	c #090909",
"@ 	c #0a0a0aff",
"# 	c #2C2C2C",
"$ 	c #474747",
"% 	c #4F4F4F",
"& 	c #4C4C4C",
"* 	c #0B0B0B",
"= 	c #292929",
"- 	c #6C6C6C",
"; 	c #B1B1B1",
"> 	c #AFAFAF",
", 	c #989898",
"' 	c #6A6A6A",
") 	c #282828",
"! 	c #535353",
"~ 	c #BBBABA",
"{ 	c #D8D3D3",
"] 	c #949494",
"^ 	c #D6D3D3",
"/ 	c #7D7D7D",
"( 	c #ACA6A6",
"_ 	c #E65151",
": 	c #928B8B",
"< 	c #716B6B",
"[ 	c #B14F4F",
"} 	c #A9A6A6",
"| 	c #808080",
"1 	c #BDBDBD",
"2 	c #D9D4D4",
"3 	c #B3B2B2",
"4 	c #929292",
"5 	c #D5D3D3",
"6 	c #9B9B9B",
"7 	c #B6B6B6",
"8 	c #ADADAD",
"9 	c #ABABAB",
"0 	c #9A9A9A",
"a 	c #CECECE",
"b 	c #F5F5F5",
"c 	c #E8E8E8",
"d 	c #CCCCCC",
"e 	c #818181",
"f 	c #044C00",
"g 	c #21511F",
"h 	c #B2B2B2",
"i 	c #C0C0C0",
"j 	c #BFBFBF",
"k 	c #5D5D5D",
"l 	c #044200",
"m 	c #265324",
"n 	c #AAABAA",
"o 	c #676767",
"p 	c #757575",
"q 	c #787878",
"r 	c #747474",
"s 	c #545454",
"t 	c #2F2F2F",
"u 	c #044B00",
"v 	c #074203",
"w 	c #365935",
"x 	c #AAAAAA",
"y 	c #8C8D8C",
"z 	c #ACACAC",
"A 	c #888988",
"B 	c #3F3F3F",
"C 	c #303030",
"D 	c #2D2D2D",
"E 	c #333433",
"F 	c #0E420B",
"G 	c #4D504D",
"H 	c #256423",
"I 	c #325231",
"J 	c #226321",
"K 	c #2C312C",
"L 	c #2C2E2C",
"M 	c #313531",
"N 	c #103F0D",
"O 	c #323532",
"P 	c #044100",
"Q 	c #084004",
"R 	c #094105",
"S 	c #353735",
"T 	c #4D4F4D",
"U 	c #8E8E8E",
"V 	c #343534",
"W 	c #193E08",
"X 	c #183E04",
"Y 	c #054000",
"Z 	c #0C4009",
"` 	c #074003",
" .	c #0B3F07",
"..	c #303630",
"+.	c #084B04",
"@.	c #094B05",
"#.	c #373937",
"$.	c #373737",
"%.	c #3B3636",
"&.	c #6A0E07",
"*.	c #691200",
"=.	c #163F03",
"-.	c #333533",
";.	c #073F03",
">.	c #272B27",
",.	c #282A28",
"'.	c #272C27",
").	c #074A03",
"!.	c #0A4B06",
"~.	c #3B3D3B",
"{.	c #383838",
"].	c #3E3E3E",
"^.	c #2A2929",
"/.	c #2D2826",
"(.	c #1A3C09",
"_.	c #292F29",
":.	c #074B03",
"<.	c #084B05",
"[.	c #323632",
"}.	c #084005",
"|.	c #323432",
"1.	c #1C461A",
"2.	c #8B8B8B",
"3.	c #C4C4C4",
"4.	c #323232",
"5.	c #686868",
"6.	c #272727",
"7.	c #272927",
"8.	c #262B26",
"9.	c #0B4A07",
"0.	c #094005",
"a.	c #044000",
"b.	c #1D451B",
"c.	c #898988",
"d.	c #767676",
"e.	c #1D1D1D",
"f.	c #212121",
"g.	c #202020",
"h.	c #202220",
"i.	c #0C3E09",
"j.	c #313731",
"k.	c #343434",
"l.	c #0D3F09",
"m.	c #1C451A",
"n.	c #878887",
"o.	c #888888",
"p.	c #626262",
"q.	c #1F251E",
"r.	c #064A02",
"s.	c #0D4009",
"t.	c #0A4C06",
"u.	c #375437",
"v.	c #20451E",
"w.	c #0D410A",
"x.	c #4B4C4B",
"y.	c #EDEDED",
"z.	c #5F5F5F",
"A.	c #262626",
"B.	c #2D2F2D",
"C.	c #20451F",
"D.	c #064C02",
"E.	c #F4F4F4",
"F.	c #979797",
"G.	c #4B4D4B",
"H.	c #F1F1F1",
"I.	c #C5C5C5",
"J.	c #BABABA",
"K.	c #939393",
"L.	c #919291",
"M.	c #265225",
"N.	c #FCFCFC",
"O.	c #F9F9F9",
"P.	c #395438",
"Q.	c #BEBEBE",
"R.	c #B9B9B9",
"S.	c #6C6D6C",
"T.	c #373837",
"U.	c #0A4206",
"V.	c #4E624E",
"W.	c #EDEEED",
"X.	c #727272",
"Y.	c #707070",
"Z.	c #6D6D6D",
"`.	c #0D4B09",
" +	c #395338",
".+	c #353635",
"++	c #3B3B3B",
"@+	c #545554",
"#+	c #144012",
"$+	c #293029",
"%+	c #2A2F2A",
"&+	c #2B2D2B",
"*+	c #333333",
"=+	c #2E2E2E",
"-+	c #202320",
";+	c #0A3F07",
">+	c #2A2E2A",
",+	c #222222",
"'+	c #2B2B2B",
")+	c #272A27",
"!+	c #084104",
"~+	c #313431",
"{+	c #282928",
"]+	c #222522",
"^+	c #084A05",
"/+	c #0B3F08",
"(+	c #1F1F1F",
"_+	c #074903",
":+	c #292E29",
"<+	c #2A2C2A",
"[+	c #2A2A2A",
"}+	c #070707",
"|+	c #020202",
"1+	c #020C02",
"2+	c #050505",
"3+	c #030303",
"4+	c #1E1E1E",
"                                                                                                                                ",
"                                                                                                                                ",
"                                                                                                                                ",
"                                                                                                                                ",
"                                                                                                                                ",
"                                                                                                                                ",
"                                                                                                                                ",
"                                                                                                                                ",
"                                                                                                                                ",
"                                                                                                                                ",
"                                                                                                                                ",
"                                                                                                                                ",
"                                                                                                                                ",
"                                                                                                                                ",
"                                                                                                                                ",
"                                                                                                                                ",
"                                                                                                                                ",
"                                                                                                                                ",
"                                                                                                                                ",
"                                                        . + + + + + + @                                                         ",
"                                                        # $ % % & & $ *                                                         ",
"                                                        = - ; > , , ' )                                                         ",
"                                                        ! ~ { ] ; ^ ~ !                                                         ",
"                                                        / ( _ : < [ } /                                                         ",
"                                                        | 1 2 3 4 5 1 |                                                         ",
"                                                          6 7 8 9 7 0                                                           ",
"                                                          6 a b c d e                                                           ",
"                                                      f g , h i j ; k                                                           ",
"                                                  f f l m n o p q r s t #                                                       ",
"                                              f f f f u v w x y z A B C D E                                                     ",
"                                            f f f f f f u F G H I J K L M N O                                                   ",
"                                          f f u P Q l f f R S T U T V W X Y Z O                                                 ",
"                                          P P `  ...+.f f @.#.' $.' %.&.*.=.u Z -.                                              ",
"                                          P ;.>.,.'.).f f !.~.s {.].^./.(._.:.<.[.                                              ",
"                                          u }.|.|. .P u u 1.2.3.4.5.6.6.7.8.9.@.N -.                                            ",
"                                          f }.O -.0.a.P P b.c.d.e.t f.g.h.i.j.[.-.k.                                            ",
"                                          f P l.-.  a.a.a.m.n.o.p.) g.g.q.r.<.s.-.k.                                            ",
"                                          t.u.v.-.  a.a.a.w.x.' y.z.A.B.C.D.u 0.-.k.                                            ",
"                                            E.F.    P P P 0.G.H.I.J.k K.L.M.R l.-.k.                                            ",
"                                            N.O.    u u u u P.H.I.Q.R.F.r S.T.-.k.                                              ",
"                                            N.N.  u l P P P U.V.W.4 r X.Y.Z.T.k.                                                ",
"                                              N.  l u u u :.:.`. +.+++Z.Z.@+#+                                                  ",
"                                                  u u l ` $+%+%+&+# *+$.$.=+-+                                                  ",
"                                                  P P u f :.` ;+>+,+,+,+,+'+f.                                                  ",
"                                                  a.P f f f f u ;+&+# # # '+f.                                                  ",
"                                                  a.P f f f f f ` &+# # # ) g.                                                  ",
"                                                  P u f f f f f ` )+# # # ) g.                                                  ",
"                                                  P f f f f f f ` 7.# # ) )                                                     ",
"                                                  P f f f f f u  .7.) ) ) f.                                                    ",
"                                                  P f f f f f !+~+{+) ) ) )                                                     ",
"                                                  P f f f f f r.]+) ) ) ) ) g.                                                  ",
"                                                  f u P P P P ^+|.= ) ) ) 6.g.                                                  ",
"                                                  f l a.a.a.a.Z |.) ) ) 6.g.                                                    ",
"                                                    u ` ;.;./+~+'+g.g.g.(+.                                                     ",
"                                                    _+:+<+<+<+[+}+|+|+|+|+@                                                     ",
"                                                    1+}+}+2+. 3+@ |+@ @ @                                                       ",
"                                                    g.'+'+(+|+@ |+4+|+@ @                                                       ",
"                                                    f.# # g.|+@ |+4+|+@ @                                                       ",
"                                                      '+'+(+|+@ @ |+@ @ @                                                       ",
"                                                      . 3+|+@ @   @ @ @ @                                                       ",
"                                                        3+3+|+@                                                                 ",
"                                                      }+[+[+(+|+@                                                               ",
"                                                    $.'+'+f.4+|+2+$.                                                            ",
"                                                    $.* g.(+. @ 2+$.                                                            "};
