/* XPM */
static char * enemy3_4_xpm[] = {
"64 64 227 2",
"  	c None",
". 	c #040404",
"+ 	c #090909",
"@ 	c #0a0a0aff",
"# 	c #2C2C2C",
"$ 	c #474747",
"% 	c #4F4F4F",
"& 	c #4C4C4C",
"* 	c #0B0B0B",
"= 	c #292929",
"- 	c #6C6C6C",
"; 	c #B1B1B1",
"> 	c #AFAFAF",
", 	c #989898",
"' 	c #6A6A6A",
") 	c #282828",
"! 	c #535353",
"~ 	c #BBBABA",
"{ 	c #D8D3D3",
"] 	c #949494",
"^ 	c #D6D3D3",
"/ 	c #7D7D7D",
"( 	c #ACA6A6",
"_ 	c #E65151",
": 	c #928B8B",
"< 	c #716B6B",
"[ 	c #B14F4F",
"} 	c #A9A6A6",
"| 	c #808080",
"1 	c #BDBDBD",
"2 	c #D9D4D4",
"3 	c #B3B2B2",
"4 	c #929292",
"5 	c #D5D3D3",
"6 	c #9B9B9B",
"7 	c #B6B6B6",
"8 	c #ADADAD",
"9 	c #ABABAB",
"0 	c #9A9A9A",
"a 	c #CECECE",
"b 	c #F5F5F5",
"c 	c #E8E8E8",
"d 	c #CCCCCC",
"e 	c #818181",
"f 	c #044C00",
"g 	c #21511F",
"h 	c #B2B2B2",
"i 	c #C0C0C0",
"j 	c #BFBFBF",
"k 	c #5B5C5B",
"l 	c #144012",
"m 	c #2B2D2B",
"n 	c #044200",
"o 	c #265324",
"p 	c #AAABAA",
"q 	c #676767",
"r 	c #757575",
"s 	c #787878",
"t 	c #747474",
"u 	c #545454",
"v 	c #2E2F2E",
"w 	c #044B00",
"x 	c #044100",
"y 	c #074103",
"z 	c #365935",
"A 	c #AAAAAA",
"B 	c #8C8D8C",
"C 	c #ACACAC",
"D 	c #888988",
"E 	c #3F3F3F",
"F 	c #303030",
"G 	c #044000",
"H 	c #0E410B",
"I 	c #4D504D",
"J 	c #256423",
"K 	c #325231",
"L 	c #226321",
"M 	c #2C312C",
"N 	c #2D2D2D",
"O 	c #333333",
"P 	c #074B03",
"Q 	c #084005",
"R 	c #094005",
"S 	c #343734",
"T 	c #4D4F4D",
"U 	c #8E8E8E",
"V 	c #353535",
"W 	c #373333",
"X 	c #343434",
"Y 	c #373232",
"Z 	c #2B2B2B",
"` 	c #212121",
" .	c #202020",
"..	c #0A4006",
"+.	c #252C25",
"@.	c #083E05",
"#.	c #0B3F08",
"$.	c #313431",
"%.	c #0C3F09",
"&.	c #174215",
"*.	c #696A69",
"=.	c #373737",
"-.	c #3B3636",
";.	c #690F0F",
">.	c #3B3232",
",.	c #690E0E",
"'.	c #272020",
").	c #272727",
"!.	c #292F29",
"~.	c #212221",
"{.	c #202320",
"].	c #2E3231",
"^.	c #27292A",
"/.	c #222222",
"(.	c #1B4319",
"_.	c #4F504F",
":.	c #383838",
"<.	c #3E3E3E",
"[.	c #2A2929",
"}.	c #2E2828",
"|.	c #312B2B",
"1.	c #0A3F07",
"2.	c #2A2C2A",
"3.	c #26282A",
"4.	c #607078",
"5.	c #6C7981",
"6.	c #353637",
"7.	c #323432",
"8.	c #373837",
"9.	c #6F706F",
"0.	c #9F9F9F",
"a.	c #2A2A2A",
"b.	c #686868",
"c.	c #222421",
"d.	c #404040",
"e.	c #232323",
"f.	c #054B01",
"g.	c #164413",
"h.	c #214620",
"i.	c #3C3E3C",
"j.	c #4A4A4A",
"k.	c #79797A",
"l.	c #EFEFEF",
"m.	c #A6A6A6",
"n.	c #313131",
"o.	c #6F6F6F",
"p.	c #8A8A8A",
"q.	c #2F2F2F",
"r.	c #292D29",
"s.	c #395339",
"t.	c #EEEEEE",
"u.	c #464746",
"v.	c #164414",
"w.	c #707170",
"x.	c #969696",
"y.	c #C1C1C1",
"z.	c #F3F3F3",
"A.	c #B0B0B0",
"B.	c #A2A3A2",
"C.	c #646464",
"D.	c #878787",
"E.	c #242424",
"F.	c #1F221F",
"G.	c #0C3F08",
"H.	c #466346",
"I.	c #3F553E",
"J.	c #21471F",
"K.	c #9E9E9E",
"L.	c #A5A5A5",
"M.	c #334E32",
"N.	c #212321",
"O.	c #484848",
"P.	c #4B4B4B",
"Q.	c #464646",
"R.	c #2A4A28",
"S.	c #BCBDBC",
"T.	c #F6F6F6",
"U.	c #767776",
"V.	c #636363",
"W.	c #2A4A29",
"X.	c #202220",
"Y.	c #124010",
"Z.	c #595B59",
"`.	c #555555",
" +	c #333433",
".+	c #10410C",
"++	c #2A2D29",
"@+	c #323531",
"#+	c #074003",
"$+	c #0D3F0A",
"%+	c #0D4009",
"&+	c #333533",
"*+	c #2B2E2B",
"=+	c #2A2E2A",
"-+	c #073F03",
";+	c #0B3F07",
">+	c #2A2F2A",
",+	c #074B04",
"'+	c #313631",
")+	c #084B05",
"!+	c #323632",
"~+	c #094B05",
"{+	c #074A03",
"]+	c #0C4009",
"^+	c #323532",
"/+	c #103F0D",
"(+	c #303630",
"_+	c #2A302A",
":+	c #2C2E2C",
"<+	c #0D3E0A",
"[+	c #070707",
"}+	c #080908",
"|+	c #050505",
"1+	c #030303",
"2+	c #020202",
"3+	c #1E1E1E",
"4+	c #1F1F1F",
"5+	c #0F1316",
"6+	c #040505",
"7+	c #060606",
"8+	c #1D1D1D",
"9+	c #5B6B73",
"0+	c #252728",
"a+	c #010101",
"b+	c #101517",
"c+	c #1F2020",
"d+	c #323232",
"                                                                                                                                ",
"                                                                                                                                ",
"                                                                                                                                ",
"                                                                                                                                ",
"                                                                                                                                ",
"                                                                                                                                ",
"                                                                                                                                ",
"                                                                                                                                ",
"                                                                                                                                ",
"                                                                                                                                ",
"                                                                                                                                ",
"                                                                                                                                ",
"                                                                                                                                ",
"                                                                                                                                ",
"                                                                                                                                ",
"                                                                                                                                ",
"                                                                                                                                ",
"                                                                                                                                ",
"                                                        . + + + + + + @                                                         ",
"                                                        # $ % % & & $ *                                                         ",
"                                                        = - ; > , , ' )                                                         ",
"                                                        ! ~ { ] ; ^ ~ !                                                         ",
"                                                        / ( _ : < [ } /                                                         ",
"                                                        | 1 2 3 4 5 1 |                                                         ",
"                                                          6 7 8 9 7 0                                                           ",
"                                                          6 a b c d e                                                           ",
"                                                      f g , h i j ; k l m                                                       ",
"                                                  f f n o p q r s t u v # # #                                                   ",
"                                              f f f w x y z A B C D E F # # # # #                                               ",
"                                          f f f f w x G G H I J K L M N O N # # # #                                             ",
"                                        f f P x x Q Q G G R S T U T V W X Y = Z Z `  .                                          ",
"                                      f f ..+.@.#.$.$.%.G G &.*.=.' -.;.>.,.'.` `  .).#                                         ",
"                                      f P !.~.{.].^./.$.%.R (._.:.<.[.}.O |.`  . . .` )                                         ",
"                                      f w 1.2.3.4.5.6.= 7.8.9.0.a.b.).).) )  .` c.d.e.`                                         ",
"                                      f.g.h.i.j.k.l.m.n.= :.o.p./.q.`  . . .` r.s.t.u.#                                         ",
"                                      v.w.x.y.b z.A.B.=.) =.C.D.u E. . . . .F.G.H.z.I.m                                         ",
"                                      J.] K.z.b ; L.M.N.` X O.P.Q.e. . . . .F.R.S.T.U.O                                         ",
"                                        ,   V.C.    m `  .` e.e.e.` ` `  . .F.W.1 b C.!                                         ",
"                                            u       # `  .` Z ) # # # # ) ).X.Y.Z.  `.u                                         ",
"                                                    # ` ` # # # 7. + + +7.)  .  .+  u                                           ",
"                                                    # # # O O m G.R R R #.++`                                                   ",
"                                                  R @+X X X X m #+x w w w $+m                                                   ",
"                                                  w %+&+X X X *+P w n x #+!.#                                                   ",
"                                                  w Q  +X X O *+P n w f w 1.m                                                   ",
"                                                  x #+=+m m m *+P f f f f #+m                                                   ",
"                                                  f w #+-+-+;+>+,+f f f f #+m                                                   ",
"                                                  f f x G G Q '+)+f f f f #+m                                                   ",
"                                                  f f x G G R !+~+f f f f #+m                                                   ",
"                                                    f w x G Q '+)+f f f w #+m                                                   ",
"                                                    f x Q R R R )+w x x x {+*+                                                  ",
"                                                  f P ]+^+&+^+/+(+Q Q R R G.m #                                                 ",
"                                                  ,+_+7.X X X  +:+G.^+&+&+7.Z #                                                 ",
"                                                    # N O X X O 2.<+ +X O Z [+                                                  ",
"                                                    Z Z Z Z Z a.}+F.Z Z a.[+@                                                   ",
"                                                    . |+|+|+|+1+2+3+[+|+1+@ @                                                   ",
"                                                    2+4+ . .3+2+@ . 3+3+2+@ @                                                   ",
"                                                    . a.Z Z  .2+@ @ . 2+2+@                                                     ",
"                                                       . . .3+1+5+6+3+7+8+2+@                                                   ",
"                                                      2+2+2+2+5+9+0+a.4+. @ @                                                   ",
"                                                      |+. 1+2+a+b+c+ .3+2+@ @                                                   ",
"                                                    [+n.Z Z 4+2+@   2+2+@ @                                                     ",
"                                                     .d+# Z  .2+@                                                               ",
"                                                    .  .` ` 4+2+                                                                ",
"                                                                                                                                "};
