/* XPM */
static char * door_open4_xpm[] = {
"64 64 10 1",
" 	c None",
".	c #121212",
"+	c #2E2D2D",
"@	c #646464",
"#	c #898989",
"$	c #313B5B",
"%	c #4D5A89",
"&	c #5C6B9B",
"*	c #FF7582",
"=	c #38ED0E",
"                                                                ",
"                                                                ",
"                                                                ",
"                                                                ",
"            ....                                ....            ",
"   .........++++................................++++.........   ",
"  .+@@###.+.@@@@.+.$$$$$$$$$$$$$$$$$$$$$$$$$$.+.@@@@.+.###@@+.  ",
"  .++@@##.+.####.+.%%%%%%%%%%%%%%%%%%%%%%%%%%.+.####.+.##@@++.  ",
"  ..++@@#.+.@@@@.+.&&&&&&&&&&&&&&&&&&&&&&&&&&.+.@@@@.+.#@@++..  ",
"  .$........++++................................++++........$.  ",
"  .$%&$.    ....                                ....    .$&%$.  ",
"  .$%&$.                                                .$&%$.  ",
"  .$%&$.                       *                        .$&%$.  ",
"  .$%&$.                        **                      .$&%$.  ",
"  .$....                          *                     ....$.  ",
" .#.===..         *                          *         ..===.#. ",
" .#.....#.         *                        *         .#.....#. ",
" .+#####@.                                            .@#####+. ",
" .+.+@@@+.                      *                     .+@@@+.+. ",
"  .$.+++.                                              .+++.$.  ",
"  .$%...            *                      *            ...%$.  ",
"  .$%&$.                 *                              .$&%$.  ",
"  .$%&$.                    *                           .$&%$.  ",
"  .$%&$.   *                 **                     *   .$&%$.  ",
"  .$%&$.   *                                        *   .$&%$.  ",
"  .$%&$.                                                .$&%$.  ",
"  .$%&$.                                                .$&%$.  ",
"  .$%&$.                                                .$&%$.  ",
"  .$%&$.                                                .$&%$.  ",
"  .$%&$.                                                .$&%$.  ",
"  .$%&$.                                                .$&%$.  ",
"  .$%&$.                       *                        .$&%$.  ",
"  .$%&$.                        **                      .$&%$.  ",
"  .$....                          *                     ....$.  ",
" .#.===..         *                          *         ..===.#. ",
" .#.....#.         *                        *         .#.....#. ",
" .+#####@.                                            .@#####+. ",
" .+.+@@@+.                      *                     .+@@@+.+. ",
"  .$.+++.                                              .+++.$.  ",
"  .$%...            *                      *            ...%$.  ",
"  .$%&$.                 *                              .$&%$.  ",
"  .$%&$.                    *                           .$&%$.  ",
"  .$%&$.   *                 **                     *   .$&%$.  ",
"  .$%&$.   *                                        *   .$&%$.  ",
"  .$%&$.                                                .$&%$.  ",
"  .$%&$.                                                .$&%$.  ",
"  .$%&$.                                                .$&%$.  ",
"  .$%&$.                                                .$&%$.  ",
"  .$%&$.                                                .$&%$.  ",
"  .$%&$.                                                .$&%$.  ",
"  .$%&$.                                                .$&%$.  ",
"  .$%&$.                                                .$&%$.  ",
"  .$%&$.                       *                        .$&%$.  ",
"  .$%&$.                        **                      .$&%$.  ",
"  .$....                          *                     ....$.  ",
" .#.===..         *                          *         ..===.#. ",
" .#.....#.         *                        *         .#.....#. ",
" .+#####@.                                            .@#####+. ",
" .+.+@@@+.                      *                     .+@@@+.+. ",
"  .$.+++.                                              .+++.$.  ",
"  .$%...            *                      *            ...%$.  ",
"  .$%&$.                 *                              .$&%$.  ",
"  .$%&$.                    *                           .$&%$.  ",
"  .$%&$.   *                 **                     *   .$&%$.  "};
