/* XPM */
static char * door_open6_xpm[] = {
"64 64 9 1",
" 	c None",
".	c #121212",
"+	c #2E2D2D",
"@	c #646464",
"#	c #898989",
"$	c #313B5B",
"%	c #4D5A89",
"&	c #5C6B9B",
"*	c #38ED0E",
"                                                                ",
"                                                                ",
"                                                                ",
"                                                                ",
"            ....                                ....            ",
"   .........++++................................++++.........   ",
"  .+@@###.+.@@@@.+.$$$$$$$$$$$$$$$$$$$$$$$$$$.+.@@@@.+.###@@+.  ",
"  .++@@##.+.####.+.%%%%%%%%%%%%%%%%%%%%%%%%%%.+.####.+.##@@++.  ",
"  ..++@@#.+.@@@@.+.&&&&&&&&&&&&&&&&&&&&&&&&&&.+.@@@@.+.#@@++..  ",
"  .$........++++................................++++........$.  ",
"  .$%&$.    ....                                ....    .$&%$.  ",
"  .$%&$.                                                .$&%$.  ",
"  .$%&$.                                                .$&%$.  ",
"  .$%&$.                                                .$&%$.  ",
"  .$....                                                ....$.  ",
" .#.***..                                              ..***.#. ",
" .#.....#.                                            .#.....#. ",
" .+#####@.                                            .@#####+. ",
" .+.+@@@+.                                            .+@@@+.+. ",
"  .$.+++.                                              .+++.$.  ",
"  .$%...                                                ...%$.  ",
"  .$%&$.                                                .$&%$.  ",
"  .$%&$.                                                .$&%$.  ",
"  .$%&$.                                                .$&%$.  ",
"  .$%&$.                                                .$&%$.  ",
"  .$%&$.                                                .$&%$.  ",
"  .$%&$.                                                .$&%$.  ",
"  .$%&$.                                                .$&%$.  ",
"  .$%&$.                                                .$&%$.  ",
"  .$%&$.                                                .$&%$.  ",
"  .$%&$.                                                .$&%$.  ",
"  .$%&$.                                                .$&%$.  ",
"  .$%&$.                                                .$&%$.  ",
"  .$....                                                ....$.  ",
" .#.***..                                              ..***.#. ",
" .#.....#.                                            .#.....#. ",
" .+#####@.                                            .@#####+. ",
" .+.+@@@+.                                            .+@@@+.+. ",
"  .$.+++.                                              .+++.$.  ",
"  .$%...                                                ...%$.  ",
"  .$%&$.                                                .$&%$.  ",
"  .$%&$.                                                .$&%$.  ",
"  .$%&$.                                                .$&%$.  ",
"  .$%&$.                                                .$&%$.  ",
"  .$%&$.                                                .$&%$.  ",
"  .$%&$.                                                .$&%$.  ",
"  .$%&$.                                                .$&%$.  ",
"  .$%&$.                                                .$&%$.  ",
"  .$%&$.                                                .$&%$.  ",
"  .$%&$.                                                .$&%$.  ",
"  .$%&$.                                                .$&%$.  ",
"  .$%&$.                                                .$&%$.  ",
"  .$%&$.                                                .$&%$.  ",
"  .$%&$.                                                .$&%$.  ",
"  .$....                                                ....$.  ",
" .#.***..                                              ..***.#. ",
" .#.....#.                                            .#.....#. ",
" .+#####@.                                            .@#####+. ",
" .+.+@@@+.                                            .+@@@+.+. ",
"  .$.+++.                                              .+++.$.  ",
"  .$%...                                                ...%$.  ",
"  .$%&$.                                                .$&%$.  ",
"  .$%&$.                                                .$&%$.  ",
"  .$%&$.                                                .$&%$.  "};
