/* XPM */
static char * door_closed6_xpm[] = {
"64 64 14 1",
" 	c None",
".	c #121212",
"+	c #2E2D2D",
"@	c #646464",
"#	c #898989",
"$	c #313B5B",
"%	c #4D5A89",
"&	c #5C6B9B",
"*	c #FF919C",
"=	c #ED1D32",
"-	c #F6B0B7",
";	c #ED0E25",
">	c #FF495B",
",	c #FF7582",
"                                                                ",
"                                                                ",
"                                                                ",
"                                                                ",
"            ....                                ....            ",
"   .........++++................................++++.........   ",
"  .+@@###.+.@@@@.+.$$$$$$$$$$$$$$$$$$$$$$$$$$.+.@@@@.+.###@@+.  ",
"  .++@@##.+.####.+.%%%%%%%%%%%%%%%%%%%%%%%%%%.+.####.+.##@@++.  ",
"  ..++@@#.+.@@@@.+.&&&&&&&&&&&&&&&&&&&&&&&&&&.+.@@@@.+.#@@++..  ",
"  .$........++++................................++++........$.  ",
"  .$%&$.    ....                                ....    .$&%$.  ",
"  .$%&$.                                                .$&%$.  ",
"  .$%&$.                                                .$&%$.  ",
"  .$%&$.                           *                    .$&%$.  ",
"  .$....     ==                   *-             ==     ....$.  ",
" .#.;;;..   =>>=                 *--            =>>=   ..;;;.#. ",
" .#.....#. =>,,>=============**--*==============>,,>= .#.....#. ",
" .+#####@. =,,,,>>>>>>>>>>>>>>>-->>>>>>>>>>>>>>>,,,,= .@#####+. ",
" .+.+@@@+. =>,,>===============**=*=============>,,>= .+@@@+.+. ",
"  .$.+++.   =>>=                **              =>>=   .+++.$.  ",
"  .$%...     ==                                  ==     ...%$.  ",
"  .$%&$.                                                .$&%$.  ",
"  .$%&$.                                                .$&%$.  ",
"  .$%&$.                                                .$&%$.  ",
"  .$%&$.                                                .$&%$.  ",
"  .$%&$.                                                .$&%$.  ",
"  .$%&$.                                                .$&%$.  ",
"  .$%&$.                                                .$&%$.  ",
"  .$%&$.                                                .$&%$.  ",
"  .$%&$.                                                .$&%$.  ",
"  .$%&$.                                                .$&%$.  ",
"  .$%&$.                                                .$&%$.  ",
"  .$%&$.                           *                    .$&%$.  ",
"  .$....     ==                   **             ==     ....$.  ",
" .#.;;;..   =>>=                 ***            =>>=   ..;;;.#. ",
" .#.....#. =>,,>=============*****==============>,,>= .#.....#. ",
" .+#####@. =,,,,>>>>>>>>>>>>>>>**>>>>>>>>>>>>>>>,,,,= .@#####+. ",
" .+.+@@@+. =>,,>===============**=*=============>,,>= .+@@@+.+. ",
"  .$.+++.   =>>=                **              =>>=   .+++.$.  ",
"  .$%...     ==                                  ==     ...%$.  ",
"  .$%&$.                                                .$&%$.  ",
"  .$%&$.                                                .$&%$.  ",
"  .$%&$.                                                .$&%$.  ",
"  .$%&$.                                                .$&%$.  ",
"  .$%&$.                                                .$&%$.  ",
"  .$%&$.                                                .$&%$.  ",
"  .$%&$.                                                .$&%$.  ",
"  .$%&$.                                                .$&%$.  ",
"  .$%&$.                                                .$&%$.  ",
"  .$%&$.                                                .$&%$.  ",
"  .$%&$.                                                .$&%$.  ",
"  .$%&$.                                                .$&%$.  ",
"  .$%&$.                                                .$&%$.  ",
"  .$%&$.                           *                    .$&%$.  ",
"  .$....     ==                   **             ==     ....$.  ",
" .#.;;;..   =>>=                 ***            =>>=   ..;;;.#. ",
" .#.....#. =>,,>=============*****==============>,,>= .#.....#. ",
" .+#####@. =,,,,>>>>>>>>>>>>>>>**>>>>>>>>>>>>>>>,,,,= .@#####+. ",
" .+.+@@@+. =>,,>===============**=*=============>,,>= .+@@@+.+. ",
"  .$.+++.   =>>=                **              =>>=   .+++.$.  ",
"  .$%...     ==                                  ==     ...%$.  ",
"  .$%&$.                                                .$&%$.  ",
"  .$%&$.                                                .$&%$.  ",
"  .$%&$.                                                .$&%$.  "};
