/* XPM */
static char * enemy1_0_xpm[] = {
"64 64 558 2",
"  	c None",
". 	c #A7A2A6",
"+ 	c #A4A2A4",
"@ 	c #8C898B",
"# 	c #7B787B",
"$ 	c #595358",
"% 	c #473744",
"& 	c #A6A1A5",
"* 	c #A4A4A4",
"= 	c #6C6C6C",
"- 	c #707070",
"; 	c #575757",
"> 	c #484848",
", 	c #2F2F2F",
"' 	c #3E2A3A",
") 	c #8D8A8C",
"! 	c #7E7E7E",
"~ 	c #6F6F6F",
"{ 	c #555555",
"] 	c #393939",
"^ 	c #362C34",
"/ 	c #4F414C",
"( 	c #8C8C8C",
"_ 	c #818181",
": 	c #757575",
"< 	c #727272",
"[ 	c #595959",
"} 	c #303030",
"| 	c #7D7A7D",
"1 	c #B9B9B9",
"2 	c #CAC9C9",
"3 	c #BABAC0",
"4 	c #AAA5A4",
"5 	c #8D8A89",
"6 	c #6E6D79",
"7 	c #5A5655",
"8 	c #505050",
"9 	c #30232E",
"0 	c #7B7379",
"a 	c #4C4C4C",
"b 	c #3D332E",
"c 	c #A86F5E",
"d 	c #5D45EE",
"e 	c #E6916C",
"f 	c #B9785D",
"g 	c #5039EC",
"h 	c #A46755",
"i 	c #2E1E14",
"j 	c #202020",
"k 	c #371E33",
"l 	c #33172F",
"m 	c #2A2523",
"n 	c #784F2C",
"o 	c #F4A06E",
"p 	c #F6B59C",
"q 	c #D48456",
"r 	c #BC774C",
"s 	c #F5B49B",
"t 	c #282321",
"u 	c #382032",
"v 	c #573E1F",
"w 	c #DA8754",
"x 	c #F99C62",
"y 	c #EE935B",
"z 	c #EC925B",
"A 	c #553A27",
"B 	c #BB7747",
"C 	c #DD8954",
"D 	c #CC8050",
"E 	c #BD774A",
"F 	c #DC8854",
"G 	c #B97647",
"H 	c #2F131C",
"I 	c #9D6139",
"J 	c #F4985E",
"K 	c #F7AB7B",
"L 	c #5E4221",
"M 	c #250B1A",
"N 	c #2D0628",
"O 	c #373737",
"P 	c #2F211A",
"Q 	c #754D29",
"R 	c #A1663F",
"S 	c #A66941",
"T 	c #9F633C",
"U 	c #2C2019",
"V 	c #2C2B2C",
"W 	c #2C0427",
"X 	c #685E65",
"Y 	c #3C3B3C",
"Z 	c #EBEBEB",
"` 	c #7B7B7B",
" .	c #211B17",
"..	c #4D351C",
"+.	c #AA6940",
"@.	c #37251C",
"#.	c #777777",
"$.	c #C3C3C3",
"%.	c #352F2D",
"&.	c #30141D",
"*.	c #724536",
"=.	c #A9664A",
"-.	c #A96848",
";.	c #6B6361",
">.	c #404040",
",.	c #7C7C7C",
"'.	c #2E2E2E",
").	c #1D1006",
"!.	c #261408",
"~.	c #342F2C",
"{.	c #7D7A78",
"].	c #8E5C38",
"^.	c #925D35",
"/.	c #A86840",
"(.	c #A96745",
"_.	c #8C563E",
":.	c #804E3B",
"<.	c #D88552",
"[.	c #E28956",
"}.	c #B37148",
"|.	c #66615F",
"1.	c #56432E",
"2.	c #3A3330",
"3.	c #584B46",
"4.	c #875732",
"5.	c #402C14",
"6.	c #865630",
"7.	c #4D3A31",
"8.	c #925F3A",
"9.	c #B57144",
"0.	c #D88652",
"a.	c #D78552",
"b.	c #A96940",
"c.	c #8A553E",
"d.	c #AB6846",
"e.	c #E38A56",
"f.	c #B87246",
"g.	c #C97C4E",
"h.	c #53443E",
"i.	c #63605E",
"j.	c #DF8755",
"k.	c #E18855",
"l.	c #A1633A",
"m.	c #D68451",
"n.	c #CD7E4E",
"o.	c #A5673E",
"p.	c #B77546",
"q.	c #7E5034",
"r.	c #D98556",
"s.	c #81532D",
"t.	c #B16E43",
"u.	c #AF6D44",
"v.	c #4A403B",
"w.	c #453B37",
"x.	c #945E38",
"y.	c #CB7D4E",
"z.	c #9F623A",
"A.	c #986037",
"B.	c #976037",
"C.	c #8A5631",
"D.	c #7C502C",
"E.	c #9B613A",
"F.	c #5A401F",
"G.	c #A0643C",
"H.	c #7B4B39",
"I.	c #CD7C56",
"J.	c #E48A57",
"K.	c #A4663D",
"L.	c #533C1D",
"M.	c #83522E",
"N.	c #C27849",
"O.	c #935D37",
"P.	c #372B25",
"Q.	c #443B36",
"R.	c #8D5A35",
"S.	c #644424",
"T.	c #C87C4D",
"U.	c #955F36",
"V.	c #CA7C4D",
"W.	c #C97C4D",
"X.	c #784E2A",
"Y.	c #754C28",
"Z.	c #503B1B",
"`.	c #9C6038",
" +	c #7A4D33",
".+	c #D07F54",
"++	c #E48A56",
"@+	c #905C34",
"#+	c #342921",
"$+	c #4F3A1B",
"%+	c #A1653C",
"&+	c #DF8754",
"*+	c #945E36",
"=+	c #372B24",
"-+	c #3D3836",
";+	c #403A36",
">+	c #8E5B35",
",+	c #7A4F2B",
"'+	c #9A5F37",
")+	c #543D1C",
"!+	c #6F4926",
"~+	c #3A2912",
"{+	c #9E6139",
"]+	c #65412C",
"^+	c #E5895A",
"/+	c #E78B58",
"(+	c #332610",
"_+	c #724B27",
":+	c #C77C4C",
"<+	c #D68552",
"[+	c #8E5A33",
"}+	c #2A1A0F",
"|+	c #222121",
"1+	c #433A36",
"2+	c #895833",
"3+	c #744C2A",
"4+	c #563E1D",
"5+	c #704A26",
"6+	c #3C2913",
"7+	c #C77B4C",
"8+	c #CC7D4E",
"9+	c #8D5939",
"0+	c #BB7450",
"a+	c #E68B57",
"b+	c #E38956",
"c+	c #6B4724",
"d+	c #30240E",
"e+	c #5B3F1F",
"f+	c #C3794A",
"g+	c #6B4726",
"h+	c #8C5933",
"i+	c #231409",
"j+	c #24150D",
"k+	c #2C2521",
"l+	c #403935",
"m+	c #885732",
"n+	c #714A27",
"o+	c #2E230E",
"p+	c #6D4827",
"q+	c #B8744B",
"r+	c #A56543",
"s+	c #A8683F",
"t+	c #4F331A",
"u+	c #2F230E",
"v+	c #28200C",
"w+	c #332613",
"x+	c #835332",
"y+	c #9E633D",
"z+	c #674627",
"A+	c #C88058",
"B+	c #664B34",
"C+	c #9F6543",
"D+	c #23140C",
"E+	c #0C0B0A",
"F+	c #1D1107",
"G+	c #2D220F",
"H+	c #463219",
"I+	c #C67A4C",
"J+	c #BB764C",
"K+	c #E58A57",
"L+	c #DD8654",
"M+	c #422C15",
"N+	c #292110",
"O+	c #3B3A39",
"P+	c #6E6C6C",
"Q+	c #595554",
"R+	c #4C4A49",
"S+	c #D3D1D0",
"T+	c #B0B0B0",
"U+	c #959392",
"V+	c #2E2D2D",
"W+	c #353535",
"X+	c #212121",
"Y+	c #201F1F",
"Z+	c #0A0703",
"`+	c #382B14",
" @	c #53381D",
".@	c #B97350",
"+@	c #CE7F4F",
"@@	c #965F36",
"#@	c #A1643C",
"$@	c #573D1D",
"%@	c #2B2311",
"&@	c #3A3A39",
"*@	c #6C6C6B",
"=@	c #575453",
"-@	c #43403E",
";@	c #807E7E",
">@	c #7C7C7B",
",@	c #524F4E",
"'@	c #292624",
")@	c #373736",
"!@	c #242321",
"~@	c #0D0904",
"{@	c #423017",
"]@	c #985E37",
"^@	c #6E4827",
"/@	c #9B5E3E",
"(@	c #CE7E53",
"_@	c #CC7E4E",
":@	c #9F643C",
"<@	c #563D1D",
"[@	c #2B220D",
"}@	c #342714",
"|@	c #543F24",
"1@	c #825230",
"2@	c #83522F",
"3@	c #805333",
"4@	c #5B4227",
"5@	c #7D4F2E",
"6@	c #604222",
"7@	c #4F3B1D",
"8@	c #4B391A",
"9@	c #2D230F",
"0@	c #392C14",
"a@	c #A16140",
"b@	c #CE7D53",
"c@	c #895831",
"d@	c #8E5B34",
"e@	c #B26F43",
"f@	c #A6673F",
"g@	c #5E4120",
"h@	c #9D623B",
"i@	c #A5673F",
"j@	c #A4663E",
"k@	c #8D5A33",
"l@	c #31250F",
"m@	c #C97B51",
"n@	c #CB7A56",
"o@	c #A4653D",
"p@	c #50371C",
"q@	c #B47044",
"r@	c #D08050",
"s@	c #CF7F4F",
"t@	c #A76840",
"u@	c #9E633B",
"v@	c #6C4824",
"w@	c #413018",
"x@	c #30240F",
"y@	c #4F361C",
"z@	c #7B502D",
"A@	c #774937",
"B@	c #F49E70",
"C@	c #C67D4F",
"D@	c #422D16",
"E@	c #915C34",
"F@	c #CD7E4F",
"G@	c #7E4F2B",
"H@	c #433119",
"I@	c #3C2A14",
"J@	c #F29C6D",
"K@	c #F9B38D",
"L@	c #F2B089",
"M@	c #402B1D",
"N@	c #8F5B34",
"O@	c #C67B4B",
"P@	c #5C3F1F",
"Q@	c #A5663F",
"R@	c #7D4E2B",
"S@	c #433118",
"T@	c #453320",
"U@	c #F1AE87",
"V@	c #D18258",
"W@	c #F29C72",
"X@	c #925E3A",
"Y@	c #362711",
"Z@	c #634323",
"`@	c #6C4826",
" #	c #6A4726",
".#	c #664524",
"+#	c #382712",
"@#	c #130B03",
"##	c #352611",
"$#	c #3B2913",
"%#	c #382812",
"&#	c #342610",
"*#	c #2C220D",
"=#	c #8D5A37",
"-#	c #C37652",
";#	c #D17F57",
">#	c #5B4020",
",#	c #B06E42",
"'#	c #80512C",
")#	c #4D3A1A",
"!#	c #2A210D",
"~#	c #0C0702",
"{#	c #493718",
"]#	c #7F502C",
"^#	c #80502C",
"/#	c #4B3919",
"(#	c #523C1C",
"_#	c #BF7451",
":#	c #503427",
"<#	c #8A5931",
"[#	c #3A2C14",
"}#	c #0E0902",
"|#	c #513C1C",
"1#	c #B67446",
"2#	c #84522E",
"3#	c #7F4F2B",
"4#	c #4F3826",
"5#	c #8A5738",
"6#	c #BD7848",
"7#	c #9B6038",
"8#	c #6D4825",
"9#	c #150C03",
"0#	c #6C4825",
"a#	c #AB6A41",
"b#	c #81512D",
"c#	c #8E5939",
"d#	c #B67145",
"e#	c #9D6138",
"f#	c #6F4925",
"g#	c #32250F",
"h#	c #0D0802",
"i#	c #4C3919",
"j#	c #86542F",
"k#	c #D38251",
"l#	c #B26E43",
"m#	c #694523",
"n#	c #180F05",
"o#	c #4A3819",
"p#	c #754D28",
"q#	c #D68452",
"r#	c #EC915A",
"s#	c #B87245",
"t#	c #724B29",
"u#	c #965D36",
"v#	c #372712",
"w#	c #27221E",
"x#	c #6E4926",
"y#	c #9E6239",
"z#	c #C07A49",
"A#	c #85532F",
"B#	c #503826",
"C#	c #794C32",
"D#	c #A4653B",
"E#	c #D28250",
"F#	c #764D28",
"G#	c #332511",
"H#	c #995E37",
"I#	c #EA9059",
"J#	c #4B351B",
"K#	c #6B442D",
"L#	c #734930",
"M#	c #A2643B",
"N#	c #8A5630",
"O#	c #955C35",
"P#	c #553B1C",
"Q#	c #412C14",
"R#	c #935E35",
"S#	c #774E29",
"T#	c #5C401F",
"U#	c #593E1F",
"V#	c #4A3126",
"W#	c #754837",
"X#	c #B87546",
"Y#	c #AD6C41",
"Z#	c #2D230E",
"`#	c #6C4724",
" $	c #D48351",
".$	c #A5663E",
"+$	c #7C4E2B",
"@$	c #462E25",
"#$	c #603F2B",
"$$	c #5A3E1E",
"%$	c #281F0D",
"&$	c #331F1E",
"*$	c #322410",
"=$	c #6E4925",
"-$	c #885730",
";$	c #2A210E",
">$	c #4B2D2E",
",$	c #30202B",
"'$	c #180D16",
")$	c #170B0D",
"!$	c #0C060B",
"~$	c #030201",
"{$	c #1F0219",
"]$	c #1F021A",
"^$	c #140B04",
"/$	c #1A0E06",
"($	c #100904",
"_$	c #090603",
":$	c #2D1E31",
"<$	c #02026E",
"[$	c #00004E",
"}$	c #000049",
"|$	c #02020B",
"1$	c #1E001A",
"2$	c #1F021C",
"3$	c #1E1E2F",
"4$	c #1E1E27",
"5$	c #1F1F20",
"6$	c #1E1E1E",
"7$	c #1F021B",
"8$	c #2D1E38",
"9$	c #02029F",
"0$	c #000071",
"a$	c #02024D",
"b$	c #1E1E22",
"c$	c #1E002C",
"d$	c #02029D",
"e$	c #040472",
"f$	c #1E1E2A",
"g$	c #1F1F1F",
"h$	c #020274",
"i$	c #00006F",
"j$	c #1F1E23",
"k$	c #2C0227",
"l$	c #2C0029",
"m$	c #02004D",
"n$	c #0000A1",
"o$	c #040450",
"p$	c #371E3E",
"q$	c #06049E",
"r$	c #000074",
"s$	c #2D1E2D",
"t$	c #1D002F",
"u$	c #0000A2",
"v$	c #020253",
"w$	c #2B1D4A",
"x$	c #0202A4",
"y$	c #0000A3",
"z$	c #000076",
"A$	c #1D022A",
"B$	c #361D47",
"C$	c #0504A7",
"D$	c #0000E1",
"E$	c #020275",
"F$	c #1F1E27",
"G$	c #020048",
"H$	c #0000A5",
"I$	c #0000CB",
"J$	c #020072",
"K$	c #2B002E",
"L$	c #371E3D",
"M$	c #0706A0",
"N$	c #0202C0",
"O$	c #02028E",
"P$	c #04046D",
"Q$	c #1E1E26",
"R$	c #2C002B",
"S$	c #04025F",
"T$	c #020258",
"U$	c #020265",
"V$	c #04023F",
"W$	c #2C0028",
"X$	c #2E1F2C",
"Y$	c #1F1F30",
"Z$	c #1F1F36",
"`$	c #1F1F2B",
" %	c #1F041B",
".%	c #2D1E2F",
"+%	c #1F1F24",
"@%	c #1F1F2F",
"#%	c #1F1F26",
"$%	c #1E1E21",
"                                                                                                                                ",
"                                                                                                                                ",
"                                                                                                                                ",
"                                                                                                                                ",
"                                                                                                                                ",
"                                                                                                                                ",
"                                                                                                                                ",
"                                                                                                                                ",
"                                                                                                                                ",
"                                                                                                                                ",
"                                                                                                                                ",
"                                                                                                                                ",
"                                                                                                                                ",
"                                                                                                                                ",
"                                                                                                                                ",
"                                                                                                                                ",
"                                                          . + @ # $ %                                                           ",
"                                                        & * = - ; > , '                                                         ",
"                                                        ) ! - ~ { > ] ^                                                         ",
"                                                      / ( _ : < [ { > } '                                                       ",
"                                                      | 1 2 3 4 5 6 7 8 9                                                       ",
"                                                    0 a b c d e f g h i j k                                                     ",
"                                                    l m n o p q r s o n t k                                                     ",
"                                                      u v w x y z x w v u                                                       ",
"                                                        A B C D E F G A                                                         ",
"                                                        H I J K K J L M                                                         ",
"                                                      N O P Q R S T U V W                                                       ",
"                                                    X Y Z `  ...+.@.#.$.%.&.*.                                                  ",
"                                                =.-.;.>.,.$.'.).!.~.$.{.].^./.(._.                                              ",
"                                              :.<.[.}.|.1.2.3.4.5.6.7.8.9.<.0.a.b.c.                                            ",
"                                              d.e.f.g.h.i.].j.k.l.a.m.a.a.n.o.b.p.q.                                            ",
"                                              r.[.s.t.u.v.w.x.y.z.n.A.B.C.D.E.F.G.p.H.                                          ",
"                                            I.J.K.L.M.N.O.P.Q.R.S.T.U.V.W.X.Y.Z.`.y. +                                          ",
"                                            .+++@+#+$+%+&+*+=+-+;+>+,+`.'+)+!+~+{+y.]+                                          ",
"                                            ^+/+V.!+(+_+:+<+[+}+|+1+2+3+4+5+(+6+7+8+9+                                          ",
"                                          0+a+b+{+c+d+e+f+m.g+h+i+j+k+l+m+n+o+o+p+l.q+                                          ",
"                                          r+b+s+t+u+v+w+x+y+z+A+B+C+D+E+F+G+v+H+I+8+J+                                          ",
"                                          r+K+b+L+M+N+O+P+Q+R+S+T+U+V+W+X+Y+Z+`+ @`.q+                                          ",
"                                          .@+@@@#@$@%@&@*@=@-@;@>@,@'@)@!@Y+~@{@]@^@/@                                          ",
"                                            (@_@:@<@[@}@|@1@2@3@4@5@6@7@8@9@0@!+W.y.a@                                          ",
"                                            b@_@c@(+~+d@e@_@_@f@g@h@i@j@k@<@l@c+I y.m@                                          ",
"                                            n@o@p@(+k@q@+@r@s@t@g@u@/.t@@+v@w@x@y@z@A@                                          ",
"                                              B@C@D@E@F@r@r@s@t@g@u@/.t@@+G@H@I@C@J@                                            ",
"                                              K@L@M@N@y._@O@y.j@P@E.Q@j@[+R@S@T@U@V@                                            ",
"                                              W@X@Y@Z@`@ #.#Z@+#@###$#6+%#&#*#(+=#-#                                            ",
"                                                ;#>#,#y.t.'#)#!#~#{#]#^#R@c+/#(#_#                                              ",
"                                                  :#G +@q@<#c+[#}#|#1#f@2#3#c+4#                                                ",
"                                                  5#6#+@q@7#8#[#9#0#p.a#Q@b#v@4#                                                ",
"                                                  c#b+r@d#e#f#g#h#i#j#m.b.b#v@4#                                                ",
"                                                  c#++k#a.l#'+m#n#o#p#q#a#b#c+4#                                                ",
"                                                  c#b+r#s#t#u#v#w#x#y#z#<+A#$@B#                                                ",
"                                                  C#D#++s@E#F#x@G#H#k.I#a.h@J#K#                                                ",
"                                                  L#G +@M#N#O#P#[@Q#y#R#S#T#U#V#                                                ",
"                                                  W#p.B X#Y#P@o+Z#`#p. $.$+$(+@$                                                ",
"                                                    #$]#]#$$Z#%$&$*$=$-$6@H@;$>$                                                ",
"                                                    ,$'$)$!$~${$  ]$^$/$($_$]$                                                  ",
"                                                    :$<$[$}$|$1$  2$3$4$5$6$7$                                                  ",
"                                                    8$9$0$a$b$7$  c$d$e$f$g$7$                                                  ",
"                                                    :$h$i$a$j$k$  l$m$n$o$b$7$                                                  ",
"                                                    p$q$r$a$s$      t$u$v$b$k$                                                  ",
"                                                      w$x$v$s$      t$y$z$A$                                                    ",
"                                                    B$C$D$E$F$k$  l$G$H$I$J$K$                                                  ",
"                                                  L$M$N$O$P$Q$k$  R$S$T$9$U$V$W$                                                ",
"                                                  X$Y$Z$`$4$ %      .%+%@%#%$%7$                                                "};
