/* XPM */
static char * enemy1_3_xpm[] = {
"64 64 461 2",
"  	c None",
". 	c #827C81",
"+ 	c #A3A0A2",
"@ 	c #8C898B",
"# 	c #7B787B",
"$ 	c #595358",
"% 	c #473744",
"& 	c #817A80",
"* 	c #A2A1A1",
"= 	c #6C6C6C",
"- 	c #707070",
"; 	c #575757",
"> 	c #484848",
", 	c #2F2F2F",
"' 	c #3E2A3A",
") 	c #8B888B",
"! 	c #7E7E7E",
"~ 	c #6F6F6F",
"{ 	c #555555",
"] 	c #393939",
"^ 	c #362C34",
"/ 	c #7F787E",
"( 	c #8D8D8D",
"_ 	c #818181",
": 	c #757575",
"< 	c #727272",
"[ 	c #595959",
"} 	c #303030",
"| 	c #3E2B3B",
"1 	c #7E777D",
"2 	c #B9B9B9",
"3 	c #CAC9C9",
"4 	c #BABAC0",
"5 	c #A6A4A4",
"6 	c #8A8988",
"7 	c #6D6D79",
"8 	c #575554",
"9 	c #505050",
"0 	c #393838",
"a 	c #463643",
"b 	c #7A7679",
"c 	c #4C4C4C",
"d 	c #3C322E",
"e 	c #A26B5C",
"f 	c #5441EE",
"g 	c #9F6757",
"h 	c #83554D",
"i 	c #4734EC",
"j 	c #82534A",
"k 	c #281B12",
"l 	c #222222",
"m 	c #3F363D",
"n 	c #42303F",
"o 	c #2B2624",
"p 	c #784F2C",
"q 	c #F49F6E",
"r 	c #F6B49C",
"s 	c #D18255",
"t 	c #BA754C",
"u 	c #F5B49B",
"v 	c #F39F6E",
"w 	c #282321",
"x 	c #382032",
"y 	c #573E1F",
"z 	c #DA8754",
"A 	c #F99C62",
"B 	c #EE935B",
"C 	c #EC925B",
"D 	c #553A27",
"E 	c #BB7747",
"F 	c #DD8954",
"G 	c #CC8050",
"H 	c #BD774A",
"I 	c #DC8854",
"J 	c #B97647",
"K 	c #543A27",
"L 	c #2C0126",
"M 	c #231308",
"N 	c #9D6139",
"O 	c #F4985E",
"P 	c #F7AB7B",
"Q 	c #5E4221",
"R 	c #130B04",
"S 	c #2C0026",
"T 	c #685E65",
"U 	c #151415",
"V 	c #161515",
"W 	c #3C322D",
"X 	c #764D29",
"Y 	c #A1663F",
"Z 	c #A2673F",
"` 	c #9F643C",
" .	c #3A322D",
"..	c #151515",
"+.	c #1E021A",
"@.	c #C27654",
"#.	c #686361",
"$.	c #3F3F3F",
"%.	c #717170",
"&.	c #C2C2C1",
"*.	c #33302E",
"=.	c #2B180A",
"-.	c #261508",
";.	c #38312E",
">.	c #70706F",
",.	c #35231A",
"'.	c #925940",
").	c #C57853",
"!.	c #C47A4C",
"~.	c #554D4B",
"{.	c #605F5F",
"].	c #58422A",
"^.	c #3F3530",
"/.	c #584B46",
"(.	c #855731",
"_.	c #654425",
":.	c #443B36",
"<.	c #3C332F",
"[.	c #422A1E",
"}.	c #B16E43",
"|.	c #D68452",
"1.	c #A46348",
"2.	c #A26247",
"3.	c #CE7F4F",
"4.	c #B97648",
"5.	c #584C47",
"6.	c #423D3B",
"7.	c #8B5A34",
"8.	c #B06E42",
"9.	c #DF8755",
"0.	c #BD7848",
"a.	c #D48351",
"b.	c #B16F44",
"c.	c #D58451",
"d.	c #DA8753",
"e.	c #D18150",
"f.	c #CC7E4F",
"g.	c #A36247",
"h.	c #A36443",
"i.	c #E08855",
"j.	c #986138",
"k.	c #AC6C43",
"l.	c #4B3E39",
"m.	c #443B37",
"n.	c #8F5B35",
"o.	c #B47044",
"p.	c #A4663D",
"q.	c #955F36",
"r.	c #976037",
"s.	c #B67144",
"t.	c #E38956",
"u.	c #CF7F4F",
"v.	c #BE7949",
"w.	c #BA7647",
"x.	c #7B4B39",
"y.	c #A26442",
"z.	c #925D35",
"A.	c #A4663F",
"B.	c #372A24",
"C.	c #352922",
"D.	c #8F5B34",
"E.	c #B67446",
"F.	c #A2653D",
"G.	c #B87546",
"H.	c #C97C4D",
"I.	c #915C34",
"J.	c #B37044",
"K.	c #A2663D",
"L.	c #BC7848",
"M.	c #CC7E4E",
"N.	c #7A4D33",
"O.	c #B9744B",
"P.	c #AA6941",
"Q.	c #9E6139",
"R.	c #7D512D",
"S.	c #2F2621",
"T.	c #2F2722",
"U.	c #483C37",
"V.	c #8B5934",
"W.	c #81532E",
"X.	c #A3663E",
"Y.	c #A1653F",
"Z.	c #A1653C",
"`.	c #BA7747",
" +	c #65412C",
".+	c #BC764D",
"++	c #A86840",
"@+	c #9C6138",
"#+	c #7C502C",
"$+	c #443119",
"%+	c #140F0A",
"&+	c #422E24",
"*+	c #D88856",
"=+	c #F7AB7C",
"-+	c #F6B289",
";+	c #CE8152",
">+	c #7F522D",
",+	c #CB7D4E",
"'+	c #8D5939",
")+	c #C77A50",
"!+	c #A6673F",
"~+	c #744C28",
"{+	c #C77C4C",
"]+	c #C17849",
"^+	c #754C28",
"/+	c #443219",
"(+	c #583E25",
"_+	c #F6AB7B",
":+	c #F0965F",
"<+	c #DE8B58",
"[+	c #A2643B",
"}+	c #B6724A",
"|+	c #CC7B56",
"1+	c #CF8050",
"2+	c #6B4826",
"3+	c #513C1D",
"4+	c #9E633D",
"5+	c #C2794C",
"6+	c #8A5734",
"7+	c #C77F55",
"8+	c #765337",
"9+	c #915F39",
"0+	c #F4A97A",
"a+	c #EE945D",
"b+	c #DB8854",
"c+	c #D78552",
"d+	c #B26F43",
"e+	c #AF6D42",
"f+	c #764B31",
"g+	c #F49E70",
"h+	c #A2663F",
"i+	c #433C39",
"j+	c #595554",
"k+	c #736F6D",
"l+	c #5F5D5C",
"m+	c #BBB8B7",
"n+	c #AEADAC",
"o+	c #494542",
"p+	c #5D4129",
"q+	c #C97C4E",
"r+	c #B16E44",
"s+	c #50341B",
"t+	c #875730",
"u+	c #895931",
"v+	c #885830",
"w+	c #70472E",
"x+	c #F4AE8C",
"y+	c #C47A52",
"z+	c #493E3A",
"A+	c #565453",
"B+	c #6F6D6C",
"C+	c #5A5756",
"D+	c #7F7D7C",
"E+	c #7D7C7B",
"F+	c #3F3D3C",
"G+	c #3E3937",
"H+	c #473D37",
"I+	c #694624",
"J+	c #714535",
"K+	c #65422D",
"L+	c #724C2A",
"M+	c #835433",
"N+	c #835331",
"O+	c #835434",
"P+	c #805333",
"Q+	c #593F20",
"R+	c #7E4F2D",
"S+	c #5F4223",
"T+	c #5E4121",
"U+	c #6B4724",
"V+	c #704535",
"W+	c #854F3C",
"X+	c #CD7F4F",
"Y+	c #794E2A",
"Z+	c #9D623A",
"`+	c #905C34",
" @	c #86572F",
".@	c #734C28",
"+@	c #563D1D",
"@@	c #3B2520",
"#@	c #955C3C",
"$@	c #D08050",
"%@	c #F89A5F",
"&@	c #EF935B",
"*@	c #A96940",
"=@	c #8B5931",
"-@	c #9D623B",
";@	c #5C4020",
">@	c #573A28",
",@	c #B46E49",
"'@	c #E48A56",
")@	c #F7995E",
"!@	c #ED925B",
"~@	c #CD7E4F",
"{@	c #9B6038",
"]@	c #794F2A",
"^@	c #8F5B33",
"/@	c #4F3726",
"(@	c #B26D48",
"_@	c #A5673E",
":@	c #996138",
"<@	c #9A6138",
"[@	c #986137",
"}@	c #965F37",
"|@	c #935D35",
"1@	c #9C623A",
"2@	c #8D5A33",
"3@	c #734B28",
"4@	c #5B3F20",
"5@	c #483026",
"6@	c #A16342",
"7@	c #B57144",
"8@	c #BE7848",
"9@	c #D98653",
"0@	c #C67B4B",
"a@	c #714A26",
"b@	c #382912",
"c@	c #5F4121",
"d@	c #553D1D",
"e@	c #433219",
"f@	c #472F26",
"g@	c #955D3C",
"h@	c #E68B57",
"i@	c #E78C58",
"j@	c #DB8754",
"k@	c #C57A4B",
"l@	c #895831",
"m@	c #5E4120",
"n@	c #6C4824",
"o@	c #493819",
"p@	c #4C2E2F",
"q@	c #955B41",
"r@	c #E88C58",
"s@	c #C77B4C",
"t@	c #8A5931",
"u@	c #604221",
"v@	c #7E4F2B",
"w@	c #593B28",
"x@	c #DB8657",
"y@	c #E78B58",
"z@	c #C77B4B",
"A@	c #624322",
"B@	c #7F502C",
"C@	c #603F2B",
"D@	c #AB674A",
"E@	c #E58A57",
"F@	c #B97346",
"G@	c #784E2A",
"H@	c #754D28",
"I@	c #724B27",
"J@	c #61402B",
"K@	c #BE774D",
"L@	c #E28956",
"M@	c #B36E44",
"N@	c #D68552",
"O@	c #915D34",
"P@	c #975D36",
"Q@	c #583E1E",
"R@	c #704A27",
"S@	c #633E33",
"T@	c #DF8658",
"U@	c #AE6B42",
"V@	c #C97D4D",
"W@	c #C87C4C",
"X@	c #A4653C",
"Y@	c #BF7748",
"Z@	c #774E2A",
"`@	c #5A3F1E",
" #	c #553D1C",
".#	c #533B1C",
"+#	c #45321A",
"@#	c #623D33",
"##	c #88503C",
"$#	c #86532F",
"%#	c #C47A4A",
"&#	c #A76840",
"*#	c #7A4F2B",
"=#	c #46331A",
"-#	c #523B1C",
";#	c #483719",
">#	c #3F3019",
",#	c #2F202A",
"'#	c #824F34",
")#	c #6C4825",
"!#	c #28231F",
"~#	c #23211F",
"{#	c #22211F",
"]#	c #211F1F",
"^#	c #2D0428",
"/#	c #824D3A",
"(#	c #7F4F2C",
"_#	c #885831",
":#	c #6D4825",
"<#	c #30240F",
"[#	c #050409",
"}#	c #020209",
"|#	c #1F041B",
"1#	c #290D25",
"2#	c #2A2330",
"3#	c #2A2428",
"4#	c #2B2421",
"5#	c #25211F",
"6#	c #00003D",
"7#	c #000042",
"8#	c #020240",
"9#	c #2D1E2C",
"0#	c #1E0072",
"a#	c #0202A1",
"b#	c #04046F",
"c#	c #1E1E26",
"d#	c #040404",
"e#	c #000007",
"f#	c #020242",
"g#	c #000079",
"h#	c #020262",
"i#	c #2D1E2F",
"j#	c #1E0074",
"k#	c #0000A4",
"l#	c #020271",
"m#	c #1E1E27",
"n#	c #020202",
"o#	c #1E1E2E",
"p#	c #020292",
"q#	c #020268",
"r#	c #2D1E33",
"s#	c #2C0075",
"t#	c #0200A4",
"u#	c #040203",
"v#	c #1D0219",
"w#	c #1E1E2A",
"x#	c #040484",
"y#	c #020291",
"z#	c #200465",
"A#	c #1D00A2",
"B#	c #2D1E35",
"C#	c #371E37",
"D#	c #1D0037",
"E#	c #020272",
"F#	c #1E1E2F",
"G#	c #1E021E",
"H#	c #2B0055",
"I#	c #020074",
"J#	c #0000CA",
"K#	c #02027E",
"L#	c #020043",
"M#	c #2C0229",
"N#	c #453445",
"O#	c #070563",
"P#	c #000085",
"Q#	c #0000A1",
"R#	c #020285",
"S#	c #040457",
"T#	c #212025",
"U#	c #463542",
"V#	c #3F363E",
"W#	c #050542",
"X#	c #000045",
"Y#	c #020247",
"Z#	c #1E1E2C",
"`#	c #1F1F24",
" $	c #212122",
"                                                                                                                                ",
"                                                                                                                                ",
"                                                                                                                                ",
"                                                                                                                                ",
"                                                                                                                                ",
"                                                                                                                                ",
"                                                                                                                                ",
"                                                                                                                                ",
"                                                                                                                                ",
"                                                                                                                                ",
"                                                                                                                                ",
"                                                                                                                                ",
"                                                                                                                                ",
"                                                                                                                                ",
"                                                                                                                                ",
"                                                                                                                                ",
"                                                                                                                                ",
"                                                                                                                                ",
"                                                          . + @ # $ %                                                           ",
"                                                        & * = - ; > , '                                                         ",
"                                                        ) ! - ~ { > ] ^                                                         ",
"                                                      / ( _ : < [ { > } |                                                       ",
"                                                    1 ! 2 3 4 5 6 7 8 9 0 a                                                     ",
"                                                    b c d e f g h i j k l m                                                     ",
"                                                    n o p q r s t u v p w '                                                     ",
"                                                      x y z A B C A z y x                                                       ",
"                                                        D E F G H I J K                                                         ",
"                                                      L M N O P P O Q R S                                                       ",
"                                                    T U V W X Y Z `  ...+.                                                      ",
"                                                  @.#.$.%.&.*.=.-.;.&.>.,.'.                                                    ",
"                                                ).!.~.{.].^./.(._.:.<.[.}.|.1.                                                  ",
"                                              2.3.4.5.6.7.8.9.0.a.b.}.c.d.e.f.g.                                                ",
"                                              h.i.j.k.l.m.n.o.E p.q.r.s.t.u.v.w.x.                                              ",
"                                              y.E z.N A.B.C.D.E.F.G.H.I.J.K.L.M.N.                                              ",
"                                              O.P.X Q.a.R.S.T.U.V.W.X.Y.Z.Q `.M. +                                              ",
"                                              .+f.++@+0.a.#+$+%+&+*+=+-+;+>+`.,+'+                                              ",
"                                              )+3.!+~+++{+]+^+/+(+_+:+<+d.o.J.[+}+                                              ",
"                                              |+1+2+3+4+5+6+7+8+9+0+a+b+c+o.d+e+f+                                              ",
"                                                g+h+i+j+k+l+m+n+o+p+q+r+s+t+u+v+w+                                              ",
"                                                x+y+z+A+B+C+D+E+F+G+l.H+I+~+^+~+J+                                              ",
"                                                    K+L+M+N+O+P+Q+R+R+S+T+U+U+V+                                                ",
"                                                  W+d+3.u.X+E !+Y+Z+`+ @.@+@@@                                                  ",
"                                                  #@$@%@&@I 3.*@=@-@`+v+~+;@>@                                                  ",
"                                                  ,@'@)@!@d.~@++{@]@^@v+~+;@/@                                                  ",
"                                                  (@_@:@<@[@}@|@1@X 2@ @3@4@5@                                                  ",
"                                                  6@7@8@9@9@0@Z.a@b@T+c@d@e@f@                                                  ",
"                                                  g@9@h@i@i@j@k@l@m@n@U++@o@p@                                                  ",
"                                                  q@d.r@r@r@h@s@t@u@v@~+U+w@                                                    ",
"                                                    x@r@r@r@y@z@|@A@B@^+3@C@                                                    ",
"                                                  D@E@h@r@r@h@F@e+G@t+H@I@J@                                                    ",
"                                                  K@L@M@E@y@h@N@O@v+P@~+Q@R@S@                                                  ",
"                                                  T@U@0@V@V@W@X@Y@Z@`@ #.#+#@#                                                  ",
"                                                  ##$#%#W@W@s@&#*#=#-#;#>#,#                                                    ",
"                                                    '#Q.%#0@k@!+)#!#~#{#]#^#                                                    ",
"                                                    /#(#l@l@_#:#<#[#}#}#|#                                                      ",
"                                                      1#2#3#4#5#[#6#7#8#9#                                                      ",
"                                                      0#a#b#c#d#e#f#g#h#i#                                                      ",
"                                                      j#k#l#m#n#n#o#p#q#r#                                                      ",
"                                                      s#t#l#m#u#v#w#x#y#z#                                                      ",
"                                                        A#l#m#+.  ^#r#B#C#                                                      ",
"                                                        D#E#F#G#                                                                ",
"                                                      H#I#J#K#L#M#                                                              ",
"                                                    N#O#P#Q#R#S#T#U#                                                            ",
"                                                    V#W#X#Y#Z#`# $m                                                             "};
