/* XPM */
static char * enemy1_4_xpm[] = {
"64 64 543 2",
"  	c None",
". 	c #827C81",
"+ 	c #A3A0A2",
"@ 	c #8C898B",
"# 	c #7B787B",
"$ 	c #595358",
"% 	c #473744",
"& 	c #817A80",
"* 	c #A2A1A1",
"= 	c #6C6C6C",
"- 	c #707070",
"; 	c #575757",
"> 	c #484848",
", 	c #2F2F2F",
"' 	c #3E2A3A",
") 	c #8B888B",
"! 	c #7E7E7E",
"~ 	c #6F6F6F",
"{ 	c #555555",
"] 	c #393939",
"^ 	c #362C34",
"/ 	c #7F787E",
"( 	c #8D8D8D",
"_ 	c #818181",
": 	c #757575",
"< 	c #727272",
"[ 	c #595959",
"} 	c #303030",
"| 	c #3E2B3B",
"1 	c #7E777D",
"2 	c #B9B9B9",
"3 	c #CAC9C9",
"4 	c #BABAC0",
"5 	c #A6A4A4",
"6 	c #8A8988",
"7 	c #6D6D79",
"8 	c #575554",
"9 	c #505050",
"0 	c #393838",
"a 	c #463643",
"b 	c #7A7679",
"c 	c #4C4C4C",
"d 	c #3C322E",
"e 	c #A26B5C",
"f 	c #5441EE",
"g 	c #9F6757",
"h 	c #83554D",
"i 	c #4734EC",
"j 	c #82534A",
"k 	c #281B12",
"l 	c #222222",
"m 	c #3F363D",
"n 	c #42303F",
"o 	c #2B2624",
"p 	c #784F2C",
"q 	c #F49F6E",
"r 	c #F6B49C",
"s 	c #D18255",
"t 	c #BA754C",
"u 	c #F5B49B",
"v 	c #F39F6E",
"w 	c #282321",
"x 	c #382032",
"y 	c #573E1F",
"z 	c #DA8754",
"A 	c #F99C62",
"B 	c #EE935B",
"C 	c #EC925B",
"D 	c #553A27",
"E 	c #BB7747",
"F 	c #DD8954",
"G 	c #CC8050",
"H 	c #BD774A",
"I 	c #DC8854",
"J 	c #B97647",
"K 	c #543A27",
"L 	c #2C0126",
"M 	c #271912",
"N 	c #9E623B",
"O 	c #F3975E",
"P 	c #F7AB7B",
"Q 	c #F2975E",
"R 	c #604425",
"S 	c #19140F",
"T 	c #685E65",
"U 	c #1C1B1B",
"V 	c #585757",
"W 	c #5B5756",
"X 	c #412819",
"Y 	c #8D5C35",
"Z 	c #B06F44",
"` 	c #452A1B",
" .	c #575655",
"..	c #535353",
"+.	c #0F0D0E",
"@.	c #30141C",
"#.	c #724536",
"$.	c #A9664A",
"%.	c #A96848",
"&.	c #6B6361",
"*.	c #464646",
"=.	c #AAAAAA",
"-.	c #919191",
";.	c #212120",
">.	c #261608",
",.	c #261508",
"'.	c #29221F",
").	c #8F8F8F",
"!.	c #777777",
"~.	c #36251C",
"{.	c #905B34",
"].	c #A86840",
"^.	c #824F3B",
"/.	c #D88553",
"(.	c #E38956",
"_.	c #B37148",
":.	c #66615F",
"<.	c #5A4937",
"[.	c #312924",
"}.	c #584A45",
"|.	c #875732",
"1.	c #402C14",
"2.	c #865630",
"3.	c #402D23",
"4.	c #432C20",
"5.	c #B16E43",
"6.	c #D88552",
"7.	c #D98653",
"8.	c #AA664A",
"9.	c #C6794F",
"0.	c #E58B57",
"a.	c #D18150",
"b.	c #CA7D4E",
"c.	c #53443E",
"d.	c #63605E",
"e.	c #8E5C38",
"f.	c #DF8755",
"g.	c #E18855",
"h.	c #A1633A",
"i.	c #D78552",
"j.	c #D58451",
"k.	c #CE7F4F",
"l.	c #C87C4C",
"m.	c #C67B4B",
"n.	c #B97547",
"o.	c #7F4E3A",
"p.	c #C67853",
"q.	c #DB8754",
"r.	c #E48A57",
"s.	c #BE7849",
"t.	c #B47044",
"u.	c #AF6D44",
"v.	c #4A403B",
"w.	c #453B37",
"x.	c #945E38",
"y.	c #CB7D4E",
"z.	c #9F623A",
"A.	c #CD7E4E",
"B.	c #986037",
"C.	c #976037",
"D.	c #8A5631",
"E.	c #7C502C",
"F.	c #9E633B",
"G.	c #935E35",
"H.	c #A1653C",
"I.	c #B6724A",
"J.	c #CF7E53",
"K.	c #BF7949",
"L.	c #A7683F",
"M.	c #87542F",
"N.	c #C17849",
"O.	c #8E5B35",
"P.	c #362B24",
"Q.	c #443B36",
"R.	c #8D5A35",
"S.	c #644424",
"T.	c #C87C4D",
"U.	c #955F36",
"V.	c #CA7C4D",
"W.	c #C97C4D",
"X.	c #784E2A",
"Y.	c #764D29",
"Z.	c #6E4925",
"`.	c #8E5B33",
" +	c #84522E",
".+	c #814C3A",
"++	c #E58A57",
"@+	c #BA7647",
"#+	c #734C27",
"$+	c #513C1B",
"%+	c #8F5B34",
"&+	c #905C34",
"*+	c #8B5933",
"=+	c #312823",
"-+	c #3D3836",
";+	c #403A36",
">+	c #7A4F2B",
",+	c #9C6038",
"'+	c #9A5F37",
")+	c #543D1C",
"!+	c #704A26",
"~+	c #433117",
"{+	c #7E4F2B",
"]+	c #5E3E2A",
"^+	c #CA7D4D",
"/+	c #CD7E4F",
"(+	c #945E36",
"_+	c #6D4824",
":+	c #443219",
"<+	c #593E1E",
"[+	c #8D5A33",
"}+	c #8E5A33",
"|+	c #573D1E",
"1+	c #19120B",
"2+	c #222121",
"3+	c #433A36",
"4+	c #895833",
"5+	c #744C2A",
"6+	c #563E1D",
"7+	c #6F4A26",
"8+	c #553C1D",
"9+	c #3D2F16",
"0+	c #714A27",
"a+	c #744C28",
"b+	c #7F4D33",
"c+	c #E4895A",
"d+	c #AB6A41",
"e+	c #6C4824",
"f+	c #3C2E15",
"g+	c #734B28",
"h+	c #7F502C",
"i+	c #7C4E2B",
"j+	c #5A3E1F",
"k+	c #130C05",
"l+	c #120D09",
"m+	c #2C2421",
"n+	c #403935",
"o+	c #875731",
"p+	c #573D1D",
"q+	c #3A2D15",
"r+	c #392D14",
"s+	c #463319",
"t+	c #614222",
"u+	c #71482F",
"v+	c #E2885A",
"w+	c #C17A4A",
"x+	c #A0633A",
"y+	c #654423",
"z+	c #5D4020",
"A+	c #3B2D15",
"B+	c #3F2F18",
"C+	c #43321A",
"D+	c #5B3F20",
"E+	c #5C4021",
"F+	c #5C4328",
"G+	c #3D311D",
"H+	c #503B21",
"I+	c #0F0A06",
"J+	c #090807",
"K+	c #1D1007",
"L+	c #2A210E",
"M+	c #2A220E",
"N+	c #483718",
"O+	c #624323",
"P+	c #9C623A",
"Q+	c #9D623B",
"R+	c #744736",
"S+	c #BF774D",
"T+	c #E28855",
"U+	c #935D35",
"V+	c #7D4F2B",
"W+	c #3D2E16",
"X+	c #23211F",
"Y+	c #222120",
"Z+	c #252220",
"`+	c #2C2A29",
" @	c #777676",
".@	c #646363",
"+@	c #61605F",
"@@	c #252525",
"#@	c #1F1F1F",
"$@	c #20201F",
"%@	c #4C391A",
"&@	c #A56942",
"*@	c #A2653D",
"=@	c #895637",
"-@	c #BA7450",
";@	c #D08050",
">@	c #CB7F50",
",@	c #A3663D",
"'@	c #4A3819",
")@	c #25231F",
"!@	c #232120",
"~@	c #272320",
"{@	c #2C2826",
"]@	c #646262",
"^@	c #636261",
"/@	c #4B4A48",
"(@	c #272523",
"_@	c #22211F",
":@	c #29210F",
"<@	c #372812",
"[@	c #A76C46",
"}@	c #F4B088",
"|@	c #D98755",
"1@	c #8E5939",
"2@	c #D2835A",
"3@	c #F6B188",
"4@	c #CB7F51",
"5@	c #754C28",
"6@	c #4B3919",
"7@	c #483819",
"8@	c #4B391A",
"9@	c #6A4724",
"0@	c #6D4926",
"a@	c #6E4A2A",
"b@	c #573F23",
"c@	c #6A4826",
"d@	c #5F4122",
"e@	c #4F3B1C",
"f@	c #4E3A1B",
"g@	c #44321A",
"h@	c #403018",
"i@	c #463421",
"j@	c #F2AF87",
"k@	c #DF8C5A",
"l@	c #DA8753",
"m@	c #9F603F",
"n@	c #F6B08B",
"o@	c #DE8C5B",
"p@	c #966036",
"q@	c #A3653E",
"r@	c #5C4020",
"s@	c #724B27",
"t@	c #875730",
"u@	c #A4663E",
"v@	c #5E4020",
"w@	c #81512D",
"x@	c #A5673F",
"y@	c #A6673F",
"z@	c #583E1E",
"A@	c #543728",
"B@	c #D68655",
"C@	c #D88653",
"D@	c #9F5E44",
"E@	c #F69F73",
"F@	c #F7A06D",
"G@	c #D78553",
"H@	c #5E4121",
"I@	c #5F4121",
"J@	c #754D29",
"K@	c #885830",
"L@	c #81512C",
"M@	c #9F633B",
"N@	c #BA7747",
"O@	c #BE7949",
"P@	c #BD7848",
"Q@	c #A0643C",
"R@	c #885637",
"S@	c #633B34",
"T@	c #D58255",
"U@	c #B66E4E",
"V@	c #AB674C",
"W@	c #A96745",
"X@	c #8C5A32",
"Y@	c #6F4A25",
"Z@	c #754D28",
"`@	c #BC7748",
" #	c #E99059",
".#	c #E88F59",
"+#	c #A2653C",
"@#	c #995D3D",
"##	c #995F37",
"$#	c #975E36",
"%#	c #945E35",
"&#	c #8D5832",
"*#	c #64412C",
"=#	c #603E2A",
"-#	c #634322",
";#	c #6F4925",
">#	c #5B3F1F",
",#	c #563D1D",
"'#	c #4B351A",
")#	c #EC915A",
"!#	c #EB915A",
"~#	c #875237",
"{#	c #8F593A",
"]#	c #915C34",
"^#	c #9B6038",
"/#	c #9B5F38",
"(#	c #995E37",
"_#	c #82512D",
":#	c #EE925B",
"<#	c #F0945C",
"[#	c #FA9B60",
"}#	c #ED925B",
"|#	c #CD7D53",
"1#	c #925B3B",
"2#	c #B36F43",
"3#	c #B26F43",
"4#	c #A1643C",
"5#	c #A96840",
"6#	c #EF935C",
"7#	c #F1955D",
"8#	c #FBA26E",
"9#	c #E98E59",
"0#	c #CE7E53",
"a#	c #945A41",
"b#	c #CC7D4E",
"c#	c #B57145",
"d#	c #B37044",
"e#	c #9F643C",
"f#	c #8A5931",
"g#	c #F0945D",
"h#	c #FB9C61",
"i#	c #FCA36F",
"j#	c #F99B60",
"k#	c #C27A4F",
"l#	c #895931",
"m#	c #A7683E",
"n#	c #F6A06C",
"o#	c #FBA36F",
"p#	c #FAA26E",
"q#	c #F69F6F",
"r#	c #B77245",
"s#	c #724B29",
"t#	c #BB7548",
"u#	c #C37C4C",
"v#	c #EA915B",
"w#	c #BE7651",
"x#	c #CC7E4E",
"y#	c #8B5931",
"z#	c #C3794A",
"A#	c #E78F58",
"B#	c #AA6940",
"C#	c #A4653C",
"D#	c #E68C5F",
"E#	c #A4663D",
"F#	c #5C401F",
"G#	c #86572F",
"H#	c #684624",
"I#	c #AC6B41",
"J#	c #71482E",
"K#	c #915840",
"L#	c #915C35",
"M#	c #895831",
"N#	c #85562F",
"O#	c #553D1D",
"P#	c #352811",
"Q#	c #473718",
"R#	c #3A2913",
"S#	c #5A3E1E",
"T#	c #7D4E2B",
"U#	c #5F3838",
"V#	c #6F472E",
"W#	c #6A4723",
"X#	c #6D4925",
"Y#	c #6B4824",
"Z#	c #4A3919",
"`#	c #463617",
" $	c #3F3018",
".$	c #2A210D",
"+$	c #402F17",
"@$	c #433119",
"#$	c #462F25",
"$$	c #4D2F2F",
"%$	c #2F2310",
"&$	c #41301F",
"*$	c #483818",
"=$	c #2A220F",
"-$	c #211F29",
";$	c #080612",
">$	c #271F11",
",$	c #28200C",
"'$	c #28200D",
")$	c #2F202A",
"!$	c #1F0221",
"~$	c #09065E",
"{$	c #212025",
"]$	c #0B0703",
"^$	c #090501",
"/$	c #030219",
"($	c #020280",
"_$	c #000064",
":$	c #03023F",
"<$	c #030207",
"[$	c #060404",
"}$	c #371E32",
"|$	c #1E0022",
"1$	c #020262",
"2$	c #1E1E27",
"3$	c #020202",
"4$	c #0a0a0aff",
"5$	c #00000B",
"6$	c #00004F",
"7$	c #000075",
"8$	c #000041",
"9$	c #000007",
"0$	c #1D0019",
"a$	c #1E0027",
"b$	c #000082",
"c$	c #020244",
"d$	c #00000A",
"e$	c #000016",
"f$	c #000008",
"g$	c #1E001A",
"h$	c #2C0030",
"i$	c #020084",
"j$	c #000063",
"k$	c #000010",
"l$	c #000001",
"m$	c #000019",
"n$	c #1D0084",
"o$	c #000065",
"p$	c #000011",
"q$	c #000081",
"r$	c #000042",
"s$	c #020001",
"t$	c #2C0026",
"u$	c #1D0038",
"v$	c #000083",
"w$	c #00002B",
"x$	c #020002",
"y$	c #1D0026",
"z$	c #020081",
"A$	c #2C0034",
"B$	c #0000A1",
"C$	c #00009C",
"D$	c #1D0021",
"E$	c #2B002F",
"F$	c #1E001E",
"G$	c #1E0066",
"H$	c #020284",
"I$	c #020286",
"J$	c #020267",
"K$	c #00004C",
"L$	c #020048",
"M$	c #2B0029",
"N$	c #1F0264",
"O$	c #1E1E2F",
"P$	c #1F1F2B",
"Q$	c #1E1E25",
"R$	c #02020C",
"                                                                                                                                ",
"                                                                                                                                ",
"                                                                                                                                ",
"                                                                                                                                ",
"                                                                                                                                ",
"                                                                                                                                ",
"                                                                                                                                ",
"                                                                                                                                ",
"                                                                                                                                ",
"                                                                                                                                ",
"                                                                                                                                ",
"                                                                                                                                ",
"                                                                                                                                ",
"                                                                                                                                ",
"                                                                                                                                ",
"                                                                                                                                ",
"                                                                                                                                ",
"                                                          . + @ # $ %                                                           ",
"                                                        & * = - ; > , '                                                         ",
"                                                        ) ! - ~ { > ] ^                                                         ",
"                                                      / ( _ : < [ { > } |                                                       ",
"                                                    1 ! 2 3 4 5 6 7 8 9 0 a                                                     ",
"                                                    b c d e f g h i j k l m                                                     ",
"                                                    n o p q r s t u v p w '                                                     ",
"                                                      x y z A B C A z y x                                                       ",
"                                                        D E F G H I J K                                                         ",
"                                                      L M N O P P Q R S L                                                       ",
"                                                    T U V W X Y Z `  ...+.@.#.                                                  ",
"                                                $.%.&.*.=.-.;.>.,.'.).!.~.{.].$.                                                ",
"                                              ^./.(._.:.<.[.}.|.1.2.3.4.5.6.7.6.8.                                              ",
"                                              9.0.a.b.c.d.e.f.g.h.i.j.j.i.k.l.m.n.o.                                            ",
"                                            p.q.r.s.t.u.v.w.x.y.z.A.B.C.D.E.F.G.H.I.                                            ",
"                                            J.0.K.L.M.N.O.P.Q.R.S.T.U.V.W.X.Y.Z.`. +.+                                          ",
"                                            J.++@+#+$+%+&+*+=+-+;+O.>+,+'+)+!+~+{+{+]+                                          ",
"                                          p.^+/+(+_+:+<+[+}+|+1+2+3+4+5+6+7+8+9+0+a+b+                                          ",
"                                          c+(.d+`.e+f+:+g+h+i+j+k+l+m+n+o+p+q+r+s+t+u+                                          ",
"                                          v+w+x+y+z+A+B+C+D+E+F+G+H+I+J+K+L+M+N+O+P+Q+R+                                        ",
"                                          S+r.T+U+V+W+X+Y+Z+`+ @.@+@@@#@#@$@X+%@P+&@*@=@                                        ",
"                                          -@;@>@,@h+'@)@!@~@{@]@^@/@(@!@!@_@:@<@[@}@|@1@                                        ",
"                                            2@3@4@5@6@7@8@9@0@a@b@c@d@e@f@g@h@i@j@k@l@m@                                        ",
"                                            n@o@p@q@t+r@s@t@u@q@v@w@x@y@x@t@z@A@B@I C@D@                                        ",
"                                            E@F@G@].Y.H@I@J@%+K@L@M@N@O@P@Q@R@  S@T@U@                                          ",
"                                              V@W@X@t@Y@e+a+Z@Z.L@M@`@ #.#+#R@                                                  ",
"                                                  @###$#Z@a+s@<+i+X.`.%#&#a+*#                                                  ",
"                                                  =#-#!+;#Z.>#,#'#M.k.)#!#P@~#                                                  ",
"                                                  {#&+]#^#/#(#_#y@k.:#<#[#}#|#                                                  ",
"                                                  1#2#2#3#4#M@ +5#;@6#7#8#9#0#                                                  ",
"                                                  a#b#c#d#H.e#f#].k.g#h#i#j#k#                                                  ",
"                                                    |#c#d#H.e#l#&+m#n#o#o#p#q#                                                  ",
"                                                    |#r#t.H.e#K@s#.#t#C C u#v#w#                                                ",
"                                                    0#6.x#*@F.y#z#A#&#h.B#L.C#D#                                                ",
"                                                  a#b.E#*@F.K@F#G#H#I#u@ +w@J#                                                  ",
"                                                  K#L##+P+M#N#O#P#Q#R#S#T#T#|+U#                                                ",
"                                                    V#W#X#e+Y#Z#`# $.$+$@$@$#$                                                  ",
"                                                    $$%$&$7@*$`#=$-$;$>$,$'$)$                                                  ",
"                                                      !$~${$]$^$/$($_$:$<$[$}$                                                  ",
"                                                      |$1$2$3$4$5$6$7$8$9$0$                                                    ",
"                                                      a$b$c$9$4$4$d$e$f$4$g$                                                    ",
"                                                      h$i$j$k$4$4$l$m$f$4$0$                                                    ",
"                                                        n$o$p$4$4$m$q$r$9$s$t$                                                  ",
"                                                        u$v$w$5$x$y$z$r$9$s$t$                                                  ",
"                                                      A$i$B$C$6$D$  E$F$g$t$                                                    ",
"                                                      G$H$I$J$K$L$M$                                                            ",
"                                                      N$O$P$Q$R$d$g$                                                            "};
