/* XPM */
static char * enemy1_1_xpm[] = {
"64 64 464 2",
"  	c None",
". 	c #A8A4A7",
"+ 	c #A4A2A4",
"@ 	c #8C898B",
"# 	c #7B787B",
"$ 	c #595358",
"% 	c #473744",
"& 	c #A8A3A7",
"* 	c #C8C8C8",
"= 	c #6F6F6F",
"- 	c #707070",
"; 	c #585858",
"> 	c #494949",
", 	c #393839",
"' 	c #3E2B3B",
") 	c #8E8B8D",
"! 	c #8E8E8E",
"~ 	c #717171",
"{ 	c #6E6E6E",
"] 	c #4A4A4A",
"^ 	c #393939",
"/ 	c #372C35",
"( 	c #837C81",
"_ 	c #8F8F8F",
": 	c #747474",
"< 	c #737373",
"[ 	c #727272",
"} 	c #3A393A",
"| 	c #3F2C3C",
"1 	c #827B80",
"2 	c #B8B8B8",
"3 	c #BCBCBC",
"4 	c #CAC9C8",
"5 	c #A5A5AC",
"6 	c #A6A4A4",
"7 	c #A5A3A3",
"8 	c #888891",
"9 	c #706E6E",
"0 	c #525252",
"a 	c #464646",
"b 	c #473643",
"c 	c #7A7679",
"d 	c #3C3C3B",
"e 	c #5B5350",
"f 	c #A26C5D",
"g 	c #523EEE",
"h 	c #A06858",
"i 	c #9E6657",
"j 	c #4D34EC",
"k 	c #8A5A4D",
"l 	c #2F1E14",
"m 	c #242323",
"n 	c #3F353D",
"o 	c #544751",
"p 	c #39272E",
"q 	c #9A603B",
"r 	c #F6A06F",
"s 	c #F6B59C",
"t 	c #D08255",
"u 	c #AB6A41",
"v 	c #F3976A",
"w 	c #F4975D",
"x 	c #9A5F38",
"y 	c #37242B",
"z 	c #382034",
"A 	c #62412B",
"B 	c #F6995E",
"C 	c #FA9C63",
"D 	c #ED925B",
"E 	c #EA905A",
"F 	c #DD8954",
"G 	c #D88652",
"H 	c #5E3F2A",
"I 	c #563B28",
"J 	c #C77B4B",
"K 	c #DC8854",
"L 	c #AC6D43",
"M 	c #AB6C43",
"N 	c #C87C4C",
"O 	c #B36F43",
"P 	c #543927",
"Q 	c #2C0126",
"R 	c #271912",
"S 	c #9E623B",
"T 	c #F3975E",
"U 	c #F5AA7B",
"V 	c #D78654",
"W 	c #9B5F38",
"X 	c #30102B",
"Y 	c #685E66",
"Z 	c #1B1A1B",
"` 	c #535252",
" .	c #5F5B59",
"..	c #46342B",
"+.	c #5A3F26",
"@.	c #AF6E45",
"#.	c #514039",
"$.	c #433D3B",
"%.	c #585757",
"&.	c #5E5E5E",
"*.	c #341C23",
"=.	c #734636",
"-.	c #6F6364",
";.	c #403F3F",
">.	c #717070",
",.	c #B6B6B6",
"'.	c #A0A0A0",
").	c #2E2723",
"!.	c #261408",
"~.	c #2D2724",
"{.	c #9F9F9F",
"].	c #A09F9F",
"^.	c #463A35",
"/.	c #8F5B34",
"(.	c #B67445",
"_.	c #945A41",
":.	c #BD7551",
"<.	c #DE8858",
"[.	c #6B625F",
"}.	c #56432F",
"|.	c #474544",
"1.	c #4B3B34",
"2.	c #875731",
"3.	c #3E2B13",
"4.	c #82542E",
"5.	c #423028",
"6.	c #4D3B33",
"7.	c #AF6D43",
"8.	c #B97647",
"9.	c #A96940",
"0.	c #A6673F",
"a.	c #935941",
"b.	c #A16045",
"c.	c #E38956",
"d.	c #D08051",
"e.	c #57463F",
"f.	c #69625F",
"g.	c #564C48",
"h.	c #DC8655",
"i.	c #E18855",
"j.	c #8F5B33",
"k.	c #D48351",
"l.	c #D58451",
"m.	c #BB7747",
"n.	c #A86940",
"o.	c #A0643C",
"p.	c #A5663F",
"q.	c #A66544",
"r.	c #BC764C",
"s.	c #DE8955",
"t.	c #F8995E",
"u.	c #CE7F50",
"v.	c #C67B4E",
"w.	c #3B2E28",
"x.	c #5E4D47",
"y.	c #C97C4E",
"z.	c #B06E42",
"A.	c #764D29",
"B.	c #A7683F",
"C.	c #9F6239",
"D.	c #9E6239",
"E.	c #8E5B33",
"F.	c #875830",
"G.	c #583F1E",
"H.	c #9B613A",
"I.	c #794A38",
"J.	c #CF7F54",
"K.	c #F99A5F",
"L.	c #BC7848",
"M.	c #5B4021",
"N.	c #372F2B",
"O.	c #262524",
"P.	c #44352E",
"Q.	c #855631",
"R.	c #6D4925",
"S.	c #875730",
"T.	c #794F2A",
"U.	c #C87C4D",
"V.	c #885830",
"W.	c #4D3A1A",
"X.	c #734B28",
"Y.	c #754A31",
"Z.	c #D07F54",
"`.	c #F89A5F",
" +	c #593F1F",
".+	c #925B35",
"++	c #3B312C",
"@+	c #322E2C",
"#+	c #403A36",
"$+	c #44331C",
"%+	c #6B4724",
"&+	c #604221",
"*+	c #995E37",
"=+	c #523C1C",
"-+	c #2D230E",
";+	c #3F2F16",
">+	c #603F2B",
",+	c #D17F54",
"'+	c #E98D59",
")+	c #F5985D",
"!+	c #AA6A40",
"~+	c #6A4725",
"{+	c #81512D",
"]+	c #7C502C",
"^+	c #6E4927",
"/+	c #362F2A",
"(+	c #533B1D",
"_+	c #6A4724",
":+	c #83552E",
"<+	c #543D1C",
"[+	c #6E4926",
"}+	c #342610",
"|+	c #5C4020",
"1+	c #62402C",
"2+	c #F79761",
"3+	c #C87F4C",
"4+	c #F6985E",
"5+	c #E68B57",
"6+	c #B87346",
"7+	c #CA7E4F",
"8+	c #F4985F",
"9+	c #B67348",
"0+	c #5C4021",
"a+	c #170F07",
"b+	c #29231F",
"c+	c #553C1D",
"d+	c #674522",
"e+	c #46331A",
"f+	c #895637",
"g+	c #E68A5B",
"h+	c #FA9A5F",
"i+	c #FB9C60",
"j+	c #FB9B60",
"k+	c #F79A60",
"l+	c #FAAD7D",
"m+	c #FCB68D",
"n+	c #F5B28A",
"o+	c #9D633D",
"p+	c #2C231F",
"q+	c #040404",
"r+	c #0E0802",
"s+	c #2D220D",
"t+	c #3F2F17",
"u+	c #5F4121",
"v+	c #A46444",
"w+	c #CD7C56",
"x+	c #D28151",
"y+	c #E68C57",
"z+	c #EF935B",
"A+	c #B57146",
"B+	c #F8A26E",
"C+	c #FBA471",
"D+	c #DD8A58",
"E+	c #A76740",
"F+	c #231309",
"G+	c #0a0a0aff",
"H+	c #030201",
"I+	c #0C0702",
"J+	c #483319",
"K+	c #C87B4D",
"L+	c #B36C4D",
"M+	c #B66F49",
"N+	c #B67145",
"O+	c #B77245",
"P+	c #B47044",
"Q+	c #DA8855",
"R+	c #F6A06C",
"S+	c #D98653",
"T+	c #271509",
"U+	c #090501",
"V+	c #0B0702",
"W+	c #49331A",
"X+	c #C87955",
"Y+	c #9D5F3E",
"Z+	c #9B6038",
"`+	c #84522E",
" @	c #85532E",
".@	c #885531",
"+@	c #83522E",
"@@	c #5E4121",
"#@	c #4F3A1B",
"$@	c #4C391A",
"%@	c #32250F",
"&@	c #3B2D14",
"*@	c #6C452D",
"=@	c #B16B4C",
"-@	c #9E6139",
";@	c #8B5931",
">@	c #774E29",
",@	c #754C28",
"'@	c #7E4F2B",
")@	c #5D401F",
"!@	c #9C623A",
"~@	c #A5673F",
"{@	c #9F643C",
"]@	c #865730",
"^@	c #5A3F1E",
"/@	c #B36E49",
"(@	c #BA7647",
"_@	c #A86840",
":@	c #9A5F37",
"<@	c #5E4120",
"[@	c #9E633B",
"}@	c #AC6A41",
"|@	c #CB7D4E",
"1@	c #A1653C",
"2@	c #86562F",
"3@	c #4D3227",
"4@	c #B16D48",
"5@	c #BB7748",
"6@	c #B36F44",
"7@	c #9C6038",
"8@	c #CA7D4E",
"9@	c #CC7E4E",
"0@	c #B16E43",
"a@	c #4B3127",
"b@	c #7F5034",
"c@	c #B77546",
"d@	c #975D36",
"e@	c #9A6139",
"f@	c #744C28",
"g@	c #754D28",
"h@	c #784E29",
"i@	c #724B27",
"j@	c #6C4824",
"k@	c #493026",
"l@	c #9E6141",
"m@	c #7D512C",
"n@	c #664524",
"o@	c #634323",
"p@	c #614322",
"q@	c #704A26",
"r@	c #935E35",
"s@	c #C47A4A",
"t@	c #C67B4B",
"u@	c #905C34",
"v@	c #614222",
"w@	c #483026",
"x@	c #B26D48",
"y@	c #B87546",
"z@	c #86572F",
"A@	c #895831",
"B@	c #C57A4B",
"C@	c #DA8753",
"D@	c #DB8854",
"E@	c #976037",
"F@	c #8C5A33",
"G@	c #513927",
"H@	c #A86549",
"I@	c #9C6138",
"J@	c #8A5931",
"K@	c #87572F",
"L@	c #DB8754",
"M@	c #563830",
"N@	c #865236",
"O@	c #895830",
"P@	c #624322",
"Q@	c #8F5C34",
"R@	c #C77B4C",
"S@	c #754B30",
"T@	c #663F34",
"U@	c #996039",
"V@	c #7F502C",
"W@	c #694625",
"X@	c #D08050",
"Y@	c #CD7E4F",
"Z@	c #754A30",
"`@	c #6D4825",
" #	c #6B4824",
".#	c #593E1E",
"+#	c #8D5A32",
"@#	c #CF8050",
"##	c #BE7849",
"$#	c #784C31",
"%#	c #623D33",
"&#	c #44321A",
"*#	c #543C1C",
"=#	c #543D1D",
"-#	c #C57A4C",
";#	c #A6683F",
">#	c #AA6940",
",#	c #955F36",
"'#	c #AC6B41",
")#	c #593930",
"!#	c #392032",
"~#	c #3F2F1A",
"{#	c #403019",
"]#	c #493818",
"^#	c #A7673F",
"/#	c #82512D",
"(#	c #6F4926",
"_#	c #54372F",
":#	c #2E1F2A",
"<#	c #21201F",
"[#	c #23211F",
"}#	c #413119",
"|#	c #6C4825",
"1#	c #A5663E",
"2#	c #4C3226",
"3#	c #1F0222",
"4#	c #020217",
"5#	c #04040C",
"6#	c #242121",
"7#	c #533B1C",
"8#	c #6B4624",
"9#	c #4E2F2F",
"0#	c #1E0065",
"a#	c #000079",
"b#	c #000043",
"c#	c #02023E",
"d#	c #0E080A",
"e#	c #262220",
"f#	c #2A2430",
"g#	c #292328",
"h#	c #292320",
"i#	c #260B1B",
"j#	c #1E006D",
"k#	c #0000A3",
"l#	c #000048",
"m#	c #02020B",
"n#	c #1E1E3B",
"o#	c #0404A0",
"p#	c #04046F",
"q#	c #1E1E26",
"r#	c #1F021B",
"s#	c #1E00A4",
"t#	c #0000BF",
"u#	c #02024B",
"v#	c #1E1E23",
"w#	c #1D022C",
"x#	c #04029F",
"y#	c #0000A5",
"z#	c #020271",
"A#	c #1E1E27",
"B#	c #2C006A",
"C#	c #1E0051",
"D#	c #1F0245",
"E#	c #371E34",
"F#	c #1D004F",
"G#	c #000088",
"H#	c #02026F",
"I#	c #1E0033",
"J#	c #0000A2",
"K#	c #2C0227",
"L#	c #1D0068",
"M#	c #0000A4",
"N#	c #000077",
"O#	c #1D022B",
"P#	c #2B004C",
"Q#	c #020069",
"R#	c #0000A7",
"S#	c #0000CB",
"T#	c #020073",
"U#	c #2C002D",
"V#	c #2C004B",
"W#	c #020064",
"X#	c #000084",
"Y#	c #000089",
"Z#	c #1E0027",
"`#	c #1E0047",
" $	c #000063",
".$	c #000066",
"+$	c #000045",
"@$	c #1E001E",
"                                                                                                                                ",
"                                                                                                                                ",
"                                                                                                                                ",
"                                                                                                                                ",
"                                                                                                                                ",
"                                                                                                                                ",
"                                                                                                                                ",
"                                                                                                                                ",
"                                                                                                                                ",
"                                                                                                                                ",
"                                                                                                                                ",
"                                                                                                                                ",
"                                                                                                                                ",
"                                                                                                                                ",
"                                                                                                                                ",
"                                                                                                                                ",
"                                                                                                                                ",
"                                                                                                                                ",
"                                                          . + @ # $ %                                                           ",
"                                                        & * = - ; > , '                                                         ",
"                                                        ) ! ~ - { ] ^ /                                                         ",
"                                                      ( ! _ : < [ ; ] } |                                                       ",
"                                                    1 2 3 4 5 6 7 8 9 0 a b                                                     ",
"                                                    c d e f g h i j k l m n                                                     ",
"                                                    o p q r s t u v w x y z                                                     ",
"                                                        A B C D E F G H                                                         ",
"                                                        I J K L M N O P                                                         ",
"                                                      Q R S T U U V W R X                                                       ",
"                                                    Y Z `  ...+.@.#.$.%.&.*.=.                                                  ",
"                                                    -.;.>.,.'.).!.~.{.].^./.(._.                                                ",
"                                                  :.<.[.}.|.1.2.3.4.5.6.7.8.9.0.a.                                              ",
"                                                b.c.d.e.f.g.h.i.j.0.k.l.m.n.o.p.q.                                              ",
"                                                r.s.t.u.v.w.x.y.z.A.B.C.D.E.F.G.H.I.                                            ",
"                                                J.K.K.L.M.N.O.P.Q.R.S.T.z.U.V.W.X.Y.                                            ",
"                                                Z.`.s.9. +.+++@+#+$+%+&+T.*+=+-+;+>+                                            ",
"                                                ,+'+)+!+o.~+{+]+^+/+(+_+:+<+[+}+|+1+                                            ",
"                                                2+K.3+4+5+6+7+8+9+0+a+b+c+d+e+|+S.f+                                            ",
"                                                g+h+K.i+j+k+l+m+n+o+p+q+r+s+t+u+0.v+                                            ",
"                                                w+x+y+z+B A+B+C+D+E+F+G+G+H+I+J+K+I.                                            ",
"                                                  L+M+N+O+P+Q+R+S+p.T+U+U+H+V+W+X+                                              ",
"                                                      Y+Z+`+ @.@+@&+@@#@$@%@&@*@                                                ",
"                                                    =@-@;@>@,@'@)@!@~@p.{@]@^@*@                                                ",
"                                                    /@(@_@:@>@'@<@[@_@}@|@1@2@3@                                                ",
"                                                    4@5@6@7@V.A./.p._@8@9@0@S.a@                                                ",
"                                                    b@c@0@Z+d@<@e@f@g@h@h@i@j@k@                                                ",
"                                                    l@m@n@o@p@W.q@r@s@t@s@u@v@w@                                                ",
"                                                    x@y@Z+*+z@&+A@B@C@D@S+E@F@G@                                                ",
"                                                    H@0@I@J@K@v@J@J D@K L@B@u@M@                                                ",
"                                                      N@!@O@z@P@Q@R@L@K L@t@S@                                                  ",
"                                                    T@U@i@V@V@%+W@t@X@X@X@Y@Z@                                                  ",
"                                                    >+`@ #j@%+.#+#9@X@@###8@$#                                                  ",
"                                                    %#&#*#*#*#=#-#;#R@R@>#,#'#)#                                                ",
"                                                      !#~#{#{#]#P@^#t@t@_@/#(#_#                                                ",
"                                                        :#<#[#}#|#1#O O 0.V@2#                                                  ",
"                                                        3#4#5#6#7#[+S.{+V@8#9#                                                  ",
"                                                        0#a#b#c#d#e#f#g#h#i#                                                    ",
"                                                        j#k#l#c#m#n#o#p#q#r#                                                    ",
"                                                        s#t#u#v#w#x#y#z#A#r#                                                    ",
"                                                        B#C#D#E#  F#G#H#A#r#                                                    ",
"                                                                  I#J#z#A#K#                                                    ",
"                                                                  L#M#N#O#                                                      ",
"                                                                P#Q#R#S#T#U#                                                    ",
"                                                              V#W#X#Y#J#X#Z#                                                    ",
"                                                              `# $.$.$.$+$@$                                                    "};
