/* XPM */
static char * enemy1_2_xpm[] = {
"64 64 514 2",
"  	c None",
". 	c #827C81",
"+ 	c #A3A0A2",
"@ 	c #8C898B",
"# 	c #7B787B",
"$ 	c #595358",
"% 	c #473744",
"& 	c #817A80",
"* 	c #A2A1A1",
"= 	c #6C6C6C",
"- 	c #707070",
"; 	c #575757",
"> 	c #484848",
", 	c #2F2F2F",
"' 	c #3E2A3A",
") 	c #8B888B",
"! 	c #7E7E7E",
"~ 	c #6F6F6F",
"{ 	c #555555",
"] 	c #393939",
"^ 	c #362C34",
"/ 	c #7F787E",
"( 	c #8D8D8D",
"_ 	c #818181",
": 	c #757575",
"< 	c #727272",
"[ 	c #595959",
"} 	c #303030",
"| 	c #3E2B3B",
"1 	c #7E777D",
"2 	c #B9B9B9",
"3 	c #CAC9C9",
"4 	c #BABAC0",
"5 	c #A6A4A4",
"6 	c #8A8988",
"7 	c #6D6D79",
"8 	c #575554",
"9 	c #505050",
"0 	c #393838",
"a 	c #463643",
"b 	c #7A7679",
"c 	c #4C4C4C",
"d 	c #3C322E",
"e 	c #A26B5C",
"f 	c #5441EE",
"g 	c #9F6757",
"h 	c #83554D",
"i 	c #4734EC",
"j 	c #82534A",
"k 	c #281B12",
"l 	c #222222",
"m 	c #3F363D",
"n 	c #42303F",
"o 	c #2B2624",
"p 	c #784F2C",
"q 	c #F49F6E",
"r 	c #F6B49C",
"s 	c #D18255",
"t 	c #BA754C",
"u 	c #F5B49B",
"v 	c #F39F6E",
"w 	c #282321",
"x 	c #382032",
"y 	c #573E1F",
"z 	c #DA8754",
"A 	c #F99C62",
"B 	c #EE935B",
"C 	c #EC925B",
"D 	c #553A27",
"E 	c #BB7747",
"F 	c #DD8954",
"G 	c #CC8050",
"H 	c #BD774A",
"I 	c #DC8854",
"J 	c #B97647",
"K 	c #543A27",
"L 	c #2C0126",
"M 	c #271912",
"N 	c #9E623B",
"O 	c #F3975E",
"P 	c #F7AB7B",
"Q 	c #F2975E",
"R 	c #604425",
"S 	c #19140F",
"T 	c #685E65",
"U 	c #1C1B1B",
"V 	c #585757",
"W 	c #5B5756",
"X 	c #412819",
"Y 	c #8D5C35",
"Z 	c #B06F44",
"` 	c #452A1B",
" .	c #575655",
"..	c #535353",
"+.	c #0F0D0E",
"@.	c #30141C",
"#.	c #724536",
"$.	c #A9664A",
"%.	c #A96848",
"&.	c #6B6361",
"*.	c #464646",
"=.	c #AAAAAA",
"-.	c #919191",
";.	c #212120",
">.	c #261608",
",.	c #261508",
"'.	c #29221F",
").	c #8F8F8F",
"!.	c #777777",
"~.	c #36251C",
"{.	c #905B34",
"].	c #A86840",
"^.	c #824F3B",
"/.	c #D88553",
"(.	c #E38956",
"_.	c #B37148",
":.	c #66615F",
"<.	c #5A4937",
"[.	c #312924",
"}.	c #584A45",
"|.	c #875732",
"1.	c #402C14",
"2.	c #865630",
"3.	c #402D23",
"4.	c #432C20",
"5.	c #B16E43",
"6.	c #D88552",
"7.	c #D98653",
"8.	c #AA664A",
"9.	c #C6794F",
"0.	c #E58B57",
"a.	c #D18150",
"b.	c #CA7D4E",
"c.	c #53443E",
"d.	c #63605E",
"e.	c #8E5C38",
"f.	c #DF8755",
"g.	c #E18855",
"h.	c #A1633A",
"i.	c #D78552",
"j.	c #D58451",
"k.	c #CE7F4F",
"l.	c #C87C4C",
"m.	c #C67B4B",
"n.	c #B97547",
"o.	c #7F4E3A",
"p.	c #C67853",
"q.	c #DB8754",
"r.	c #E48A57",
"s.	c #BE7849",
"t.	c #B47044",
"u.	c #AF6D44",
"v.	c #4A403B",
"w.	c #453B37",
"x.	c #945E38",
"y.	c #CB7D4E",
"z.	c #9F623A",
"A.	c #CD7E4E",
"B.	c #986037",
"C.	c #976037",
"D.	c #8A5631",
"E.	c #7C502C",
"F.	c #9E633B",
"G.	c #935E35",
"H.	c #A1653C",
"I.	c #B6724A",
"J.	c #CF7E53",
"K.	c #BF7949",
"L.	c #A7683F",
"M.	c #87542F",
"N.	c #C07749",
"O.	c #8D5A34",
"P.	c #362B24",
"Q.	c #443B36",
"R.	c #8D5A35",
"S.	c #644424",
"T.	c #C87C4D",
"U.	c #955F36",
"V.	c #CA7C4D",
"W.	c #C97C4D",
"X.	c #784E2A",
"Y.	c #764D29",
"Z.	c #6E4925",
"`.	c #8E5B33",
" +	c #84522E",
".+	c #814C3A",
"++	c #BD7848",
"@+	c #734C27",
"#+	c #4F3B1A",
"$+	c #704A26",
"%+	c #80502C",
"&+	c #895832",
"*+	c #302823",
"=+	c #3D3836",
"-+	c #403A36",
";+	c #8E5B35",
">+	c #7A4F2B",
",+	c #9C6038",
"'+	c #9A5F37",
")+	c #543D1C",
"!+	c #433117",
"~+	c #7E4F2B",
"{+	c #5E3E2A",
"]+	c #CB7D4D",
"^+	c #E68B57",
"/+	c #CC7E4E",
"(+	c #714B26",
"_+	c #443219",
":+	c #553C1C",
"<+	c #6B4724",
"[+	c #6C4824",
"}+	c #523A1C",
"|+	c #18110A",
"1+	c #222121",
"2+	c #433A36",
"3+	c #895833",
"4+	c #744C2A",
"5+	c #563E1D",
"6+	c #6F4A26",
"7+	c #553C1D",
"8+	c #3D2F16",
"9+	c #714A27",
"0+	c #744C28",
"a+	c #7F4D33",
"b+	c #E4895A",
"c+	c #A96940",
"d+	c #6D4825",
"e+	c #3C2E15",
"f+	c #423118",
"g+	c #543C1C",
"h+	c #433218",
"i+	c #4F391A",
"j+	c #110B05",
"k+	c #120D09",
"l+	c #2C2421",
"m+	c #403935",
"n+	c #875731",
"o+	c #573D1D",
"p+	c #3A2D15",
"q+	c #392D14",
"r+	c #453319",
"s+	c #5F4121",
"t+	c #6F472E",
"u+	c #E2885A",
"v+	c #C17A4A",
"w+	c #A4653B",
"x+	c #6B4726",
"y+	c #5E4121",
"z+	c #3B2D15",
"A+	c #3F2F18",
"B+	c #403019",
"C+	c #3F3019",
"D+	c #443623",
"E+	c #3B301D",
"F+	c #503B21",
"G+	c #0F0A06",
"H+	c #090807",
"I+	c #1D1007",
"J+	c #2A210E",
"K+	c #2A220E",
"L+	c #473718",
"M+	c #5D4020",
"N+	c #7E4F2C",
"O+	c #7F502C",
"P+	c #714535",
"Q+	c #BF774D",
"R+	c #C3794A",
"S+	c #82522D",
"T+	c #3F2F17",
"U+	c #23211F",
"V+	c #222120",
"W+	c #2A2928",
"X+	c #767676",
"Y+	c #646363",
"Z+	c #61605F",
"`+	c #252525",
" @	c #1F1F1F",
".@	c #20201F",
"+@	c #483719",
"@@	c #6A4724",
"#@	c #8F5B33",
"$@	c #70472E",
"%@	c #BA7450",
"&@	c #D08050",
"*@	c #C97C4C",
"=@	c #A86B43",
"-@	c #A0643C",
";@	c #6C4825",
">@	c #292420",
",@	c #232120",
"'@	c #272320",
")@	c #2C2826",
"!@	c #646262",
"~@	c #636261",
"{@	c #4B4A48",
"]@	c #272523",
"^@	c #22211F",
"/@	c #29210F",
"(@	c #402E23",
"_@	c #9E633C",
":@	c #734930",
"<@	c #CE7E53",
"[@	c #D38557",
"}@	c #F5B088",
"|@	c #CB7F51",
"1@	c #4B391A",
"2@	c #4C391A",
"3@	c #6D4926",
"4@	c #6E4A2A",
"5@	c #573F23",
"6@	c #6A4826",
"7@	c #5C4021",
"8@	c #493819",
"9@	c #413119",
"0@	c #3F3017",
"a@	c #392813",
"b@	c #AF6D42",
"c@	c #C47A4B",
"d@	c #A2653D",
"e@	c #9B5D3E",
"f@	c #CE7E5A",
"g@	c #F8B289",
"h@	c #DE8C5B",
"i@	c #966036",
"j@	c #A3663E",
"k@	c #885830",
"l@	c #A4663E",
"m@	c #5E4020",
"n@	c #7D4F2B",
"o@	c #6B4824",
"p@	c #5C4020",
"q@	c #533B1D",
"r@	c #4F3427",
"s@	c #A3653D",
"t@	c #9C5C43",
"u@	c #F69F73",
"v@	c #F7A06D",
"w@	c #D78553",
"x@	c #875730",
"y@	c #925D35",
"z@	c #A5663E",
"A@	c #87572F",
"B@	c #603F2B",
"C@	c #5D3832",
"D@	c #C2774E",
"E@	c #B26C4C",
"F@	c #AB674B",
"G@	c #A76840",
"H@	c #8A5931",
"I@	c #895830",
"J@	c #905C34",
"K@	c #754D29",
"L@	c #875830",
"M@	c #593930",
"N@	c #674524",
"O@	c #9F6239",
"P@	c #7F522D",
"Q@	c #794E2A",
"R@	c #86572F",
"S@	c #5F3E2B",
"T@	c #B36E48",
"U@	c #D08151",
"V@	c #ED925B",
"W@	c #EB915B",
"X@	c #AC6B41",
"Y@	c #423117",
"Z@	c #3F3016",
"`@	c #583E1E",
" #	c #6D4824",
".#	c #473319",
"+#	c #392421",
"@#	c #D18055",
"##	c #F9A16E",
"$#	c #FBA36F",
"%#	c #AA6940",
"&#	c #624322",
"*#	c #754C28",
"=#	c #7E502B",
"-#	c #F79963",
";#	c #FCA46F",
">#	c #FCA470",
",#	c #FCA36F",
"'#	c #F0955D",
")#	c #895931",
"!#	c #613F2B",
"~#	c #A56347",
"{#	c #F9A16D",
"]#	c #F6A06C",
"^#	c #A7673E",
"/#	c #EB8F5D",
"(#	c #EE935C",
"_#	c #BB7548",
":#	c #E68E58",
"<#	c #905C33",
"[#	c #E88D5F",
"}#	c #A4653C",
"|#	c #AA6941",
"1#	c #885530",
"2#	c #C07748",
"3#	c #724B27",
"4#	c #995E37",
"5#	c #81512D",
"6#	c #62402C",
"7#	c #72482E",
"8#	c #604221",
"9#	c #865730",
"0#	c #975D36",
"a#	c #71482E",
"b#	c #603938",
"c#	c #6B4725",
"d#	c #513C1C",
"e#	c #483718",
"f#	c #352811",
"g#	c #563D1D",
"h#	c #6F4925",
"i#	c #7B4E2B",
"j#	c #55372F",
"k#	c #4A3126",
"l#	c #694623",
"m#	c #543B1C",
"n#	c #403018",
"o#	c #533C1C",
"p#	c #45331A",
"q#	c #52352F",
"r#	c #2F202B",
"s#	c #2C221B",
"t#	c #2B210E",
"u#	c #29200C",
"v#	c #0C0804",
"w#	c #23211E",
"x#	c #463718",
"y#	c #493818",
"z#	c #523B1B",
"A#	c #473025",
"B#	c #371E37",
"C#	c #06046A",
"D#	c #030218",
"E#	c #030201",
"F#	c #0a0a0aff",
"G#	c #050403",
"H#	c #2A2111",
"I#	c #463618",
"J#	c #47371B",
"K#	c #473719",
"L#	c #2D220F",
"M#	c #4B2D2E",
"N#	c #1D006E",
"O#	c #000049",
"P#	c #000009",
"Q#	c #000007",
"R#	c #05043C",
"S#	c #212023",
"T#	c #0D093D",
"U#	c #222122",
"V#	c #21201F",
"W#	c #20041A",
"X#	c #1E002B",
"Y#	c #02020D",
"Z#	c #000001",
"`#	c #02023E",
" $	c #1E1E29",
".$	c #04043E",
"+$	c #1E1E24",
"@$	c #1F021B",
"#$	c #1E027A",
"$$	c #1D1D2C",
"%$	c #040404",
"&$	c #020008",
"*$	c #1D0045",
"=$	c #04025F",
"-$	c #000043",
";$	c #1E1E21",
">$	c #371E3E",
",$	c #0402A3",
"'$	c #040466",
")$	c #1D1D2B",
"!$	c #040405",
"~$	c #1D0019",
"{$	c #1D004C",
"]$	c #000061",
"^$	c #020241",
"/$	c #371E42",
"($	c #0604BD",
"_$	c #020287",
":$	c #06066B",
"<$	c #1E1D25",
"[$	c #2C0227",
"}$	c #1E0085",
"|$	c #00006F",
"1$	c #020244",
"2$	c #2D1E34",
"3$	c #2D1E30",
"4$	c #2D0428",
"5$	c #1D0089",
"6$	c #000074",
"7$	c #00006D",
"8$	c #1D0225",
"9$	c #2C0041",
"0$	c #0200A9",
"a$	c #0000A3",
"b$	c #00007A",
"c$	c #020041",
"d$	c #2B0028",
"e$	c #1F02A7",
"f$	c #02027E",
"g$	c #020266",
"h$	c #020245",
"i$	c #2C0026",
"j$	c #2D1E39",
"k$	c #1F1F29",
"l$	c #1F1F26",
"m$	c #1F1F22",
"n$	c #020202",
"o$	c #1E001A",
"                                                                                                                                ",
"                                                                                                                                ",
"                                                                                                                                ",
"                                                                                                                                ",
"                                                                                                                                ",
"                                                                                                                                ",
"                                                                                                                                ",
"                                                                                                                                ",
"                                                                                                                                ",
"                                                                                                                                ",
"                                                                                                                                ",
"                                                                                                                                ",
"                                                                                                                                ",
"                                                                                                                                ",
"                                                                                                                                ",
"                                                                                                                                ",
"                                                                                                                                ",
"                                                          . + @ # $ %                                                           ",
"                                                        & * = - ; > , '                                                         ",
"                                                        ) ! - ~ { > ] ^                                                         ",
"                                                      / ( _ : < [ { > } |                                                       ",
"                                                    1 ! 2 3 4 5 6 7 8 9 0 a                                                     ",
"                                                    b c d e f g h i j k l m                                                     ",
"                                                    n o p q r s t u v p w '                                                     ",
"                                                      x y z A B C A z y x                                                       ",
"                                                        D E F G H I J K                                                         ",
"                                                      L M N O P P Q R S L                                                       ",
"                                                    T U V W X Y Z `  ...+.@.#.                                                  ",
"                                                $.%.&.*.=.-.;.>.,.'.).!.~.{.].$.                                                ",
"                                              ^./.(._.:.<.[.}.|.1.2.3.4.5.6.7.6.8.                                              ",
"                                              9.0.a.b.c.d.e.f.g.h.i.j.j.i.k.l.m.n.o.                                            ",
"                                            p.q.r.s.t.u.v.w.x.y.z.A.B.C.D.E.F.G.H.I.                                            ",
"                                            J.0.K.L.M.N.O.P.Q.R.S.T.U.V.W.X.Y.Z.`. +.+                                          ",
"                                            J.0.++@+#+$+%+&+*+=+-+;+>+,+'+)+$+!+~+~+{+                                          ",
"                                          p.]+^+/+(+_+:+<+[+}+|+1+2+3+4+5+6+7+8+9+0+a+                                          ",
"                                          b+0.(.c+d+e+f+g+g+h+i+j+k+l+m+n+o+p+q+r+s+t+                                          ",
"                                          u+v+w+x+y+z+A+B+B+C+D+E+F+G+H+I+J+K+L+M+N+O+P+                                        ",
"                                          Q+r.(.R+S+T+U+V+V+W+X+Y+Z+`+ @ @.@U++@@@#@#@$@                                        ",
"                                          %@&@*@=@-@;@>@,@'@)@!@~@{@]@,@,@^@/@K+(@_@F.:@                                        ",
"                                            <@[@}@|@0+1@2@@@3@4@5@6@7@1@8@9@0@a@b@c@d@e@                                        ",
"                                            f@g@h@i@j@Y.O+k@l@l@m@n@O+~+o@p@q@r@b@m.s@t@                                        ",
"                                              u@v@w@].S+x@k@y@z@%+Y.A@%+0+o@B@  C@D@E@                                          ",
"                                                F@G@H@I@I@k@#@J@%+K@L@x@O+[+B@                                                  ",
"                                                  M@N@,+O@P@Q@%+~+0+R@A@O+<+S@                                                  ",
"                                                    T@U@V@W@X@X.Y@Z@`@ #[+.#+#                                                  ",
"                                                    @###$#$#C %#&#p@[+*#=#[+S@                                                  ",
"                                                    -#;#>#,#'#/+)#Z.O+x@x@~+!#                                                  ",
"                                                  ~#{#,#,#$#]#^#k@Z.%+k@k@O+!#                                                  ",
"                                                  /#(#(#(#C _#:#<#Z.%+k@I@O+!#                                                  ",
"                                                  [#}#%#|#h.1#z.2#3#%+k@4#5#6#                                                  ",
"                                                    7#5# +z@X@8#9#Z.%+x@S+0#a#                                                  ",
"                                                  b#c#~+~+Z.d#e#f#g#n@~+0+h#i#j#                                                ",
"                                                    k#l#M+m#n#n#L+o#g#g#g#:+p#q#                                                ",
"                                                    r#s#t#u#v#w#x#y#o#g+o#z#A#                                                  ",
"                                                    B#C#D#E#F#G#H#I#J#K#n#L#M#                                                  ",
"                                                      N#O#P#F#Q#R#S#T#U#V#W#                                                    ",
"                                                      X#Y#Z#F#Q#`# $.$+$ @@$                                                    ",
"                                                      #$$$%$F#&$*$=$-$.$;$@$                                                    ",
"                                                    >$,$'$)$!$~$  {$]$^$;$@$                                                    ",
"                                                    /$($_$:$<$[$  }$|$1$;$[$                                                    ",
"                                                      /$2$3$4$    5$6$7$8$                                                      ",
"                                                                9$0$a$b$c$d$                                                    ",
"                                                                e$f$g$h$`#&$i$                                                  ",
"                                                                j$k$l$m$;$n$o$                                                  "};
