/* XPM */
static char * door_closed4_xpm[] = {
"64 64 37 1",
" 	c None",
".	c #383838",
"+	c #007C7C",
"@	c #007878",
"#	c #20B0B0",
"$	c #009898",
"%	c #008C8C",
"&	c #007474",
"*	c #007070",
"=	c #004040",
"-	c #008484",
";	c #005858",
">	c #B8E8E8",
",	c #9CDCDC",
"'	c #48C0C0",
")	c #00A4A4",
"!	c #74C8C8",
"~	c #20B4B4",
"{	c #A8A8A8",
"]	c #D0D0D0",
"^	c #7C7C7C",
"/	c #646464",
"(	c #707070",
"_	c #B4AC00",
":	c #E4D800",
"<	c #FCF400",
"[	c #2C2C2C",
"}	c #585400",
"|	c #848400",
"1	c #404000",
"2	c #545454",
"3	c #484848",
"4	c #CCC400",
"5	c #D8F4F4",
"6	c #9C9C00",
"7	c #706C00",
"8	c #202020",
"                                              ..................",
"                                              .+@@@@@@@@@@@@@@@@",
"                                              .#$$%&*#%%%%%&*#$%",
"                                              .####+=*#####+=*##",
"                                              .####@+%#####@+%##",
"                                              .####-;;;;;;;;;;;;",
"                                              .#####+@**********",
"                                              .$->#,#%%%%%%%%%%%",
"                                              .+*-#>')))))))))))",
"                                              .@+%#>!)))))))))))",
"                                              .))##>!)))))))))))",
"                                              .####>!)))))))))))",
"                                              .####>!))))))))###",
"                                              .####>!))))))#####",
"                                              .####>!))))######~",
"                                              .$->#>!))#######~~",
"                                              .+*-#>!#######~~~~",
"                                              .@+%#>!#####~~~~~~",
"                                              .))##>!###~~~~~~~'",
"                                              .####>!#~~~~~~~~'~",
"                                              .####>!~~~~~~~~'~'",
"                                              .####>!~~~~~'~'~'~",
"                                              .####>!~~~~'~'~'~'",
"                                              .$->#>!~~~'~'~'~'~",
"                                              .+*-#>!~~'~'~'~'~'",
"                                              .@+%#>!~'~'~'~'~'~",
"                                              .))##>!'~'~'~'~'~'",
"                                              .####>!~'~'~'~'{]]",
"                                              .##~~>!'~'~'~'#^/(",
"                                              .#~~~>!~'_:<'#+[/.",
"                                              .~~~~>!'@}|<~)+[//",
"                                              .$->~>!-&1|:!%+[//",
"                                              .+*-~>#-%1|:'%+[//",
"                                              .@+%'>$-,1|:'%+[23",
"                                              .))'!!$-!1|4'%+[3[",
"                                              .'!!,~$-!1|4'%+[.[",
"                                              .!!,,#$-!1|4'%+[[[",
"                                              .!,,>#$-'1|_'%+[[[",
"                                              .,>>>#$-'1|_'%+[[[",
"                                              .!~>5#$-'1|6'%+[[[",
"                                              .#+~>#$-%&17~%+[..",
"                                              .##!>~$-@@-~~%+[.8",
"                                              .!!>,~$---~~~%+[[.",
"                                              .5>,,~$-%~~~#%+[[[",
"                                              .>,,!~$$~~~~#%++++",
"                                              .,,!!~$~~~~##%%%%%",
"                                              .,!'''#~~~#######)",
"                                              .$->'>~~~#######)#",
"                                              .+*-'>'~#######)#)",
"                                              .@+%'>!#######)#)#",
"                                              .))''>!######)#)#)",
"                                              .'''~>!#####)#)#))",
"                                              .''~~>!####)#)#)))",
"                                              .~~~~>!###)#)#)#)$",
"                                              .~~~~>!##)#)#)#)))",
"                                              .$->~>!###)#)#)))$",
"                                              .+*-~>!##)#)#)))$$",
"                                              .@+%#>!!!!!!!!!!!!",
"                                              .))##>>>>>>>>>>>>>",
"                                              .#############))))",
"                                              .####$->#####$->)$",
"                                              .####+*-#####+*-$$",
"                                              3####@+%#####@+%$$",
"                                              222222222222222222"};
