/* XPM */
static char * door_closed5_xpm[] = {
"64 64 26 1",
" 	c None",
".	c #383838",
"+	c #007C7C",
"@	c #007878",
"#	c #20B0B0",
"$	c #009898",
"%	c #008C8C",
"&	c #007474",
"*	c #007070",
"=	c #004040",
"-	c #008484",
";	c #005858",
">	c #B8E8E8",
",	c #9CDCDC",
"'	c #48C0C0",
")	c #00A4A4",
"!	c #74C8C8",
"~	c #20B4B4",
"{	c #B4AC00",
"]	c #E4D800",
"^	c #585400",
"/	c #848400",
"(	c #404000",
"_	c #D8F4F4",
":	c #484848",
"<	c #545454",
"                                                     ...........",
"                                                     .+@@@@@@@@@",
"                                                     .#$$%&*#%%%",
"                                                     .####+=*###",
"                                                     .####@+%###",
"                                                     .####-;;;;;",
"                                                     .#####+@***",
"                                                     .$->#,#%%%%",
"                                                     .+*-#>'))))",
"                                                     .@+%#>!))))",
"                                                     .))##>!))))",
"                                                     .####>!))))",
"                                                     .####>!))))",
"                                                     .####>!))))",
"                                                     .####>!))))",
"                                                     .$->#>!))##",
"                                                     .+*-#>!####",
"                                                     .@+%#>!####",
"                                                     .))##>!###~",
"                                                     .####>!#~~~",
"                                                     .####>!~~~~",
"                                                     .####>!~~~~",
"                                                     .####>!~~~~",
"                                                     .$->#>!~~~'",
"                                                     .+*-#>!~~'~",
"                                                     .@+%#>!~'~'",
"                                                     .))##>!'~'~",
"                                                     .####>!~'~'",
"                                                     .##~~>!'~'~",
"                                                     .#~~~>!~'{]",
"                                                     .~~~~>!'@^/",
"                                                     .$->~>!-&(/",
"                                                     .+*-~>#-%(/",
"                                                     .@+%'>$-,(/",
"                                                     .))'!!$-!(/",
"                                                     .'!!,~$-!(/",
"                                                     .!!,,#$-!(/",
"                                                     .!,,>#$-'(/",
"                                                     .,>>>#$-'(/",
"                                                     .!~>_#$-'(/",
"                                                     .#+~>#$-%&(",
"                                                     .##!>~$-@@-",
"                                                     .!!>,~$---~",
"                                                     ._>,,~$-%~~",
"                                                     .>,,!~$$~~~",
"                                                     .,,!!~$~~~~",
"                                                     .,!'''#~~~#",
"                                                     .$->'>~~~##",
"                                                     .+*-'>'~###",
"                                                     .@+%'>!####",
"                                                     .))''>!####",
"                                                     .'''~>!####",
"                                                     .''~~>!####",
"                                                     .~~~~>!###)",
"                                                     .~~~~>!##)#",
"                                                     .$->~>!###)",
"                                                     .+*-~>!##)#",
"                                                     .@+%#>!!!!!",
"                                                     .))##>>>>>>",
"                                                     .##########",
"                                                     .####$->###",
"                                                     .####+*-###",
"                                                     :####@+%###",
"                                                     <<<<<<<<<<<"};
