/* XPM */
static char * enemy0_1_xpm[] = {
"64 64 173 2",
"  	c None",
". 	c #A56740",
"+ 	c #83522D",
"@ 	c #A76740",
"# 	c #A66741",
"$ 	c #5B5553",
"% 	c #A36640",
"& 	c #80502D",
"* 	c #A5663F",
"= 	c #815230",
"- 	c #595553",
"; 	c #575453",
"> 	c #3F3B38",
", 	c #7D4F2C",
"' 	c #7E4F2C",
") 	c #423C39",
"! 	c #555353",
"~ 	c #535353",
"{ 	c #3A3A3A",
"] 	c #322F2D",
"^ 	c #312D2C",
"/ 	c #2C2C2C",
"( 	c #3F3B3A",
"_ 	c #525252",
": 	c #464646",
"< 	c #2D2D2D",
"[ 	c #2B2B2B",
"} 	c #3B3B3B",
"| 	c #995F39",
"1 	c #4F4947",
"2 	c #262525",
"3 	c #050505",
"4 	c #242424",
"5 	c #4C4948",
"6 	c #545352",
"7 	c #81512C",
"8 	c #9B6038",
"9 	c #9A5F39",
"0 	c #4B4846",
"a 	c #090909",
"b 	c #454545",
"c 	c #342F2D",
"d 	c #975E38",
"e 	c #6D4927",
"f 	c #553C1C",
"g 	c #81502C",
"h 	c #AF6D44",
"i 	c #403B39",
"j 	c #3D3D3D",
"k 	c #383838",
"l 	c #332F2D",
"m 	c #8D5A35",
"n 	c #6D4824",
"o 	c #80502C",
"p 	c #80512E",
"q 	c #595452",
"r 	c #878787",
"s 	c #555555",
"t 	c #545454",
"u 	c #787878",
"v 	c #323232",
"w 	c #565352",
"x 	c #6B4826",
"y 	c #7F502E",
"z 	c #403C3A",
"A 	c #6C4926",
"B 	c #81512D",
"C 	c #A46740",
"D 	c #484848",
"E 	c #4B4847",
"F 	c #8D5B36",
"G 	c #82512D",
"H 	c #A66740",
"I 	c #494949",
"J 	c #8E5B34",
"K 	c #905C34",
"L 	c #A7673F",
"M 	c #905C36",
"N 	c #565453",
"O 	c #8E5B35",
"P 	c #80512C",
"Q 	c #6D4825",
"R 	c #575554",
"S 	c #8F5C35",
"T 	c #A0643C",
"U 	c #A86840",
"V 	c #A56742",
"W 	c #656362",
"X 	c #646362",
"Y 	c #8D5C39",
"Z 	c #5B5552",
"` 	c #A76840",
" .	c #A76841",
"..	c #6B6461",
"+.	c #565656",
"@.	c #676361",
"#.	c #97603D",
"$.	c #5A5553",
"%.	c #9F643C",
"&.	c #A66841",
"*.	c #A46844",
"=.	c #6A6461",
"-.	c #97603E",
";.	c #5D5653",
">.	c #686362",
",.	c #98603C",
"'.	c #9B6039",
").	c #686462",
"!.	c #636363",
"~.	c #666363",
"{.	c #5B5654",
"].	c #915C34",
"^.	c #B26F43",
"/.	c #7F5130",
"(.	c #585553",
"_.	c #6E4925",
":.	c #B36F43",
"<.	c #7D5031",
"[.	c #4B4948",
"}.	c #855733",
"|.	c #9B603A",
"1.	c #5F4121",
"2.	c #B47044",
"3.	c #82522F",
"4.	c #585351",
"5.	c #3B3A3A",
"6.	c #404040",
"7.	c #443C38",
"8.	c #B36F44",
"9.	c #573E1D",
"0.	c #BB7747",
"a.	c #9C6038",
"b.	c #543D21",
"c.	c #3A3837",
"d.	c #3B3937",
"e.	c #744C2A",
"f.	c #BA7747",
"g.	c #9D6139",
"h.	c #BB7748",
"i.	c #523C20",
"j.	c #2F2D2C",
"k.	c #41311B",
"l.	c #744C28",
"m.	c #9C6039",
"n.	c #514A46",
"o.	c #4E361D",
"p.	c #885831",
"q.	c #A6673F",
"r.	c #875730",
"s.	c #B16F43",
"t.	c #885830",
"u.	c #624322",
"v.	c #5E4121",
"w.	c #443219",
"x.	c #614222",
"y.	c #604221",
"z.	c #8F5C34",
"A.	c #8D5A33",
"B.	c #5D4121",
"C.	c #41311A",
"D.	c #7E4F2B",
"E.	c #5C4021",
"F.	c #3A3938",
"G.	c #393939",
"H.	c #484746",
"I.	c #5C4022",
"J.	c #6A4826",
"K.	c #494847",
"L.	c #2E2D2C",
"M.	c #393837",
"N.	c #474747",
"O.	c #373737",
"P.	c #2E2E2E",
"                                                                                                                                ",
"                                                                                                                                ",
"                                                                                                                                ",
"                                                                                                                                ",
"                                                                                                                                ",
"                                                                                                                                ",
"                                                                                                                                ",
"                                                                                                                                ",
"                                                                                                                                ",
"                                                                                                                                ",
"                                                                                                                                ",
"                                                                                                                                ",
"                                                                                                                                ",
"                                                                                                                                ",
"                                                                                                                                ",
"                                                                                                                                ",
"                                                                                                                                ",
"                                                                                                                                ",
"                                                                                                                                ",
"                                                                                                                                ",
"                                                                                                                                ",
"                                                                                                                                ",
"                                                                                                                                ",
"                                                                                                                                ",
"                                                                                                                                ",
"                                                                                                                                ",
"                                                                                                                                ",
"                                                                                                                                ",
"                                                                                                                                ",
"                                                                                                                                ",
"                                                                                                                                ",
"                                                      . +                 @ #                                                   ",
"                                                      $ % &             * = -                                                   ",
"                                                        ; > , '     ' , ) !                                                     ",
"                                                        ~ { ] ^ / / ^ ] { ~                                                     ",
"                                                        ( _ : < [ [ < : _ }                                                     ",
"                                                        | 1 2 / 3 3 / 4 5 6                                                     ",
"                                                      7 8 9 0 : a a b c d e f                                                   ",
"                                                      g 8 h i j k k } l m n f                                                   ",
"                                                      o p q j r s t u v w x f                                                   ",
"                                                        y q z s } { t { w A                                                     ",
"                                                        B . C ; D D D E F o                                                     ",
"                                                        G @ H ; I D D 5 J o                                                     ",
"                                                      g K L M N t t t N O P Q                                                   ",
"                                                      B 8 @ M R t t t R S O P                                                   ",
"                                                    g K T U V W s ; s X Y Z O o                                                 ",
"                                                    7 8 `  ...+.@.#.@.+.@.$.O o                                                 ",
"                                                    B %.U &.*.=.-.;.-.>.,.'.K o                                                 ",
"                                                    B T # ;.>.-.).!.~.!.{.. ].o                                                 ",
"                                                    G ^.` /.(.W !.s t R >.&.8 _.                                                ",
"                                                    G :.U B <.! I D [.}.|.U 8 1.                                                ",
"                                                      2.:.3.4.5.6.6.6.7.H 8.8 9.                                                ",
"                                                      2.0.a.y b.c.k d.e.U f.g.                                                  ",
"                                                      2.h.a.y 0 i.j.k.l.:.h.U                                                   ",
"                                                      2.0.m.n.        o.^.2.U                                                   ",
"                                                      2.2.L p.        q.2.0.U                                                   ",
"                                                      U L 8 r.        ].s.^.%.                                                  ",
"                                                      t.u.v.w.        v.x.x.y.                                                  ",
"                                                      z.A.B.C.          D.D.l.                                                  ",
"                                                      o o E.F.G.G.k k H.I.B.J.K.D D ~ t                                         ",
"                                                            ~ D D G.< < L.M.F.N.D D D D D ~                                     ",
"                                                              t ~ D G.O.< < / < k k G.N.N.D D D ~ t                             ",
"                                                                t ~ D G.G.k < < < < < P.P.P.G.G.{ D I t t t                     ",
"                                                                    t ~ ~ D N.N.N.N.N.N.N.N.D D D D ~ t                         "};
