/* XPM */
static char * enemy0_3_xpm[] = {
"64 64 228 2",
"  	c None",
". 	c #A2653E",
"+ 	c #81512D",
"@ 	c #A1643D",
"# 	c #80502C",
"$ 	c #675851",
"% 	c #A1643E",
"& 	c #7E4F2C",
"* 	c #A66740",
"= 	c #A0643D",
"- 	c #545150",
"; 	c #4A3C36",
"> 	c #7F4F2C",
", 	c #764C2F",
"' 	c #44403E",
") 	c #585554",
"! 	c #505050",
"~ 	c #383737",
"{ 	c #322E2D",
"] 	c #302D2C",
"^ 	c #2C2C2C",
"/ 	c #2D2C2C",
"( 	c #312E2C",
"_ 	c #33312F",
": 	c #3F3F3F",
"< 	c #545454",
"[ 	c #423F3E",
"} 	c #515152",
"| 	c #434343",
"1 	c #323232",
"2 	c #494949",
"3 	c #4F4F4F",
"4 	c #3A3A3A",
"5 	c #925C3B",
"6 	c #484544",
"7 	c #2E2724",
"8 	c #2E2E2E",
"9 	c #373737",
"0 	c #353535",
"a 	c #2C2B2A",
"b 	c #342E2C",
"c 	c #4E4B4A",
"d 	c #545352",
"e 	c #84522E",
"f 	c #9C6038",
"g 	c #9E623B",
"h 	c #A4663F",
"i 	c #1E2122",
"j 	c #202020",
"k 	c #212121",
"l 	c #4F3629",
"m 	c #A3653E",
"n 	c #935C35",
"o 	c #674624",
"p 	c #543C1C",
"q 	c #9F623A",
"r 	c #A76943",
"s 	c #3F3C3B",
"t 	c #414141",
"u 	c #040404",
"v 	c #1C1C1C",
"w 	c #444443",
"x 	c #4F3A2E",
"y 	c #8A5933",
"z 	c #684622",
"A 	c #7C5134",
"B 	c #383939",
"C 	c #3C3C3C",
"D 	c #383838",
"E 	c #393939",
"F 	c #363635",
"G 	c #5B524D",
"H 	c #7B5134",
"I 	c #4C4C4C",
"J 	c #838383",
"K 	c #525252",
"L 	c #5B5B5B",
"M 	c #717171",
"N 	c #363535",
"O 	c #6D4824",
"P 	c #81512C",
"Q 	c #875430",
"R 	c #9C6240",
"S 	c #403E3E",
"T 	c #515151",
"U 	c #514037",
"V 	c #8C5A34",
"W 	c #7F502C",
"X 	c #9B6038",
"Y 	c #9E6139",
"Z 	c #A5663E",
"` 	c #865938",
" .	c #484849",
"..	c #484848",
"+.	c #5A4C45",
"@.	c #8E5A32",
"#.	c #A86840",
"$.	c #895B3B",
"%.	c #535454",
"&.	c #625650",
"*.	c #8D5A33",
"=.	c #7F502D",
"-.	c #9E6748",
";.	c #606161",
">.	c #555454",
",.	c #575454",
"'.	c #575757",
").	c #6D625D",
"!.	c #885B3B",
"~.	c #5F534E",
"{.	c #7D4F2A",
"].	c #6C4824",
"^.	c #A16746",
"/.	c #666261",
"(.	c #585757",
"_.	c #70635E",
":.	c #926043",
"<.	c #636161",
"[.	c #875A3C",
"}.	c #7D4E2A",
"|.	c #9D6749",
"1.	c #6F635E",
"2.	c #925E40",
"3.	c #665750",
"4.	c #926144",
"5.	c #616161",
"6.	c #63554E",
"7.	c #865630",
"8.	c #7C4E2A",
"9.	c #84532E",
"0.	c #9D6139",
"a.	c #A06746",
"b.	c #936143",
"c.	c #656463",
"d.	c #646363",
"e.	c #8D5B35",
"f.	c #83552E",
"g.	c #82522D",
"h.	c #8D5A32",
"i.	c #7E512C",
"j.	c #9E6543",
"k.	c #565757",
"l.	c #656363",
"m.	c #63554D",
"n.	c #684623",
"o.	c #5C4020",
"p.	c #8C5A32",
"q.	c #774D29",
"r.	c #A4663E",
"s.	c #835837",
"t.	c #525253",
"u.	c #584B45",
"v.	c #865730",
"w.	c #7D4F2B",
"x.	c #664522",
"y.	c #4D3A1A",
"z.	c #82512D",
"A.	c #744C27",
"B.	c #9A5F37",
"C.	c #825737",
"D.	c #525151",
"E.	c #404040",
"F.	c #53453D",
"G.	c #87572F",
"H.	c #654522",
"I.	c #4C3A1A",
"J.	c #714B26",
"K.	c #654523",
"L.	c #8F5B33",
"M.	c #85562F",
"N.	c #6C492C",
"O.	c #373838",
"P.	c #4F4037",
"Q.	c #84562E",
"R.	c #523B1B",
"S.	c #4B3919",
"T.	c #724B27",
"U.	c #624222",
"V.	c #6C4829",
"W.	c #2B2C2C",
"X.	c #584B44",
"Y.	c #483818",
"Z.	c #714A27",
"`.	c #604221",
" +	c #774E29",
".+	c #514843",
"++	c #674622",
"@+	c #513B1B",
"#+	c #5E4121",
"$+	c #4F4843",
"%+	c #6B4825",
"&+	c #523C1B",
"*+	c #744C28",
"=+	c #6C4828",
"-+	c #48391A",
";+	c #493918",
">+	c #533C1D",
",+	c #563D1D",
"'+	c #513B20",
")+	c #483819",
"!+	c #463820",
"~+	c #393837",
"{+	c #6B4824",
"]+	c #664627",
"^+	c #383837",
"/+	c #403933",
"(+	c #6C4825",
"_+	c #684726",
":+	c #533D20",
"<+	c #6A4725",
"[+	c #473719",
"}+	c #626161",
"|+	c #535252",
"1+	c #464646",
"2+	c #2D2D2D",
"3+	c #2F2D2C",
"4+	c #2F2F2F",
"5+	c #4B4B4B",
"6+	c #585858",
"7+	c #636363",
"8+	c #454545",
"9+	c #363636",
"0+	c #303030",
"a+	c #3E3E3E",
"b+	c #555555",
"c+	c #595959",
"d+	c #646464",
"e+	c #474747",
"                                                                                                                                ",
"                                                                                                                                ",
"                                                                                                                                ",
"                                                                                                                                ",
"                                                                                                                                ",
"                                                                                                                                ",
"                                                                                                                                ",
"                                                                                                                                ",
"                                                                                                                                ",
"                                                                                                                                ",
"                                                                                                                                ",
"                                                                                                                                ",
"                                                                                                                                ",
"                                                                                                                                ",
"                                                                                                                                ",
"                                                                                                                                ",
"                                                                                                                                ",
"                                                                                                                                ",
"                                                                                                                                ",
"                                                                                                                                ",
"                                                                                                                                ",
"                                                                                                                                ",
"                                                                                                                                ",
"                                                                                                                                ",
"                                                                                                                                ",
"                                                                                                                                ",
"                                                                                                                                ",
"                                                                                                                                ",
"                                                                                                                                ",
"                                                                                                                                ",
"                                                                                                                                ",
"                                                                                                                                ",
"                                                                                                                                ",
"                                                      . +                 @ #                                                   ",
"                                                      $ % &             * = #                                                   ",
"                                                        - ; > &     > , ' )                                                     ",
"                                                        ! ~ { ] ^ / ( _ : <                                                     ",
"                                                        [ } | ^ ^ ^ 1 2 3 4                                                     ",
"                                                        5 6 7 8 9 0 a b c d                                                     ",
"                                                      e f g h i j k l m n o p                                                   ",
"                                                      e q r s t u v w x y z p                                                   ",
"                                                      # A - B C D E E F G z p                                                   ",
"                                                        H - I J K L M N G O                                                     ",
"                                                      P Q R S K E : T U V W #                                                   ",
"                                                      X Y Z `  .....2 +.@.# #                                                   ",
"                                                      Y #.Z $.%.< < < &.*.=.#                                                   ",
"                                                      Y #.#.-.;.>.,.'.).!.~.{.].                                                ",
"                                                    e Y #.^./.(._.:.<.&.[.~.}.].                                                ",
"                                                    e Y #.#.|.1.2.3.4.5.6.7.8.].                                                ",
"                                                    9.0.#.a._.b.c.d.c.).e.f.].].                                                ",
"                                                  g.h.i.#.j.k.l.5.< < >.m.f.].n.o.                                              ",
"                                                  g.p.q.r.s.t.2 2 ....u.v.w.x.y.o.                                              ",
"                                                  z.p.A.B.C.D.E.E.E.E.F.G.8.H.I.o.                                              ",
"                                                  J.f.K.L.M.N.O.D D D P.Q.n.R.S.p                                               ",
"                                                    T.U.g.M.V.W.^ ^ 1 X.f.n.R.Y.Y.                                              ",
"                                                    Z.`. +M.V.W.      .+O ++@+Y.                                                ",
"                                                      #+J.M.V.W.    $+%+++&+Y.                                                  ",
"                                                          *+=+W.    -+;+S.>+                                                    ",
"                                                          ,+'+^       )+!+~+                                                    ",
"                                                          {+]+^+      /+&+)+                                                    ",
"                                                          (+_+:+      <+H.[+                                                    ",
"                                                            }+|+1+9 2+] 3+/ ^ ^ 4+D D D C ..5+6+7+7+                            ",
"                                                              5.< K 8+9+2+^ ^ ^ ^ 2+2+0+D E E a+2 2 I b+c+d+d+d+d+              ",
"                                                                d+5.K e+8+D D D D D D D D C ....5+< 6+d+d+                      "};
