/* XPM */
static char * enemy0_0_xpm[] = {
"64 64 193 2",
"  	c None",
". 	c #A56740",
"+ 	c #83522D",
"@ 	c #A76740",
"# 	c #81512D",
"$ 	c #5B5553",
"% 	c #A56640",
"& 	c #A86840",
"* 	c #A6673F",
"= 	c #80512E",
"- 	c #585554",
"; 	c #A46641",
"> 	c #80502D",
", 	c #A5663F",
"' 	c #815230",
") 	c #575452",
"! 	c #575453",
"~ 	c #3F3B38",
"{ 	c #7D4F2C",
"] 	c #7E4F2C",
"^ 	c #423C39",
"/ 	c #555353",
"( 	c #535353",
"_ 	c #3A3A3A",
": 	c #322F2D",
"< 	c #312E2C",
"[ 	c #2C2C2C",
"} 	c #3F3B3A",
"| 	c #525252",
"1 	c #474747",
"2 	c #383838",
"3 	c #2D2D2D",
"4 	c #3B3B3B",
"5 	c #995F39",
"6 	c #4F4947",
"7 	c #312926",
"8 	c #464646",
"9 	c #2F2926",
"0 	c #4C4948",
"a 	c #545352",
"b 	c #81512C",
"c 	c #9B6038",
"d 	c #9C6039",
"e 	c #AD6C42",
"f 	c #2F2825",
"g 	c #202020",
"h 	c #2E2724",
"i 	c #A2643E",
"j 	c #995F38",
"k 	c #6D4927",
"l 	c #553C1C",
"m 	c #81502C",
"n 	c #AF6D44",
"o 	c #473D39",
"p 	c #0B0B0B",
"q 	c #454545",
"r 	c #3A322E",
"s 	c #8D5B35",
"t 	c #6D4824",
"u 	c #80502C",
"v 	c #595452",
"w 	c #393939",
"x 	c #3D3D3D",
"y 	c #2E2E2E",
"z 	c #565352",
"A 	c #6B4826",
"B 	c #7F502E",
"C 	c #878787",
"D 	c #555555",
"E 	c #545454",
"F 	c #787878",
"G 	c #323232",
"H 	c #6C4926",
"I 	c #82512D",
"J 	c #A46640",
"K 	c #433C39",
"L 	c #3E3B39",
"M 	c #905C34",
"N 	c #A7673F",
"O 	c #8E5B35",
"P 	c #4B4948",
"Q 	c #484848",
"R 	c #4B4847",
"S 	c #8E5B34",
"T 	c #8F5C35",
"U 	c #80512C",
"V 	c #915C34",
"W 	c #905C36",
"X 	c #9C6038",
"Y 	c #A56742",
"Z 	c #656362",
"` 	c #646362",
" .	c #8D5C39",
"..	c #5B5552",
"+.	c #A66841",
"@.	c #6B6461",
"#.	c #565656",
"$.	c #676361",
"%.	c #97603D",
"&.	c #5A5553",
"*.	c #A46844",
"=.	c #6A6461",
"-.	c #97603E",
";.	c #5D5653",
">.	c #686362",
",.	c #98603C",
"'.	c #9A5F39",
").	c #A66740",
"!.	c #5F5653",
"~.	c #686462",
"{.	c #636363",
"].	c #666363",
"^.	c #5A5654",
"/.	c #8F5B34",
"(.	c #6E4925",
"_.	c #A56741",
":.	c #5C5654",
"<.	c #575554",
"[.	c #8F5C36",
"}.	c #573D1D",
"|.	c #8F5B33",
"1.	c #915D35",
"2.	c #A36742",
"3.	c #424242",
"4.	c #404040",
"5.	c #434140",
"6.	c #855732",
"7.	c #5D4120",
"8.	c #754D29",
"9.	c #82522F",
"0.	c #5A5451",
"a.	c #31302F",
"b.	c #343434",
"c.	c #39312C",
"d.	c #7F4F2B",
"e.	c #563D1D",
"f.	c #744C28",
"g.	c #9A5F37",
"h.	c #543C20",
"i.	c #2F2D2C",
"j.	c #734C29",
"k.	c #5D4020",
"l.	c #5F4121",
"m.	c #81512E",
"n.	c #4B4846",
"o.	c #523C21",
"p.	c #2F2D2B",
"q.	c #41311A",
"r.	c #774D29",
"s.	c #5E4121",
"t.	c #875730",
"u.	c #985F39",
"v.	c #4D4947",
"w.	c #4A4746",
"x.	c #392D18",
"y.	c #4A351C",
"z.	c #4C3A19",
"A.	c #6B4724",
"B.	c #49341B",
"C.	c #985E38",
"D.	c #5C5451",
"E.	c #724C2B",
"F.	c #714B29",
"G.	c #413017",
"H.	c #A4663E",
"I.	c #46331A",
"J.	c #5B3F20",
"K.	c #734B28",
"L.	c #443219",
"M.	c #724C29",
"N.	c #5E4120",
"O.	c #7F502C",
"P.	c #5B4020",
"Q.	c #7F4F2C",
"R.	c #5C4020",
"S.	c #433119",
"T.	c #413118",
"U.	c #8E5B33",
"V.	c #7E4F2B",
"W.	c #80502E",
"X.	c #7F502D",
"Y.	c #5C4124",
"Z.	c #494847",
"`.	c #484747",
" +	c #5C4022",
".+	c #5D4021",
"++	c #6A4726",
"@+	c #494747",
"#+	c #555453",
"$+	c #494848",
"%+	c #2F2F2F",
"&+	c #2F2E2D",
"*+	c #302E2D",
"                                                                                                                                ",
"                                                                                                                                ",
"                                                                                                                                ",
"                                                                                                                                ",
"                                                                                                                                ",
"                                                                                                                                ",
"                                                                                                                                ",
"                                                                                                                                ",
"                                                                                                                                ",
"                                                                                                                                ",
"                                                                                                                                ",
"                                                                                                                                ",
"                                                                                                                                ",
"                                                                                                                                ",
"                                                                                                                                ",
"                                                                                                                                ",
"                                                                                                                                ",
"                                                                                                                                ",
"                                                                                                                                ",
"                                                                                                                                ",
"                                                                                                                                ",
"                                                                                                                                ",
"                                                                                                                                ",
"                                                                                                                                ",
"                                                                                                                                ",
"                                                                                                                                ",
"                                                                                                                                ",
"                                                                                                                                ",
"                                                                                                                                ",
"                                                                                                                                ",
"                                                                                                                                ",
"                                                      . +                 @ #                                                   ",
"                                                      $ % #             & * =                                                   ",
"                                                      - ; >             , ' )                                                   ",
"                                                        ! ~ { ]     ] { ^ /                                                     ",
"                                                        ( _ : < [ [ < : _ (                                                     ",
"                                                        } | 1 2 3 3 2 1 | 4                                                     ",
"                                                        5 6 7 8 2 2 8 9 0 a                                                     ",
"                                                      b c d e f g g h i j k l                                                   ",
"                                                      m c n o 8 p p q r s t l                                                   ",
"                                                      u = v w x 2 2 4 y z A l                                                   ",
"                                                        B v x C D E F G z H                                                     ",
"                                                        I J K D 4 _ E L s u                                                     ",
"                                                      u M N O P Q Q Q R S u t                                                   ",
"                                                      u M N T 0 Q Q Q 0 S U t                                                   ",
"                                                      b V N W ! E E E ! T O U                                                   ",
"                                                    u M X & Y Z D ! D `  ...O u                                                 ",
"                                                    u M X +.@.#.$.%.$.#.$.&.O u                                                 ",
"                                                    u M @ +.*.=.-.;.-.>.,.'.M u                                                 ",
"                                                    u M ).!.>.-.~.{.].{.^.T /.u                                                 ",
"                                                    (.M N _.:.Z {.E E <.$.[.u }.                                                ",
"                                                    t |.1.* 2.! 3.4.5.6.5 /.(.l                                                 ",
"                                                    7.8.|.9.0.a.b.b.b.c.# I d.e.                                                ",
"                                                      f.I g.B h.i.[ < j.* * u k.                                                ",
"                                                      l.g.c m.n.o.p.q.r.N * (.k.                                                ",
"                                                      s.t.c u.v.w.x.y., * > z.                                                  ",
"                                                      A.B.C.D.E.F.G.H.* # I.J.                                                  ",
"                                                      K.L.}.M.K.N.  V M O.L.P.                                                  ",
"                                                      Q.R.S.R.k.    M M O.L.P.                                                  ",
"                                                      u k.T.              L.k.                                                  ",
"                                                    M U.s.                V.V.f.                                                ",
"                                                    W.X.Y.Z.Q Q Q 1 1 1 `. +.+++@+1 1 1 1 1 Q Q ( E                             ",
"                                                    #+P $+Q _ _ w %+%+y y &+&+*+y y y y y y w w _ Q Q Q Q E E E                 ",
"                                                      E E E ( ( ( ( ( Q 1 1 1 1 1 1 1 1 1 1 Q Q Q Q ( E                         "};
