/* XPM */
static char * enemy0_4_xpm[] = {
"64 64 151 2",
"  	c None",
". 	c #A56740",
"+ 	c #83522D",
"@ 	c #A76740",
"# 	c #81512D",
"$ 	c #5B5553",
"% 	c #A56640",
"& 	c #A86840",
"* 	c #A6673F",
"= 	c #80512E",
"- 	c #585554",
"; 	c #A46641",
"> 	c #80502D",
", 	c #A5663F",
"' 	c #815230",
") 	c #575452",
"! 	c #575453",
"~ 	c #3F3B38",
"{ 	c #7D4F2C",
"] 	c #7E4F2C",
"^ 	c #423C39",
"/ 	c #555353",
"( 	c #535353",
"_ 	c #3A3A3A",
": 	c #322F2D",
"< 	c #312D2C",
"[ 	c #2C2C2C",
"} 	c #3F3B3A",
"| 	c #525252",
"1 	c #464646",
"2 	c #2D2D2D",
"3 	c #3B3B3B",
"4 	c #995F39",
"5 	c #4F4947",
"6 	c #2D2725",
"7 	c #2E2E2E",
"8 	c #383838",
"9 	c #4C4948",
"0 	c #545352",
"a 	c #81512C",
"b 	c #9B6038",
"c 	c #9A5F38",
"d 	c #555251",
"e 	c #474747",
"f 	c #985E38",
"g 	c #6C4927",
"h 	c #553C1C",
"i 	c #81502C",
"j 	c #9A5F37",
"k 	c #915D36",
"l 	c #AE6D42",
"m 	c #2F2825",
"n 	c #232323",
"o 	c #2B2624",
"p 	c #8C5A33",
"q 	c #6E4A27",
"r 	c #6B4824",
"s 	c #80502C",
"t 	c #413B39",
"u 	c #3C3C3C",
"v 	c #393939",
"w 	c #34302E",
"x 	c #555351",
"y 	c #6B4826",
"z 	c #7F502E",
"A 	c #595452",
"B 	c #3E3E3E",
"C 	c #878787",
"D 	c #555555",
"E 	c #545454",
"F 	c #787878",
"G 	c #333333",
"H 	c #565352",
"I 	c #82512D",
"J 	c #A46640",
"K 	c #4D4948",
"L 	c #4B4847",
"M 	c #8E5B36",
"N 	c #A66740",
"O 	c #504A47",
"P 	c #494949",
"Q 	c #484848",
"R 	c #895931",
"S 	c #A7673F",
"T 	c #8F5C37",
"U 	c #A56741",
"V 	c #5B5452",
"W 	c #7F502D",
"X 	c #6D4824",
"Y 	c #625652",
"Z 	c #A36743",
"` 	c #656362",
" .	c #595553",
"..	c #A56742",
"+.	c #6B6461",
"@.	c #565656",
"#.	c #676361",
"$.	c #97603D",
"%.	c #565555",
"&.	c #565453",
"*.	c #905C34",
"=.	c #A76840",
"-.	c #A46844",
";.	c #6A6461",
">.	c #97603E",
",.	c #5D5653",
"'.	c #565554",
").	c #895830",
"!.	c #A76841",
"~.	c #686462",
"{.	c #636363",
"].	c #666363",
"^.	c #656363",
"/.	c #865834",
"(.	c #7F502C",
"_.	c #774D29",
":.	c #A66841",
"<.	c #595654",
"[.	c #875831",
"}.	c #764D29",
"|.	c #414141",
"1.	c #B37044",
"2.	c #9C603A",
"3.	c #555453",
"4.	c #875832",
"5.	c #9B6039",
"6.	c #9A5F39",
"7.	c #885830",
"8.	c #585453",
"9.	c #494948",
"0.	c #5A5553",
"a.	c #9A6039",
"b.	c #875730",
"c.	c #3D3937",
"d.	c #646464",
"e.	c #604224",
"f.	c #5C4123",
"g.	c #535352",
"h.	c #3B3A39",
"i.	c #5E4224",
"j.	c #6F4925",
"k.	c #5B4021",
"l.	c #2E2D2C",
"m.	c #4A4A4A",
"n.	c #754C28",
"o.	c #5C4021",
"p.	c #302E2D",
"q.	c #2F2D2C",
"r.	c #5D4021",
"s.	c #895831",
"t.	c #6E4925",
"                                                                                                                                ",
"                                                                                                                                ",
"                                                                                                                                ",
"                                                                                                                                ",
"                                                                                                                                ",
"                                                                                                                                ",
"                                                                                                                                ",
"                                                                                                                                ",
"                                                                                                                                ",
"                                                                                                                                ",
"                                                                                                                                ",
"                                                                                                                                ",
"                                                                                                                                ",
"                                                                                                                                ",
"                                                                                                                                ",
"                                                                                                                                ",
"                                                                                                                                ",
"                                                                                                                                ",
"                                                                                                                                ",
"                                                                                                                                ",
"                                                                                                                                ",
"                                                                                                                                ",
"                                                                                                                                ",
"                                                                                                                                ",
"                                                                                                                                ",
"                                                                                                                                ",
"                                                                                                                                ",
"                                                                                                                                ",
"                                                                                                                                ",
"                                                                                                                                ",
"                                                                                                                                ",
"                                                                                                                                ",
"                                                                                                                                ",
"                                                                                                                                ",
"                                                      . +                 @ #                                                   ",
"                                                      $ % #             & * =                                                   ",
"                                                      - ; >             , ' )                                                   ",
"                                                        ! ~ { ]     ] { ^ /                                                     ",
"                                                        ( _ : < [ [ < : _ (                                                     ",
"                                                        } | 1 2 [ [ 2 1 | 3                                                     ",
"                                                        4 5 6 7 8 8 7 6 9 0                                                     ",
"                                                      a b c 4 d e e d f f g h                                                   ",
"                                                      i j k l m n n o p q r h                                                   ",
"                                                      s = ) t u v v _ w x y h                                                   ",
"                                                        z A B C D E F G H g                                                     ",
"                                                      s I J K D 3 _ E L M s s                                                   ",
"                                                      # b N O P Q Q P K % = s                                                   ",
"                                                      R S N T ! E E E - U V W X                                                 ",
"                                                    a b N Y Z ` D ! D ` Z  .W X                                                 ",
"                                                    a b & ..+.@.#.$.#.%.- &.W X                                                 ",
"                                                    s *.=.& -.;.>.,.>.` '.) W X                                                 ",
"                                                    s ).=.!.+.>.~.{.].^./.z (.X                                                 ",
"                                                    s _.S :.<.` {.D E '.[.s X                                                   ",
"                                                      }.S :.- E P Q P &.[.s X                                                   ",
"                                                        & :.- ( |.|.( &.[.s                                                     ",
"                                                        1.:.! |.8 8 |.&.[.s                                                     ",
"                                                        1.2.&.v 8 8 v 3.4.s                                                     ",
"                                                        1.5.!         ! 6.7.                                                    ",
"                                                        1.5.!         ! 6.).                                                    ",
"                                                        1.5.!         ! 6.).                                                    ",
"                                                        1.2.!         ! 6.).                                                    ",
"                                                        1.:.8.  {.E 9.0.a.b.c.8 8 8 e e Q ( ( E {.{.d.                          ",
"                                                      & & * e.f.g.h.i.J * j.k.l.[ [ 2 7 7 v _ _ P m.D D d.d.d.d.                ",
"                                                      & & S n.o.p.q.r.s.* t.o.l.[ [ 8 e e Q ( ( E {.d.d.                        "};
