/* XPM */
static char * test_xpm[] = {
"32 32 540 2",
"  	c #694136",
". 	c #6A4136",
"+ 	c #6A4236",
"@ 	c #633E36",
"# 	c #684136",
"$ 	c #4E3833",
"% 	c #343131",
"& 	c #664036",
"* 	c #694236",
"= 	c #473632",
"- 	c #633F35",
"; 	c #4F3833",
"> 	c #624133",
", 	c #553B33",
"' 	c #5C3D34",
") 	c #613F35",
"! 	c #613E35",
"~ 	c #744736",
"{ 	c #754737",
"] 	c #784837",
"^ 	c #764736",
"/ 	c #774837",
"( 	c #784937",
"_ 	c #794937",
": 	c #5E3930",
"< 	c #3B3230",
"[ 	c #654135",
"} 	c #6F4536",
"| 	c #6E4436",
"1 	c #533A33",
"2 	c #6C4335",
"3 	c #693F35",
"4 	c #453532",
"5 	c #7B4E30",
"6 	c #3F3431",
"7 	c #493732",
"8 	c #513A33",
"9 	c #3E3231",
"0 	c #433231",
"a 	c #623D33",
"b 	c #714235",
"c 	c #513132",
"d 	c #523232",
"e 	c #513232",
"f 	c #5E3735",
"g 	c #D07A30",
"h 	c #573433",
"i 	c #593534",
"j 	c #5D3735",
"k 	c #563634",
"l 	c #553533",
"m 	c #493232",
"n 	c #323130",
"o 	c #363131",
"p 	c #834F31",
"q 	c #734532",
"r 	c #7C4932",
"s 	c #7B4832",
"t 	c #633C32",
"u 	c #423331",
"v 	c #593633",
"w 	c #4C3332",
"x 	c #413430",
"y 	c #664430",
"z 	c #393230",
"A 	c #373230",
"B 	c #383230",
"C 	c #553C31",
"D 	c #543533",
"E 	c #383131",
"F 	c #3C3230",
"G 	c #9B5B32",
"H 	c #5A3534",
"I 	c #533232",
"J 	c #5C3634",
"K 	c #5B3534",
"L 	c #794731",
"M 	c #AB6430",
"N 	c #463431",
"O 	c #453332",
"P 	c #333130",
"Q 	c #4F3333",
"R 	c #AB6531",
"S 	c #8F5332",
"T 	c #A86231",
"U 	c #8E5332",
"V 	c #603F31",
"W 	c #A05D32",
"X 	c #513931",
"Y 	c #3E3330",
"Z 	c #5D4030",
"` 	c #523931",
" .	c #3B3131",
"..	c #473631",
"+.	c #9F6030",
"@.	c #493830",
"#.	c #5F3F2F",
"$.	c #895028",
"%.	c #B96C2D",
"&.	c #AB642C",
"*.	c #A5612C",
"=.	c #684530",
"-.	c #3C3430",
";.	c #433630",
">.	c #B06831",
",.	c #9F5D32",
"'.	c #A96332",
").	c #B86C31",
"!.	c #B66B31",
"~.	c #B76C31",
"{.	c #B16831",
"].	c #A15F31",
"^.	c #C67431",
"/.	c #684431",
"(.	c #614131",
"_.	c #483830",
":.	c #5C3F30",
"<.	c #593E30",
"[.	c #6B432B",
"}.	c #4B3832",
"|.	c #423431",
"1.	c #83502D",
"2.	c #905636",
"3.	c #774838",
"4.	c #764737",
"5.	c #6C4336",
"6.	c #363231",
"7.	c #5E3E34",
"8.	c #744637",
"9.	c #764837",
"0.	c #7A4A37",
"a.	c #844F36",
"b.	c #6A3E2B",
"c.	c #6C4535",
"d.	c #754935",
"e.	c #624035",
"f.	c #403431",
"g.	c #433531",
"h.	c #C97630",
"i.	c #473232",
"j.	c #393131",
"k.	c #6D4730",
"l.	c #523433",
"m.	c #804B33",
"n.	c #814B34",
"o.	c #593433",
"p.	c #3C3231",
"q.	c #513C30",
"r.	c #4A3332",
"s.	c #463131",
"t.	c #573434",
"u.	c #583433",
"v.	c #503332",
"w.	c #4D3332",
"x.	c #5D3634",
"y.	c #5A3533",
"z.	c #403231",
"A.	c #624330",
"B.	c #463232",
"C.	c #593634",
"D.	c #7B4831",
"E.	c #8D5331",
"F.	c #413231",
"G.	c #373131",
"H.	c #9A5D30",
"I.	c #443232",
"J.	c #523332",
"K.	c #543333",
"L.	c #563333",
"M.	c #C4732F",
"N.	c #B66C30",
"O.	c #9E5F30",
"P.	c #5F4130",
"Q.	c #644330",
"R.	c #A06030",
"S.	c #BC6F30",
"T.	c #5D4130",
"U.	c #794D30",
"V.	c #734A30",
"W.	c #875430",
"X.	c #784C30",
"Y.	c #764636",
"Z.	c #744636",
"`.	c #4F3932",
" +	c #754636",
".+	c #714536",
"++	c #61412F",
"@+	c #4E3A31",
"#+	c #5E3E33",
"$+	c #664134",
"%+	c #774737",
"&+	c #553A33",
"*+	c #3D3331",
"=+	c #6D4336",
"-+	c #9B5B2B",
";+	c #694235",
">+	c #4E3832",
",+	c #5D3D33",
"'+	c #563433",
")+	c #533533",
"!+	c #353131",
"~+	c #4B3531",
"{+	c #513731",
"]+	c #4C3432",
"^+	c #674530",
"/+	c #674231",
"(+	c #905532",
"_+	c #7E4A32",
":+	c #6D4035",
"<+	c #573933",
"[+	c #423531",
"}+	c #483532",
"|+	c #5B3634",
"1+	c #5A3635",
"2+	c #443231",
"3+	c #343130",
"4+	c #473332",
"5+	c #794733",
"6+	c #734431",
"7+	c #8F5432",
"8+	c #905433",
"9+	c #523B31",
"0+	c #553B31",
"a+	c #573B31",
"b+	c #433331",
"c+	c #744B30",
"d+	c #A15F32",
"e+	c #AB6432",
"f+	c #A35F32",
"g+	c #9E5C31",
"h+	c #844E32",
"i+	c #453631",
"j+	c #443531",
"k+	c #844D33",
"l+	c #7F4A33",
"m+	c #9F5D31",
"n+	c #925632",
"o+	c #543A31",
"p+	c #4A3731",
"q+	c #3D3330",
"r+	c #453730",
"s+	c #3C3131",
"t+	c #433232",
"u+	c #503433",
"v+	c #5D3635",
"w+	c #543D30",
"x+	c #7C4E30",
"y+	c #764C30",
"z+	c #4A3830",
"A+	c #C27230",
"B+	c #8E5730",
"C+	c #563D30",
"D+	c #553D30",
"E+	c #503B30",
"F+	c #9B5E30",
"G+	c #774736",
"H+	c #9D5D34",
"I+	c #834E36",
"J+	c #6F4333",
"K+	c #452E29",
"L+	c #353130",
"M+	c #503932",
"N+	c #5B3D34",
"O+	c #654034",
"P+	c #AB642D",
"Q+	c #573B33",
"R+	c #593D33",
"S+	c #503933",
"T+	c #4B2D28",
"U+	c #5B3533",
"V+	c #573534",
"W+	c #553634",
"X+	c #593533",
"Y+	c #4C3433",
"Z+	c #3F3231",
"`+	c #4A3432",
" @	c #905830",
".@	c #5F3835",
"+@	c #6B3F35",
"@@	c #6D4034",
"#@	c #915433",
"$@	c #693D34",
"%@	c #553332",
"&@	c #714134",
"*@	c #533433",
"=@	c #744431",
"-@	c #5F3833",
";@	c #885032",
">@	c #874F32",
",@	c #764831",
"'@	c #533B31",
")@	c #6D4532",
"!@	c #4D3232",
"~@	c #4F3030",
"{@	c #875132",
"]@	c #935632",
"^@	c #985931",
"/@	c #AE6632",
"(@	c #7D4932",
"_@	c #714930",
":@	c #915930",
"<@	c #4E3A30",
"[@	c #A56330",
"}@	c #7F4C37",
"|@	c #804C37",
"1@	c #965936",
"2@	c #804D37",
"3@	c #A76234",
"4@	c #4C3832",
"5@	c #734634",
"6@	c #96582B",
"7@	c #A05F35",
"8@	c #955936",
"9@	c #804E37",
"0@	c #865036",
"a@	c #9A5B35",
"b@	c #674134",
"c@	c #393330",
"d@	c #533A32",
"e@	c #7A4936",
"f@	c #7D4B36",
"g@	c #7D4B37",
"h@	c #7E4D37",
"i@	c #7C4B37",
"j@	c #492D26",
"k@	c #7F4D37",
"l@	c #7E4C37",
"m@	c #784836",
"n@	c #804B34",
"o@	c #6A3F34",
"p@	c #9B5A33",
"q@	c #925533",
"r@	c #343030",
"s@	c #583534",
"t@	c #573333",
"u@	c #673D32",
"v@	c #5A3D31",
"w@	c #463631",
"x@	c #7F4A32",
"y@	c #543232",
"z@	c #8D5234",
"A@	c #B06731",
"B@	c #8C5630",
"C@	c #333030",
"D@	c #854E32",
"E@	c #844E31",
"F@	c #593434",
"G@	c #845230",
"H@	c #8F5730",
"I@	c #604230",
"J@	c #AA6530",
"K@	c #764734",
"L@	c #4E2F27",
"M@	c #7C4C37",
"N@	c #583D33",
"O@	c #6D4636",
"P@	c #804D38",
"Q@	c #7E4C36",
"R@	c #AC642C",
"S@	c #9B5B35",
"T@	c #654331",
"U@	c #604033",
"V@	c #91552B",
"W@	c #885237",
"X@	c #A76335",
"Y@	c #885236",
"Z@	c #8C522B",
"`@	c #5D3734",
" #	c #874F29",
".#	c #593A33",
"+#	c #423232",
"@#	c #543332",
"##	c #B66B2E",
"$#	c #463630",
"%#	c #C0702E",
"&#	c #8F5433",
"*#	c #9A5A2B",
"=#	c #623933",
"-#	c #8B5232",
";#	c #844D34",
">#	c #4F3732",
",#	c #583B31",
"'#	c #6B3E34",
")#	c #643B32",
"!#	c #BE702E",
"~#	c #895134",
"{#	c #714234",
"]#	c #784733",
"^#	c #774435",
"/#	c #824F31",
"(#	c #403430",
"_#	c #814C32",
":#	c #B0672D",
"<#	c #6D3F34",
"[#	c #683D33",
"}#	c #9E5C29",
"|#	c #A45F2A",
"1#	c #995929",
"2#	c #A7622A",
"3#	c #A4612B",
"4#	c #62402C",
"5#	c #6E4024",
"6#	c #6F4025",
"7#	c #854E27",
"8#	c #854D27",
"9#	c #915528",
"0#	c #7A4726",
"a#	c #9E5D28",
"b#	c #8C5129",
"c#	c #874F27",
"d#	c #673C24",
"e#	c #704125",
"f#	c #613924",
"g#	c #8E5429",
"h#	c #5E3E2C",
"i#	c #824C28",
"j#	c #BA6D2C",
"k#	c #AF662C",
"l#	c #BA6D2D",
"m#	c #B76B2D",
"n#	c #B3692C",
"o#	c #A8622A",
"p#	c #3F3130",
"q#	c #3E302F",
"r#	c #7B642E",
"s#	c #FDCF0D",
"t#	c #F4C811",
"u#	c #CDA91E",
"v#	c #8F7528",
"w#	c #3E3130",
"x#	c #3E3030",
"y#	c #53432F",
"z#	c #C29D24",
"A#	c #F9C712",
"B#	c #FAC712",
"C#	c #F8C70F",
"D#	c #BB9821",
"E#	c #41312F",
"F#	c #A68229",
"G#	c #FCCD0D",
"H#	c #FCCC0C",
"I#	c #FCCB0D",
"J#	c #D3AD1B",
"K#	c #3E312F",
"L#	c #573A2F",
"M#	c #68422F",
"N#	c #8C612E",
"O#	c #F6C315",
"P#	c #F6C316",
"Q#	c #F6C116",
"R#	c #E5B31C",
"S#	c #85652B",
"T#	c #261A1B",
"U#	c #866617",
"V#	c #E8AB09",
"W#	c #F5B505",
"X#	c #ECAE07",
"Y#	c #9D7415",
"Z#	c #27191B",
"`#	c #26191B",
" $	c #52421A",
".$	c #BA8F12",
"+$	c #F5B405",
"@$	c #F5B404",
"#$	c #F4B405",
"$$	c #B28213",
"%$	c #9D7416",
"&$	c #CF980E",
"*$	c #271A1B",
"=$	c #846117",
"-$	c #E8AB08",
";$	c #F5B504",
">$	c #D99F0D",
",$	c #63461A",
"'$	c #866417",
")$	c #E3A70A",
"!$	c #E7AA0A",
"~$	c #856118",
"{$	c #CF9B0E",
"]$	c #B98A12",
"^$	c #B38713",
"/$	c #F0B006",
"($	c #C9940F",
"_$	c #543D1A",
":$	c #855F18",
"<$	c #D99F0C",
"[$	c #6F5019",
"}$	c #E8AA08",
"|$	c #70501A",
"1$	c #C99410",
"2$	c #B88812",
"3$	c #382B1A",
"4$	c #B28613",
"5$	c #F1B106",
"6$	c #CF9D0E",
"7$	c #54411A",
"8$	c #705119",
"9$	c #E9AB08",
"0$	c #E2A60A",
"a$	c #634819",
"b$	c #58431A",
"c$	c #D09B0E",
"d$	c #EDAE08",
"e$	c #9A6F17",
"f$	c #44341A",
"g$	c #BA8E12",
"h$	c #C79411",
"i$	c #997D15",
"j$	c #E3A90A",
"k$	c #624519",
"l$	c #E2A60B",
"m$	c #E4A80A",
"n$	c #846017",
"o$	c #553E1A",
"p$	c #C9930F",
"q$	c #ECAD08",
"r$	c #9E7316",
"s$	c #B78712",
"t$	c #CE9C0F",
"u$	c #957316",
"v$	c #F4B705",
"w$	c #DAA10C",
"x$	c #665419",
"y$	c #866317",
"z$	c #DBA10E",
"A$	c #846018",
"B$	c #A85F15",
"C$	c #D68A0E",
"D$	c #D58A0E",
"E$	c #D58A0D",
"F$	c #976D16",
"G$	c #894717",
"H$	c #B57E13",
"I$	c #57441A",
"J$	c #793F19",
"K$	c #CB840F",
"L$	c #D68B0D",
"M$	c #C48311",
"N$	c #6F3919",
"O$	c #C07A12",
"    . . +         @ #   . . .     $ % & * + + = - . ; > , ' ) ! ",
"~ { ] ] ^ / ( _ _ : ( ] ] ] ] ] ' % < [ } ] | 1 2 3 4 5 6 6 7 8 ",
"9 0 a b c c d e f g h i j k l m n o p q r s t u v w x y z A B C ",
"D E F G H H I h J g K L M N O P E Q R S S T U V W X Y Z z `  ...",
"g +.@.#.g g g g $.%.&.&.*.=.-.;.>.,.'.).!.~.{.].^./.(._.:.<._.[.",
"/ / }.|.1.2.2.3.3./ 4.4.5.z 6.7.8.9.{ { 0.a.b.c.d.e.8 7 f.g.}.h.",
"j j i.j.k.l.m.n.j i o.j p.q.r.s.t.d j j u.J g o.o.o.o.o.v.w.o.g ",
"x.x.y.z.A.B.C.D.E.K K F.G.H.C.I.J.K.K.L.K J M.o.o.o.o.o.o.o.o.N.",
"g g g O.P.Q.R.g g S.k.T.U.S.g V.W.g g g g g g g g g g g g h.N.X.",
"^ ^ Y.Z.`.f.4  +.+++@+#+$+%+%+&+*+=+-+/ / / %+^ ^ ^ ^ -+;+>+g.,+",
"H y.i '+)+!+~+{+]+^+/+(+_+:+:+<+[+}+g |+|+j j j 1+k 2+Q.3+E 4+j ",
"K 5+6+7+8+9+0+a+b+c+d+e+f+g+S h+i+j+g k+l+m+n+m+o+p+q+r+s+t+u+v+",
"g g g g g H._.w+x+N.g g g g g S.y+z+A+g g g B+C+D+r+E+F+N.g g g ",
"G+H+I+J+K+, L+M+N+O+^ { { P+^ .+Q+L+R+4.5.S+3+*+i+,+ +Y.Y.Y.Y.T+",
"n.n.'+U+S.V+E s+W+k k j j g 8+X+Y+!+Z+`+O 4+ @B.r..@+@@@j j j g ",
"#@$@%@&@g i s. .*@=@-@v+v+g ;@>@,@'@;.)@!@~@S.{@]@^@/@g+(@'+|+g ",
"g g g g g g  @_@h.g g g g g g g N.:@<@[@g g S.g g g g g g g g g ",
"}@|@1@2@3@2@4@i+5@6@7@8@9@2@}@0@a@b@c@d@e@f@f@g@h@h@i@j@k@l@g@m@",
"f j i i n.n@ .j.X+g o@m.p@q@5+|+n.n.y r@H +@.@j j X+|+g H H j j ",
"j s@t@t@v+u@v@w@x@g H K y@z@A@(@j #@B@C@*@D@E@X+h F@|+g H H x.v+",
"g g g g g g G@H@g g g g g g g g g g g I@J@g g g g g g g g g g g ",
"}@}@l@K@L@M@N@O@P@Q@l@2@}@R@2@2@}@|@S@T@U@}@V@W@X@Y@}@}@l@}@l@Z@",
"j `@u.J  #.#+#m J K.@#|+j ##|+H X+J j z.$#r %#j u.&#j h `@X+%@*#",
"=#-#>@;#*#>#,#r '#)#u.H x.!#~#{#]#m.^#/#(#_#:#x.K K <#[#u.I y@ #",
"}#|#1#2#3#4#5#6#7#8#9#7#0#a#b#c#d#e#f#g#h#i#j#k#l#m#n#n#m#m#n#o#",
"p#q#r#s#t#u#v#w#x#y#z#A#B#C#D#w#q#E#F#G#H#I#J#K#L#M#N#O#P#Q#R#S#",
"T#U#V#W#X#Y#Z#`# $.$+$@$#$$$T#`#`#%$+$+$+$&$*$`#`#=$-$;$@$>$,$*$",
"'$)$+$!$~$`#T#`#{$+$@$W#]$`#`#`#^$/$+$+$($_$`#`#:$)$+$@$<$[$`#`#",
"}$+$;$|$*$`#Z#1$+$@$+$2$3$T#`#4$5$#$+$6$7$`#`#8$9$@$+$0$a$`#`#`#",
"@$!$[$`#`#b$c$;$@$d$e$T#T#f$g$W#@$;$h$`#`#`#i$+$@$@$j$`#`#`#k$l$",
"m$n$T#`#o$p$+$@$q$r$`#`#`#s$@$@$+$t$`#`#`#u$v$@$@$w$x$`#`#y$z$@$",
"A$`#`#Z#B$C$D$E$F$T#`#`#G$D$D$C$H$I$`#`#J$K$L$L$M$8$T#`#N$O$D$E$"};
